%TF.GenerationSoftware,KiCad,Pcbnew,7.0.8*%
%TF.CreationDate,2025-07-22T03:59:44-04:00*%
%TF.ProjectId,Innostemlab_pcb_v4,496e6e6f-7374-4656-9d6c-61625f706362,rev?*%
%TF.SameCoordinates,Original*%
%TF.FileFunction,Copper,L1,Top*%
%TF.FilePolarity,Positive*%
%FSLAX46Y46*%
G04 Gerber Fmt 4.6, Leading zero omitted, Abs format (unit mm)*
G04 Created by KiCad (PCBNEW 7.0.8) date 2025-07-22 03:59:44*
%MOMM*%
%LPD*%
G01*
G04 APERTURE LIST*
G04 Aperture macros list*
%AMRoundRect*
0 Rectangle with rounded corners*
0 $1 Rounding radius*
0 $2 $3 $4 $5 $6 $7 $8 $9 X,Y pos of 4 corners*
0 Add a 4 corners polygon primitive as box body*
4,1,4,$2,$3,$4,$5,$6,$7,$8,$9,$2,$3,0*
0 Add four circle primitives for the rounded corners*
1,1,$1+$1,$2,$3*
1,1,$1+$1,$4,$5*
1,1,$1+$1,$6,$7*
1,1,$1+$1,$8,$9*
0 Add four rect primitives between the rounded corners*
20,1,$1+$1,$2,$3,$4,$5,0*
20,1,$1+$1,$4,$5,$6,$7,0*
20,1,$1+$1,$6,$7,$8,$9,0*
20,1,$1+$1,$8,$9,$2,$3,0*%
G04 Aperture macros list end*
%TA.AperFunction,ComponentPad*%
%ADD10C,1.500000*%
%TD*%
%TA.AperFunction,SMDPad,CuDef*%
%ADD11RoundRect,0.250000X-0.450000X0.325000X-0.450000X-0.325000X0.450000X-0.325000X0.450000X0.325000X0*%
%TD*%
%TA.AperFunction,ComponentPad*%
%ADD12R,1.700000X1.700000*%
%TD*%
%TA.AperFunction,ComponentPad*%
%ADD13O,1.700000X1.700000*%
%TD*%
%TA.AperFunction,SMDPad,CuDef*%
%ADD14RoundRect,0.250000X-0.325000X-0.450000X0.325000X-0.450000X0.325000X0.450000X-0.325000X0.450000X0*%
%TD*%
%TA.AperFunction,SMDPad,CuDef*%
%ADD15RoundRect,0.250000X-0.350000X-0.450000X0.350000X-0.450000X0.350000X0.450000X-0.350000X0.450000X0*%
%TD*%
%TA.AperFunction,ComponentPad*%
%ADD16RoundRect,0.250000X0.750000X-0.600000X0.750000X0.600000X-0.750000X0.600000X-0.750000X-0.600000X0*%
%TD*%
%TA.AperFunction,ComponentPad*%
%ADD17O,2.000000X1.700000*%
%TD*%
%TA.AperFunction,SMDPad,CuDef*%
%ADD18RoundRect,0.250000X0.337500X0.475000X-0.337500X0.475000X-0.337500X-0.475000X0.337500X-0.475000X0*%
%TD*%
%TA.AperFunction,SMDPad,CuDef*%
%ADD19O,0.990600X1.803400*%
%TD*%
%TA.AperFunction,SMDPad,CuDef*%
%ADD20O,0.990600X2.108200*%
%TD*%
%TA.AperFunction,SMDPad,CuDef*%
%ADD21R,0.584200X1.143000*%
%TD*%
%TA.AperFunction,SMDPad,CuDef*%
%ADD22R,0.304800X1.143000*%
%TD*%
%TA.AperFunction,SMDPad,CuDef*%
%ADD23RoundRect,0.250000X0.475000X-0.337500X0.475000X0.337500X-0.475000X0.337500X-0.475000X-0.337500X0*%
%TD*%
%TA.AperFunction,SMDPad,CuDef*%
%ADD24RoundRect,0.250000X-0.475000X0.337500X-0.475000X-0.337500X0.475000X-0.337500X0.475000X0.337500X0*%
%TD*%
%TA.AperFunction,SMDPad,CuDef*%
%ADD25RoundRect,0.250000X0.350000X0.450000X-0.350000X0.450000X-0.350000X-0.450000X0.350000X-0.450000X0*%
%TD*%
%TA.AperFunction,ComponentPad*%
%ADD26O,2.400000X1.200000*%
%TD*%
%TA.AperFunction,ComponentPad*%
%ADD27C,1.508000*%
%TD*%
%TA.AperFunction,ComponentPad*%
%ADD28R,1.508000X1.508000*%
%TD*%
%TA.AperFunction,SMDPad,CuDef*%
%ADD29R,1.500000X2.000000*%
%TD*%
%TA.AperFunction,SMDPad,CuDef*%
%ADD30R,3.800000X2.000000*%
%TD*%
%TA.AperFunction,SMDPad,CuDef*%
%ADD31R,0.450000X1.750000*%
%TD*%
%TA.AperFunction,ComponentPad*%
%ADD32RoundRect,0.250000X-0.600000X-0.750000X0.600000X-0.750000X0.600000X0.750000X-0.600000X0.750000X0*%
%TD*%
%TA.AperFunction,ComponentPad*%
%ADD33O,1.700000X2.000000*%
%TD*%
%TA.AperFunction,SMDPad,CuDef*%
%ADD34R,1.600000X0.550000*%
%TD*%
%TA.AperFunction,SMDPad,CuDef*%
%ADD35R,0.550000X1.600000*%
%TD*%
%TA.AperFunction,SMDPad,CuDef*%
%ADD36RoundRect,0.250000X-0.337500X-0.475000X0.337500X-0.475000X0.337500X0.475000X-0.337500X0.475000X0*%
%TD*%
%TA.AperFunction,ComponentPad*%
%ADD37RoundRect,0.250000X-0.750000X0.600000X-0.750000X-0.600000X0.750000X-0.600000X0.750000X0.600000X0*%
%TD*%
%TA.AperFunction,SMDPad,CuDef*%
%ADD38R,1.200000X0.400000*%
%TD*%
%TA.AperFunction,SMDPad,CuDef*%
%ADD39R,1.100000X1.000000*%
%TD*%
%TA.AperFunction,ViaPad*%
%ADD40C,0.800000*%
%TD*%
%TA.AperFunction,Conductor*%
%ADD41C,0.250000*%
%TD*%
%TA.AperFunction,Conductor*%
%ADD42C,0.200000*%
%TD*%
G04 APERTURE END LIST*
D10*
%TO.P,Y1,1,1*%
%TO.N,Net-(U1-XTAL2{slash}PB7)*%
X166624000Y-103582000D03*
%TO.P,Y1,2,2*%
%TO.N,Net-(U1-XTAL1{slash}PB6)*%
X166624000Y-108462000D03*
%TD*%
D11*
%TO.P,D1,1,K*%
%TO.N,GND*%
X142212500Y-108950000D03*
%TO.P,D1,2,A*%
%TO.N,Net-(D1-A)*%
X142212500Y-111000000D03*
%TD*%
D12*
%TO.P,J8,1,Pin_1*%
%TO.N,D13*%
X161046400Y-122529600D03*
D13*
%TO.P,J8,2,Pin_2*%
%TO.N,GND*%
X163586400Y-122529600D03*
%TO.P,J8,3,Pin_3*%
%TO.N,VBUS*%
X166126400Y-122529600D03*
%TD*%
D14*
%TO.P,D2,2,A*%
%TO.N,Net-(D2-A)*%
X123800000Y-108750000D03*
%TO.P,D2,1,K*%
%TO.N,GND*%
X121750000Y-108750000D03*
%TD*%
D15*
%TO.P,R5,1*%
%TO.N,D13*%
X148250000Y-100750000D03*
%TO.P,R5,2*%
%TO.N,Net-(D3-A)*%
X150250000Y-100750000D03*
%TD*%
D12*
%TO.P,J9,1,Pin_1*%
%TO.N,D0*%
X140716000Y-92202000D03*
D13*
%TO.P,J9,2,Pin_2*%
%TO.N,AREF*%
X140716000Y-89662000D03*
%TO.P,J9,3,Pin_3*%
%TO.N,D1*%
X143256000Y-92202000D03*
%TO.P,J9,4,Pin_4*%
%TO.N,VBATP*%
X143256000Y-89662000D03*
%TO.P,J9,5,Pin_5*%
%TO.N,D2*%
X145796000Y-92202000D03*
%TO.P,J9,6,Pin_6*%
%TO.N,GND*%
X145796000Y-89662000D03*
%TO.P,J9,7,Pin_7*%
%TO.N,D5*%
X148336000Y-92202000D03*
%TO.P,J9,8,Pin_8*%
%TO.N,GND*%
X148336000Y-89662000D03*
%TO.P,J9,9,Pin_9*%
%TO.N,D6*%
X150876000Y-92202000D03*
%TO.P,J9,10,Pin_10*%
%TO.N,VBUS*%
X150876000Y-89662000D03*
%TO.P,J9,11,Pin_11*%
%TO.N,D7*%
X153416000Y-92202000D03*
%TO.P,J9,12,Pin_12*%
%TO.N,VBUS*%
X153416000Y-89662000D03*
%TO.P,J9,13,Pin_13*%
%TO.N,D8*%
X155956000Y-92202000D03*
%TO.P,J9,14,Pin_14*%
%TO.N,A0*%
X155956000Y-89662000D03*
%TO.P,J9,15,Pin_15*%
%TO.N,D9*%
X158496000Y-92202000D03*
%TO.P,J9,16,Pin_16*%
%TO.N,A1*%
X158496000Y-89662000D03*
%TO.P,J9,17,Pin_17*%
%TO.N,D10*%
X161036000Y-92202000D03*
%TO.P,J9,18,Pin_18*%
%TO.N,A2*%
X161036000Y-89662000D03*
%TO.P,J9,19,Pin_19*%
%TO.N,D11*%
X163576000Y-92202000D03*
%TO.P,J9,20,Pin_20*%
%TO.N,A3*%
X163576000Y-89662000D03*
%TO.P,J9,21,Pin_21*%
%TO.N,D12*%
X166116000Y-92202000D03*
%TO.P,J9,22,Pin_22*%
%TO.N,A4*%
X166116000Y-89662000D03*
%TO.P,J9,23,Pin_23*%
%TO.N,D13*%
X168656000Y-92202000D03*
%TO.P,J9,24,Pin_24*%
%TO.N,A5*%
X168656000Y-89662000D03*
%TD*%
D16*
%TO.P,J5,1,Pin_1*%
%TO.N,M2P*%
X173817000Y-123703400D03*
D17*
%TO.P,J5,2,Pin_2*%
%TO.N,M2N*%
X173817000Y-121203400D03*
%TD*%
D15*
%TO.P,Pullup1,2*%
%TO.N,Net-(U1-~{RESET}{slash}PC6)*%
X142212500Y-115000000D03*
%TO.P,Pullup1,1*%
%TO.N,VBUS*%
X140212500Y-115000000D03*
%TD*%
D12*
%TO.P,J10,1,Pin_1*%
%TO.N,A4*%
X173685200Y-107442000D03*
D13*
%TO.P,J10,2,Pin_2*%
%TO.N,A5*%
X173685200Y-109982000D03*
%TO.P,J10,3,Pin_3*%
%TO.N,GND*%
X173685200Y-112522000D03*
%TO.P,J10,4,Pin_4*%
%TO.N,VBUS*%
X173685200Y-115062000D03*
%TD*%
D18*
%TO.P,C4,1*%
%TO.N,GND*%
X142000000Y-125000000D03*
%TO.P,C4,2*%
%TO.N,VBUS*%
X139925000Y-125000000D03*
%TD*%
D19*
%TO.P,J2,13*%
%TO.N,N/C*%
X129429998Y-135000000D03*
%TO.P,J2,14*%
X138070002Y-135000000D03*
D20*
%TO.P,J2,15*%
X129429998Y-130820000D03*
%TO.P,J2,16*%
X138070002Y-130820000D03*
D21*
%TO.P,J2,A1-B12,GND*%
%TO.N,GND*%
X130550000Y-130245000D03*
%TO.P,J2,A4-B9,VBUS*%
%TO.N,VBUS*%
X131349999Y-130245000D03*
D22*
%TO.P,J2,A5,CC1*%
%TO.N,Net-(J2-CC1)*%
X132500000Y-130245000D03*
%TO.P,J2,A6,DP1*%
%TO.N,D+*%
X133500000Y-130245000D03*
%TO.P,J2,A7,DN1*%
%TO.N,D-*%
X134000000Y-130245000D03*
%TO.P,J2,A8,SBU1*%
%TO.N,unconnected-(J2-SBU1-PadA8)*%
X135000000Y-130245000D03*
D21*
%TO.P,J2,B1-A12,GND*%
%TO.N,GND*%
X136950000Y-130245000D03*
%TO.P,J2,B4-A9,VBUS*%
%TO.N,VBUS*%
X136150001Y-130245000D03*
D22*
%TO.P,J2,B5,CC2*%
%TO.N,Net-(J2-CC2)*%
X135499999Y-130245000D03*
%TO.P,J2,B6,DP2*%
%TO.N,D+*%
X134500001Y-130245000D03*
%TO.P,J2,B7,DN2*%
%TO.N,D-*%
X132999999Y-130245000D03*
%TO.P,J2,B8,SBU2*%
%TO.N,unconnected-(J2-SBU2-PadB8)*%
X132000001Y-130245000D03*
%TD*%
D23*
%TO.P,C2,1*%
%TO.N,Net-(U1-XTAL2{slash}PB7)*%
X162052000Y-105016000D03*
%TO.P,C2,2*%
%TO.N,GND*%
X162052000Y-102941000D03*
%TD*%
D24*
%TO.P,C7,1*%
%TO.N,Net-(SW3-C)*%
X134200000Y-102162500D03*
%TO.P,C7,2*%
%TO.N,GND*%
X134200000Y-104237500D03*
%TD*%
D25*
%TO.P,R4,2*%
%TO.N,Net-(D2-A)*%
X125770000Y-108750000D03*
%TO.P,R4,1*%
%TO.N,D1*%
X127770000Y-108750000D03*
%TD*%
D26*
%TO.P,SW3,SH2*%
%TO.N,N/C*%
X123750000Y-103750000D03*
%TO.P,SW3,SH1*%
X123750000Y-92150000D03*
D27*
%TO.P,SW3,3,C*%
%TO.N,Net-(SW3-C)*%
X123750000Y-100950000D03*
%TO.P,SW3,2,B*%
%TO.N,VBATP*%
X123750000Y-97950000D03*
D28*
%TO.P,SW3,1,A*%
%TO.N,unconnected-(SW3-A-Pad1)*%
X123750000Y-94950000D03*
%TD*%
D14*
%TO.P,D4,1,K*%
%TO.N,GND*%
X121750000Y-111000000D03*
%TO.P,D4,2,A*%
%TO.N,Net-(D4-A)*%
X123800000Y-111000000D03*
%TD*%
D29*
%TO.P,U3,1,GND*%
%TO.N,GND*%
X137912500Y-104150000D03*
%TO.P,U3,2,VO*%
%TO.N,VBUS*%
X140212500Y-104150000D03*
D30*
X140212500Y-97850000D03*
D29*
%TO.P,U3,3,VI*%
%TO.N,Net-(SW3-C)*%
X142512500Y-104150000D03*
%TD*%
D15*
%TO.P,R2,1*%
%TO.N,VBUS*%
X140212500Y-113000000D03*
%TO.P,R2,2*%
%TO.N,Net-(D1-A)*%
X142212500Y-113000000D03*
%TD*%
%TO.P,R3,1*%
%TO.N,Net-(J2-CC2)*%
X139962500Y-127000000D03*
%TO.P,R3,2*%
%TO.N,GND*%
X141962500Y-127000000D03*
%TD*%
D18*
%TO.P,C3,2*%
%TO.N,Net-(U2-3V3OUT)*%
X139887500Y-120750000D03*
%TO.P,C3,1*%
%TO.N,GND*%
X141962500Y-120750000D03*
%TD*%
D12*
%TO.P,J7,1,Pin_1*%
%TO.N,D12*%
X161046400Y-127965200D03*
D13*
%TO.P,J7,2,Pin_2*%
%TO.N,GND*%
X163586400Y-127965200D03*
%TO.P,J7,3,Pin_3*%
%TO.N,VBUS*%
X166126400Y-127965200D03*
%TD*%
D31*
%TO.P,U4,1,AO1*%
%TO.N,M1P*%
X149994000Y-124841000D03*
%TO.P,U4,2,AO1*%
X150644000Y-124841000D03*
%TO.P,U4,3,PGND1*%
%TO.N,GND*%
X151294000Y-124841000D03*
%TO.P,U4,4,PGND1*%
X151944000Y-124841000D03*
%TO.P,U4,5,AO2*%
%TO.N,M1N*%
X152594000Y-124841000D03*
%TO.P,U4,6,AO2*%
X153244000Y-124841000D03*
%TO.P,U4,7,BO2*%
%TO.N,M2N*%
X153894000Y-124841000D03*
%TO.P,U4,8,BO2*%
X154544000Y-124841000D03*
%TO.P,U4,9,PGND2*%
%TO.N,GND*%
X155194000Y-124841000D03*
%TO.P,U4,10,PGND2*%
X155844000Y-124841000D03*
%TO.P,U4,11,BO1*%
%TO.N,M2P*%
X156494000Y-124841000D03*
%TO.P,U4,12,BO1*%
X157144000Y-124841000D03*
%TO.P,U4,13,VM2*%
%TO.N,VBATP*%
X157144000Y-117641000D03*
%TO.P,U4,14,VM3*%
X156494000Y-117641000D03*
%TO.P,U4,15,PWMB*%
%TO.N,D5*%
X155844000Y-117641000D03*
%TO.P,U4,16,BIN2*%
%TO.N,D7*%
X155194000Y-117641000D03*
%TO.P,U4,17,BIN1*%
%TO.N,D6*%
X154544000Y-117641000D03*
%TO.P,U4,18,GND*%
%TO.N,GND*%
X153894000Y-117641000D03*
%TO.P,U4,19,STBY*%
%TO.N,D8*%
X153244000Y-117641000D03*
%TO.P,U4,20,VCC*%
%TO.N,VBUS*%
X152594000Y-117641000D03*
%TO.P,U4,21,AIN1*%
%TO.N,D2*%
X151944000Y-117641000D03*
%TO.P,U4,22,AIN2*%
%TO.N,D4*%
X151294000Y-117641000D03*
%TO.P,U4,23,PWMA*%
%TO.N,D3*%
X150644000Y-117641000D03*
%TO.P,U4,24,VM1*%
%TO.N,VBATP*%
X149994000Y-117641000D03*
%TD*%
D32*
%TO.P,J3,1,Pin_1*%
%TO.N,VBATP*%
X131592000Y-88392000D03*
D33*
%TO.P,J3,2,Pin_2*%
%TO.N,GND*%
X134092000Y-88392000D03*
%TD*%
D18*
%TO.P,C5,1*%
%TO.N,GND*%
X141962500Y-123000000D03*
%TO.P,C5,2*%
%TO.N,VBUS*%
X139887500Y-123000000D03*
%TD*%
D14*
%TO.P,D3,1,K*%
%TO.N,GND*%
X148202500Y-98750000D03*
%TO.P,D3,2,A*%
%TO.N,Net-(D3-A)*%
X150252500Y-98750000D03*
%TD*%
D15*
%TO.P,R1,1*%
%TO.N,GND*%
X127000000Y-126750000D03*
%TO.P,R1,2*%
%TO.N,Net-(J2-CC1)*%
X129000000Y-126750000D03*
%TD*%
D34*
%TO.P,U1,1,PD3*%
%TO.N,D3*%
X156904000Y-111315000D03*
%TO.P,U1,2,PD4*%
%TO.N,D4*%
X156904000Y-110515000D03*
%TO.P,U1,3,PE0*%
%TO.N,Net-(U1-PE0)*%
X156904000Y-109715000D03*
%TO.P,U1,4,VCC*%
%TO.N,VBUS*%
X156904000Y-108915000D03*
%TO.P,U1,5,GND*%
%TO.N,GND*%
X156904000Y-108115000D03*
%TO.P,U1,6,PE1*%
%TO.N,Net-(U1-PE1)*%
X156904000Y-107315000D03*
%TO.P,U1,7,XTAL1/PB6*%
%TO.N,Net-(U1-XTAL1{slash}PB6)*%
X156904000Y-106515000D03*
%TO.P,U1,8,XTAL2/PB7*%
%TO.N,Net-(U1-XTAL2{slash}PB7)*%
X156904000Y-105715000D03*
D35*
%TO.P,U1,9,PD5*%
%TO.N,D5*%
X155454000Y-104265000D03*
%TO.P,U1,10,PD6*%
%TO.N,D6*%
X154654000Y-104265000D03*
%TO.P,U1,11,PD7*%
%TO.N,D7*%
X153854000Y-104265000D03*
%TO.P,U1,12,PB0*%
%TO.N,D8*%
X153054000Y-104265000D03*
%TO.P,U1,13,PB1*%
%TO.N,D9*%
X152254000Y-104265000D03*
%TO.P,U1,14,PB2*%
%TO.N,D10*%
X151454000Y-104265000D03*
%TO.P,U1,15,PB3*%
%TO.N,D11*%
X150654000Y-104265000D03*
%TO.P,U1,16,PB4*%
%TO.N,D12*%
X149854000Y-104265000D03*
D34*
%TO.P,U1,17,PB5*%
%TO.N,D13*%
X148404000Y-105715000D03*
%TO.P,U1,18,AVCC*%
%TO.N,VBUS*%
X148404000Y-106515000D03*
%TO.P,U1,19,PE2*%
%TO.N,Net-(U1-PE2)*%
X148404000Y-107315000D03*
%TO.P,U1,20,AREF*%
%TO.N,AREF*%
X148404000Y-108115000D03*
%TO.P,U1,21,GND*%
%TO.N,GND*%
X148404000Y-108915000D03*
%TO.P,U1,22,PE3*%
%TO.N,Net-(U1-PE3)*%
X148404000Y-109715000D03*
%TO.P,U1,23,PC0*%
%TO.N,A0*%
X148404000Y-110515000D03*
%TO.P,U1,24,PC1*%
%TO.N,A1*%
X148404000Y-111315000D03*
D35*
%TO.P,U1,25,PC2*%
%TO.N,A2*%
X149854000Y-112765000D03*
%TO.P,U1,26,PC3*%
%TO.N,A3*%
X150654000Y-112765000D03*
%TO.P,U1,27,PC4*%
%TO.N,A4*%
X151454000Y-112765000D03*
%TO.P,U1,28,PC5*%
%TO.N,A5*%
X152254000Y-112765000D03*
%TO.P,U1,29,~{RESET}/PC6*%
%TO.N,Net-(U1-~{RESET}{slash}PC6)*%
X153054000Y-112765000D03*
%TO.P,U1,30,PD0*%
%TO.N,D0*%
X153854000Y-112765000D03*
%TO.P,U1,31,PD1*%
%TO.N,D1*%
X154654000Y-112765000D03*
%TO.P,U1,32,PD2*%
%TO.N,D2*%
X155454000Y-112765000D03*
%TD*%
D12*
%TO.P,J6,1,Pin_1*%
%TO.N,D11*%
X161046400Y-133096000D03*
D13*
%TO.P,J6,2,Pin_2*%
%TO.N,GND*%
X163586400Y-133096000D03*
%TO.P,J6,3,Pin_3*%
%TO.N,VBUS*%
X166126400Y-133096000D03*
%TD*%
D36*
%TO.P,C6,2*%
%TO.N,ICSP_RESET*%
X144250000Y-117000000D03*
%TO.P,C6,1*%
%TO.N,Net-(U1-~{RESET}{slash}PC6)*%
X142175000Y-117000000D03*
%TD*%
D24*
%TO.P,C1,1*%
%TO.N,Net-(U1-XTAL1{slash}PB6)*%
X162052000Y-107259000D03*
%TO.P,C1,2*%
%TO.N,GND*%
X162052000Y-109334000D03*
%TD*%
D37*
%TO.P,J4,1,Pin_1*%
%TO.N,M1P*%
X124500000Y-118135000D03*
D17*
%TO.P,J4,2,Pin_2*%
%TO.N,M1N*%
X124500000Y-120635000D03*
%TD*%
D38*
%TO.P,U2,1,TXD*%
%TO.N,D0*%
X131198000Y-116555000D03*
%TO.P,U2,2,~{RTS}*%
%TO.N,ICSP_RESET*%
X131198000Y-117190000D03*
%TO.P,U2,3,VCCIO*%
%TO.N,Net-(U2-3V3OUT)*%
X131198000Y-117825000D03*
%TO.P,U2,4,RXD*%
%TO.N,D1*%
X131198000Y-118460000D03*
%TO.P,U2,5,GND*%
%TO.N,GND*%
X131198000Y-119095000D03*
%TO.P,U2,6,~{CTS}*%
%TO.N,unconnected-(U2-~{CTS}-Pad6)*%
X131198000Y-119730000D03*
%TO.P,U2,7,CBUS2*%
%TO.N,Net-(U2-CBUS2)*%
X131198000Y-120365000D03*
%TO.P,U2,8,USBDP*%
%TO.N,D+*%
X131198000Y-121000000D03*
%TO.P,U2,9,USBDM*%
%TO.N,D-*%
X136398000Y-121000000D03*
%TO.P,U2,10,3V3OUT*%
%TO.N,Net-(U2-3V3OUT)*%
X136398000Y-120365000D03*
%TO.P,U2,11,~{RESET}*%
X136398000Y-119730000D03*
%TO.P,U2,12,VCC*%
%TO.N,VBUS*%
X136398000Y-119095000D03*
%TO.P,U2,13,GND*%
%TO.N,GND*%
X136398000Y-118460000D03*
%TO.P,U2,14,CBUS1*%
%TO.N,Net-(U2-CBUS1)*%
X136398000Y-117825000D03*
%TO.P,U2,15,CBUS0*%
%TO.N,Net-(U2-CBUS0)*%
X136398000Y-117190000D03*
%TO.P,U2,16,CBUS3*%
%TO.N,Net-(U2-CBUS3)*%
X136398000Y-116555000D03*
%TD*%
D25*
%TO.P,R6,2*%
%TO.N,Net-(D4-A)*%
X125770000Y-111000000D03*
%TO.P,R6,1*%
%TO.N,D0*%
X127770000Y-111000000D03*
%TD*%
D36*
%TO.P,C8,1*%
%TO.N,VBUS*%
X140212500Y-107000000D03*
%TO.P,C8,2*%
%TO.N,GND*%
X142287500Y-107000000D03*
%TD*%
D39*
%TO.P,SW1,1,1*%
%TO.N,Net-(U1-~{RESET}{slash}PC6)*%
X146250000Y-131500000D03*
%TO.P,SW1,2,2*%
%TO.N,GND*%
X153750000Y-131500000D03*
%TD*%
D12*
%TO.P,J1,1,Pin_1*%
%TO.N,D12*%
X176123600Y-102108000D03*
D13*
%TO.P,J1,2,Pin_2*%
%TO.N,VBUS*%
X173583600Y-102108000D03*
%TO.P,J1,3,Pin_3*%
%TO.N,D13*%
X176123600Y-99568000D03*
%TO.P,J1,4,Pin_4*%
%TO.N,D11*%
X173583600Y-99568000D03*
%TO.P,J1,5,Pin_5*%
%TO.N,ICSP_RESET*%
X176123600Y-97028000D03*
%TO.P,J1,6,Pin_6*%
%TO.N,GND*%
X173583600Y-97028000D03*
%TD*%
D40*
%TO.N,D-*%
X134500000Y-132800500D03*
X132800500Y-132750000D03*
%TO.N,VBATP*%
X148969600Y-116980100D03*
%TO.N,Net-(U2-CBUS3)*%
X135120100Y-116321300D03*
%TO.N,Net-(U2-CBUS0)*%
X131201400Y-113973200D03*
%TO.N,Net-(U2-CBUS1)*%
X132776600Y-117431100D03*
%TO.N,Net-(U2-CBUS2)*%
X129905200Y-120062000D03*
%TO.N,D2*%
X153868500Y-108056800D03*
%TO.N,D1*%
X154621900Y-110510000D03*
%TO.N,D0*%
X139879800Y-109113800D03*
X153261100Y-111209400D03*
%TO.N,A5*%
X153231700Y-110207400D03*
%TO.N,A4*%
X151614300Y-114199300D03*
%TO.N,A3*%
X151023700Y-110487900D03*
%TO.N,A2*%
X148482800Y-112838500D03*
%TO.N,A1*%
X150259500Y-109196000D03*
%TO.N,A0*%
X149823000Y-107556100D03*
%TO.N,Net-(U1-PE3)*%
X146965500Y-110229200D03*
%TO.N,Net-(U1-PE2)*%
X145418700Y-107315000D03*
%TO.N,Net-(U1-PE1)*%
X154948200Y-107047800D03*
%TO.N,D10*%
X151454000Y-102847300D03*
%TO.N,D8*%
X156321400Y-99775000D03*
X153762200Y-119260100D03*
%TO.N,D7*%
X153875900Y-101826700D03*
X155080500Y-115566400D03*
%TO.N,D6*%
X155057100Y-100570700D03*
X154904900Y-119363600D03*
%TO.N,D5*%
X155523900Y-101709900D03*
X155947300Y-114712000D03*
%TO.N,Net-(U1-PE0)*%
X154460100Y-109042800D03*
%TO.N,AREF*%
X143618800Y-109741400D03*
%TO.N,ICSP_RESET*%
X145967300Y-114727300D03*
X132802800Y-116366000D03*
%TO.N,D11*%
X152097000Y-105765200D03*
%TO.N,VBUS*%
X152561700Y-119348200D03*
%TO.N,M1N*%
X152065400Y-122349800D03*
%TO.N,M1P*%
X147280700Y-123049900D03*
%TO.N,GND*%
X155412500Y-131685700D03*
X162306900Y-110607300D03*
X124530800Y-126778500D03*
X155807500Y-122952600D03*
X140907300Y-128116700D03*
X143305500Y-121070400D03*
X147017700Y-98447500D03*
X120250000Y-108750000D03*
X132609900Y-119818600D03*
X151920100Y-123357900D03*
X134970300Y-119018400D03*
X136993800Y-129033400D03*
X129197000Y-128523100D03*
X135750000Y-104237500D03*
X153592100Y-116144200D03*
X163414000Y-102521100D03*
X155454200Y-107980700D03*
X146849900Y-108775300D03*
X143655100Y-106851500D03*
%TD*%
D41*
%TO.N,Net-(U2-3V3OUT)*%
X139887500Y-120137500D02*
X139887500Y-120750000D01*
X139000000Y-119250000D02*
X139887500Y-120137500D01*
X137326296Y-119730000D02*
X137806296Y-119250000D01*
X137806296Y-119250000D02*
X139000000Y-119250000D01*
X136398000Y-119730000D02*
X137326296Y-119730000D01*
X137324900Y-120365000D02*
X139502500Y-120365000D01*
X138000000Y-120365000D02*
X137324900Y-120365000D01*
%TO.N,GND*%
X136835600Y-104150000D02*
X137912500Y-104150000D01*
X136748100Y-104237500D02*
X136835600Y-104150000D01*
X135750000Y-104237500D02*
X136748100Y-104237500D01*
X135750000Y-104237500D02*
X134200000Y-104237500D01*
%TO.N,Net-(SW3-C)*%
X142512500Y-103262500D02*
X142512500Y-104150000D01*
X141412500Y-102162500D02*
X142512500Y-103262500D01*
X134200000Y-102162500D02*
X141412500Y-102162500D01*
X125837500Y-102162500D02*
X134200000Y-102162500D01*
X123750000Y-100950000D02*
X124625000Y-100950000D01*
X124625000Y-100950000D02*
X125837500Y-102162500D01*
%TO.N,VBUS*%
X140212500Y-107000000D02*
X140212500Y-104150000D01*
X144157500Y-105560800D02*
X141623300Y-105560800D01*
X141623300Y-105560800D02*
X140212500Y-104150000D01*
X144425000Y-105293300D02*
X144157500Y-105560800D01*
%TO.N,D1*%
X127770000Y-105845600D02*
X127770000Y-108750000D01*
X124101300Y-102176900D02*
X127770000Y-105845600D01*
X123176900Y-102176900D02*
X124101300Y-102176900D01*
X122500000Y-101500000D02*
X123176900Y-102176900D01*
X123300000Y-99450000D02*
X122500000Y-100250000D01*
X129913600Y-93586400D02*
X124050000Y-99450000D01*
X142079100Y-93034300D02*
X141527000Y-93586400D01*
X124050000Y-99450000D02*
X123300000Y-99450000D01*
X142079100Y-92202000D02*
X142079100Y-93034300D01*
X122500000Y-100250000D02*
X122500000Y-101500000D01*
X143256000Y-92202000D02*
X142079100Y-92202000D01*
X141527000Y-93586400D02*
X129913600Y-93586400D01*
%TO.N,GND*%
X121750000Y-108750000D02*
X121750000Y-111000000D01*
X120250000Y-108750000D02*
X121750000Y-108750000D01*
%TO.N,Net-(U2-3V3OUT)*%
X132476295Y-118156100D02*
X132145195Y-117825000D01*
X132681050Y-118156100D02*
X132476295Y-118156100D01*
X136398000Y-120365000D02*
X134889950Y-120365000D01*
X134889950Y-120365000D02*
X132681050Y-118156100D01*
X132145195Y-117825000D02*
X131198000Y-117825000D01*
D42*
%TO.N,D+*%
X133500000Y-121750000D02*
X132750000Y-121000000D01*
X133525000Y-121750000D02*
X133500000Y-121750000D01*
X133525000Y-129362749D02*
X133525000Y-121750000D01*
X132750000Y-121000000D02*
X131198000Y-121000000D01*
X133500000Y-129387749D02*
X133525000Y-129362749D01*
X133500000Y-130245000D02*
X133500000Y-129387749D01*
%TO.N,D-*%
X134750000Y-121000000D02*
X136398000Y-121000000D01*
X133975000Y-121775000D02*
X134750000Y-121000000D01*
X133975000Y-129362749D02*
X133975000Y-121775000D01*
X134000000Y-130245000D02*
X134000000Y-129387749D01*
X134000000Y-129387749D02*
X133975000Y-129362749D01*
X134000000Y-132300500D02*
X134000000Y-130245000D01*
X134500000Y-132800500D02*
X134000000Y-132300500D01*
%TO.N,D+*%
X134500001Y-131750001D02*
X134500001Y-130245000D01*
X135200000Y-132450000D02*
X134500001Y-131750001D01*
X135200000Y-133090450D02*
X135200000Y-132450000D01*
X134790450Y-133500000D02*
X135200000Y-133090450D01*
X134000000Y-133500000D02*
X134790450Y-133500000D01*
X133500000Y-133000000D02*
X134000000Y-133500000D01*
X133500000Y-130245000D02*
X133500000Y-133000000D01*
%TO.N,D-*%
X132999999Y-132550501D02*
X132999999Y-130245000D01*
X132800500Y-132750000D02*
X132999999Y-132550501D01*
D41*
%TO.N,VBUS*%
X131350000Y-129346600D02*
X131350000Y-130245000D01*
X128415600Y-128232400D02*
X128853400Y-127794600D01*
X128415600Y-131527600D02*
X128415600Y-128232400D01*
X130888000Y-134000000D02*
X128415600Y-131527600D01*
X139593600Y-131126600D02*
X136720200Y-134000000D01*
X128853400Y-127794600D02*
X129798000Y-127794600D01*
X129798000Y-127794600D02*
X131350000Y-129346600D01*
X139593600Y-129265200D02*
X139593600Y-131126600D01*
X136720200Y-134000000D02*
X130888000Y-134000000D01*
%TO.N,Net-(J2-CC2)*%
X135500000Y-130245000D02*
X135500000Y-129346600D01*
X135500000Y-128849300D02*
X135500000Y-129346600D01*
X137349300Y-127000000D02*
X135500000Y-128849300D01*
X139962500Y-127000000D02*
X137349300Y-127000000D01*
%TO.N,Net-(J2-CC1)*%
X129903400Y-126750000D02*
X129000000Y-126750000D01*
X132500000Y-129346600D02*
X129903400Y-126750000D01*
X132500000Y-130245000D02*
X132500000Y-129346600D01*
%TO.N,Net-(D4-A)*%
X125770000Y-111000000D02*
X123800000Y-111000000D01*
%TO.N,Net-(D2-A)*%
X125770000Y-108750000D02*
X123800000Y-108750000D01*
%TO.N,Net-(D1-A)*%
X142212500Y-113000000D02*
X142212500Y-111000000D01*
%TO.N,M2P*%
X157144000Y-123639100D02*
X156494000Y-123639100D01*
X156494000Y-124841000D02*
X156494000Y-123639100D01*
X157144000Y-124841000D02*
X157144000Y-124240000D01*
X157144000Y-124240000D02*
X157144000Y-123639100D01*
X173280400Y-124240000D02*
X173817000Y-123703400D01*
X157144000Y-124240000D02*
X173280400Y-124240000D01*
%TO.N,VBATP*%
X149630500Y-117641000D02*
X148969600Y-116980100D01*
X149994000Y-117641000D02*
X149630500Y-117641000D01*
X155232400Y-120104500D02*
X156494000Y-118842900D01*
X151525000Y-120104500D02*
X155232400Y-120104500D01*
X149994000Y-118573500D02*
X151525000Y-120104500D01*
X149994000Y-117641000D02*
X149994000Y-118573500D01*
X156494000Y-117641000D02*
X156494000Y-118241900D01*
X156494000Y-118241900D02*
X156494000Y-118842900D01*
X156543100Y-118241900D02*
X157144000Y-117641000D01*
X156494000Y-118241900D02*
X156543100Y-118241900D01*
%TO.N,Net-(D3-A)*%
X150252500Y-100747500D02*
X150252500Y-98750000D01*
X150250000Y-100750000D02*
X150252500Y-100747500D01*
%TO.N,Net-(U2-CBUS3)*%
X135237400Y-116321300D02*
X135471100Y-116555000D01*
X135120100Y-116321300D02*
X135237400Y-116321300D01*
X136398000Y-116555000D02*
X135471100Y-116555000D01*
%TO.N,Net-(U2-CBUS0)*%
X136398000Y-117190000D02*
X135471100Y-117190000D01*
X131438000Y-113973200D02*
X131201400Y-113973200D01*
X134654700Y-117189900D02*
X131438000Y-113973200D01*
X134654700Y-117190000D02*
X134654700Y-117189900D01*
X135471100Y-117190000D02*
X134654700Y-117190000D01*
%TO.N,Net-(U2-CBUS1)*%
X136398000Y-117825000D02*
X135471100Y-117825000D01*
X133170500Y-117825000D02*
X132776600Y-117431100D01*
X135471100Y-117825000D02*
X133170500Y-117825000D01*
%TO.N,Net-(U2-CBUS2)*%
X130208200Y-120365000D02*
X131198000Y-120365000D01*
X129905200Y-120062000D02*
X130208200Y-120365000D01*
%TO.N,Net-(U2-3V3OUT)*%
X136398000Y-120365000D02*
X137211500Y-120365000D01*
X137211500Y-120365000D02*
X137324900Y-120365000D01*
X139502500Y-120365000D02*
X139887500Y-120750000D01*
%TO.N,D2*%
X151944000Y-117641000D02*
X151944000Y-116439100D01*
X154491200Y-113891900D02*
X155454000Y-113891900D01*
X151944000Y-116439100D02*
X154491200Y-113891900D01*
X155454000Y-113328400D02*
X155454000Y-113891900D01*
X155454000Y-113328400D02*
X155454000Y-112765000D01*
X153678400Y-108246900D02*
X153868500Y-108056800D01*
X153678400Y-109289000D02*
X153678400Y-108246900D01*
X154172500Y-109783100D02*
X153678400Y-109289000D01*
X154923000Y-109783100D02*
X154172500Y-109783100D01*
X155454000Y-110314100D02*
X154923000Y-109783100D01*
X155454000Y-112765000D02*
X155454000Y-110314100D01*
%TO.N,D1*%
X126832500Y-109687500D02*
X127770000Y-108750000D01*
X126832500Y-115021400D02*
X126832500Y-109687500D01*
X130271100Y-118460000D02*
X126832500Y-115021400D01*
X131198000Y-118460000D02*
X130271100Y-118460000D01*
X154621900Y-111606000D02*
X154654000Y-111638100D01*
X154621900Y-110510000D02*
X154621900Y-111606000D01*
X154654000Y-112765000D02*
X154654000Y-111638100D01*
%TO.N,D0*%
X131198000Y-116555000D02*
X130271100Y-116555000D01*
X129976500Y-113206500D02*
X130024900Y-113206500D01*
X127770000Y-111000000D02*
X129976500Y-113206500D01*
X130024900Y-116308800D02*
X130024900Y-113206500D01*
X130271100Y-116555000D02*
X130024900Y-116308800D01*
X153854000Y-112765000D02*
X153854000Y-111638100D01*
X134117600Y-109113800D02*
X139879800Y-109113800D01*
X130024900Y-113206500D02*
X134117600Y-109113800D01*
X153689800Y-111638100D02*
X153261100Y-111209400D01*
X153854000Y-111638100D02*
X153689800Y-111638100D01*
%TO.N,Net-(U1-~{RESET}{slash}PC6)*%
X153054000Y-112765000D02*
X153054000Y-113891900D01*
X146250000Y-131500000D02*
X146250000Y-130673100D01*
X148485200Y-115016300D02*
X145436400Y-118065100D01*
X151929600Y-115016300D02*
X148485200Y-115016300D01*
X153054000Y-113891900D02*
X151929600Y-115016300D01*
X145436400Y-129859500D02*
X146250000Y-130673100D01*
X145436400Y-118065100D02*
X145436400Y-129859500D01*
X142212500Y-117000000D02*
X142175000Y-117000000D01*
X143277600Y-118065100D02*
X142212500Y-117000000D01*
X145436400Y-118065100D02*
X143277600Y-118065100D01*
X142212500Y-117000000D02*
X142212500Y-115000000D01*
%TO.N,A5*%
X152254000Y-111185100D02*
X153231700Y-110207400D01*
X152254000Y-112765000D02*
X152254000Y-111185100D01*
%TO.N,A4*%
X151614300Y-114052200D02*
X151614300Y-114199300D01*
X151454000Y-113891900D02*
X151614300Y-114052200D01*
X151454000Y-112765000D02*
X151454000Y-113891900D01*
%TO.N,A3*%
X150654000Y-112765000D02*
X150654000Y-111638100D01*
X151023700Y-111268400D02*
X151023700Y-110487900D01*
X150654000Y-111638100D02*
X151023700Y-111268400D01*
%TO.N,A2*%
X148482900Y-112838500D02*
X148482800Y-112838500D01*
X148482900Y-112973400D02*
X148482900Y-112838500D01*
X149401400Y-113891900D02*
X148482900Y-112973400D01*
X149854000Y-113891900D02*
X149401400Y-113891900D01*
X149854000Y-112765000D02*
X149854000Y-113891900D01*
%TO.N,A1*%
X148404000Y-111315000D02*
X149530900Y-111315000D01*
X150259500Y-110586400D02*
X150259500Y-109196000D01*
X149530900Y-111315000D02*
X150259500Y-110586400D01*
%TO.N,A0*%
X148404000Y-110515000D02*
X149530900Y-110515000D01*
X149530900Y-107848200D02*
X149823000Y-107556100D01*
X149530900Y-110515000D02*
X149530900Y-107848200D01*
%TO.N,Net-(U1-PE3)*%
X148404000Y-109715000D02*
X147277100Y-109715000D01*
X147277100Y-109917600D02*
X146965500Y-110229200D01*
X147277100Y-109715000D02*
X147277100Y-109917600D01*
%TO.N,Net-(U1-PE2)*%
X145418700Y-107315000D02*
X148404000Y-107315000D01*
%TO.N,Net-(U1-PE1)*%
X155017300Y-107116900D02*
X154948200Y-107047800D01*
X156705900Y-107116900D02*
X155017300Y-107116900D01*
X156904000Y-107315000D02*
X156705900Y-107116900D01*
%TO.N,D10*%
X151454000Y-104265000D02*
X151454000Y-102847300D01*
%TO.N,D9*%
X158496000Y-92202000D02*
X158496000Y-93378900D01*
X152254000Y-99620900D02*
X158496000Y-93378900D01*
X152254000Y-104265000D02*
X152254000Y-99620900D01*
%TO.N,D8*%
X153345000Y-118842900D02*
X153244000Y-118842900D01*
X153762200Y-119260100D02*
X153345000Y-118842900D01*
X153244000Y-117641000D02*
X153244000Y-118842900D01*
X154819000Y-99775000D02*
X156321400Y-99775000D01*
X153054000Y-101540000D02*
X154819000Y-99775000D01*
X153054000Y-104265000D02*
X153054000Y-101540000D01*
%TO.N,D7*%
X155194000Y-115679900D02*
X155194000Y-117641000D01*
X155080500Y-115566400D02*
X155194000Y-115679900D01*
X153854000Y-101848600D02*
X153875900Y-101826700D01*
X153854000Y-104265000D02*
X153854000Y-101848600D01*
%TO.N,D6*%
X154654000Y-100973800D02*
X155057100Y-100570700D01*
X154654000Y-104265000D02*
X154654000Y-100973800D01*
X154544000Y-119002700D02*
X154904900Y-119363600D01*
X154544000Y-117641000D02*
X154544000Y-119002700D01*
%TO.N,D5*%
X155454000Y-101779800D02*
X155523900Y-101709900D01*
X155454000Y-104265000D02*
X155454000Y-101779800D01*
X155844000Y-114815300D02*
X155947300Y-114712000D01*
X155844000Y-117641000D02*
X155844000Y-114815300D01*
%TO.N,Net-(U1-XTAL2{slash}PB7)*%
X161353000Y-105715000D02*
X162052000Y-105016000D01*
X156904000Y-105715000D02*
X161353000Y-105715000D01*
X165190000Y-105016000D02*
X166624000Y-103582000D01*
X162052000Y-105016000D02*
X165190000Y-105016000D01*
%TO.N,Net-(U1-XTAL1{slash}PB6)*%
X165421000Y-107259000D02*
X166624000Y-108462000D01*
X162052000Y-107259000D02*
X165421000Y-107259000D01*
X161308000Y-106515000D02*
X158030900Y-106515000D01*
X162052000Y-107259000D02*
X161308000Y-106515000D01*
X156904000Y-106515000D02*
X158030900Y-106515000D01*
%TO.N,Net-(U1-PE0)*%
X154821800Y-109042800D02*
X154460100Y-109042800D01*
X155494000Y-109715000D02*
X154821800Y-109042800D01*
X156904000Y-109715000D02*
X155494000Y-109715000D01*
%TO.N,AREF*%
X148404000Y-108115000D02*
X147277100Y-108115000D01*
X145311800Y-108048400D02*
X143618800Y-109741400D01*
X147210500Y-108048400D02*
X145311800Y-108048400D01*
X147277100Y-108115000D02*
X147210500Y-108048400D01*
%TO.N,D4*%
X156904000Y-110515000D02*
X158030900Y-110515000D01*
X151294000Y-117641000D02*
X151294000Y-116439100D01*
X158218000Y-110702100D02*
X158030900Y-110515000D01*
X158218000Y-118844000D02*
X158218000Y-110702100D01*
X156011800Y-121050200D02*
X158218000Y-118844000D01*
X151141500Y-121050200D02*
X156011800Y-121050200D01*
X147759200Y-117667900D02*
X151141500Y-121050200D01*
X147759200Y-116516900D02*
X147759200Y-117667900D01*
X148495500Y-115780600D02*
X147759200Y-116516900D01*
X150635500Y-115780600D02*
X148495500Y-115780600D01*
X151294000Y-116439100D02*
X150635500Y-115780600D01*
%TO.N,D3*%
X150644000Y-117641000D02*
X150644000Y-116439100D01*
X157696400Y-112107400D02*
X156904000Y-111315000D01*
X157696400Y-118726500D02*
X157696400Y-112107400D01*
X155843700Y-120579200D02*
X157696400Y-118726500D01*
X151343400Y-120579200D02*
X155843700Y-120579200D01*
X148211100Y-117446900D02*
X151343400Y-120579200D01*
X148211100Y-116704100D02*
X148211100Y-117446900D01*
X148682700Y-116232500D02*
X148211100Y-116704100D01*
X150437400Y-116232500D02*
X148682700Y-116232500D01*
X150644000Y-116439100D02*
X150437400Y-116232500D01*
%TO.N,ICSP_RESET*%
X144250000Y-116444600D02*
X144250000Y-117000000D01*
X145967300Y-114727300D02*
X144250000Y-116444600D01*
X131978800Y-117190000D02*
X131198000Y-117190000D01*
X132802800Y-116366000D02*
X131978800Y-117190000D01*
%TO.N,D11*%
X150654000Y-104265000D02*
X150654000Y-105391900D01*
X151723700Y-105391900D02*
X152097000Y-105765200D01*
X150654000Y-105391900D02*
X151723700Y-105391900D01*
%TO.N,D13*%
X148404000Y-105715000D02*
X147277100Y-105715000D01*
X147277100Y-101722900D02*
X148250000Y-100750000D01*
X147277100Y-105715000D02*
X147277100Y-101722900D01*
X149223600Y-99776400D02*
X148250000Y-100750000D01*
X149223600Y-98069500D02*
X149223600Y-99776400D01*
X154686000Y-92607100D02*
X149223600Y-98069500D01*
X154686000Y-91771100D02*
X154686000Y-92607100D01*
X155525100Y-90932000D02*
X154686000Y-91771100D01*
X156365000Y-90932000D02*
X155525100Y-90932000D01*
X157319100Y-89977900D02*
X156365000Y-90932000D01*
X157319100Y-89138000D02*
X157319100Y-89977900D01*
X158032300Y-88424800D02*
X157319100Y-89138000D01*
X158949500Y-88424800D02*
X158032300Y-88424800D01*
X159766000Y-89241300D02*
X158949500Y-88424800D01*
X159766000Y-90071000D02*
X159766000Y-89241300D01*
X160720100Y-91025100D02*
X159766000Y-90071000D01*
X166670100Y-91025100D02*
X160720100Y-91025100D01*
X167479100Y-91834100D02*
X166670100Y-91025100D01*
X167479100Y-92202000D02*
X167479100Y-91834100D01*
X168656000Y-92202000D02*
X167479100Y-92202000D01*
%TO.N,VBUS*%
X173685200Y-115062000D02*
X172508300Y-115062000D01*
X164177900Y-115062000D02*
X158030900Y-108915000D01*
X172508300Y-115062000D02*
X164177900Y-115062000D01*
X152594000Y-117641000D02*
X152594000Y-118842900D01*
X136150000Y-130245000D02*
X136150000Y-129346600D01*
X136398000Y-119095000D02*
X137324900Y-119095000D01*
X138995600Y-116216900D02*
X140212500Y-115000000D01*
X138995600Y-118113000D02*
X138995600Y-116216900D01*
X138306900Y-118113000D02*
X138995600Y-118113000D01*
X137324900Y-119095000D02*
X138306900Y-118113000D01*
X150876000Y-89662000D02*
X150876000Y-90838900D01*
X140212500Y-97850000D02*
X142439400Y-97850000D01*
X136150000Y-128844700D02*
X136150000Y-129346600D01*
X136735300Y-128259400D02*
X136150000Y-128844700D01*
X138587800Y-128259400D02*
X136735300Y-128259400D01*
X139593600Y-129265200D02*
X138587800Y-128259400D01*
X140212500Y-115000000D02*
X140212500Y-113000000D01*
X140618300Y-107405800D02*
X140212500Y-107000000D01*
X140618300Y-112594200D02*
X140618300Y-107405800D01*
X140212500Y-113000000D02*
X140618300Y-112594200D01*
X148404000Y-106515000D02*
X147277100Y-106515000D01*
X142439400Y-97850000D02*
X144396500Y-97850000D01*
X150510200Y-90838900D02*
X150876000Y-90838900D01*
X149606000Y-91743100D02*
X150510200Y-90838900D01*
X149606000Y-92640500D02*
X149606000Y-91743100D01*
X144396500Y-97850000D02*
X149606000Y-92640500D01*
X157467500Y-108915000D02*
X158030900Y-108915000D01*
X157467500Y-108915000D02*
X156904000Y-108915000D01*
X156904000Y-108915000D02*
X155777100Y-108915000D01*
X148404000Y-106515000D02*
X149530900Y-106515000D01*
X152561700Y-118875200D02*
X152561700Y-119348200D01*
X152594000Y-118842900D02*
X152561700Y-118875200D01*
X141348700Y-129265200D02*
X139593600Y-129265200D01*
X142933500Y-127680400D02*
X141348700Y-129265200D01*
X142933500Y-122268100D02*
X142933500Y-127680400D01*
X142607100Y-121941700D02*
X142933500Y-122268100D01*
X140815700Y-121941700D02*
X142607100Y-121941700D01*
X140815700Y-119933100D02*
X140815700Y-121941700D01*
X138995600Y-118113000D02*
X140815700Y-119933100D01*
X139925000Y-123000000D02*
X139887500Y-123000000D01*
X140815700Y-122109300D02*
X139925000Y-123000000D01*
X140815700Y-121941700D02*
X140815700Y-122109300D01*
X139925000Y-123000000D02*
X139925000Y-125000000D01*
X153354700Y-106515000D02*
X149530900Y-106515000D01*
X154595400Y-107755700D02*
X153354700Y-106515000D01*
X154595400Y-108149800D02*
X154595400Y-107755700D01*
X155360500Y-108914900D02*
X154595400Y-108149800D01*
X155777100Y-108914900D02*
X155360500Y-108914900D01*
X155777100Y-108915000D02*
X155777100Y-108914900D01*
X144425000Y-97878500D02*
X144396500Y-97850000D01*
X144425000Y-105293300D02*
X144425000Y-97878500D01*
X146055400Y-105293300D02*
X144425000Y-105293300D01*
X147277100Y-106515000D02*
X146055400Y-105293300D01*
%TO.N,D12*%
X164939100Y-92567800D02*
X164939100Y-92202000D01*
X164101600Y-93405300D02*
X164939100Y-92567800D01*
X160543100Y-93405300D02*
X164101600Y-93405300D01*
X159766000Y-92628200D02*
X160543100Y-93405300D01*
X159766000Y-91793000D02*
X159766000Y-92628200D01*
X158997900Y-91024900D02*
X159766000Y-91793000D01*
X157977100Y-91024900D02*
X158997900Y-91024900D01*
X157226000Y-91776000D02*
X157977100Y-91024900D01*
X157226000Y-92832200D02*
X157226000Y-91776000D01*
X151330700Y-98727500D02*
X157226000Y-92832200D01*
X151330700Y-101661400D02*
X151330700Y-98727500D01*
X149854000Y-103138100D02*
X151330700Y-101661400D01*
X149854000Y-104265000D02*
X149854000Y-103138100D01*
X166116000Y-92202000D02*
X164939100Y-92202000D01*
%TO.N,M2N*%
X154544000Y-124841000D02*
X154544000Y-123639100D01*
X153894000Y-124841000D02*
X153894000Y-123639100D01*
X154544000Y-123639100D02*
X153894000Y-123639100D01*
X156527000Y-121203400D02*
X173817000Y-121203400D01*
X154544000Y-123186400D02*
X156527000Y-121203400D01*
X154544000Y-123639100D02*
X154544000Y-123186400D01*
%TO.N,M1N*%
X153244000Y-124841000D02*
X153244000Y-123639100D01*
X152594000Y-124841000D02*
X152594000Y-123752500D01*
X153244000Y-123639100D02*
X152647000Y-123639100D01*
X152647000Y-123699500D02*
X152647000Y-123639100D01*
X152594000Y-123752500D02*
X152647000Y-123699500D01*
X152647000Y-122931400D02*
X152065400Y-122349800D01*
X152647000Y-123639100D02*
X152647000Y-122931400D01*
%TO.N,M1P*%
X150644000Y-123639100D02*
X149994000Y-123639100D01*
X150644000Y-124841000D02*
X150644000Y-123639100D01*
X149994000Y-124841000D02*
X149994000Y-123939500D01*
X149994000Y-123939500D02*
X149994000Y-123639100D01*
X148170300Y-123939500D02*
X147280700Y-123049900D01*
X149994000Y-123939500D02*
X148170300Y-123939500D01*
%TO.N,GND*%
X154812600Y-131685700D02*
X154626900Y-131500000D01*
X155412500Y-131685700D02*
X154812600Y-131685700D01*
X153750000Y-131500000D02*
X154626900Y-131500000D01*
X155194000Y-124841000D02*
X155194000Y-123639100D01*
X162052000Y-110352400D02*
X162052000Y-109334000D01*
X162306900Y-110607300D02*
X162052000Y-110352400D01*
X126971500Y-126778500D02*
X127000000Y-126750000D01*
X124530800Y-126778500D02*
X126971500Y-126778500D01*
X155807500Y-122952600D02*
X155807500Y-123639100D01*
X155194000Y-123639100D02*
X155807500Y-123639100D01*
X155807500Y-123639100D02*
X155844000Y-123639100D01*
X155844000Y-124841000D02*
X155844000Y-123639100D01*
X142000000Y-123037500D02*
X142000000Y-125000000D01*
X141962500Y-123000000D02*
X142000000Y-123037500D01*
X142000000Y-126962500D02*
X142000000Y-125000000D01*
X141962500Y-127000000D02*
X142000000Y-126962500D01*
X141962500Y-127061500D02*
X141962500Y-127000000D01*
X140907300Y-128116700D02*
X141962500Y-127061500D01*
X142282900Y-121070400D02*
X141962500Y-120750000D01*
X143305500Y-121070400D02*
X142282900Y-121070400D01*
X147900000Y-98447500D02*
X147017700Y-98447500D01*
X148202500Y-98750000D02*
X147900000Y-98447500D01*
X132124900Y-119333600D02*
X132124900Y-119095000D01*
X132609900Y-119818600D02*
X132124900Y-119333600D01*
X131198000Y-119095000D02*
X132124900Y-119095000D01*
X151294000Y-124841000D02*
X151294000Y-123639100D01*
X151920100Y-123357900D02*
X151920100Y-123639100D01*
X151294000Y-123639100D02*
X151920100Y-123639100D01*
X151920100Y-123639100D02*
X151944000Y-123639100D01*
X151944000Y-124841000D02*
X151944000Y-123639100D01*
X135471100Y-118517600D02*
X135471100Y-118460000D01*
X134970300Y-119018400D02*
X135471100Y-118517600D01*
X136398000Y-118460000D02*
X135471100Y-118460000D01*
X136950000Y-129077200D02*
X136950000Y-130245000D01*
X136993800Y-129033400D02*
X136950000Y-129077200D01*
X130550000Y-130245000D02*
X130550000Y-129346600D01*
X130020500Y-129346600D02*
X129197000Y-128523100D01*
X130550000Y-129346600D02*
X130020500Y-129346600D01*
X153887000Y-116439100D02*
X153894000Y-116439100D01*
X153592100Y-116144200D02*
X153887000Y-116439100D01*
X153894000Y-117641000D02*
X153894000Y-116439100D01*
X162471900Y-102521100D02*
X162052000Y-102941000D01*
X163414000Y-102521100D02*
X162471900Y-102521100D01*
X156904000Y-108115000D02*
X155777100Y-108115000D01*
X148404000Y-108915000D02*
X147277100Y-108915000D01*
X147137400Y-108775300D02*
X146849900Y-108775300D01*
X147277100Y-108915000D02*
X147137400Y-108775300D01*
X155454200Y-107980800D02*
X155454200Y-107980700D01*
X155642900Y-107980800D02*
X155454200Y-107980800D01*
X155777100Y-108115000D02*
X155642900Y-107980800D01*
X133853500Y-104028500D02*
X133825000Y-104000000D01*
X142212500Y-107075000D02*
X142212500Y-108950000D01*
X142287500Y-107000000D02*
X142212500Y-107075000D01*
X142436000Y-106851500D02*
X142287500Y-107000000D01*
X143655100Y-106851500D02*
X142436000Y-106851500D01*
%TD*%
M02*
