%TF.GenerationSoftware,KiCad,Pcbnew,7.0.8*%
%TF.CreationDate,2025-07-22T03:59:44-04:00*%
%TF.ProjectId,Innostemlab_pcb_v4,496e6e6f-7374-4656-9d6c-61625f706362,rev?*%
%TF.SameCoordinates,Original*%
%TF.FileFunction,Copper,L4,Bot*%
%TF.FilePolarity,Positive*%
%FSLAX46Y46*%
G04 Gerber Fmt 4.6, Leading zero omitted, Abs format (unit mm)*
G04 Created by KiCad (PCBNEW 7.0.8) date 2025-07-22 03:59:44*
%MOMM*%
%LPD*%
G01*
G04 APERTURE LIST*
G04 Aperture macros list*
%AMRoundRect*
0 Rectangle with rounded corners*
0 $1 Rounding radius*
0 $2 $3 $4 $5 $6 $7 $8 $9 X,Y pos of 4 corners*
0 Add a 4 corners polygon primitive as box body*
4,1,4,$2,$3,$4,$5,$6,$7,$8,$9,$2,$3,0*
0 Add four circle primitives for the rounded corners*
1,1,$1+$1,$2,$3*
1,1,$1+$1,$4,$5*
1,1,$1+$1,$6,$7*
1,1,$1+$1,$8,$9*
0 Add four rect primitives between the rounded corners*
20,1,$1+$1,$2,$3,$4,$5,0*
20,1,$1+$1,$4,$5,$6,$7,0*
20,1,$1+$1,$6,$7,$8,$9,0*
20,1,$1+$1,$8,$9,$2,$3,0*%
%AMFreePoly0*
4,1,19,0.500000,-0.750000,0.000000,-0.750000,0.000000,-0.744911,-0.071157,-0.744911,-0.207708,-0.704816,-0.327430,-0.627875,-0.420627,-0.520320,-0.479746,-0.390866,-0.500000,-0.250000,-0.500000,0.250000,-0.479746,0.390866,-0.420627,0.520320,-0.327430,0.627875,-0.207708,0.704816,-0.071157,0.744911,0.000000,0.744911,0.000000,0.750000,0.500000,0.750000,0.500000,-0.750000,0.500000,-0.750000,
$1*%
%AMFreePoly1*
4,1,19,0.000000,0.744911,0.071157,0.744911,0.207708,0.704816,0.327430,0.627875,0.420627,0.520320,0.479746,0.390866,0.500000,0.250000,0.500000,-0.250000,0.479746,-0.390866,0.420627,-0.520320,0.327430,-0.627875,0.207708,-0.704816,0.071157,-0.744911,0.000000,-0.744911,0.000000,-0.750000,-0.500000,-0.750000,-0.500000,0.750000,0.000000,0.750000,0.000000,0.744911,0.000000,0.744911,
$1*%
G04 Aperture macros list end*
%TA.AperFunction,ComponentPad*%
%ADD10C,1.500000*%
%TD*%
%TA.AperFunction,ComponentPad*%
%ADD11R,1.700000X1.700000*%
%TD*%
%TA.AperFunction,ComponentPad*%
%ADD12O,1.700000X1.700000*%
%TD*%
%TA.AperFunction,ComponentPad*%
%ADD13RoundRect,0.250000X0.750000X-0.600000X0.750000X0.600000X-0.750000X0.600000X-0.750000X-0.600000X0*%
%TD*%
%TA.AperFunction,ComponentPad*%
%ADD14O,2.000000X1.700000*%
%TD*%
%TA.AperFunction,ComponentPad*%
%ADD15O,2.400000X1.200000*%
%TD*%
%TA.AperFunction,ComponentPad*%
%ADD16C,1.508000*%
%TD*%
%TA.AperFunction,ComponentPad*%
%ADD17R,1.508000X1.508000*%
%TD*%
%TA.AperFunction,ComponentPad*%
%ADD18RoundRect,0.250000X-0.600000X-0.750000X0.600000X-0.750000X0.600000X0.750000X-0.600000X0.750000X0*%
%TD*%
%TA.AperFunction,ComponentPad*%
%ADD19O,1.700000X2.000000*%
%TD*%
%TA.AperFunction,ComponentPad*%
%ADD20RoundRect,0.250000X-0.750000X0.600000X-0.750000X-0.600000X0.750000X-0.600000X0.750000X0.600000X0*%
%TD*%
%TA.AperFunction,SMDPad,CuDef*%
%ADD21C,1.500000*%
%TD*%
%TA.AperFunction,SMDPad,CuDef*%
%ADD22FreePoly0,90.000000*%
%TD*%
%TA.AperFunction,SMDPad,CuDef*%
%ADD23FreePoly1,90.000000*%
%TD*%
%TA.AperFunction,ViaPad*%
%ADD24C,0.800000*%
%TD*%
%TA.AperFunction,Conductor*%
%ADD25C,0.200000*%
%TD*%
%TA.AperFunction,Conductor*%
%ADD26C,0.250000*%
%TD*%
G04 APERTURE END LIST*
D10*
%TO.P,Y1,1,1*%
%TO.N,Net-(U1-XTAL2{slash}PB7)*%
X166624000Y-103582000D03*
%TO.P,Y1,2,2*%
%TO.N,Net-(U1-XTAL1{slash}PB6)*%
X166624000Y-108462000D03*
%TD*%
D11*
%TO.P,J8,1,Pin_1*%
%TO.N,D13*%
X161046400Y-122529600D03*
D12*
%TO.P,J8,2,Pin_2*%
%TO.N,GND*%
X163586400Y-122529600D03*
%TO.P,J8,3,Pin_3*%
%TO.N,VBUS*%
X166126400Y-122529600D03*
%TD*%
D11*
%TO.P,J9,1,Pin_1*%
%TO.N,D0*%
X140716000Y-92202000D03*
D12*
%TO.P,J9,2,Pin_2*%
%TO.N,AREF*%
X140716000Y-89662000D03*
%TO.P,J9,3,Pin_3*%
%TO.N,D1*%
X143256000Y-92202000D03*
%TO.P,J9,4,Pin_4*%
%TO.N,VBATP*%
X143256000Y-89662000D03*
%TO.P,J9,5,Pin_5*%
%TO.N,D2*%
X145796000Y-92202000D03*
%TO.P,J9,6,Pin_6*%
%TO.N,GND*%
X145796000Y-89662000D03*
%TO.P,J9,7,Pin_7*%
%TO.N,D5*%
X148336000Y-92202000D03*
%TO.P,J9,8,Pin_8*%
%TO.N,GND*%
X148336000Y-89662000D03*
%TO.P,J9,9,Pin_9*%
%TO.N,D6*%
X150876000Y-92202000D03*
%TO.P,J9,10,Pin_10*%
%TO.N,VBUS*%
X150876000Y-89662000D03*
%TO.P,J9,11,Pin_11*%
%TO.N,D7*%
X153416000Y-92202000D03*
%TO.P,J9,12,Pin_12*%
%TO.N,VBUS*%
X153416000Y-89662000D03*
%TO.P,J9,13,Pin_13*%
%TO.N,D8*%
X155956000Y-92202000D03*
%TO.P,J9,14,Pin_14*%
%TO.N,A0*%
X155956000Y-89662000D03*
%TO.P,J9,15,Pin_15*%
%TO.N,D9*%
X158496000Y-92202000D03*
%TO.P,J9,16,Pin_16*%
%TO.N,A1*%
X158496000Y-89662000D03*
%TO.P,J9,17,Pin_17*%
%TO.N,D10*%
X161036000Y-92202000D03*
%TO.P,J9,18,Pin_18*%
%TO.N,A2*%
X161036000Y-89662000D03*
%TO.P,J9,19,Pin_19*%
%TO.N,D11*%
X163576000Y-92202000D03*
%TO.P,J9,20,Pin_20*%
%TO.N,A3*%
X163576000Y-89662000D03*
%TO.P,J9,21,Pin_21*%
%TO.N,D12*%
X166116000Y-92202000D03*
%TO.P,J9,22,Pin_22*%
%TO.N,A4*%
X166116000Y-89662000D03*
%TO.P,J9,23,Pin_23*%
%TO.N,D13*%
X168656000Y-92202000D03*
%TO.P,J9,24,Pin_24*%
%TO.N,A5*%
X168656000Y-89662000D03*
%TD*%
D13*
%TO.P,J5,1,Pin_1*%
%TO.N,M2P*%
X173817000Y-123703400D03*
D14*
%TO.P,J5,2,Pin_2*%
%TO.N,M2N*%
X173817000Y-121203400D03*
%TD*%
D11*
%TO.P,J10,1,Pin_1*%
%TO.N,A4*%
X173685200Y-107442000D03*
D12*
%TO.P,J10,2,Pin_2*%
%TO.N,A5*%
X173685200Y-109982000D03*
%TO.P,J10,3,Pin_3*%
%TO.N,GND*%
X173685200Y-112522000D03*
%TO.P,J10,4,Pin_4*%
%TO.N,VBUS*%
X173685200Y-115062000D03*
%TD*%
D15*
%TO.P,SW3,SH2*%
%TO.N,N/C*%
X123750000Y-103750000D03*
%TO.P,SW3,SH1*%
X123750000Y-92150000D03*
D16*
%TO.P,SW3,3,C*%
%TO.N,Net-(SW3-C)*%
X123750000Y-100950000D03*
%TO.P,SW3,2,B*%
%TO.N,VBATP*%
X123750000Y-97950000D03*
D17*
%TO.P,SW3,1,A*%
%TO.N,unconnected-(SW3-A-Pad1)*%
X123750000Y-94950000D03*
%TD*%
D11*
%TO.P,J7,1,Pin_1*%
%TO.N,D12*%
X161046400Y-127965200D03*
D12*
%TO.P,J7,2,Pin_2*%
%TO.N,GND*%
X163586400Y-127965200D03*
%TO.P,J7,3,Pin_3*%
%TO.N,VBUS*%
X166126400Y-127965200D03*
%TD*%
D18*
%TO.P,J3,1,Pin_1*%
%TO.N,VBATP*%
X131592000Y-88392000D03*
D19*
%TO.P,J3,2,Pin_2*%
%TO.N,GND*%
X134092000Y-88392000D03*
%TD*%
D11*
%TO.P,J6,1,Pin_1*%
%TO.N,D11*%
X161046400Y-133096000D03*
D12*
%TO.P,J6,2,Pin_2*%
%TO.N,GND*%
X163586400Y-133096000D03*
%TO.P,J6,3,Pin_3*%
%TO.N,VBUS*%
X166126400Y-133096000D03*
%TD*%
D20*
%TO.P,J4,1,Pin_1*%
%TO.N,M1P*%
X124500000Y-118135000D03*
D14*
%TO.P,J4,2,Pin_2*%
%TO.N,M1N*%
X124500000Y-120635000D03*
%TD*%
D11*
%TO.P,J1,1,Pin_1*%
%TO.N,D12*%
X176123600Y-102108000D03*
D12*
%TO.P,J1,2,Pin_2*%
%TO.N,VBUS*%
X173583600Y-102108000D03*
%TO.P,J1,3,Pin_3*%
%TO.N,D13*%
X176123600Y-99568000D03*
%TO.P,J1,4,Pin_4*%
%TO.N,D11*%
X173583600Y-99568000D03*
%TO.P,J1,5,Pin_5*%
%TO.N,ICSP_RESET*%
X176123600Y-97028000D03*
%TO.P,J1,6,Pin_6*%
%TO.N,GND*%
X173583600Y-97028000D03*
%TD*%
D21*
%TO.P,CBUS3,1,1*%
%TO.N,Net-(U2-CBUS2)*%
X129000000Y-118726200D03*
%TD*%
%TO.P,PE1,1,1*%
%TO.N,Net-(U1-PE1)*%
X129000000Y-100307500D03*
%TD*%
%TO.P,CBUS1,1,1*%
%TO.N,Net-(U2-CBUS0)*%
X129000000Y-111678700D03*
%TD*%
D22*
%TO.P,AREF1,1,A*%
%TO.N,AREF*%
X129000000Y-108405000D03*
D23*
%TO.P,AREF1,2,B*%
%TO.N,VBUS*%
X129000000Y-107105000D03*
%TD*%
D21*
%TO.P,CBUS2,1,1*%
%TO.N,Net-(U2-CBUS1)*%
X129000000Y-115202500D03*
%TD*%
%TO.P,PE3,1,1*%
%TO.N,Net-(U1-PE3)*%
X129000000Y-93260000D03*
%TD*%
%TO.P,PE2,1,1*%
%TO.N,Net-(U1-PE2)*%
X129000000Y-96783700D03*
%TD*%
%TO.P,PE0,1,1*%
%TO.N,Net-(U1-PE0)*%
X129000000Y-103831200D03*
%TD*%
%TO.P,CBUS4,1,1*%
%TO.N,Net-(U2-CBUS3)*%
X129000000Y-122250000D03*
%TD*%
D24*
%TO.N,D-*%
X134500000Y-132800500D03*
X132800500Y-132750000D03*
%TO.N,VBATP*%
X148969600Y-116980100D03*
%TO.N,Net-(U2-CBUS3)*%
X135120100Y-116321300D03*
%TO.N,Net-(U2-CBUS0)*%
X131201400Y-113973200D03*
%TO.N,Net-(U2-CBUS1)*%
X132776600Y-117431100D03*
%TO.N,Net-(U2-CBUS2)*%
X129905200Y-120062000D03*
%TO.N,D2*%
X153868500Y-108056800D03*
%TO.N,D1*%
X154621900Y-110510000D03*
%TO.N,D0*%
X139879800Y-109113800D03*
X153261100Y-111209400D03*
%TO.N,A5*%
X153231700Y-110207400D03*
%TO.N,A4*%
X151614300Y-114199300D03*
%TO.N,A3*%
X151023700Y-110487900D03*
%TO.N,A2*%
X148482800Y-112838500D03*
%TO.N,A1*%
X150259500Y-109196000D03*
%TO.N,A0*%
X149823000Y-107556100D03*
%TO.N,Net-(U1-PE3)*%
X146965500Y-110229200D03*
%TO.N,Net-(U1-PE2)*%
X145418700Y-107315000D03*
%TO.N,Net-(U1-PE1)*%
X154948200Y-107047800D03*
%TO.N,D10*%
X151454000Y-102847300D03*
%TO.N,D8*%
X156321400Y-99775000D03*
X153762200Y-119260100D03*
%TO.N,D7*%
X153875900Y-101826700D03*
X155080500Y-115566400D03*
%TO.N,D6*%
X155057100Y-100570700D03*
X154904900Y-119363600D03*
%TO.N,D5*%
X155523900Y-101709900D03*
X155947300Y-114712000D03*
%TO.N,Net-(U1-PE0)*%
X154460100Y-109042800D03*
%TO.N,AREF*%
X143618800Y-109741400D03*
%TO.N,ICSP_RESET*%
X145967300Y-114727300D03*
X132802800Y-116366000D03*
%TO.N,D11*%
X152097000Y-105765200D03*
%TO.N,VBUS*%
X152561700Y-119348200D03*
%TO.N,M1N*%
X152065400Y-122349800D03*
%TO.N,M1P*%
X147280700Y-123049900D03*
%TO.N,GND*%
X155412500Y-131685700D03*
X162306900Y-110607300D03*
X124530800Y-126778500D03*
X155807500Y-122952600D03*
X140907300Y-128116700D03*
X143305500Y-121070400D03*
X147017700Y-98447500D03*
X120250000Y-108750000D03*
X132609900Y-119818600D03*
X151920100Y-123357900D03*
X134970300Y-119018400D03*
X136993800Y-129033400D03*
X129197000Y-128523100D03*
X135750000Y-104237500D03*
X153592100Y-116144200D03*
X163414000Y-102521100D03*
X155454200Y-107980700D03*
X146849900Y-108775300D03*
X143655100Y-106851500D03*
%TD*%
D25*
%TO.N,D-*%
X134449500Y-132750000D02*
X132800500Y-132750000D01*
X134500000Y-132800500D02*
X134449500Y-132750000D01*
D26*
%TO.N,Net-(U2-CBUS3)*%
X134928700Y-116321300D02*
X135120100Y-116321300D01*
X129000000Y-122250000D02*
X134928700Y-116321300D01*
%TO.N,Net-(U2-CBUS0)*%
X131201400Y-113880100D02*
X131201400Y-113973200D01*
X129000000Y-111678700D02*
X131201400Y-113880100D01*
%TO.N,Net-(U2-CBUS1)*%
X131228600Y-117431100D02*
X132776600Y-117431100D01*
X129000000Y-115202500D02*
X131228600Y-117431100D01*
%TO.N,Net-(U2-CBUS2)*%
X129905200Y-119631400D02*
X129905200Y-120062000D01*
X129000000Y-118726200D02*
X129905200Y-119631400D01*
%TO.N,A5*%
X168656000Y-89662000D02*
X168656000Y-90838900D01*
X173685200Y-109982000D02*
X173685200Y-108805100D01*
X169832900Y-91647900D02*
X169832900Y-105785100D01*
X169023900Y-90838900D02*
X169832900Y-91647900D01*
X168656000Y-90838900D02*
X169023900Y-90838900D01*
X172852900Y-108805100D02*
X173685200Y-108805100D01*
X169832900Y-105785100D02*
X172852900Y-108805100D01*
X153656000Y-109783100D02*
X153231700Y-110207400D01*
X154825300Y-109783100D02*
X153656000Y-109783100D01*
X158823300Y-105785100D02*
X154825300Y-109783100D01*
X169832900Y-105785100D02*
X158823300Y-105785100D01*
%TO.N,A3*%
X163576000Y-89662000D02*
X163576000Y-90838900D01*
X151062500Y-110449100D02*
X151023700Y-110487900D01*
X151062500Y-108070400D02*
X151062500Y-110449100D01*
X162305900Y-96827000D02*
X151062500Y-108070400D01*
X162305900Y-91743200D02*
X162305900Y-96827000D01*
X163210200Y-90838900D02*
X162305900Y-91743200D01*
X163576000Y-90838900D02*
X163210200Y-90838900D01*
%TO.N,A1*%
X158496000Y-89662000D02*
X158496000Y-90838900D01*
X150575700Y-108879800D02*
X150259500Y-109196000D01*
X150575700Y-102677600D02*
X150575700Y-108879800D01*
X157319100Y-95934200D02*
X150575700Y-102677600D01*
X157319100Y-91647900D02*
X157319100Y-95934200D01*
X158128100Y-90838900D02*
X157319100Y-91647900D01*
X158496000Y-90838900D02*
X158128100Y-90838900D01*
%TO.N,A0*%
X155956000Y-89662000D02*
X155956000Y-90838900D01*
X149823000Y-102771100D02*
X149823000Y-107556100D01*
X154686000Y-97908100D02*
X149823000Y-102771100D01*
X154686000Y-91743100D02*
X154686000Y-97908100D01*
X155590200Y-90838900D02*
X154686000Y-91743100D01*
X155956000Y-90838900D02*
X155590200Y-90838900D01*
%TO.N,Net-(U1-PE3)*%
X146092000Y-109355700D02*
X146965500Y-110229200D01*
X146092000Y-107871400D02*
X146092000Y-109355700D01*
X146148300Y-107815100D02*
X146092000Y-107871400D01*
X146148300Y-107012400D02*
X146148300Y-107815100D01*
X132395900Y-93260000D02*
X146148300Y-107012400D01*
X129000000Y-93260000D02*
X132395900Y-93260000D01*
%TO.N,Net-(U1-PE2)*%
X134887400Y-96783700D02*
X145418700Y-107315000D01*
X129000000Y-96783700D02*
X134887400Y-96783700D01*
%TO.N,Net-(U1-PE1)*%
X153849600Y-107047800D02*
X154948200Y-107047800D01*
X151750700Y-109146700D02*
X153849600Y-107047800D01*
X151750700Y-110847800D02*
X151750700Y-109146700D01*
X151377500Y-111221000D02*
X151750700Y-110847800D01*
X146822300Y-111221000D02*
X151377500Y-111221000D01*
X135908800Y-100307500D02*
X146822300Y-111221000D01*
X129000000Y-100307500D02*
X135908800Y-100307500D01*
%TO.N,D10*%
X161036000Y-92202000D02*
X161036000Y-93378900D01*
X160922400Y-93378900D02*
X151454000Y-102847300D01*
X161036000Y-93378900D02*
X160922400Y-93378900D01*
%TO.N,Net-(U1-PE0)*%
X132977100Y-107808300D02*
X129000000Y-103831200D01*
X142745900Y-107808300D02*
X132977100Y-107808300D01*
X146633900Y-111696300D02*
X142745900Y-107808300D01*
X151614500Y-111696300D02*
X146633900Y-111696300D01*
X152202600Y-111108200D02*
X151614500Y-111696300D01*
X152202600Y-110180300D02*
X152202600Y-111108200D01*
X153340100Y-109042800D02*
X152202600Y-110180300D01*
X154460100Y-109042800D02*
X153340100Y-109042800D01*
%TO.N,AREF*%
X142194900Y-108317500D02*
X143618800Y-109741400D01*
X129087500Y-108317500D02*
X142194900Y-108317500D01*
X129000000Y-108405000D02*
X129087500Y-108317500D01*
%TO.N,VBUS*%
X149111900Y-119348200D02*
X152561700Y-119348200D01*
X145216400Y-115452700D02*
X149111900Y-119348200D01*
X134592200Y-115452700D02*
X145216400Y-115452700D01*
X127873700Y-108734200D02*
X134592200Y-115452700D01*
X127873700Y-107733700D02*
X127873700Y-108734200D01*
X128502400Y-107105000D02*
X127873700Y-107733700D01*
X129000000Y-107105000D02*
X128502400Y-107105000D01*
%TD*%
M02*
