M48
; DRILL file {KiCad 7.0.8} date Tue Jul 22 03:59:40 2025
; FORMAT={-:-/ absolute / inch / decimal}
; #@! TF.CreationDate,2025-07-22T03:59:40-04:00
; #@! TF.GenerationSoftware,Kicad,Pcbnew,7.0.8
; #@! TF.FileFunction,Plated,1,4,PTH
FMAT,2
INCH
; #@! TA.AperFunction,Plated,PTH,ViaDrill
T1C0.0157
; #@! TA.AperFunction,Plated,PTH,ComponentDrill
T2C0.0315
; #@! TA.AperFunction,Plated,PTH,ComponentDrill
T3C0.0394
%
G90
G05
T1
X4.7343Y-4.2815
X4.9028Y-4.9913
X5.0865Y-5.06
X5.1144Y-4.7269
X5.1654Y-4.4871
X5.2209Y-4.7173
X5.2274Y-4.6233
X5.2284Y-5.2264
X5.2285Y-4.5813
X5.2953Y-5.2284
X5.3138Y-4.6858
X5.3197Y-4.5796
X5.3445Y-4.1038
X5.3935Y-5.0801
X5.5071Y-4.2958
X5.5475Y-5.044
X5.6419Y-4.7666
X5.6543Y-4.3205
X5.6557Y-4.2068
X5.7251Y-4.225
X5.7467Y-4.5168
X5.7815Y-4.2825
X5.786Y-4.3397
X5.7881Y-3.8759
X5.7985Y-4.8445
X5.8458Y-4.4425
X5.8649Y-4.6055
X5.8985Y-4.2345
X5.9157Y-4.2991
X5.9458Y-4.3499
X5.9628Y-4.0491
X5.9691Y-4.496
X5.9811Y-4.8566
X5.9868Y-4.8169
X5.9881Y-4.164
X6.0064Y-4.6987
X6.0327Y-4.3389
X6.0339Y-4.3783
X6.0469Y-4.5726
X6.0536Y-4.6953
X6.0578Y-4.2542
X6.0581Y-4.0089
X6.0811Y-4.293
X6.0875Y-4.3508
X6.0986Y-4.6994
X6.1003Y-4.2145
X6.1046Y-3.9595
X6.1055Y-4.5499
X6.1186Y-5.1845
X6.1202Y-4.2512
X6.123Y-4.0043
X6.1342Y-4.8407
X6.1397Y-4.5162
X6.1544Y-3.9281
X6.39Y-4.3546
X6.4336Y-4.0363
T2
X6.56Y-4.078
X6.56Y-4.2702
T3
X4.872Y-3.7382
X4.872Y-3.8563
X4.872Y-3.9744
X4.9016Y-4.651
X4.9016Y-4.7494
X5.1808Y-3.48
X5.2792Y-3.48
X5.54Y-3.53
X5.54Y-3.63
X5.64Y-3.53
X5.64Y-3.63
X5.74Y-3.53
X5.74Y-3.63
X5.84Y-3.53
X5.84Y-3.63
X5.94Y-3.53
X5.94Y-3.63
X6.04Y-3.53
X6.04Y-3.63
X6.14Y-3.53
X6.14Y-3.63
X6.24Y-3.53
X6.24Y-3.63
X6.34Y-3.53
X6.34Y-3.63
X6.3404Y-4.824
X6.3404Y-5.038
X6.3404Y-5.24
X6.44Y-3.53
X6.44Y-3.63
X6.4404Y-4.824
X6.4404Y-5.038
X6.4404Y-5.24
X6.54Y-3.53
X6.54Y-3.63
X6.5404Y-4.824
X6.5404Y-5.038
X6.5404Y-5.24
X6.64Y-3.53
X6.64Y-3.63
X6.834Y-3.82
X6.834Y-3.92
X6.834Y-4.02
X6.838Y-4.23
X6.838Y-4.33
X6.838Y-4.43
X6.838Y-4.53
X6.8432Y-4.7718
X6.8432Y-4.8702
X6.934Y-3.82
X6.934Y-3.92
X6.934Y-4.02
T2
G00X4.8878Y-3.628
M15
G01X4.8563Y-3.628
M16
G05
G00X4.8878Y-4.0846
M15
G01X4.8563Y-4.0846
M16
G05
T0
M30
