%TF.GenerationSoftware,KiCad,Pcbnew,7.0.8*%
%TF.CreationDate,2025-07-22T03:59:41-04:00*%
%TF.ProjectId,Innostemlab_pcb_v4,496e6e6f-7374-4656-9d6c-61625f706362,rev?*%
%TF.SameCoordinates,Original*%
%TF.FileFunction,Drillmap*%
%TF.FilePolarity,Positive*%
%FSLAX45Y45*%
G04 Gerber Fmt 4.5, Leading zero omitted, Abs format (unit mm)*
G04 Created by KiCad (PCBNEW 7.0.8) date 2025-07-22 03:59:41*
%MOMM*%
%LPD*%
G01*
G04 APERTURE LIST*
%ADD10C,0.100000*%
%ADD11C,0.200000*%
%ADD12C,0.066040*%
G04 APERTURE END LIST*
D10*
X17550000Y-8400000D02*
X12250000Y-8400000D01*
X17900000Y-8750000D02*
G75*
G03*
X17550000Y-8400000I-350000J0D01*
G01*
X12250000Y-8400000D02*
G75*
G03*
X11900000Y-8750000I0J-350000D01*
G01*
X12405000Y-8750000D02*
G75*
G03*
X12405000Y-8750000I-155000J0D01*
G01*
X17900000Y-13250000D02*
X17900000Y-8750000D01*
X17705000Y-13250000D02*
G75*
G03*
X17705000Y-13250000I-155000J0D01*
G01*
X12405000Y-13250000D02*
G75*
G03*
X12405000Y-13250000I-155000J0D01*
G01*
X11900000Y-8750000D02*
X11900000Y-13250000D01*
X11900000Y-13250000D02*
G75*
G03*
X12250000Y-13600000I350000J0D01*
G01*
X17705000Y-8750000D02*
G75*
G03*
X17705000Y-8750000I-155000J0D01*
G01*
X12250000Y-13600000D02*
X17550000Y-13600000D01*
X17550000Y-13600000D02*
G75*
G03*
X17900000Y-13250000I0J350000D01*
G01*
D11*
D12*
X13052980Y-13098980D02*
X13119020Y-13165020D01*
X13119020Y-13098980D02*
X13052980Y-13165020D01*
X13630980Y-13098980D02*
X13697020Y-13165020D01*
X13697020Y-13098980D02*
X13630980Y-13165020D01*
D11*
X12155777Y-13916484D02*
X12155777Y-13716484D01*
X12155777Y-13716484D02*
X12203396Y-13716484D01*
X12203396Y-13716484D02*
X12231967Y-13726008D01*
X12231967Y-13726008D02*
X12251015Y-13745055D01*
X12251015Y-13745055D02*
X12260539Y-13764103D01*
X12260539Y-13764103D02*
X12270062Y-13802198D01*
X12270062Y-13802198D02*
X12270062Y-13830769D01*
X12270062Y-13830769D02*
X12260539Y-13868865D01*
X12260539Y-13868865D02*
X12251015Y-13887912D01*
X12251015Y-13887912D02*
X12231967Y-13906960D01*
X12231967Y-13906960D02*
X12203396Y-13916484D01*
X12203396Y-13916484D02*
X12155777Y-13916484D01*
X12355777Y-13916484D02*
X12355777Y-13783150D01*
X12355777Y-13821246D02*
X12365301Y-13802198D01*
X12365301Y-13802198D02*
X12374824Y-13792674D01*
X12374824Y-13792674D02*
X12393872Y-13783150D01*
X12393872Y-13783150D02*
X12412920Y-13783150D01*
X12479586Y-13916484D02*
X12479586Y-13783150D01*
X12479586Y-13716484D02*
X12470062Y-13726008D01*
X12470062Y-13726008D02*
X12479586Y-13735531D01*
X12479586Y-13735531D02*
X12489110Y-13726008D01*
X12489110Y-13726008D02*
X12479586Y-13716484D01*
X12479586Y-13716484D02*
X12479586Y-13735531D01*
X12603396Y-13916484D02*
X12584348Y-13906960D01*
X12584348Y-13906960D02*
X12574824Y-13887912D01*
X12574824Y-13887912D02*
X12574824Y-13716484D01*
X12708158Y-13916484D02*
X12689110Y-13906960D01*
X12689110Y-13906960D02*
X12679586Y-13887912D01*
X12679586Y-13887912D02*
X12679586Y-13716484D01*
X12936729Y-13916484D02*
X12936729Y-13716484D01*
X12936729Y-13716484D02*
X13003396Y-13859341D01*
X13003396Y-13859341D02*
X13070062Y-13716484D01*
X13070062Y-13716484D02*
X13070062Y-13916484D01*
X13251015Y-13916484D02*
X13251015Y-13811722D01*
X13251015Y-13811722D02*
X13241491Y-13792674D01*
X13241491Y-13792674D02*
X13222443Y-13783150D01*
X13222443Y-13783150D02*
X13184348Y-13783150D01*
X13184348Y-13783150D02*
X13165301Y-13792674D01*
X13251015Y-13906960D02*
X13231967Y-13916484D01*
X13231967Y-13916484D02*
X13184348Y-13916484D01*
X13184348Y-13916484D02*
X13165301Y-13906960D01*
X13165301Y-13906960D02*
X13155777Y-13887912D01*
X13155777Y-13887912D02*
X13155777Y-13868865D01*
X13155777Y-13868865D02*
X13165301Y-13849817D01*
X13165301Y-13849817D02*
X13184348Y-13840293D01*
X13184348Y-13840293D02*
X13231967Y-13840293D01*
X13231967Y-13840293D02*
X13251015Y-13830769D01*
X13346253Y-13783150D02*
X13346253Y-13983150D01*
X13346253Y-13792674D02*
X13365301Y-13783150D01*
X13365301Y-13783150D02*
X13403396Y-13783150D01*
X13403396Y-13783150D02*
X13422443Y-13792674D01*
X13422443Y-13792674D02*
X13431967Y-13802198D01*
X13431967Y-13802198D02*
X13441491Y-13821246D01*
X13441491Y-13821246D02*
X13441491Y-13878388D01*
X13441491Y-13878388D02*
X13431967Y-13897436D01*
X13431967Y-13897436D02*
X13422443Y-13906960D01*
X13422443Y-13906960D02*
X13403396Y-13916484D01*
X13403396Y-13916484D02*
X13365301Y-13916484D01*
X13365301Y-13916484D02*
X13346253Y-13906960D01*
X13527205Y-13897436D02*
X13536729Y-13906960D01*
X13536729Y-13906960D02*
X13527205Y-13916484D01*
X13527205Y-13916484D02*
X13517682Y-13906960D01*
X13517682Y-13906960D02*
X13527205Y-13897436D01*
X13527205Y-13897436D02*
X13527205Y-13916484D01*
X13527205Y-13792674D02*
X13536729Y-13802198D01*
X13536729Y-13802198D02*
X13527205Y-13811722D01*
X13527205Y-13811722D02*
X13517682Y-13802198D01*
X13517682Y-13802198D02*
X13527205Y-13792674D01*
X13527205Y-13792674D02*
X13527205Y-13811722D01*
D12*
X11828960Y-14211980D02*
X11895000Y-14278020D01*
X11895000Y-14211980D02*
X11828960Y-14278020D01*
D11*
X12193872Y-14136484D02*
X12212920Y-14136484D01*
X12212920Y-14136484D02*
X12231967Y-14146008D01*
X12231967Y-14146008D02*
X12241491Y-14155531D01*
X12241491Y-14155531D02*
X12251015Y-14174579D01*
X12251015Y-14174579D02*
X12260539Y-14212674D01*
X12260539Y-14212674D02*
X12260539Y-14260293D01*
X12260539Y-14260293D02*
X12251015Y-14298388D01*
X12251015Y-14298388D02*
X12241491Y-14317436D01*
X12241491Y-14317436D02*
X12231967Y-14326960D01*
X12231967Y-14326960D02*
X12212920Y-14336484D01*
X12212920Y-14336484D02*
X12193872Y-14336484D01*
X12193872Y-14336484D02*
X12174824Y-14326960D01*
X12174824Y-14326960D02*
X12165301Y-14317436D01*
X12165301Y-14317436D02*
X12155777Y-14298388D01*
X12155777Y-14298388D02*
X12146253Y-14260293D01*
X12146253Y-14260293D02*
X12146253Y-14212674D01*
X12146253Y-14212674D02*
X12155777Y-14174579D01*
X12155777Y-14174579D02*
X12165301Y-14155531D01*
X12165301Y-14155531D02*
X12174824Y-14146008D01*
X12174824Y-14146008D02*
X12193872Y-14136484D01*
X12346253Y-14317436D02*
X12355777Y-14326960D01*
X12355777Y-14326960D02*
X12346253Y-14336484D01*
X12346253Y-14336484D02*
X12336729Y-14326960D01*
X12336729Y-14326960D02*
X12346253Y-14317436D01*
X12346253Y-14317436D02*
X12346253Y-14336484D01*
X12527205Y-14136484D02*
X12489110Y-14136484D01*
X12489110Y-14136484D02*
X12470062Y-14146008D01*
X12470062Y-14146008D02*
X12460539Y-14155531D01*
X12460539Y-14155531D02*
X12441491Y-14184103D01*
X12441491Y-14184103D02*
X12431967Y-14222198D01*
X12431967Y-14222198D02*
X12431967Y-14298388D01*
X12431967Y-14298388D02*
X12441491Y-14317436D01*
X12441491Y-14317436D02*
X12451015Y-14326960D01*
X12451015Y-14326960D02*
X12470062Y-14336484D01*
X12470062Y-14336484D02*
X12508158Y-14336484D01*
X12508158Y-14336484D02*
X12527205Y-14326960D01*
X12527205Y-14326960D02*
X12536729Y-14317436D01*
X12536729Y-14317436D02*
X12546253Y-14298388D01*
X12546253Y-14298388D02*
X12546253Y-14250769D01*
X12546253Y-14250769D02*
X12536729Y-14231722D01*
X12536729Y-14231722D02*
X12527205Y-14222198D01*
X12527205Y-14222198D02*
X12508158Y-14212674D01*
X12508158Y-14212674D02*
X12470062Y-14212674D01*
X12470062Y-14212674D02*
X12451015Y-14222198D01*
X12451015Y-14222198D02*
X12441491Y-14231722D01*
X12441491Y-14231722D02*
X12431967Y-14250769D01*
X12717682Y-14136484D02*
X12679586Y-14136484D01*
X12679586Y-14136484D02*
X12660539Y-14146008D01*
X12660539Y-14146008D02*
X12651015Y-14155531D01*
X12651015Y-14155531D02*
X12631967Y-14184103D01*
X12631967Y-14184103D02*
X12622443Y-14222198D01*
X12622443Y-14222198D02*
X12622443Y-14298388D01*
X12622443Y-14298388D02*
X12631967Y-14317436D01*
X12631967Y-14317436D02*
X12641491Y-14326960D01*
X12641491Y-14326960D02*
X12660539Y-14336484D01*
X12660539Y-14336484D02*
X12698634Y-14336484D01*
X12698634Y-14336484D02*
X12717682Y-14326960D01*
X12717682Y-14326960D02*
X12727205Y-14317436D01*
X12727205Y-14317436D02*
X12736729Y-14298388D01*
X12736729Y-14298388D02*
X12736729Y-14250769D01*
X12736729Y-14250769D02*
X12727205Y-14231722D01*
X12727205Y-14231722D02*
X12717682Y-14222198D01*
X12717682Y-14222198D02*
X12698634Y-14212674D01*
X12698634Y-14212674D02*
X12660539Y-14212674D01*
X12660539Y-14212674D02*
X12641491Y-14222198D01*
X12641491Y-14222198D02*
X12631967Y-14231722D01*
X12631967Y-14231722D02*
X12622443Y-14250769D01*
X12860539Y-14136484D02*
X12879586Y-14136484D01*
X12879586Y-14136484D02*
X12898634Y-14146008D01*
X12898634Y-14146008D02*
X12908158Y-14155531D01*
X12908158Y-14155531D02*
X12917682Y-14174579D01*
X12917682Y-14174579D02*
X12927205Y-14212674D01*
X12927205Y-14212674D02*
X12927205Y-14260293D01*
X12927205Y-14260293D02*
X12917682Y-14298388D01*
X12917682Y-14298388D02*
X12908158Y-14317436D01*
X12908158Y-14317436D02*
X12898634Y-14326960D01*
X12898634Y-14326960D02*
X12879586Y-14336484D01*
X12879586Y-14336484D02*
X12860539Y-14336484D01*
X12860539Y-14336484D02*
X12841491Y-14326960D01*
X12841491Y-14326960D02*
X12831967Y-14317436D01*
X12831967Y-14317436D02*
X12822443Y-14298388D01*
X12822443Y-14298388D02*
X12812920Y-14260293D01*
X12812920Y-14260293D02*
X12812920Y-14212674D01*
X12812920Y-14212674D02*
X12822443Y-14174579D01*
X12822443Y-14174579D02*
X12831967Y-14155531D01*
X12831967Y-14155531D02*
X12841491Y-14146008D01*
X12841491Y-14146008D02*
X12860539Y-14136484D01*
X13012920Y-14336484D02*
X13012920Y-14203150D01*
X13012920Y-14222198D02*
X13022443Y-14212674D01*
X13022443Y-14212674D02*
X13041491Y-14203150D01*
X13041491Y-14203150D02*
X13070063Y-14203150D01*
X13070063Y-14203150D02*
X13089110Y-14212674D01*
X13089110Y-14212674D02*
X13098634Y-14231722D01*
X13098634Y-14231722D02*
X13098634Y-14336484D01*
X13098634Y-14231722D02*
X13108158Y-14212674D01*
X13108158Y-14212674D02*
X13127205Y-14203150D01*
X13127205Y-14203150D02*
X13155777Y-14203150D01*
X13155777Y-14203150D02*
X13174824Y-14212674D01*
X13174824Y-14212674D02*
X13184348Y-14231722D01*
X13184348Y-14231722D02*
X13184348Y-14336484D01*
X13279586Y-14336484D02*
X13279586Y-14203150D01*
X13279586Y-14222198D02*
X13289110Y-14212674D01*
X13289110Y-14212674D02*
X13308158Y-14203150D01*
X13308158Y-14203150D02*
X13336729Y-14203150D01*
X13336729Y-14203150D02*
X13355777Y-14212674D01*
X13355777Y-14212674D02*
X13365301Y-14231722D01*
X13365301Y-14231722D02*
X13365301Y-14336484D01*
X13365301Y-14231722D02*
X13374824Y-14212674D01*
X13374824Y-14212674D02*
X13393872Y-14203150D01*
X13393872Y-14203150D02*
X13422443Y-14203150D01*
X13422443Y-14203150D02*
X13441491Y-14212674D01*
X13441491Y-14212674D02*
X13451015Y-14231722D01*
X13451015Y-14231722D02*
X13451015Y-14336484D01*
X13841491Y-14126960D02*
X13670063Y-14384103D01*
X14098634Y-14136484D02*
X14117682Y-14136484D01*
X14117682Y-14136484D02*
X14136729Y-14146008D01*
X14136729Y-14146008D02*
X14146253Y-14155531D01*
X14146253Y-14155531D02*
X14155777Y-14174579D01*
X14155777Y-14174579D02*
X14165301Y-14212674D01*
X14165301Y-14212674D02*
X14165301Y-14260293D01*
X14165301Y-14260293D02*
X14155777Y-14298388D01*
X14155777Y-14298388D02*
X14146253Y-14317436D01*
X14146253Y-14317436D02*
X14136729Y-14326960D01*
X14136729Y-14326960D02*
X14117682Y-14336484D01*
X14117682Y-14336484D02*
X14098634Y-14336484D01*
X14098634Y-14336484D02*
X14079586Y-14326960D01*
X14079586Y-14326960D02*
X14070063Y-14317436D01*
X14070063Y-14317436D02*
X14060539Y-14298388D01*
X14060539Y-14298388D02*
X14051015Y-14260293D01*
X14051015Y-14260293D02*
X14051015Y-14212674D01*
X14051015Y-14212674D02*
X14060539Y-14174579D01*
X14060539Y-14174579D02*
X14070063Y-14155531D01*
X14070063Y-14155531D02*
X14079586Y-14146008D01*
X14079586Y-14146008D02*
X14098634Y-14136484D01*
X14251015Y-14317436D02*
X14260539Y-14326960D01*
X14260539Y-14326960D02*
X14251015Y-14336484D01*
X14251015Y-14336484D02*
X14241491Y-14326960D01*
X14241491Y-14326960D02*
X14251015Y-14317436D01*
X14251015Y-14317436D02*
X14251015Y-14336484D01*
X14384348Y-14136484D02*
X14403396Y-14136484D01*
X14403396Y-14136484D02*
X14422444Y-14146008D01*
X14422444Y-14146008D02*
X14431967Y-14155531D01*
X14431967Y-14155531D02*
X14441491Y-14174579D01*
X14441491Y-14174579D02*
X14451015Y-14212674D01*
X14451015Y-14212674D02*
X14451015Y-14260293D01*
X14451015Y-14260293D02*
X14441491Y-14298388D01*
X14441491Y-14298388D02*
X14431967Y-14317436D01*
X14431967Y-14317436D02*
X14422444Y-14326960D01*
X14422444Y-14326960D02*
X14403396Y-14336484D01*
X14403396Y-14336484D02*
X14384348Y-14336484D01*
X14384348Y-14336484D02*
X14365301Y-14326960D01*
X14365301Y-14326960D02*
X14355777Y-14317436D01*
X14355777Y-14317436D02*
X14346253Y-14298388D01*
X14346253Y-14298388D02*
X14336729Y-14260293D01*
X14336729Y-14260293D02*
X14336729Y-14212674D01*
X14336729Y-14212674D02*
X14346253Y-14174579D01*
X14346253Y-14174579D02*
X14355777Y-14155531D01*
X14355777Y-14155531D02*
X14365301Y-14146008D01*
X14365301Y-14146008D02*
X14384348Y-14136484D01*
X14527206Y-14155531D02*
X14536729Y-14146008D01*
X14536729Y-14146008D02*
X14555777Y-14136484D01*
X14555777Y-14136484D02*
X14603396Y-14136484D01*
X14603396Y-14136484D02*
X14622444Y-14146008D01*
X14622444Y-14146008D02*
X14631967Y-14155531D01*
X14631967Y-14155531D02*
X14641491Y-14174579D01*
X14641491Y-14174579D02*
X14641491Y-14193627D01*
X14641491Y-14193627D02*
X14631967Y-14222198D01*
X14631967Y-14222198D02*
X14517682Y-14336484D01*
X14517682Y-14336484D02*
X14641491Y-14336484D01*
X14812920Y-14136484D02*
X14774825Y-14136484D01*
X14774825Y-14136484D02*
X14755777Y-14146008D01*
X14755777Y-14146008D02*
X14746253Y-14155531D01*
X14746253Y-14155531D02*
X14727206Y-14184103D01*
X14727206Y-14184103D02*
X14717682Y-14222198D01*
X14717682Y-14222198D02*
X14717682Y-14298388D01*
X14717682Y-14298388D02*
X14727206Y-14317436D01*
X14727206Y-14317436D02*
X14736729Y-14326960D01*
X14736729Y-14326960D02*
X14755777Y-14336484D01*
X14755777Y-14336484D02*
X14793872Y-14336484D01*
X14793872Y-14336484D02*
X14812920Y-14326960D01*
X14812920Y-14326960D02*
X14822444Y-14317436D01*
X14822444Y-14317436D02*
X14831967Y-14298388D01*
X14831967Y-14298388D02*
X14831967Y-14250769D01*
X14831967Y-14250769D02*
X14822444Y-14231722D01*
X14822444Y-14231722D02*
X14812920Y-14222198D01*
X14812920Y-14222198D02*
X14793872Y-14212674D01*
X14793872Y-14212674D02*
X14755777Y-14212674D01*
X14755777Y-14212674D02*
X14736729Y-14222198D01*
X14736729Y-14222198D02*
X14727206Y-14231722D01*
X14727206Y-14231722D02*
X14717682Y-14250769D01*
X14955777Y-14136484D02*
X14974825Y-14136484D01*
X14974825Y-14136484D02*
X14993872Y-14146008D01*
X14993872Y-14146008D02*
X15003396Y-14155531D01*
X15003396Y-14155531D02*
X15012920Y-14174579D01*
X15012920Y-14174579D02*
X15022444Y-14212674D01*
X15022444Y-14212674D02*
X15022444Y-14260293D01*
X15022444Y-14260293D02*
X15012920Y-14298388D01*
X15012920Y-14298388D02*
X15003396Y-14317436D01*
X15003396Y-14317436D02*
X14993872Y-14326960D01*
X14993872Y-14326960D02*
X14974825Y-14336484D01*
X14974825Y-14336484D02*
X14955777Y-14336484D01*
X14955777Y-14336484D02*
X14936729Y-14326960D01*
X14936729Y-14326960D02*
X14927206Y-14317436D01*
X14927206Y-14317436D02*
X14917682Y-14298388D01*
X14917682Y-14298388D02*
X14908158Y-14260293D01*
X14908158Y-14260293D02*
X14908158Y-14212674D01*
X14908158Y-14212674D02*
X14917682Y-14174579D01*
X14917682Y-14174579D02*
X14927206Y-14155531D01*
X14927206Y-14155531D02*
X14936729Y-14146008D01*
X14936729Y-14146008D02*
X14955777Y-14136484D01*
X15098634Y-14136484D02*
X15098634Y-14174579D01*
X15174825Y-14136484D02*
X15174825Y-14174579D01*
X15470063Y-14412674D02*
X15460539Y-14403150D01*
X15460539Y-14403150D02*
X15441491Y-14374579D01*
X15441491Y-14374579D02*
X15431968Y-14355531D01*
X15431968Y-14355531D02*
X15422444Y-14326960D01*
X15422444Y-14326960D02*
X15412920Y-14279341D01*
X15412920Y-14279341D02*
X15412920Y-14241246D01*
X15412920Y-14241246D02*
X15422444Y-14193627D01*
X15422444Y-14193627D02*
X15431968Y-14165055D01*
X15431968Y-14165055D02*
X15441491Y-14146008D01*
X15441491Y-14146008D02*
X15460539Y-14117436D01*
X15460539Y-14117436D02*
X15470063Y-14107912D01*
X15536729Y-14155531D02*
X15546253Y-14146008D01*
X15546253Y-14146008D02*
X15565301Y-14136484D01*
X15565301Y-14136484D02*
X15612920Y-14136484D01*
X15612920Y-14136484D02*
X15631968Y-14146008D01*
X15631968Y-14146008D02*
X15641491Y-14155531D01*
X15641491Y-14155531D02*
X15651015Y-14174579D01*
X15651015Y-14174579D02*
X15651015Y-14193627D01*
X15651015Y-14193627D02*
X15641491Y-14222198D01*
X15641491Y-14222198D02*
X15527206Y-14336484D01*
X15527206Y-14336484D02*
X15651015Y-14336484D01*
X15889110Y-14336484D02*
X15889110Y-14136484D01*
X15974825Y-14336484D02*
X15974825Y-14231722D01*
X15974825Y-14231722D02*
X15965301Y-14212674D01*
X15965301Y-14212674D02*
X15946253Y-14203150D01*
X15946253Y-14203150D02*
X15917682Y-14203150D01*
X15917682Y-14203150D02*
X15898634Y-14212674D01*
X15898634Y-14212674D02*
X15889110Y-14222198D01*
X16098634Y-14336484D02*
X16079587Y-14326960D01*
X16079587Y-14326960D02*
X16070063Y-14317436D01*
X16070063Y-14317436D02*
X16060539Y-14298388D01*
X16060539Y-14298388D02*
X16060539Y-14241246D01*
X16060539Y-14241246D02*
X16070063Y-14222198D01*
X16070063Y-14222198D02*
X16079587Y-14212674D01*
X16079587Y-14212674D02*
X16098634Y-14203150D01*
X16098634Y-14203150D02*
X16127206Y-14203150D01*
X16127206Y-14203150D02*
X16146253Y-14212674D01*
X16146253Y-14212674D02*
X16155777Y-14222198D01*
X16155777Y-14222198D02*
X16165301Y-14241246D01*
X16165301Y-14241246D02*
X16165301Y-14298388D01*
X16165301Y-14298388D02*
X16155777Y-14317436D01*
X16155777Y-14317436D02*
X16146253Y-14326960D01*
X16146253Y-14326960D02*
X16127206Y-14336484D01*
X16127206Y-14336484D02*
X16098634Y-14336484D01*
X16279587Y-14336484D02*
X16260539Y-14326960D01*
X16260539Y-14326960D02*
X16251015Y-14307912D01*
X16251015Y-14307912D02*
X16251015Y-14136484D01*
X16431968Y-14326960D02*
X16412920Y-14336484D01*
X16412920Y-14336484D02*
X16374825Y-14336484D01*
X16374825Y-14336484D02*
X16355777Y-14326960D01*
X16355777Y-14326960D02*
X16346253Y-14307912D01*
X16346253Y-14307912D02*
X16346253Y-14231722D01*
X16346253Y-14231722D02*
X16355777Y-14212674D01*
X16355777Y-14212674D02*
X16374825Y-14203150D01*
X16374825Y-14203150D02*
X16412920Y-14203150D01*
X16412920Y-14203150D02*
X16431968Y-14212674D01*
X16431968Y-14212674D02*
X16441491Y-14231722D01*
X16441491Y-14231722D02*
X16441491Y-14250769D01*
X16441491Y-14250769D02*
X16346253Y-14269817D01*
X16517682Y-14326960D02*
X16536730Y-14336484D01*
X16536730Y-14336484D02*
X16574825Y-14336484D01*
X16574825Y-14336484D02*
X16593872Y-14326960D01*
X16593872Y-14326960D02*
X16603396Y-14307912D01*
X16603396Y-14307912D02*
X16603396Y-14298388D01*
X16603396Y-14298388D02*
X16593872Y-14279341D01*
X16593872Y-14279341D02*
X16574825Y-14269817D01*
X16574825Y-14269817D02*
X16546253Y-14269817D01*
X16546253Y-14269817D02*
X16527206Y-14260293D01*
X16527206Y-14260293D02*
X16517682Y-14241246D01*
X16517682Y-14241246D02*
X16517682Y-14231722D01*
X16517682Y-14231722D02*
X16527206Y-14212674D01*
X16527206Y-14212674D02*
X16546253Y-14203150D01*
X16546253Y-14203150D02*
X16574825Y-14203150D01*
X16574825Y-14203150D02*
X16593872Y-14212674D01*
X16670063Y-14412674D02*
X16679587Y-14403150D01*
X16679587Y-14403150D02*
X16698634Y-14374579D01*
X16698634Y-14374579D02*
X16708158Y-14355531D01*
X16708158Y-14355531D02*
X16717682Y-14326960D01*
X16717682Y-14326960D02*
X16727206Y-14279341D01*
X16727206Y-14279341D02*
X16727206Y-14241246D01*
X16727206Y-14241246D02*
X16717682Y-14193627D01*
X16717682Y-14193627D02*
X16708158Y-14165055D01*
X16708158Y-14165055D02*
X16698634Y-14146008D01*
X16698634Y-14146008D02*
X16679587Y-14117436D01*
X16679587Y-14117436D02*
X16670063Y-14107912D01*
X17031968Y-14412674D02*
X17022444Y-14403150D01*
X17022444Y-14403150D02*
X17003396Y-14374579D01*
X17003396Y-14374579D02*
X16993873Y-14355531D01*
X16993873Y-14355531D02*
X16984349Y-14326960D01*
X16984349Y-14326960D02*
X16974825Y-14279341D01*
X16974825Y-14279341D02*
X16974825Y-14241246D01*
X16974825Y-14241246D02*
X16984349Y-14193627D01*
X16984349Y-14193627D02*
X16993873Y-14165055D01*
X16993873Y-14165055D02*
X17003396Y-14146008D01*
X17003396Y-14146008D02*
X17022444Y-14117436D01*
X17022444Y-14117436D02*
X17031968Y-14107912D01*
X17108158Y-14203150D02*
X17108158Y-14336484D01*
X17108158Y-14222198D02*
X17117682Y-14212674D01*
X17117682Y-14212674D02*
X17136730Y-14203150D01*
X17136730Y-14203150D02*
X17165301Y-14203150D01*
X17165301Y-14203150D02*
X17184349Y-14212674D01*
X17184349Y-14212674D02*
X17193873Y-14231722D01*
X17193873Y-14231722D02*
X17193873Y-14336484D01*
X17317682Y-14336484D02*
X17298634Y-14326960D01*
X17298634Y-14326960D02*
X17289111Y-14317436D01*
X17289111Y-14317436D02*
X17279587Y-14298388D01*
X17279587Y-14298388D02*
X17279587Y-14241246D01*
X17279587Y-14241246D02*
X17289111Y-14222198D01*
X17289111Y-14222198D02*
X17298634Y-14212674D01*
X17298634Y-14212674D02*
X17317682Y-14203150D01*
X17317682Y-14203150D02*
X17346254Y-14203150D01*
X17346254Y-14203150D02*
X17365301Y-14212674D01*
X17365301Y-14212674D02*
X17374825Y-14222198D01*
X17374825Y-14222198D02*
X17384349Y-14241246D01*
X17384349Y-14241246D02*
X17384349Y-14298388D01*
X17384349Y-14298388D02*
X17374825Y-14317436D01*
X17374825Y-14317436D02*
X17365301Y-14326960D01*
X17365301Y-14326960D02*
X17346254Y-14336484D01*
X17346254Y-14336484D02*
X17317682Y-14336484D01*
X17441492Y-14203150D02*
X17517682Y-14203150D01*
X17470063Y-14136484D02*
X17470063Y-14307912D01*
X17470063Y-14307912D02*
X17479587Y-14326960D01*
X17479587Y-14326960D02*
X17498634Y-14336484D01*
X17498634Y-14336484D02*
X17517682Y-14336484D01*
X17736730Y-14203150D02*
X17736730Y-14403150D01*
X17736730Y-14212674D02*
X17755777Y-14203150D01*
X17755777Y-14203150D02*
X17793873Y-14203150D01*
X17793873Y-14203150D02*
X17812920Y-14212674D01*
X17812920Y-14212674D02*
X17822444Y-14222198D01*
X17822444Y-14222198D02*
X17831968Y-14241246D01*
X17831968Y-14241246D02*
X17831968Y-14298388D01*
X17831968Y-14298388D02*
X17822444Y-14317436D01*
X17822444Y-14317436D02*
X17812920Y-14326960D01*
X17812920Y-14326960D02*
X17793873Y-14336484D01*
X17793873Y-14336484D02*
X17755777Y-14336484D01*
X17755777Y-14336484D02*
X17736730Y-14326960D01*
X17946254Y-14336484D02*
X17927206Y-14326960D01*
X17927206Y-14326960D02*
X17917682Y-14307912D01*
X17917682Y-14307912D02*
X17917682Y-14136484D01*
X18108158Y-14336484D02*
X18108158Y-14231722D01*
X18108158Y-14231722D02*
X18098635Y-14212674D01*
X18098635Y-14212674D02*
X18079587Y-14203150D01*
X18079587Y-14203150D02*
X18041492Y-14203150D01*
X18041492Y-14203150D02*
X18022444Y-14212674D01*
X18108158Y-14326960D02*
X18089111Y-14336484D01*
X18089111Y-14336484D02*
X18041492Y-14336484D01*
X18041492Y-14336484D02*
X18022444Y-14326960D01*
X18022444Y-14326960D02*
X18012920Y-14307912D01*
X18012920Y-14307912D02*
X18012920Y-14288865D01*
X18012920Y-14288865D02*
X18022444Y-14269817D01*
X18022444Y-14269817D02*
X18041492Y-14260293D01*
X18041492Y-14260293D02*
X18089111Y-14260293D01*
X18089111Y-14260293D02*
X18108158Y-14250769D01*
X18174825Y-14203150D02*
X18251015Y-14203150D01*
X18203396Y-14136484D02*
X18203396Y-14307912D01*
X18203396Y-14307912D02*
X18212920Y-14326960D01*
X18212920Y-14326960D02*
X18231968Y-14336484D01*
X18231968Y-14336484D02*
X18251015Y-14336484D01*
X18393873Y-14326960D02*
X18374825Y-14336484D01*
X18374825Y-14336484D02*
X18336730Y-14336484D01*
X18336730Y-14336484D02*
X18317682Y-14326960D01*
X18317682Y-14326960D02*
X18308158Y-14307912D01*
X18308158Y-14307912D02*
X18308158Y-14231722D01*
X18308158Y-14231722D02*
X18317682Y-14212674D01*
X18317682Y-14212674D02*
X18336730Y-14203150D01*
X18336730Y-14203150D02*
X18374825Y-14203150D01*
X18374825Y-14203150D02*
X18393873Y-14212674D01*
X18393873Y-14212674D02*
X18403396Y-14231722D01*
X18403396Y-14231722D02*
X18403396Y-14250769D01*
X18403396Y-14250769D02*
X18308158Y-14269817D01*
X18574825Y-14336484D02*
X18574825Y-14136484D01*
X18574825Y-14326960D02*
X18555777Y-14336484D01*
X18555777Y-14336484D02*
X18517682Y-14336484D01*
X18517682Y-14336484D02*
X18498635Y-14326960D01*
X18498635Y-14326960D02*
X18489111Y-14317436D01*
X18489111Y-14317436D02*
X18479587Y-14298388D01*
X18479587Y-14298388D02*
X18479587Y-14241246D01*
X18479587Y-14241246D02*
X18489111Y-14222198D01*
X18489111Y-14222198D02*
X18498635Y-14212674D01*
X18498635Y-14212674D02*
X18517682Y-14203150D01*
X18517682Y-14203150D02*
X18555777Y-14203150D01*
X18555777Y-14203150D02*
X18574825Y-14212674D01*
X18651016Y-14412674D02*
X18660539Y-14403150D01*
X18660539Y-14403150D02*
X18679587Y-14374579D01*
X18679587Y-14374579D02*
X18689111Y-14355531D01*
X18689111Y-14355531D02*
X18698635Y-14326960D01*
X18698635Y-14326960D02*
X18708158Y-14279341D01*
X18708158Y-14279341D02*
X18708158Y-14241246D01*
X18708158Y-14241246D02*
X18698635Y-14193627D01*
X18698635Y-14193627D02*
X18689111Y-14165055D01*
X18689111Y-14165055D02*
X18679587Y-14146008D01*
X18679587Y-14146008D02*
X18660539Y-14117436D01*
X18660539Y-14117436D02*
X18651016Y-14107912D01*
M02*
