%TF.GenerationSoftware,KiCad,Pcbnew,7.0.8*%
%TF.CreationDate,2025-07-22T03:59:41-04:00*%
%TF.ProjectId,Innostemlab_pcb_v4,496e6e6f-7374-4656-9d6c-61625f706362,rev?*%
%TF.SameCoordinates,Original*%
%TF.FileFunction,Drillmap*%
%TF.FilePolarity,Positive*%
%FSLAX45Y45*%
G04 Gerber Fmt 4.5, Leading zero omitted, Abs format (unit mm)*
G04 Created by KiCad (PCBNEW 7.0.8) date 2025-07-22 03:59:41*
%MOMM*%
%LPD*%
G01*
G04 APERTURE LIST*
%ADD10C,0.100000*%
%ADD11C,0.200000*%
%ADD12C,0.040000*%
%ADD13C,0.080000*%
G04 APERTURE END LIST*
D10*
X17550000Y-8400000D02*
X12250000Y-8400000D01*
X17900000Y-8750000D02*
G75*
G03*
X17550000Y-8400000I-350000J0D01*
G01*
X12250000Y-8400000D02*
G75*
G03*
X11900000Y-8750000I0J-350000D01*
G01*
X12405000Y-8750000D02*
G75*
G03*
X12405000Y-8750000I-155000J0D01*
G01*
X17900000Y-13250000D02*
X17900000Y-8750000D01*
X17705000Y-13250000D02*
G75*
G03*
X17705000Y-13250000I-155000J0D01*
G01*
X12405000Y-13250000D02*
G75*
G03*
X12405000Y-13250000I-155000J0D01*
G01*
X11900000Y-8750000D02*
X11900000Y-13250000D01*
X11900000Y-13250000D02*
G75*
G03*
X12250000Y-13600000I350000J0D01*
G01*
X17705000Y-8750000D02*
G75*
G03*
X17705000Y-8750000I-155000J0D01*
G01*
X12250000Y-13600000D02*
X17550000Y-13600000D01*
X17550000Y-13600000D02*
G75*
G03*
X17900000Y-13250000I0J350000D01*
G01*
D11*
D12*
X12005000Y-10855000D02*
X12045000Y-10895000D01*
X12045000Y-10855000D02*
X12005000Y-10895000D01*
X12433080Y-12657850D02*
X12473080Y-12697850D01*
X12473080Y-12657850D02*
X12433080Y-12697850D01*
X12899700Y-12832310D02*
X12939700Y-12872310D01*
X12939700Y-12832310D02*
X12899700Y-12872310D01*
X12970520Y-11986200D02*
X13010520Y-12026200D01*
X13010520Y-11986200D02*
X12970520Y-12026200D01*
X13100140Y-11377320D02*
X13140140Y-11417320D01*
X13140140Y-11377320D02*
X13100140Y-11417320D01*
X13240990Y-11961860D02*
X13280990Y-12001860D01*
X13280990Y-11961860D02*
X13240990Y-12001860D01*
X13257660Y-11723110D02*
X13297660Y-11763110D01*
X13297660Y-11723110D02*
X13257660Y-11763110D01*
X13260050Y-13255000D02*
X13300050Y-13295000D01*
X13300050Y-13255000D02*
X13260050Y-13295000D01*
X13260280Y-11616600D02*
X13300280Y-11656600D01*
X13300280Y-11616600D02*
X13260280Y-11656600D01*
X13430000Y-13260050D02*
X13470000Y-13300050D01*
X13470000Y-13260050D02*
X13430000Y-13300050D01*
X13477030Y-11881840D02*
X13517030Y-11921840D01*
X13517030Y-11881840D02*
X13477030Y-11921840D01*
X13492010Y-11612130D02*
X13532010Y-11652130D01*
X13532010Y-11612130D02*
X13492010Y-11652130D01*
X13555000Y-10403750D02*
X13595000Y-10443750D01*
X13595000Y-10403750D02*
X13555000Y-10443750D01*
X13679380Y-12883340D02*
X13719380Y-12923340D01*
X13719380Y-12883340D02*
X13679380Y-12923340D01*
X13967980Y-10891380D02*
X14007980Y-10931380D01*
X14007980Y-10891380D02*
X13967980Y-10931380D01*
X14070730Y-12791670D02*
X14110730Y-12831670D01*
X14110730Y-12791670D02*
X14070730Y-12831670D01*
X14310550Y-12087040D02*
X14350550Y-12127040D01*
X14350550Y-12087040D02*
X14310550Y-12127040D01*
X14341880Y-10954140D02*
X14381880Y-10994140D01*
X14381880Y-10954140D02*
X14341880Y-10994140D01*
X14345510Y-10665150D02*
X14385510Y-10705150D01*
X14385510Y-10665150D02*
X14345510Y-10705150D01*
X14521870Y-10711500D02*
X14561870Y-10751500D01*
X14561870Y-10711500D02*
X14521870Y-10751500D01*
X14576730Y-11452730D02*
X14616730Y-11492730D01*
X14616730Y-11452730D02*
X14576730Y-11492730D01*
X14664990Y-10857530D02*
X14704990Y-10897530D01*
X14704990Y-10857530D02*
X14664990Y-10897530D01*
X14676550Y-11002920D02*
X14716550Y-11042920D01*
X14716550Y-11002920D02*
X14676550Y-11042920D01*
X14681770Y-9824750D02*
X14721770Y-9864750D01*
X14721770Y-9824750D02*
X14681770Y-9864750D01*
X14708070Y-12284990D02*
X14748070Y-12324990D01*
X14748070Y-12284990D02*
X14708070Y-12324990D01*
X14828280Y-11263850D02*
X14868280Y-11303850D01*
X14868280Y-11263850D02*
X14828280Y-11303850D01*
X14876960Y-11678010D02*
X14916960Y-11718010D01*
X14916960Y-11678010D02*
X14876960Y-11718010D01*
X14962300Y-10735610D02*
X15002300Y-10775610D01*
X15002300Y-10735610D02*
X14962300Y-10775610D01*
X15005950Y-10899600D02*
X15045950Y-10939600D01*
X15045950Y-10899600D02*
X15005950Y-10939600D01*
X15082370Y-11028790D02*
X15122370Y-11068790D01*
X15122370Y-11028790D02*
X15082370Y-11068790D01*
X15125400Y-10264730D02*
X15165400Y-10304730D01*
X15165400Y-10264730D02*
X15125400Y-10304730D01*
X15141430Y-11399930D02*
X15181430Y-11439930D01*
X15181430Y-11399930D02*
X15141430Y-11439930D01*
X15172010Y-12315790D02*
X15212010Y-12355790D01*
X15212010Y-12315790D02*
X15172010Y-12355790D01*
X15186540Y-12214980D02*
X15226540Y-12254980D01*
X15226540Y-12214980D02*
X15186540Y-12254980D01*
X15189700Y-10556520D02*
X15229700Y-10596520D01*
X15229700Y-10556520D02*
X15189700Y-10596520D01*
X15236170Y-11914820D02*
X15276170Y-11954820D01*
X15276170Y-11914820D02*
X15236170Y-11954820D01*
X15303170Y-11000740D02*
X15343170Y-11040740D01*
X15343170Y-11000740D02*
X15303170Y-11040740D01*
X15306110Y-11100940D02*
X15346110Y-11140940D01*
X15346110Y-11100940D02*
X15306110Y-11140940D01*
X15339210Y-11594420D02*
X15379210Y-11634420D01*
X15379210Y-11594420D02*
X15339210Y-11634420D01*
X15356220Y-11906010D02*
X15396220Y-11946010D01*
X15396220Y-11906010D02*
X15356220Y-11946010D01*
X15366850Y-10785680D02*
X15406850Y-10825680D01*
X15406850Y-10785680D02*
X15366850Y-10825680D01*
X15367590Y-10162670D02*
X15407590Y-10202670D01*
X15407590Y-10162670D02*
X15367590Y-10202670D01*
X15426010Y-10884280D02*
X15466010Y-10924280D01*
X15466010Y-10884280D02*
X15426010Y-10924280D01*
X15442190Y-11031000D02*
X15482190Y-11071000D01*
X15482190Y-11031000D02*
X15442190Y-11071000D01*
X15470490Y-11916360D02*
X15510490Y-11956360D01*
X15510490Y-11916360D02*
X15470490Y-11956360D01*
X15474820Y-10684780D02*
X15514820Y-10724780D01*
X15514820Y-10684780D02*
X15474820Y-10724780D01*
X15485710Y-10037070D02*
X15525710Y-10077070D01*
X15525710Y-10037070D02*
X15485710Y-10077070D01*
X15488050Y-11536640D02*
X15528050Y-11576640D01*
X15528050Y-11536640D02*
X15488050Y-11576640D01*
X15521250Y-13148570D02*
X15561250Y-13188570D01*
X15561250Y-13148570D02*
X15521250Y-13188570D01*
X15525420Y-10778070D02*
X15565420Y-10818070D01*
X15565420Y-10778070D02*
X15525420Y-10818070D01*
X15532390Y-10150990D02*
X15572390Y-10190990D01*
X15572390Y-10150990D02*
X15532390Y-10190990D01*
X15560750Y-12275260D02*
X15600750Y-12315260D01*
X15600750Y-12275260D02*
X15560750Y-12315260D01*
X15574730Y-11451200D02*
X15614730Y-11491200D01*
X15614730Y-11451200D02*
X15574730Y-11491200D01*
X15612140Y-9957500D02*
X15652140Y-9997500D01*
X15652140Y-9957500D02*
X15612140Y-9997500D01*
X16210690Y-11040730D02*
X16250690Y-11080730D01*
X16250690Y-11040730D02*
X16210690Y-11080730D01*
X16321400Y-10232110D02*
X16361400Y-10272110D01*
X16361400Y-10232110D02*
X16321400Y-10272110D01*
D13*
X12415000Y-9215000D02*
G75*
G03*
X12415000Y-9215000I-40000J0D01*
G01*
D11*
X12415000Y-9175000D02*
X12335000Y-9175000D01*
X12335000Y-9175000D02*
G75*
G03*
X12335000Y-9255000I0J-40000D01*
G01*
X12335000Y-9255000D02*
X12415000Y-9255000D01*
X12415000Y-9255000D02*
G75*
G03*
X12415000Y-9175000I0J40000D01*
G01*
D13*
X12415000Y-10375000D02*
G75*
G03*
X12415000Y-10375000I-40000J0D01*
G01*
D11*
X12415000Y-10335000D02*
X12335000Y-10335000D01*
X12335000Y-10335000D02*
G75*
G03*
X12335000Y-10415000I0J-40000D01*
G01*
X12335000Y-10415000D02*
X12415000Y-10415000D01*
X12415000Y-10415000D02*
G75*
G03*
X12415000Y-10335000I0J40000D01*
G01*
D13*
X16702400Y-10358200D02*
G75*
G03*
X16702400Y-10358200I-40000J0D01*
G01*
X16702400Y-10846200D02*
G75*
G03*
X16702400Y-10846200I-40000J0D01*
G01*
D10*
X12375000Y-9445000D02*
X12375000Y-9545000D01*
X12325000Y-9495000D02*
X12425000Y-9495000D01*
X12375000Y-9745000D02*
X12375000Y-9845000D01*
X12325000Y-9795000D02*
X12425000Y-9795000D01*
X12375000Y-10045000D02*
X12375000Y-10145000D01*
X12325000Y-10095000D02*
X12425000Y-10095000D01*
X12450000Y-11763500D02*
X12450000Y-11863500D01*
X12400000Y-11813500D02*
X12500000Y-11813500D01*
X12450000Y-12013500D02*
X12450000Y-12113500D01*
X12400000Y-12063500D02*
X12500000Y-12063500D01*
X13159200Y-8789200D02*
X13159200Y-8889200D01*
X13109200Y-8839200D02*
X13209200Y-8839200D01*
X13409200Y-8789200D02*
X13409200Y-8889200D01*
X13359200Y-8839200D02*
X13459200Y-8839200D01*
X14071600Y-8916200D02*
X14071600Y-9016200D01*
X14021600Y-8966200D02*
X14121600Y-8966200D01*
X14071600Y-9170200D02*
X14071600Y-9270200D01*
X14021600Y-9220200D02*
X14121600Y-9220200D01*
X14325600Y-8916200D02*
X14325600Y-9016200D01*
X14275600Y-8966200D02*
X14375600Y-8966200D01*
X14325600Y-9170200D02*
X14325600Y-9270200D01*
X14275600Y-9220200D02*
X14375600Y-9220200D01*
X14579600Y-8916200D02*
X14579600Y-9016200D01*
X14529600Y-8966200D02*
X14629600Y-8966200D01*
X14579600Y-9170200D02*
X14579600Y-9270200D01*
X14529600Y-9220200D02*
X14629600Y-9220200D01*
X14833600Y-8916200D02*
X14833600Y-9016200D01*
X14783600Y-8966200D02*
X14883600Y-8966200D01*
X14833600Y-9170200D02*
X14833600Y-9270200D01*
X14783600Y-9220200D02*
X14883600Y-9220200D01*
X15087600Y-8916200D02*
X15087600Y-9016200D01*
X15037600Y-8966200D02*
X15137600Y-8966200D01*
X15087600Y-9170200D02*
X15087600Y-9270200D01*
X15037600Y-9220200D02*
X15137600Y-9220200D01*
X15341600Y-8916200D02*
X15341600Y-9016200D01*
X15291600Y-8966200D02*
X15391600Y-8966200D01*
X15341600Y-9170200D02*
X15341600Y-9270200D01*
X15291600Y-9220200D02*
X15391600Y-9220200D01*
X15595600Y-8916200D02*
X15595600Y-9016200D01*
X15545600Y-8966200D02*
X15645600Y-8966200D01*
X15595600Y-9170200D02*
X15595600Y-9270200D01*
X15545600Y-9220200D02*
X15645600Y-9220200D01*
X15849600Y-8916200D02*
X15849600Y-9016200D01*
X15799600Y-8966200D02*
X15899600Y-8966200D01*
X15849600Y-9170200D02*
X15849600Y-9270200D01*
X15799600Y-9220200D02*
X15899600Y-9220200D01*
X16103600Y-8916200D02*
X16103600Y-9016200D01*
X16053600Y-8966200D02*
X16153600Y-8966200D01*
X16103600Y-9170200D02*
X16103600Y-9270200D01*
X16053600Y-9220200D02*
X16153600Y-9220200D01*
X16104640Y-12202960D02*
X16104640Y-12302960D01*
X16054640Y-12252960D02*
X16154640Y-12252960D01*
X16104640Y-12746520D02*
X16104640Y-12846520D01*
X16054640Y-12796520D02*
X16154640Y-12796520D01*
X16104640Y-13259600D02*
X16104640Y-13359600D01*
X16054640Y-13309600D02*
X16154640Y-13309600D01*
X16357600Y-8916200D02*
X16357600Y-9016200D01*
X16307600Y-8966200D02*
X16407600Y-8966200D01*
X16357600Y-9170200D02*
X16357600Y-9270200D01*
X16307600Y-9220200D02*
X16407600Y-9220200D01*
X16358640Y-12202960D02*
X16358640Y-12302960D01*
X16308640Y-12252960D02*
X16408640Y-12252960D01*
X16358640Y-12746520D02*
X16358640Y-12846520D01*
X16308640Y-12796520D02*
X16408640Y-12796520D01*
X16358640Y-13259600D02*
X16358640Y-13359600D01*
X16308640Y-13309600D02*
X16408640Y-13309600D01*
X16611600Y-8916200D02*
X16611600Y-9016200D01*
X16561600Y-8966200D02*
X16661600Y-8966200D01*
X16611600Y-9170200D02*
X16611600Y-9270200D01*
X16561600Y-9220200D02*
X16661600Y-9220200D01*
X16612640Y-12202960D02*
X16612640Y-12302960D01*
X16562640Y-12252960D02*
X16662640Y-12252960D01*
X16612640Y-12746520D02*
X16612640Y-12846520D01*
X16562640Y-12796520D02*
X16662640Y-12796520D01*
X16612640Y-13259600D02*
X16612640Y-13359600D01*
X16562640Y-13309600D02*
X16662640Y-13309600D01*
X16865600Y-8916200D02*
X16865600Y-9016200D01*
X16815600Y-8966200D02*
X16915600Y-8966200D01*
X16865600Y-9170200D02*
X16865600Y-9270200D01*
X16815600Y-9220200D02*
X16915600Y-9220200D01*
X17358360Y-9652800D02*
X17358360Y-9752800D01*
X17308360Y-9702800D02*
X17408360Y-9702800D01*
X17358360Y-9906800D02*
X17358360Y-10006800D01*
X17308360Y-9956800D02*
X17408360Y-9956800D01*
X17358360Y-10160800D02*
X17358360Y-10260800D01*
X17308360Y-10210800D02*
X17408360Y-10210800D01*
X17368520Y-10694200D02*
X17368520Y-10794200D01*
X17318520Y-10744200D02*
X17418520Y-10744200D01*
X17368520Y-10948200D02*
X17368520Y-11048200D01*
X17318520Y-10998200D02*
X17418520Y-10998200D01*
X17368520Y-11202200D02*
X17368520Y-11302200D01*
X17318520Y-11252200D02*
X17418520Y-11252200D01*
X17368520Y-11456200D02*
X17368520Y-11556200D01*
X17318520Y-11506200D02*
X17418520Y-11506200D01*
X17381700Y-12070340D02*
X17381700Y-12170340D01*
X17331700Y-12120340D02*
X17431700Y-12120340D01*
X17381700Y-12320340D02*
X17381700Y-12420340D01*
X17331700Y-12370340D02*
X17431700Y-12370340D01*
X17612360Y-9652800D02*
X17612360Y-9752800D01*
X17562360Y-9702800D02*
X17662360Y-9702800D01*
X17612360Y-9906800D02*
X17612360Y-10006800D01*
X17562360Y-9956800D02*
X17662360Y-9956800D01*
X17612360Y-10160800D02*
X17612360Y-10260800D01*
X17562360Y-10210800D02*
X17662360Y-10210800D01*
D11*
X12155777Y-13916484D02*
X12155777Y-13716484D01*
X12155777Y-13716484D02*
X12203396Y-13716484D01*
X12203396Y-13716484D02*
X12231967Y-13726008D01*
X12231967Y-13726008D02*
X12251015Y-13745055D01*
X12251015Y-13745055D02*
X12260539Y-13764103D01*
X12260539Y-13764103D02*
X12270062Y-13802198D01*
X12270062Y-13802198D02*
X12270062Y-13830769D01*
X12270062Y-13830769D02*
X12260539Y-13868865D01*
X12260539Y-13868865D02*
X12251015Y-13887912D01*
X12251015Y-13887912D02*
X12231967Y-13906960D01*
X12231967Y-13906960D02*
X12203396Y-13916484D01*
X12203396Y-13916484D02*
X12155777Y-13916484D01*
X12355777Y-13916484D02*
X12355777Y-13783150D01*
X12355777Y-13821246D02*
X12365301Y-13802198D01*
X12365301Y-13802198D02*
X12374824Y-13792674D01*
X12374824Y-13792674D02*
X12393872Y-13783150D01*
X12393872Y-13783150D02*
X12412920Y-13783150D01*
X12479586Y-13916484D02*
X12479586Y-13783150D01*
X12479586Y-13716484D02*
X12470062Y-13726008D01*
X12470062Y-13726008D02*
X12479586Y-13735531D01*
X12479586Y-13735531D02*
X12489110Y-13726008D01*
X12489110Y-13726008D02*
X12479586Y-13716484D01*
X12479586Y-13716484D02*
X12479586Y-13735531D01*
X12603396Y-13916484D02*
X12584348Y-13906960D01*
X12584348Y-13906960D02*
X12574824Y-13887912D01*
X12574824Y-13887912D02*
X12574824Y-13716484D01*
X12708158Y-13916484D02*
X12689110Y-13906960D01*
X12689110Y-13906960D02*
X12679586Y-13887912D01*
X12679586Y-13887912D02*
X12679586Y-13716484D01*
X12936729Y-13916484D02*
X12936729Y-13716484D01*
X12936729Y-13716484D02*
X13003396Y-13859341D01*
X13003396Y-13859341D02*
X13070062Y-13716484D01*
X13070062Y-13716484D02*
X13070062Y-13916484D01*
X13251015Y-13916484D02*
X13251015Y-13811722D01*
X13251015Y-13811722D02*
X13241491Y-13792674D01*
X13241491Y-13792674D02*
X13222443Y-13783150D01*
X13222443Y-13783150D02*
X13184348Y-13783150D01*
X13184348Y-13783150D02*
X13165301Y-13792674D01*
X13251015Y-13906960D02*
X13231967Y-13916484D01*
X13231967Y-13916484D02*
X13184348Y-13916484D01*
X13184348Y-13916484D02*
X13165301Y-13906960D01*
X13165301Y-13906960D02*
X13155777Y-13887912D01*
X13155777Y-13887912D02*
X13155777Y-13868865D01*
X13155777Y-13868865D02*
X13165301Y-13849817D01*
X13165301Y-13849817D02*
X13184348Y-13840293D01*
X13184348Y-13840293D02*
X13231967Y-13840293D01*
X13231967Y-13840293D02*
X13251015Y-13830769D01*
X13346253Y-13783150D02*
X13346253Y-13983150D01*
X13346253Y-13792674D02*
X13365301Y-13783150D01*
X13365301Y-13783150D02*
X13403396Y-13783150D01*
X13403396Y-13783150D02*
X13422443Y-13792674D01*
X13422443Y-13792674D02*
X13431967Y-13802198D01*
X13431967Y-13802198D02*
X13441491Y-13821246D01*
X13441491Y-13821246D02*
X13441491Y-13878388D01*
X13441491Y-13878388D02*
X13431967Y-13897436D01*
X13431967Y-13897436D02*
X13422443Y-13906960D01*
X13422443Y-13906960D02*
X13403396Y-13916484D01*
X13403396Y-13916484D02*
X13365301Y-13916484D01*
X13365301Y-13916484D02*
X13346253Y-13906960D01*
X13527205Y-13897436D02*
X13536729Y-13906960D01*
X13536729Y-13906960D02*
X13527205Y-13916484D01*
X13527205Y-13916484D02*
X13517682Y-13906960D01*
X13517682Y-13906960D02*
X13527205Y-13897436D01*
X13527205Y-13897436D02*
X13527205Y-13916484D01*
X13527205Y-13792674D02*
X13536729Y-13802198D01*
X13536729Y-13802198D02*
X13527205Y-13811722D01*
X13527205Y-13811722D02*
X13517682Y-13802198D01*
X13517682Y-13802198D02*
X13527205Y-13792674D01*
X13527205Y-13792674D02*
X13527205Y-13811722D01*
D12*
X11855000Y-14225000D02*
X11895000Y-14265000D01*
X11895000Y-14225000D02*
X11855000Y-14265000D01*
D11*
X12193872Y-14136484D02*
X12212920Y-14136484D01*
X12212920Y-14136484D02*
X12231967Y-14146008D01*
X12231967Y-14146008D02*
X12241491Y-14155531D01*
X12241491Y-14155531D02*
X12251015Y-14174579D01*
X12251015Y-14174579D02*
X12260539Y-14212674D01*
X12260539Y-14212674D02*
X12260539Y-14260293D01*
X12260539Y-14260293D02*
X12251015Y-14298388D01*
X12251015Y-14298388D02*
X12241491Y-14317436D01*
X12241491Y-14317436D02*
X12231967Y-14326960D01*
X12231967Y-14326960D02*
X12212920Y-14336484D01*
X12212920Y-14336484D02*
X12193872Y-14336484D01*
X12193872Y-14336484D02*
X12174824Y-14326960D01*
X12174824Y-14326960D02*
X12165301Y-14317436D01*
X12165301Y-14317436D02*
X12155777Y-14298388D01*
X12155777Y-14298388D02*
X12146253Y-14260293D01*
X12146253Y-14260293D02*
X12146253Y-14212674D01*
X12146253Y-14212674D02*
X12155777Y-14174579D01*
X12155777Y-14174579D02*
X12165301Y-14155531D01*
X12165301Y-14155531D02*
X12174824Y-14146008D01*
X12174824Y-14146008D02*
X12193872Y-14136484D01*
X12346253Y-14317436D02*
X12355777Y-14326960D01*
X12355777Y-14326960D02*
X12346253Y-14336484D01*
X12346253Y-14336484D02*
X12336729Y-14326960D01*
X12336729Y-14326960D02*
X12346253Y-14317436D01*
X12346253Y-14317436D02*
X12346253Y-14336484D01*
X12527205Y-14203150D02*
X12527205Y-14336484D01*
X12479586Y-14126960D02*
X12431967Y-14269817D01*
X12431967Y-14269817D02*
X12555777Y-14269817D01*
X12670062Y-14136484D02*
X12689110Y-14136484D01*
X12689110Y-14136484D02*
X12708158Y-14146008D01*
X12708158Y-14146008D02*
X12717682Y-14155531D01*
X12717682Y-14155531D02*
X12727205Y-14174579D01*
X12727205Y-14174579D02*
X12736729Y-14212674D01*
X12736729Y-14212674D02*
X12736729Y-14260293D01*
X12736729Y-14260293D02*
X12727205Y-14298388D01*
X12727205Y-14298388D02*
X12717682Y-14317436D01*
X12717682Y-14317436D02*
X12708158Y-14326960D01*
X12708158Y-14326960D02*
X12689110Y-14336484D01*
X12689110Y-14336484D02*
X12670062Y-14336484D01*
X12670062Y-14336484D02*
X12651015Y-14326960D01*
X12651015Y-14326960D02*
X12641491Y-14317436D01*
X12641491Y-14317436D02*
X12631967Y-14298388D01*
X12631967Y-14298388D02*
X12622443Y-14260293D01*
X12622443Y-14260293D02*
X12622443Y-14212674D01*
X12622443Y-14212674D02*
X12631967Y-14174579D01*
X12631967Y-14174579D02*
X12641491Y-14155531D01*
X12641491Y-14155531D02*
X12651015Y-14146008D01*
X12651015Y-14146008D02*
X12670062Y-14136484D01*
X12860539Y-14136484D02*
X12879586Y-14136484D01*
X12879586Y-14136484D02*
X12898634Y-14146008D01*
X12898634Y-14146008D02*
X12908158Y-14155531D01*
X12908158Y-14155531D02*
X12917682Y-14174579D01*
X12917682Y-14174579D02*
X12927205Y-14212674D01*
X12927205Y-14212674D02*
X12927205Y-14260293D01*
X12927205Y-14260293D02*
X12917682Y-14298388D01*
X12917682Y-14298388D02*
X12908158Y-14317436D01*
X12908158Y-14317436D02*
X12898634Y-14326960D01*
X12898634Y-14326960D02*
X12879586Y-14336484D01*
X12879586Y-14336484D02*
X12860539Y-14336484D01*
X12860539Y-14336484D02*
X12841491Y-14326960D01*
X12841491Y-14326960D02*
X12831967Y-14317436D01*
X12831967Y-14317436D02*
X12822443Y-14298388D01*
X12822443Y-14298388D02*
X12812920Y-14260293D01*
X12812920Y-14260293D02*
X12812920Y-14212674D01*
X12812920Y-14212674D02*
X12822443Y-14174579D01*
X12822443Y-14174579D02*
X12831967Y-14155531D01*
X12831967Y-14155531D02*
X12841491Y-14146008D01*
X12841491Y-14146008D02*
X12860539Y-14136484D01*
X13012920Y-14336484D02*
X13012920Y-14203150D01*
X13012920Y-14222198D02*
X13022443Y-14212674D01*
X13022443Y-14212674D02*
X13041491Y-14203150D01*
X13041491Y-14203150D02*
X13070063Y-14203150D01*
X13070063Y-14203150D02*
X13089110Y-14212674D01*
X13089110Y-14212674D02*
X13098634Y-14231722D01*
X13098634Y-14231722D02*
X13098634Y-14336484D01*
X13098634Y-14231722D02*
X13108158Y-14212674D01*
X13108158Y-14212674D02*
X13127205Y-14203150D01*
X13127205Y-14203150D02*
X13155777Y-14203150D01*
X13155777Y-14203150D02*
X13174824Y-14212674D01*
X13174824Y-14212674D02*
X13184348Y-14231722D01*
X13184348Y-14231722D02*
X13184348Y-14336484D01*
X13279586Y-14336484D02*
X13279586Y-14203150D01*
X13279586Y-14222198D02*
X13289110Y-14212674D01*
X13289110Y-14212674D02*
X13308158Y-14203150D01*
X13308158Y-14203150D02*
X13336729Y-14203150D01*
X13336729Y-14203150D02*
X13355777Y-14212674D01*
X13355777Y-14212674D02*
X13365301Y-14231722D01*
X13365301Y-14231722D02*
X13365301Y-14336484D01*
X13365301Y-14231722D02*
X13374824Y-14212674D01*
X13374824Y-14212674D02*
X13393872Y-14203150D01*
X13393872Y-14203150D02*
X13422443Y-14203150D01*
X13422443Y-14203150D02*
X13441491Y-14212674D01*
X13441491Y-14212674D02*
X13451015Y-14231722D01*
X13451015Y-14231722D02*
X13451015Y-14336484D01*
X13841491Y-14126960D02*
X13670063Y-14384103D01*
X14098634Y-14136484D02*
X14117682Y-14136484D01*
X14117682Y-14136484D02*
X14136729Y-14146008D01*
X14136729Y-14146008D02*
X14146253Y-14155531D01*
X14146253Y-14155531D02*
X14155777Y-14174579D01*
X14155777Y-14174579D02*
X14165301Y-14212674D01*
X14165301Y-14212674D02*
X14165301Y-14260293D01*
X14165301Y-14260293D02*
X14155777Y-14298388D01*
X14155777Y-14298388D02*
X14146253Y-14317436D01*
X14146253Y-14317436D02*
X14136729Y-14326960D01*
X14136729Y-14326960D02*
X14117682Y-14336484D01*
X14117682Y-14336484D02*
X14098634Y-14336484D01*
X14098634Y-14336484D02*
X14079586Y-14326960D01*
X14079586Y-14326960D02*
X14070063Y-14317436D01*
X14070063Y-14317436D02*
X14060539Y-14298388D01*
X14060539Y-14298388D02*
X14051015Y-14260293D01*
X14051015Y-14260293D02*
X14051015Y-14212674D01*
X14051015Y-14212674D02*
X14060539Y-14174579D01*
X14060539Y-14174579D02*
X14070063Y-14155531D01*
X14070063Y-14155531D02*
X14079586Y-14146008D01*
X14079586Y-14146008D02*
X14098634Y-14136484D01*
X14251015Y-14317436D02*
X14260539Y-14326960D01*
X14260539Y-14326960D02*
X14251015Y-14336484D01*
X14251015Y-14336484D02*
X14241491Y-14326960D01*
X14241491Y-14326960D02*
X14251015Y-14317436D01*
X14251015Y-14317436D02*
X14251015Y-14336484D01*
X14384348Y-14136484D02*
X14403396Y-14136484D01*
X14403396Y-14136484D02*
X14422444Y-14146008D01*
X14422444Y-14146008D02*
X14431967Y-14155531D01*
X14431967Y-14155531D02*
X14441491Y-14174579D01*
X14441491Y-14174579D02*
X14451015Y-14212674D01*
X14451015Y-14212674D02*
X14451015Y-14260293D01*
X14451015Y-14260293D02*
X14441491Y-14298388D01*
X14441491Y-14298388D02*
X14431967Y-14317436D01*
X14431967Y-14317436D02*
X14422444Y-14326960D01*
X14422444Y-14326960D02*
X14403396Y-14336484D01*
X14403396Y-14336484D02*
X14384348Y-14336484D01*
X14384348Y-14336484D02*
X14365301Y-14326960D01*
X14365301Y-14326960D02*
X14355777Y-14317436D01*
X14355777Y-14317436D02*
X14346253Y-14298388D01*
X14346253Y-14298388D02*
X14336729Y-14260293D01*
X14336729Y-14260293D02*
X14336729Y-14212674D01*
X14336729Y-14212674D02*
X14346253Y-14174579D01*
X14346253Y-14174579D02*
X14355777Y-14155531D01*
X14355777Y-14155531D02*
X14365301Y-14146008D01*
X14365301Y-14146008D02*
X14384348Y-14136484D01*
X14641491Y-14336484D02*
X14527206Y-14336484D01*
X14584348Y-14336484D02*
X14584348Y-14136484D01*
X14584348Y-14136484D02*
X14565301Y-14165055D01*
X14565301Y-14165055D02*
X14546253Y-14184103D01*
X14546253Y-14184103D02*
X14527206Y-14193627D01*
X14822444Y-14136484D02*
X14727206Y-14136484D01*
X14727206Y-14136484D02*
X14717682Y-14231722D01*
X14717682Y-14231722D02*
X14727206Y-14222198D01*
X14727206Y-14222198D02*
X14746253Y-14212674D01*
X14746253Y-14212674D02*
X14793872Y-14212674D01*
X14793872Y-14212674D02*
X14812920Y-14222198D01*
X14812920Y-14222198D02*
X14822444Y-14231722D01*
X14822444Y-14231722D02*
X14831967Y-14250769D01*
X14831967Y-14250769D02*
X14831967Y-14298388D01*
X14831967Y-14298388D02*
X14822444Y-14317436D01*
X14822444Y-14317436D02*
X14812920Y-14326960D01*
X14812920Y-14326960D02*
X14793872Y-14336484D01*
X14793872Y-14336484D02*
X14746253Y-14336484D01*
X14746253Y-14336484D02*
X14727206Y-14326960D01*
X14727206Y-14326960D02*
X14717682Y-14317436D01*
X14898634Y-14136484D02*
X15031967Y-14136484D01*
X15031967Y-14136484D02*
X14946253Y-14336484D01*
X15098634Y-14136484D02*
X15098634Y-14174579D01*
X15174825Y-14136484D02*
X15174825Y-14174579D01*
X15470063Y-14412674D02*
X15460539Y-14403150D01*
X15460539Y-14403150D02*
X15441491Y-14374579D01*
X15441491Y-14374579D02*
X15431968Y-14355531D01*
X15431968Y-14355531D02*
X15422444Y-14326960D01*
X15422444Y-14326960D02*
X15412920Y-14279341D01*
X15412920Y-14279341D02*
X15412920Y-14241246D01*
X15412920Y-14241246D02*
X15422444Y-14193627D01*
X15422444Y-14193627D02*
X15431968Y-14165055D01*
X15431968Y-14165055D02*
X15441491Y-14146008D01*
X15441491Y-14146008D02*
X15460539Y-14117436D01*
X15460539Y-14117436D02*
X15470063Y-14107912D01*
X15641491Y-14136484D02*
X15546253Y-14136484D01*
X15546253Y-14136484D02*
X15536729Y-14231722D01*
X15536729Y-14231722D02*
X15546253Y-14222198D01*
X15546253Y-14222198D02*
X15565301Y-14212674D01*
X15565301Y-14212674D02*
X15612920Y-14212674D01*
X15612920Y-14212674D02*
X15631968Y-14222198D01*
X15631968Y-14222198D02*
X15641491Y-14231722D01*
X15641491Y-14231722D02*
X15651015Y-14250769D01*
X15651015Y-14250769D02*
X15651015Y-14298388D01*
X15651015Y-14298388D02*
X15641491Y-14317436D01*
X15641491Y-14317436D02*
X15631968Y-14326960D01*
X15631968Y-14326960D02*
X15612920Y-14336484D01*
X15612920Y-14336484D02*
X15565301Y-14336484D01*
X15565301Y-14336484D02*
X15546253Y-14326960D01*
X15546253Y-14326960D02*
X15536729Y-14317436D01*
X15822444Y-14136484D02*
X15784348Y-14136484D01*
X15784348Y-14136484D02*
X15765301Y-14146008D01*
X15765301Y-14146008D02*
X15755777Y-14155531D01*
X15755777Y-14155531D02*
X15736729Y-14184103D01*
X15736729Y-14184103D02*
X15727206Y-14222198D01*
X15727206Y-14222198D02*
X15727206Y-14298388D01*
X15727206Y-14298388D02*
X15736729Y-14317436D01*
X15736729Y-14317436D02*
X15746253Y-14326960D01*
X15746253Y-14326960D02*
X15765301Y-14336484D01*
X15765301Y-14336484D02*
X15803396Y-14336484D01*
X15803396Y-14336484D02*
X15822444Y-14326960D01*
X15822444Y-14326960D02*
X15831968Y-14317436D01*
X15831968Y-14317436D02*
X15841491Y-14298388D01*
X15841491Y-14298388D02*
X15841491Y-14250769D01*
X15841491Y-14250769D02*
X15831968Y-14231722D01*
X15831968Y-14231722D02*
X15822444Y-14222198D01*
X15822444Y-14222198D02*
X15803396Y-14212674D01*
X15803396Y-14212674D02*
X15765301Y-14212674D01*
X15765301Y-14212674D02*
X15746253Y-14222198D01*
X15746253Y-14222198D02*
X15736729Y-14231722D01*
X15736729Y-14231722D02*
X15727206Y-14250769D01*
X16079587Y-14336484D02*
X16079587Y-14136484D01*
X16165301Y-14336484D02*
X16165301Y-14231722D01*
X16165301Y-14231722D02*
X16155777Y-14212674D01*
X16155777Y-14212674D02*
X16136730Y-14203150D01*
X16136730Y-14203150D02*
X16108158Y-14203150D01*
X16108158Y-14203150D02*
X16089110Y-14212674D01*
X16089110Y-14212674D02*
X16079587Y-14222198D01*
X16289110Y-14336484D02*
X16270063Y-14326960D01*
X16270063Y-14326960D02*
X16260539Y-14317436D01*
X16260539Y-14317436D02*
X16251015Y-14298388D01*
X16251015Y-14298388D02*
X16251015Y-14241246D01*
X16251015Y-14241246D02*
X16260539Y-14222198D01*
X16260539Y-14222198D02*
X16270063Y-14212674D01*
X16270063Y-14212674D02*
X16289110Y-14203150D01*
X16289110Y-14203150D02*
X16317682Y-14203150D01*
X16317682Y-14203150D02*
X16336730Y-14212674D01*
X16336730Y-14212674D02*
X16346253Y-14222198D01*
X16346253Y-14222198D02*
X16355777Y-14241246D01*
X16355777Y-14241246D02*
X16355777Y-14298388D01*
X16355777Y-14298388D02*
X16346253Y-14317436D01*
X16346253Y-14317436D02*
X16336730Y-14326960D01*
X16336730Y-14326960D02*
X16317682Y-14336484D01*
X16317682Y-14336484D02*
X16289110Y-14336484D01*
X16470063Y-14336484D02*
X16451015Y-14326960D01*
X16451015Y-14326960D02*
X16441491Y-14307912D01*
X16441491Y-14307912D02*
X16441491Y-14136484D01*
X16622444Y-14326960D02*
X16603396Y-14336484D01*
X16603396Y-14336484D02*
X16565301Y-14336484D01*
X16565301Y-14336484D02*
X16546253Y-14326960D01*
X16546253Y-14326960D02*
X16536730Y-14307912D01*
X16536730Y-14307912D02*
X16536730Y-14231722D01*
X16536730Y-14231722D02*
X16546253Y-14212674D01*
X16546253Y-14212674D02*
X16565301Y-14203150D01*
X16565301Y-14203150D02*
X16603396Y-14203150D01*
X16603396Y-14203150D02*
X16622444Y-14212674D01*
X16622444Y-14212674D02*
X16631968Y-14231722D01*
X16631968Y-14231722D02*
X16631968Y-14250769D01*
X16631968Y-14250769D02*
X16536730Y-14269817D01*
X16708158Y-14326960D02*
X16727206Y-14336484D01*
X16727206Y-14336484D02*
X16765301Y-14336484D01*
X16765301Y-14336484D02*
X16784349Y-14326960D01*
X16784349Y-14326960D02*
X16793873Y-14307912D01*
X16793873Y-14307912D02*
X16793873Y-14298388D01*
X16793873Y-14298388D02*
X16784349Y-14279341D01*
X16784349Y-14279341D02*
X16765301Y-14269817D01*
X16765301Y-14269817D02*
X16736730Y-14269817D01*
X16736730Y-14269817D02*
X16717682Y-14260293D01*
X16717682Y-14260293D02*
X16708158Y-14241246D01*
X16708158Y-14241246D02*
X16708158Y-14231722D01*
X16708158Y-14231722D02*
X16717682Y-14212674D01*
X16717682Y-14212674D02*
X16736730Y-14203150D01*
X16736730Y-14203150D02*
X16765301Y-14203150D01*
X16765301Y-14203150D02*
X16784349Y-14212674D01*
X16860539Y-14412674D02*
X16870063Y-14403150D01*
X16870063Y-14403150D02*
X16889111Y-14374579D01*
X16889111Y-14374579D02*
X16898634Y-14355531D01*
X16898634Y-14355531D02*
X16908158Y-14326960D01*
X16908158Y-14326960D02*
X16917682Y-14279341D01*
X16917682Y-14279341D02*
X16917682Y-14241246D01*
X16917682Y-14241246D02*
X16908158Y-14193627D01*
X16908158Y-14193627D02*
X16898634Y-14165055D01*
X16898634Y-14165055D02*
X16889111Y-14146008D01*
X16889111Y-14146008D02*
X16870063Y-14117436D01*
X16870063Y-14117436D02*
X16860539Y-14107912D01*
D13*
X11895000Y-14509000D02*
G75*
G03*
X11895000Y-14509000I-40000J0D01*
G01*
D11*
X12193872Y-14400484D02*
X12212920Y-14400484D01*
X12212920Y-14400484D02*
X12231967Y-14410008D01*
X12231967Y-14410008D02*
X12241491Y-14419531D01*
X12241491Y-14419531D02*
X12251015Y-14438579D01*
X12251015Y-14438579D02*
X12260539Y-14476674D01*
X12260539Y-14476674D02*
X12260539Y-14524293D01*
X12260539Y-14524293D02*
X12251015Y-14562388D01*
X12251015Y-14562388D02*
X12241491Y-14581436D01*
X12241491Y-14581436D02*
X12231967Y-14590960D01*
X12231967Y-14590960D02*
X12212920Y-14600484D01*
X12212920Y-14600484D02*
X12193872Y-14600484D01*
X12193872Y-14600484D02*
X12174824Y-14590960D01*
X12174824Y-14590960D02*
X12165301Y-14581436D01*
X12165301Y-14581436D02*
X12155777Y-14562388D01*
X12155777Y-14562388D02*
X12146253Y-14524293D01*
X12146253Y-14524293D02*
X12146253Y-14476674D01*
X12146253Y-14476674D02*
X12155777Y-14438579D01*
X12155777Y-14438579D02*
X12165301Y-14419531D01*
X12165301Y-14419531D02*
X12174824Y-14410008D01*
X12174824Y-14410008D02*
X12193872Y-14400484D01*
X12346253Y-14581436D02*
X12355777Y-14590960D01*
X12355777Y-14590960D02*
X12346253Y-14600484D01*
X12346253Y-14600484D02*
X12336729Y-14590960D01*
X12336729Y-14590960D02*
X12346253Y-14581436D01*
X12346253Y-14581436D02*
X12346253Y-14600484D01*
X12470062Y-14486198D02*
X12451015Y-14476674D01*
X12451015Y-14476674D02*
X12441491Y-14467150D01*
X12441491Y-14467150D02*
X12431967Y-14448103D01*
X12431967Y-14448103D02*
X12431967Y-14438579D01*
X12431967Y-14438579D02*
X12441491Y-14419531D01*
X12441491Y-14419531D02*
X12451015Y-14410008D01*
X12451015Y-14410008D02*
X12470062Y-14400484D01*
X12470062Y-14400484D02*
X12508158Y-14400484D01*
X12508158Y-14400484D02*
X12527205Y-14410008D01*
X12527205Y-14410008D02*
X12536729Y-14419531D01*
X12536729Y-14419531D02*
X12546253Y-14438579D01*
X12546253Y-14438579D02*
X12546253Y-14448103D01*
X12546253Y-14448103D02*
X12536729Y-14467150D01*
X12536729Y-14467150D02*
X12527205Y-14476674D01*
X12527205Y-14476674D02*
X12508158Y-14486198D01*
X12508158Y-14486198D02*
X12470062Y-14486198D01*
X12470062Y-14486198D02*
X12451015Y-14495722D01*
X12451015Y-14495722D02*
X12441491Y-14505246D01*
X12441491Y-14505246D02*
X12431967Y-14524293D01*
X12431967Y-14524293D02*
X12431967Y-14562388D01*
X12431967Y-14562388D02*
X12441491Y-14581436D01*
X12441491Y-14581436D02*
X12451015Y-14590960D01*
X12451015Y-14590960D02*
X12470062Y-14600484D01*
X12470062Y-14600484D02*
X12508158Y-14600484D01*
X12508158Y-14600484D02*
X12527205Y-14590960D01*
X12527205Y-14590960D02*
X12536729Y-14581436D01*
X12536729Y-14581436D02*
X12546253Y-14562388D01*
X12546253Y-14562388D02*
X12546253Y-14524293D01*
X12546253Y-14524293D02*
X12536729Y-14505246D01*
X12536729Y-14505246D02*
X12527205Y-14495722D01*
X12527205Y-14495722D02*
X12508158Y-14486198D01*
X12670062Y-14400484D02*
X12689110Y-14400484D01*
X12689110Y-14400484D02*
X12708158Y-14410008D01*
X12708158Y-14410008D02*
X12717682Y-14419531D01*
X12717682Y-14419531D02*
X12727205Y-14438579D01*
X12727205Y-14438579D02*
X12736729Y-14476674D01*
X12736729Y-14476674D02*
X12736729Y-14524293D01*
X12736729Y-14524293D02*
X12727205Y-14562388D01*
X12727205Y-14562388D02*
X12717682Y-14581436D01*
X12717682Y-14581436D02*
X12708158Y-14590960D01*
X12708158Y-14590960D02*
X12689110Y-14600484D01*
X12689110Y-14600484D02*
X12670062Y-14600484D01*
X12670062Y-14600484D02*
X12651015Y-14590960D01*
X12651015Y-14590960D02*
X12641491Y-14581436D01*
X12641491Y-14581436D02*
X12631967Y-14562388D01*
X12631967Y-14562388D02*
X12622443Y-14524293D01*
X12622443Y-14524293D02*
X12622443Y-14476674D01*
X12622443Y-14476674D02*
X12631967Y-14438579D01*
X12631967Y-14438579D02*
X12641491Y-14419531D01*
X12641491Y-14419531D02*
X12651015Y-14410008D01*
X12651015Y-14410008D02*
X12670062Y-14400484D01*
X12860539Y-14400484D02*
X12879586Y-14400484D01*
X12879586Y-14400484D02*
X12898634Y-14410008D01*
X12898634Y-14410008D02*
X12908158Y-14419531D01*
X12908158Y-14419531D02*
X12917682Y-14438579D01*
X12917682Y-14438579D02*
X12927205Y-14476674D01*
X12927205Y-14476674D02*
X12927205Y-14524293D01*
X12927205Y-14524293D02*
X12917682Y-14562388D01*
X12917682Y-14562388D02*
X12908158Y-14581436D01*
X12908158Y-14581436D02*
X12898634Y-14590960D01*
X12898634Y-14590960D02*
X12879586Y-14600484D01*
X12879586Y-14600484D02*
X12860539Y-14600484D01*
X12860539Y-14600484D02*
X12841491Y-14590960D01*
X12841491Y-14590960D02*
X12831967Y-14581436D01*
X12831967Y-14581436D02*
X12822443Y-14562388D01*
X12822443Y-14562388D02*
X12812920Y-14524293D01*
X12812920Y-14524293D02*
X12812920Y-14476674D01*
X12812920Y-14476674D02*
X12822443Y-14438579D01*
X12822443Y-14438579D02*
X12831967Y-14419531D01*
X12831967Y-14419531D02*
X12841491Y-14410008D01*
X12841491Y-14410008D02*
X12860539Y-14400484D01*
X13012920Y-14600484D02*
X13012920Y-14467150D01*
X13012920Y-14486198D02*
X13022443Y-14476674D01*
X13022443Y-14476674D02*
X13041491Y-14467150D01*
X13041491Y-14467150D02*
X13070063Y-14467150D01*
X13070063Y-14467150D02*
X13089110Y-14476674D01*
X13089110Y-14476674D02*
X13098634Y-14495722D01*
X13098634Y-14495722D02*
X13098634Y-14600484D01*
X13098634Y-14495722D02*
X13108158Y-14476674D01*
X13108158Y-14476674D02*
X13127205Y-14467150D01*
X13127205Y-14467150D02*
X13155777Y-14467150D01*
X13155777Y-14467150D02*
X13174824Y-14476674D01*
X13174824Y-14476674D02*
X13184348Y-14495722D01*
X13184348Y-14495722D02*
X13184348Y-14600484D01*
X13279586Y-14600484D02*
X13279586Y-14467150D01*
X13279586Y-14486198D02*
X13289110Y-14476674D01*
X13289110Y-14476674D02*
X13308158Y-14467150D01*
X13308158Y-14467150D02*
X13336729Y-14467150D01*
X13336729Y-14467150D02*
X13355777Y-14476674D01*
X13355777Y-14476674D02*
X13365301Y-14495722D01*
X13365301Y-14495722D02*
X13365301Y-14600484D01*
X13365301Y-14495722D02*
X13374824Y-14476674D01*
X13374824Y-14476674D02*
X13393872Y-14467150D01*
X13393872Y-14467150D02*
X13422443Y-14467150D01*
X13422443Y-14467150D02*
X13441491Y-14476674D01*
X13441491Y-14476674D02*
X13451015Y-14495722D01*
X13451015Y-14495722D02*
X13451015Y-14600484D01*
X13841491Y-14390960D02*
X13670063Y-14648103D01*
X14098634Y-14400484D02*
X14117682Y-14400484D01*
X14117682Y-14400484D02*
X14136729Y-14410008D01*
X14136729Y-14410008D02*
X14146253Y-14419531D01*
X14146253Y-14419531D02*
X14155777Y-14438579D01*
X14155777Y-14438579D02*
X14165301Y-14476674D01*
X14165301Y-14476674D02*
X14165301Y-14524293D01*
X14165301Y-14524293D02*
X14155777Y-14562388D01*
X14155777Y-14562388D02*
X14146253Y-14581436D01*
X14146253Y-14581436D02*
X14136729Y-14590960D01*
X14136729Y-14590960D02*
X14117682Y-14600484D01*
X14117682Y-14600484D02*
X14098634Y-14600484D01*
X14098634Y-14600484D02*
X14079586Y-14590960D01*
X14079586Y-14590960D02*
X14070063Y-14581436D01*
X14070063Y-14581436D02*
X14060539Y-14562388D01*
X14060539Y-14562388D02*
X14051015Y-14524293D01*
X14051015Y-14524293D02*
X14051015Y-14476674D01*
X14051015Y-14476674D02*
X14060539Y-14438579D01*
X14060539Y-14438579D02*
X14070063Y-14419531D01*
X14070063Y-14419531D02*
X14079586Y-14410008D01*
X14079586Y-14410008D02*
X14098634Y-14400484D01*
X14251015Y-14581436D02*
X14260539Y-14590960D01*
X14260539Y-14590960D02*
X14251015Y-14600484D01*
X14251015Y-14600484D02*
X14241491Y-14590960D01*
X14241491Y-14590960D02*
X14251015Y-14581436D01*
X14251015Y-14581436D02*
X14251015Y-14600484D01*
X14384348Y-14400484D02*
X14403396Y-14400484D01*
X14403396Y-14400484D02*
X14422444Y-14410008D01*
X14422444Y-14410008D02*
X14431967Y-14419531D01*
X14431967Y-14419531D02*
X14441491Y-14438579D01*
X14441491Y-14438579D02*
X14451015Y-14476674D01*
X14451015Y-14476674D02*
X14451015Y-14524293D01*
X14451015Y-14524293D02*
X14441491Y-14562388D01*
X14441491Y-14562388D02*
X14431967Y-14581436D01*
X14431967Y-14581436D02*
X14422444Y-14590960D01*
X14422444Y-14590960D02*
X14403396Y-14600484D01*
X14403396Y-14600484D02*
X14384348Y-14600484D01*
X14384348Y-14600484D02*
X14365301Y-14590960D01*
X14365301Y-14590960D02*
X14355777Y-14581436D01*
X14355777Y-14581436D02*
X14346253Y-14562388D01*
X14346253Y-14562388D02*
X14336729Y-14524293D01*
X14336729Y-14524293D02*
X14336729Y-14476674D01*
X14336729Y-14476674D02*
X14346253Y-14438579D01*
X14346253Y-14438579D02*
X14355777Y-14419531D01*
X14355777Y-14419531D02*
X14365301Y-14410008D01*
X14365301Y-14410008D02*
X14384348Y-14400484D01*
X14517682Y-14400484D02*
X14641491Y-14400484D01*
X14641491Y-14400484D02*
X14574825Y-14476674D01*
X14574825Y-14476674D02*
X14603396Y-14476674D01*
X14603396Y-14476674D02*
X14622444Y-14486198D01*
X14622444Y-14486198D02*
X14631967Y-14495722D01*
X14631967Y-14495722D02*
X14641491Y-14514769D01*
X14641491Y-14514769D02*
X14641491Y-14562388D01*
X14641491Y-14562388D02*
X14631967Y-14581436D01*
X14631967Y-14581436D02*
X14622444Y-14590960D01*
X14622444Y-14590960D02*
X14603396Y-14600484D01*
X14603396Y-14600484D02*
X14546253Y-14600484D01*
X14546253Y-14600484D02*
X14527206Y-14590960D01*
X14527206Y-14590960D02*
X14517682Y-14581436D01*
X14831967Y-14600484D02*
X14717682Y-14600484D01*
X14774825Y-14600484D02*
X14774825Y-14400484D01*
X14774825Y-14400484D02*
X14755777Y-14429055D01*
X14755777Y-14429055D02*
X14736729Y-14448103D01*
X14736729Y-14448103D02*
X14717682Y-14457627D01*
X15012920Y-14400484D02*
X14917682Y-14400484D01*
X14917682Y-14400484D02*
X14908158Y-14495722D01*
X14908158Y-14495722D02*
X14917682Y-14486198D01*
X14917682Y-14486198D02*
X14936729Y-14476674D01*
X14936729Y-14476674D02*
X14984348Y-14476674D01*
X14984348Y-14476674D02*
X15003396Y-14486198D01*
X15003396Y-14486198D02*
X15012920Y-14495722D01*
X15012920Y-14495722D02*
X15022444Y-14514769D01*
X15022444Y-14514769D02*
X15022444Y-14562388D01*
X15022444Y-14562388D02*
X15012920Y-14581436D01*
X15012920Y-14581436D02*
X15003396Y-14590960D01*
X15003396Y-14590960D02*
X14984348Y-14600484D01*
X14984348Y-14600484D02*
X14936729Y-14600484D01*
X14936729Y-14600484D02*
X14917682Y-14590960D01*
X14917682Y-14590960D02*
X14908158Y-14581436D01*
X15098634Y-14400484D02*
X15098634Y-14438579D01*
X15174825Y-14400484D02*
X15174825Y-14438579D01*
X15470063Y-14676674D02*
X15460539Y-14667150D01*
X15460539Y-14667150D02*
X15441491Y-14638579D01*
X15441491Y-14638579D02*
X15431968Y-14619531D01*
X15431968Y-14619531D02*
X15422444Y-14590960D01*
X15422444Y-14590960D02*
X15412920Y-14543341D01*
X15412920Y-14543341D02*
X15412920Y-14505246D01*
X15412920Y-14505246D02*
X15422444Y-14457627D01*
X15422444Y-14457627D02*
X15431968Y-14429055D01*
X15431968Y-14429055D02*
X15441491Y-14410008D01*
X15441491Y-14410008D02*
X15460539Y-14381436D01*
X15460539Y-14381436D02*
X15470063Y-14371912D01*
X15536729Y-14419531D02*
X15546253Y-14410008D01*
X15546253Y-14410008D02*
X15565301Y-14400484D01*
X15565301Y-14400484D02*
X15612920Y-14400484D01*
X15612920Y-14400484D02*
X15631968Y-14410008D01*
X15631968Y-14410008D02*
X15641491Y-14419531D01*
X15641491Y-14419531D02*
X15651015Y-14438579D01*
X15651015Y-14438579D02*
X15651015Y-14457627D01*
X15651015Y-14457627D02*
X15641491Y-14486198D01*
X15641491Y-14486198D02*
X15527206Y-14600484D01*
X15527206Y-14600484D02*
X15651015Y-14600484D01*
X15889110Y-14600484D02*
X15889110Y-14400484D01*
X15974825Y-14600484D02*
X15974825Y-14495722D01*
X15974825Y-14495722D02*
X15965301Y-14476674D01*
X15965301Y-14476674D02*
X15946253Y-14467150D01*
X15946253Y-14467150D02*
X15917682Y-14467150D01*
X15917682Y-14467150D02*
X15898634Y-14476674D01*
X15898634Y-14476674D02*
X15889110Y-14486198D01*
X16098634Y-14600484D02*
X16079587Y-14590960D01*
X16079587Y-14590960D02*
X16070063Y-14581436D01*
X16070063Y-14581436D02*
X16060539Y-14562388D01*
X16060539Y-14562388D02*
X16060539Y-14505246D01*
X16060539Y-14505246D02*
X16070063Y-14486198D01*
X16070063Y-14486198D02*
X16079587Y-14476674D01*
X16079587Y-14476674D02*
X16098634Y-14467150D01*
X16098634Y-14467150D02*
X16127206Y-14467150D01*
X16127206Y-14467150D02*
X16146253Y-14476674D01*
X16146253Y-14476674D02*
X16155777Y-14486198D01*
X16155777Y-14486198D02*
X16165301Y-14505246D01*
X16165301Y-14505246D02*
X16165301Y-14562388D01*
X16165301Y-14562388D02*
X16155777Y-14581436D01*
X16155777Y-14581436D02*
X16146253Y-14590960D01*
X16146253Y-14590960D02*
X16127206Y-14600484D01*
X16127206Y-14600484D02*
X16098634Y-14600484D01*
X16279587Y-14600484D02*
X16260539Y-14590960D01*
X16260539Y-14590960D02*
X16251015Y-14571912D01*
X16251015Y-14571912D02*
X16251015Y-14400484D01*
X16431968Y-14590960D02*
X16412920Y-14600484D01*
X16412920Y-14600484D02*
X16374825Y-14600484D01*
X16374825Y-14600484D02*
X16355777Y-14590960D01*
X16355777Y-14590960D02*
X16346253Y-14571912D01*
X16346253Y-14571912D02*
X16346253Y-14495722D01*
X16346253Y-14495722D02*
X16355777Y-14476674D01*
X16355777Y-14476674D02*
X16374825Y-14467150D01*
X16374825Y-14467150D02*
X16412920Y-14467150D01*
X16412920Y-14467150D02*
X16431968Y-14476674D01*
X16431968Y-14476674D02*
X16441491Y-14495722D01*
X16441491Y-14495722D02*
X16441491Y-14514769D01*
X16441491Y-14514769D02*
X16346253Y-14533817D01*
X16517682Y-14590960D02*
X16536730Y-14600484D01*
X16536730Y-14600484D02*
X16574825Y-14600484D01*
X16574825Y-14600484D02*
X16593872Y-14590960D01*
X16593872Y-14590960D02*
X16603396Y-14571912D01*
X16603396Y-14571912D02*
X16603396Y-14562388D01*
X16603396Y-14562388D02*
X16593872Y-14543341D01*
X16593872Y-14543341D02*
X16574825Y-14533817D01*
X16574825Y-14533817D02*
X16546253Y-14533817D01*
X16546253Y-14533817D02*
X16527206Y-14524293D01*
X16527206Y-14524293D02*
X16517682Y-14505246D01*
X16517682Y-14505246D02*
X16517682Y-14495722D01*
X16517682Y-14495722D02*
X16527206Y-14476674D01*
X16527206Y-14476674D02*
X16546253Y-14467150D01*
X16546253Y-14467150D02*
X16574825Y-14467150D01*
X16574825Y-14467150D02*
X16593872Y-14476674D01*
X16841492Y-14524293D02*
X16993873Y-14524293D01*
X16917682Y-14600484D02*
X16917682Y-14448103D01*
X17231968Y-14419531D02*
X17241492Y-14410008D01*
X17241492Y-14410008D02*
X17260539Y-14400484D01*
X17260539Y-14400484D02*
X17308158Y-14400484D01*
X17308158Y-14400484D02*
X17327206Y-14410008D01*
X17327206Y-14410008D02*
X17336730Y-14419531D01*
X17336730Y-14419531D02*
X17346254Y-14438579D01*
X17346254Y-14438579D02*
X17346254Y-14457627D01*
X17346254Y-14457627D02*
X17336730Y-14486198D01*
X17336730Y-14486198D02*
X17222444Y-14600484D01*
X17222444Y-14600484D02*
X17346254Y-14600484D01*
X17574825Y-14590960D02*
X17593873Y-14600484D01*
X17593873Y-14600484D02*
X17631968Y-14600484D01*
X17631968Y-14600484D02*
X17651016Y-14590960D01*
X17651016Y-14590960D02*
X17660539Y-14571912D01*
X17660539Y-14571912D02*
X17660539Y-14562388D01*
X17660539Y-14562388D02*
X17651016Y-14543341D01*
X17651016Y-14543341D02*
X17631968Y-14533817D01*
X17631968Y-14533817D02*
X17603396Y-14533817D01*
X17603396Y-14533817D02*
X17584349Y-14524293D01*
X17584349Y-14524293D02*
X17574825Y-14505246D01*
X17574825Y-14505246D02*
X17574825Y-14495722D01*
X17574825Y-14495722D02*
X17584349Y-14476674D01*
X17584349Y-14476674D02*
X17603396Y-14467150D01*
X17603396Y-14467150D02*
X17631968Y-14467150D01*
X17631968Y-14467150D02*
X17651016Y-14476674D01*
X17774825Y-14600484D02*
X17755777Y-14590960D01*
X17755777Y-14590960D02*
X17746254Y-14571912D01*
X17746254Y-14571912D02*
X17746254Y-14400484D01*
X17879587Y-14600484D02*
X17860539Y-14590960D01*
X17860539Y-14590960D02*
X17851016Y-14581436D01*
X17851016Y-14581436D02*
X17841492Y-14562388D01*
X17841492Y-14562388D02*
X17841492Y-14505246D01*
X17841492Y-14505246D02*
X17851016Y-14486198D01*
X17851016Y-14486198D02*
X17860539Y-14476674D01*
X17860539Y-14476674D02*
X17879587Y-14467150D01*
X17879587Y-14467150D02*
X17908158Y-14467150D01*
X17908158Y-14467150D02*
X17927206Y-14476674D01*
X17927206Y-14476674D02*
X17936730Y-14486198D01*
X17936730Y-14486198D02*
X17946254Y-14505246D01*
X17946254Y-14505246D02*
X17946254Y-14562388D01*
X17946254Y-14562388D02*
X17936730Y-14581436D01*
X17936730Y-14581436D02*
X17927206Y-14590960D01*
X17927206Y-14590960D02*
X17908158Y-14600484D01*
X17908158Y-14600484D02*
X17879587Y-14600484D01*
X18003397Y-14467150D02*
X18079587Y-14467150D01*
X18031968Y-14400484D02*
X18031968Y-14571912D01*
X18031968Y-14571912D02*
X18041492Y-14590960D01*
X18041492Y-14590960D02*
X18060539Y-14600484D01*
X18060539Y-14600484D02*
X18079587Y-14600484D01*
X18136730Y-14590960D02*
X18155777Y-14600484D01*
X18155777Y-14600484D02*
X18193873Y-14600484D01*
X18193873Y-14600484D02*
X18212920Y-14590960D01*
X18212920Y-14590960D02*
X18222444Y-14571912D01*
X18222444Y-14571912D02*
X18222444Y-14562388D01*
X18222444Y-14562388D02*
X18212920Y-14543341D01*
X18212920Y-14543341D02*
X18193873Y-14533817D01*
X18193873Y-14533817D02*
X18165301Y-14533817D01*
X18165301Y-14533817D02*
X18146254Y-14524293D01*
X18146254Y-14524293D02*
X18136730Y-14505246D01*
X18136730Y-14505246D02*
X18136730Y-14495722D01*
X18136730Y-14495722D02*
X18146254Y-14476674D01*
X18146254Y-14476674D02*
X18165301Y-14467150D01*
X18165301Y-14467150D02*
X18193873Y-14467150D01*
X18193873Y-14467150D02*
X18212920Y-14476674D01*
X18289111Y-14676674D02*
X18298635Y-14667150D01*
X18298635Y-14667150D02*
X18317682Y-14638579D01*
X18317682Y-14638579D02*
X18327206Y-14619531D01*
X18327206Y-14619531D02*
X18336730Y-14590960D01*
X18336730Y-14590960D02*
X18346254Y-14543341D01*
X18346254Y-14543341D02*
X18346254Y-14505246D01*
X18346254Y-14505246D02*
X18336730Y-14457627D01*
X18336730Y-14457627D02*
X18327206Y-14429055D01*
X18327206Y-14429055D02*
X18317682Y-14410008D01*
X18317682Y-14410008D02*
X18298635Y-14381436D01*
X18298635Y-14381436D02*
X18289111Y-14371912D01*
D10*
X11845000Y-14723000D02*
X11845000Y-14823000D01*
X11795000Y-14773000D02*
X11895000Y-14773000D01*
D11*
X12260539Y-14864484D02*
X12146253Y-14864484D01*
X12203396Y-14864484D02*
X12203396Y-14664484D01*
X12203396Y-14664484D02*
X12184348Y-14693055D01*
X12184348Y-14693055D02*
X12165301Y-14712103D01*
X12165301Y-14712103D02*
X12146253Y-14721627D01*
X12346253Y-14845436D02*
X12355777Y-14854960D01*
X12355777Y-14854960D02*
X12346253Y-14864484D01*
X12346253Y-14864484D02*
X12336729Y-14854960D01*
X12336729Y-14854960D02*
X12346253Y-14845436D01*
X12346253Y-14845436D02*
X12346253Y-14864484D01*
X12479586Y-14664484D02*
X12498634Y-14664484D01*
X12498634Y-14664484D02*
X12517682Y-14674008D01*
X12517682Y-14674008D02*
X12527205Y-14683531D01*
X12527205Y-14683531D02*
X12536729Y-14702579D01*
X12536729Y-14702579D02*
X12546253Y-14740674D01*
X12546253Y-14740674D02*
X12546253Y-14788293D01*
X12546253Y-14788293D02*
X12536729Y-14826388D01*
X12536729Y-14826388D02*
X12527205Y-14845436D01*
X12527205Y-14845436D02*
X12517682Y-14854960D01*
X12517682Y-14854960D02*
X12498634Y-14864484D01*
X12498634Y-14864484D02*
X12479586Y-14864484D01*
X12479586Y-14864484D02*
X12460539Y-14854960D01*
X12460539Y-14854960D02*
X12451015Y-14845436D01*
X12451015Y-14845436D02*
X12441491Y-14826388D01*
X12441491Y-14826388D02*
X12431967Y-14788293D01*
X12431967Y-14788293D02*
X12431967Y-14740674D01*
X12431967Y-14740674D02*
X12441491Y-14702579D01*
X12441491Y-14702579D02*
X12451015Y-14683531D01*
X12451015Y-14683531D02*
X12460539Y-14674008D01*
X12460539Y-14674008D02*
X12479586Y-14664484D01*
X12670062Y-14664484D02*
X12689110Y-14664484D01*
X12689110Y-14664484D02*
X12708158Y-14674008D01*
X12708158Y-14674008D02*
X12717682Y-14683531D01*
X12717682Y-14683531D02*
X12727205Y-14702579D01*
X12727205Y-14702579D02*
X12736729Y-14740674D01*
X12736729Y-14740674D02*
X12736729Y-14788293D01*
X12736729Y-14788293D02*
X12727205Y-14826388D01*
X12727205Y-14826388D02*
X12717682Y-14845436D01*
X12717682Y-14845436D02*
X12708158Y-14854960D01*
X12708158Y-14854960D02*
X12689110Y-14864484D01*
X12689110Y-14864484D02*
X12670062Y-14864484D01*
X12670062Y-14864484D02*
X12651015Y-14854960D01*
X12651015Y-14854960D02*
X12641491Y-14845436D01*
X12641491Y-14845436D02*
X12631967Y-14826388D01*
X12631967Y-14826388D02*
X12622443Y-14788293D01*
X12622443Y-14788293D02*
X12622443Y-14740674D01*
X12622443Y-14740674D02*
X12631967Y-14702579D01*
X12631967Y-14702579D02*
X12641491Y-14683531D01*
X12641491Y-14683531D02*
X12651015Y-14674008D01*
X12651015Y-14674008D02*
X12670062Y-14664484D01*
X12860539Y-14664484D02*
X12879586Y-14664484D01*
X12879586Y-14664484D02*
X12898634Y-14674008D01*
X12898634Y-14674008D02*
X12908158Y-14683531D01*
X12908158Y-14683531D02*
X12917682Y-14702579D01*
X12917682Y-14702579D02*
X12927205Y-14740674D01*
X12927205Y-14740674D02*
X12927205Y-14788293D01*
X12927205Y-14788293D02*
X12917682Y-14826388D01*
X12917682Y-14826388D02*
X12908158Y-14845436D01*
X12908158Y-14845436D02*
X12898634Y-14854960D01*
X12898634Y-14854960D02*
X12879586Y-14864484D01*
X12879586Y-14864484D02*
X12860539Y-14864484D01*
X12860539Y-14864484D02*
X12841491Y-14854960D01*
X12841491Y-14854960D02*
X12831967Y-14845436D01*
X12831967Y-14845436D02*
X12822443Y-14826388D01*
X12822443Y-14826388D02*
X12812920Y-14788293D01*
X12812920Y-14788293D02*
X12812920Y-14740674D01*
X12812920Y-14740674D02*
X12822443Y-14702579D01*
X12822443Y-14702579D02*
X12831967Y-14683531D01*
X12831967Y-14683531D02*
X12841491Y-14674008D01*
X12841491Y-14674008D02*
X12860539Y-14664484D01*
X13012920Y-14864484D02*
X13012920Y-14731150D01*
X13012920Y-14750198D02*
X13022443Y-14740674D01*
X13022443Y-14740674D02*
X13041491Y-14731150D01*
X13041491Y-14731150D02*
X13070063Y-14731150D01*
X13070063Y-14731150D02*
X13089110Y-14740674D01*
X13089110Y-14740674D02*
X13098634Y-14759722D01*
X13098634Y-14759722D02*
X13098634Y-14864484D01*
X13098634Y-14759722D02*
X13108158Y-14740674D01*
X13108158Y-14740674D02*
X13127205Y-14731150D01*
X13127205Y-14731150D02*
X13155777Y-14731150D01*
X13155777Y-14731150D02*
X13174824Y-14740674D01*
X13174824Y-14740674D02*
X13184348Y-14759722D01*
X13184348Y-14759722D02*
X13184348Y-14864484D01*
X13279586Y-14864484D02*
X13279586Y-14731150D01*
X13279586Y-14750198D02*
X13289110Y-14740674D01*
X13289110Y-14740674D02*
X13308158Y-14731150D01*
X13308158Y-14731150D02*
X13336729Y-14731150D01*
X13336729Y-14731150D02*
X13355777Y-14740674D01*
X13355777Y-14740674D02*
X13365301Y-14759722D01*
X13365301Y-14759722D02*
X13365301Y-14864484D01*
X13365301Y-14759722D02*
X13374824Y-14740674D01*
X13374824Y-14740674D02*
X13393872Y-14731150D01*
X13393872Y-14731150D02*
X13422443Y-14731150D01*
X13422443Y-14731150D02*
X13441491Y-14740674D01*
X13441491Y-14740674D02*
X13451015Y-14759722D01*
X13451015Y-14759722D02*
X13451015Y-14864484D01*
X13841491Y-14654960D02*
X13670063Y-14912103D01*
X14098634Y-14664484D02*
X14117682Y-14664484D01*
X14117682Y-14664484D02*
X14136729Y-14674008D01*
X14136729Y-14674008D02*
X14146253Y-14683531D01*
X14146253Y-14683531D02*
X14155777Y-14702579D01*
X14155777Y-14702579D02*
X14165301Y-14740674D01*
X14165301Y-14740674D02*
X14165301Y-14788293D01*
X14165301Y-14788293D02*
X14155777Y-14826388D01*
X14155777Y-14826388D02*
X14146253Y-14845436D01*
X14146253Y-14845436D02*
X14136729Y-14854960D01*
X14136729Y-14854960D02*
X14117682Y-14864484D01*
X14117682Y-14864484D02*
X14098634Y-14864484D01*
X14098634Y-14864484D02*
X14079586Y-14854960D01*
X14079586Y-14854960D02*
X14070063Y-14845436D01*
X14070063Y-14845436D02*
X14060539Y-14826388D01*
X14060539Y-14826388D02*
X14051015Y-14788293D01*
X14051015Y-14788293D02*
X14051015Y-14740674D01*
X14051015Y-14740674D02*
X14060539Y-14702579D01*
X14060539Y-14702579D02*
X14070063Y-14683531D01*
X14070063Y-14683531D02*
X14079586Y-14674008D01*
X14079586Y-14674008D02*
X14098634Y-14664484D01*
X14251015Y-14845436D02*
X14260539Y-14854960D01*
X14260539Y-14854960D02*
X14251015Y-14864484D01*
X14251015Y-14864484D02*
X14241491Y-14854960D01*
X14241491Y-14854960D02*
X14251015Y-14845436D01*
X14251015Y-14845436D02*
X14251015Y-14864484D01*
X14384348Y-14664484D02*
X14403396Y-14664484D01*
X14403396Y-14664484D02*
X14422444Y-14674008D01*
X14422444Y-14674008D02*
X14431967Y-14683531D01*
X14431967Y-14683531D02*
X14441491Y-14702579D01*
X14441491Y-14702579D02*
X14451015Y-14740674D01*
X14451015Y-14740674D02*
X14451015Y-14788293D01*
X14451015Y-14788293D02*
X14441491Y-14826388D01*
X14441491Y-14826388D02*
X14431967Y-14845436D01*
X14431967Y-14845436D02*
X14422444Y-14854960D01*
X14422444Y-14854960D02*
X14403396Y-14864484D01*
X14403396Y-14864484D02*
X14384348Y-14864484D01*
X14384348Y-14864484D02*
X14365301Y-14854960D01*
X14365301Y-14854960D02*
X14355777Y-14845436D01*
X14355777Y-14845436D02*
X14346253Y-14826388D01*
X14346253Y-14826388D02*
X14336729Y-14788293D01*
X14336729Y-14788293D02*
X14336729Y-14740674D01*
X14336729Y-14740674D02*
X14346253Y-14702579D01*
X14346253Y-14702579D02*
X14355777Y-14683531D01*
X14355777Y-14683531D02*
X14365301Y-14674008D01*
X14365301Y-14674008D02*
X14384348Y-14664484D01*
X14517682Y-14664484D02*
X14641491Y-14664484D01*
X14641491Y-14664484D02*
X14574825Y-14740674D01*
X14574825Y-14740674D02*
X14603396Y-14740674D01*
X14603396Y-14740674D02*
X14622444Y-14750198D01*
X14622444Y-14750198D02*
X14631967Y-14759722D01*
X14631967Y-14759722D02*
X14641491Y-14778769D01*
X14641491Y-14778769D02*
X14641491Y-14826388D01*
X14641491Y-14826388D02*
X14631967Y-14845436D01*
X14631967Y-14845436D02*
X14622444Y-14854960D01*
X14622444Y-14854960D02*
X14603396Y-14864484D01*
X14603396Y-14864484D02*
X14546253Y-14864484D01*
X14546253Y-14864484D02*
X14527206Y-14854960D01*
X14527206Y-14854960D02*
X14517682Y-14845436D01*
X14736729Y-14864484D02*
X14774825Y-14864484D01*
X14774825Y-14864484D02*
X14793872Y-14854960D01*
X14793872Y-14854960D02*
X14803396Y-14845436D01*
X14803396Y-14845436D02*
X14822444Y-14816865D01*
X14822444Y-14816865D02*
X14831967Y-14778769D01*
X14831967Y-14778769D02*
X14831967Y-14702579D01*
X14831967Y-14702579D02*
X14822444Y-14683531D01*
X14822444Y-14683531D02*
X14812920Y-14674008D01*
X14812920Y-14674008D02*
X14793872Y-14664484D01*
X14793872Y-14664484D02*
X14755777Y-14664484D01*
X14755777Y-14664484D02*
X14736729Y-14674008D01*
X14736729Y-14674008D02*
X14727206Y-14683531D01*
X14727206Y-14683531D02*
X14717682Y-14702579D01*
X14717682Y-14702579D02*
X14717682Y-14750198D01*
X14717682Y-14750198D02*
X14727206Y-14769246D01*
X14727206Y-14769246D02*
X14736729Y-14778769D01*
X14736729Y-14778769D02*
X14755777Y-14788293D01*
X14755777Y-14788293D02*
X14793872Y-14788293D01*
X14793872Y-14788293D02*
X14812920Y-14778769D01*
X14812920Y-14778769D02*
X14822444Y-14769246D01*
X14822444Y-14769246D02*
X14831967Y-14750198D01*
X15003396Y-14731150D02*
X15003396Y-14864484D01*
X14955777Y-14654960D02*
X14908158Y-14797817D01*
X14908158Y-14797817D02*
X15031967Y-14797817D01*
X15098634Y-14664484D02*
X15098634Y-14702579D01*
X15174825Y-14664484D02*
X15174825Y-14702579D01*
X15470063Y-14940674D02*
X15460539Y-14931150D01*
X15460539Y-14931150D02*
X15441491Y-14902579D01*
X15441491Y-14902579D02*
X15431968Y-14883531D01*
X15431968Y-14883531D02*
X15422444Y-14854960D01*
X15422444Y-14854960D02*
X15412920Y-14807341D01*
X15412920Y-14807341D02*
X15412920Y-14769246D01*
X15412920Y-14769246D02*
X15422444Y-14721627D01*
X15422444Y-14721627D02*
X15431968Y-14693055D01*
X15431968Y-14693055D02*
X15441491Y-14674008D01*
X15441491Y-14674008D02*
X15460539Y-14645436D01*
X15460539Y-14645436D02*
X15470063Y-14635912D01*
X15641491Y-14664484D02*
X15546253Y-14664484D01*
X15546253Y-14664484D02*
X15536729Y-14759722D01*
X15536729Y-14759722D02*
X15546253Y-14750198D01*
X15546253Y-14750198D02*
X15565301Y-14740674D01*
X15565301Y-14740674D02*
X15612920Y-14740674D01*
X15612920Y-14740674D02*
X15631968Y-14750198D01*
X15631968Y-14750198D02*
X15641491Y-14759722D01*
X15641491Y-14759722D02*
X15651015Y-14778769D01*
X15651015Y-14778769D02*
X15651015Y-14826388D01*
X15651015Y-14826388D02*
X15641491Y-14845436D01*
X15641491Y-14845436D02*
X15631968Y-14854960D01*
X15631968Y-14854960D02*
X15612920Y-14864484D01*
X15612920Y-14864484D02*
X15565301Y-14864484D01*
X15565301Y-14864484D02*
X15546253Y-14854960D01*
X15546253Y-14854960D02*
X15536729Y-14845436D01*
X15727206Y-14683531D02*
X15736729Y-14674008D01*
X15736729Y-14674008D02*
X15755777Y-14664484D01*
X15755777Y-14664484D02*
X15803396Y-14664484D01*
X15803396Y-14664484D02*
X15822444Y-14674008D01*
X15822444Y-14674008D02*
X15831968Y-14683531D01*
X15831968Y-14683531D02*
X15841491Y-14702579D01*
X15841491Y-14702579D02*
X15841491Y-14721627D01*
X15841491Y-14721627D02*
X15831968Y-14750198D01*
X15831968Y-14750198D02*
X15717682Y-14864484D01*
X15717682Y-14864484D02*
X15841491Y-14864484D01*
X16079587Y-14864484D02*
X16079587Y-14664484D01*
X16165301Y-14864484D02*
X16165301Y-14759722D01*
X16165301Y-14759722D02*
X16155777Y-14740674D01*
X16155777Y-14740674D02*
X16136730Y-14731150D01*
X16136730Y-14731150D02*
X16108158Y-14731150D01*
X16108158Y-14731150D02*
X16089110Y-14740674D01*
X16089110Y-14740674D02*
X16079587Y-14750198D01*
X16289110Y-14864484D02*
X16270063Y-14854960D01*
X16270063Y-14854960D02*
X16260539Y-14845436D01*
X16260539Y-14845436D02*
X16251015Y-14826388D01*
X16251015Y-14826388D02*
X16251015Y-14769246D01*
X16251015Y-14769246D02*
X16260539Y-14750198D01*
X16260539Y-14750198D02*
X16270063Y-14740674D01*
X16270063Y-14740674D02*
X16289110Y-14731150D01*
X16289110Y-14731150D02*
X16317682Y-14731150D01*
X16317682Y-14731150D02*
X16336730Y-14740674D01*
X16336730Y-14740674D02*
X16346253Y-14750198D01*
X16346253Y-14750198D02*
X16355777Y-14769246D01*
X16355777Y-14769246D02*
X16355777Y-14826388D01*
X16355777Y-14826388D02*
X16346253Y-14845436D01*
X16346253Y-14845436D02*
X16336730Y-14854960D01*
X16336730Y-14854960D02*
X16317682Y-14864484D01*
X16317682Y-14864484D02*
X16289110Y-14864484D01*
X16470063Y-14864484D02*
X16451015Y-14854960D01*
X16451015Y-14854960D02*
X16441491Y-14835912D01*
X16441491Y-14835912D02*
X16441491Y-14664484D01*
X16622444Y-14854960D02*
X16603396Y-14864484D01*
X16603396Y-14864484D02*
X16565301Y-14864484D01*
X16565301Y-14864484D02*
X16546253Y-14854960D01*
X16546253Y-14854960D02*
X16536730Y-14835912D01*
X16536730Y-14835912D02*
X16536730Y-14759722D01*
X16536730Y-14759722D02*
X16546253Y-14740674D01*
X16546253Y-14740674D02*
X16565301Y-14731150D01*
X16565301Y-14731150D02*
X16603396Y-14731150D01*
X16603396Y-14731150D02*
X16622444Y-14740674D01*
X16622444Y-14740674D02*
X16631968Y-14759722D01*
X16631968Y-14759722D02*
X16631968Y-14778769D01*
X16631968Y-14778769D02*
X16536730Y-14797817D01*
X16708158Y-14854960D02*
X16727206Y-14864484D01*
X16727206Y-14864484D02*
X16765301Y-14864484D01*
X16765301Y-14864484D02*
X16784349Y-14854960D01*
X16784349Y-14854960D02*
X16793873Y-14835912D01*
X16793873Y-14835912D02*
X16793873Y-14826388D01*
X16793873Y-14826388D02*
X16784349Y-14807341D01*
X16784349Y-14807341D02*
X16765301Y-14797817D01*
X16765301Y-14797817D02*
X16736730Y-14797817D01*
X16736730Y-14797817D02*
X16717682Y-14788293D01*
X16717682Y-14788293D02*
X16708158Y-14769246D01*
X16708158Y-14769246D02*
X16708158Y-14759722D01*
X16708158Y-14759722D02*
X16717682Y-14740674D01*
X16717682Y-14740674D02*
X16736730Y-14731150D01*
X16736730Y-14731150D02*
X16765301Y-14731150D01*
X16765301Y-14731150D02*
X16784349Y-14740674D01*
X16860539Y-14940674D02*
X16870063Y-14931150D01*
X16870063Y-14931150D02*
X16889111Y-14902579D01*
X16889111Y-14902579D02*
X16898634Y-14883531D01*
X16898634Y-14883531D02*
X16908158Y-14854960D01*
X16908158Y-14854960D02*
X16917682Y-14807341D01*
X16917682Y-14807341D02*
X16917682Y-14769246D01*
X16917682Y-14769246D02*
X16908158Y-14721627D01*
X16908158Y-14721627D02*
X16898634Y-14693055D01*
X16898634Y-14693055D02*
X16889111Y-14674008D01*
X16889111Y-14674008D02*
X16870063Y-14645436D01*
X16870063Y-14645436D02*
X16860539Y-14635912D01*
M02*
