%TF.GenerationSoftware,KiCad,Pcbnew,7.0.8*%
%TF.CreationDate,2025-07-22T03:59:44-04:00*%
%TF.ProjectId,Innostemlab_pcb_v4,496e6e6f-7374-4656-9d6c-61625f706362,rev?*%
%TF.SameCoordinates,Original*%
%TF.FileFunction,Copper,L3,Inr*%
%TF.FilePolarity,Positive*%
%FSLAX46Y46*%
G04 Gerber Fmt 4.6, Leading zero omitted, Abs format (unit mm)*
G04 Created by KiCad (PCBNEW 7.0.8) date 2025-07-22 03:59:44*
%MOMM*%
%LPD*%
G01*
G04 APERTURE LIST*
G04 Aperture macros list*
%AMRoundRect*
0 Rectangle with rounded corners*
0 $1 Rounding radius*
0 $2 $3 $4 $5 $6 $7 $8 $9 X,Y pos of 4 corners*
0 Add a 4 corners polygon primitive as box body*
4,1,4,$2,$3,$4,$5,$6,$7,$8,$9,$2,$3,0*
0 Add four circle primitives for the rounded corners*
1,1,$1+$1,$2,$3*
1,1,$1+$1,$4,$5*
1,1,$1+$1,$6,$7*
1,1,$1+$1,$8,$9*
0 Add four rect primitives between the rounded corners*
20,1,$1+$1,$2,$3,$4,$5,0*
20,1,$1+$1,$4,$5,$6,$7,0*
20,1,$1+$1,$6,$7,$8,$9,0*
20,1,$1+$1,$8,$9,$2,$3,0*%
G04 Aperture macros list end*
%TA.AperFunction,ComponentPad*%
%ADD10C,1.500000*%
%TD*%
%TA.AperFunction,ComponentPad*%
%ADD11R,1.700000X1.700000*%
%TD*%
%TA.AperFunction,ComponentPad*%
%ADD12O,1.700000X1.700000*%
%TD*%
%TA.AperFunction,ComponentPad*%
%ADD13RoundRect,0.250000X0.750000X-0.600000X0.750000X0.600000X-0.750000X0.600000X-0.750000X-0.600000X0*%
%TD*%
%TA.AperFunction,ComponentPad*%
%ADD14O,2.000000X1.700000*%
%TD*%
%TA.AperFunction,ComponentPad*%
%ADD15O,2.400000X1.200000*%
%TD*%
%TA.AperFunction,ComponentPad*%
%ADD16C,1.508000*%
%TD*%
%TA.AperFunction,ComponentPad*%
%ADD17R,1.508000X1.508000*%
%TD*%
%TA.AperFunction,ComponentPad*%
%ADD18RoundRect,0.250000X-0.600000X-0.750000X0.600000X-0.750000X0.600000X0.750000X-0.600000X0.750000X0*%
%TD*%
%TA.AperFunction,ComponentPad*%
%ADD19O,1.700000X2.000000*%
%TD*%
%TA.AperFunction,ComponentPad*%
%ADD20RoundRect,0.250000X-0.750000X0.600000X-0.750000X-0.600000X0.750000X-0.600000X0.750000X0.600000X0*%
%TD*%
%TA.AperFunction,ViaPad*%
%ADD21C,0.800000*%
%TD*%
%TA.AperFunction,Conductor*%
%ADD22C,0.250000*%
%TD*%
G04 APERTURE END LIST*
D10*
%TO.N,Net-(U1-XTAL2{slash}PB7)*%
%TO.C,Y1*%
X166624000Y-103582000D03*
%TO.N,Net-(U1-XTAL1{slash}PB6)*%
X166624000Y-108462000D03*
%TD*%
D11*
%TO.N,D13*%
%TO.C,J8*%
X161046400Y-122529600D03*
D12*
%TO.N,GND*%
X163586400Y-122529600D03*
%TO.N,VBUS*%
X166126400Y-122529600D03*
%TD*%
D11*
%TO.N,D0*%
%TO.C,J9*%
X140716000Y-92202000D03*
D12*
%TO.N,AREF*%
X140716000Y-89662000D03*
%TO.N,D1*%
X143256000Y-92202000D03*
%TO.N,VBATP*%
X143256000Y-89662000D03*
%TO.N,D2*%
X145796000Y-92202000D03*
%TO.N,GND*%
X145796000Y-89662000D03*
%TO.N,D5*%
X148336000Y-92202000D03*
%TO.N,GND*%
X148336000Y-89662000D03*
%TO.N,D6*%
X150876000Y-92202000D03*
%TO.N,VBUS*%
X150876000Y-89662000D03*
%TO.N,D7*%
X153416000Y-92202000D03*
%TO.N,VBUS*%
X153416000Y-89662000D03*
%TO.N,D8*%
X155956000Y-92202000D03*
%TO.N,A0*%
X155956000Y-89662000D03*
%TO.N,D9*%
X158496000Y-92202000D03*
%TO.N,A1*%
X158496000Y-89662000D03*
%TO.N,D10*%
X161036000Y-92202000D03*
%TO.N,A2*%
X161036000Y-89662000D03*
%TO.N,D11*%
X163576000Y-92202000D03*
%TO.N,A3*%
X163576000Y-89662000D03*
%TO.N,D12*%
X166116000Y-92202000D03*
%TO.N,A4*%
X166116000Y-89662000D03*
%TO.N,D13*%
X168656000Y-92202000D03*
%TO.N,A5*%
X168656000Y-89662000D03*
%TD*%
D13*
%TO.N,M2P*%
%TO.C,J5*%
X173817000Y-123703400D03*
D14*
%TO.N,M2N*%
X173817000Y-121203400D03*
%TD*%
D11*
%TO.N,A4*%
%TO.C,J10*%
X173685200Y-107442000D03*
D12*
%TO.N,A5*%
X173685200Y-109982000D03*
%TO.N,GND*%
X173685200Y-112522000D03*
%TO.N,VBUS*%
X173685200Y-115062000D03*
%TD*%
D15*
%TO.N,N/C*%
%TO.C,SW3*%
X123750000Y-103750000D03*
X123750000Y-92150000D03*
D16*
%TO.N,Net-(SW3-C)*%
X123750000Y-100950000D03*
%TO.N,VBATP*%
X123750000Y-97950000D03*
D17*
%TO.N,unconnected-(SW3-A-Pad1)*%
X123750000Y-94950000D03*
%TD*%
D11*
%TO.N,D12*%
%TO.C,J7*%
X161046400Y-127965200D03*
D12*
%TO.N,GND*%
X163586400Y-127965200D03*
%TO.N,VBUS*%
X166126400Y-127965200D03*
%TD*%
D18*
%TO.N,VBATP*%
%TO.C,J3*%
X131592000Y-88392000D03*
D19*
%TO.N,GND*%
X134092000Y-88392000D03*
%TD*%
D11*
%TO.N,D11*%
%TO.C,J6*%
X161046400Y-133096000D03*
D12*
%TO.N,GND*%
X163586400Y-133096000D03*
%TO.N,VBUS*%
X166126400Y-133096000D03*
%TD*%
D20*
%TO.N,M1P*%
%TO.C,J4*%
X124500000Y-118135000D03*
D14*
%TO.N,M1N*%
X124500000Y-120635000D03*
%TD*%
D11*
%TO.N,D12*%
%TO.C,J1*%
X176123600Y-102108000D03*
D12*
%TO.N,VBUS*%
X173583600Y-102108000D03*
%TO.N,D13*%
X176123600Y-99568000D03*
%TO.N,D11*%
X173583600Y-99568000D03*
%TO.N,ICSP_RESET*%
X176123600Y-97028000D03*
%TO.N,GND*%
X173583600Y-97028000D03*
%TD*%
D21*
%TO.N,D-*%
X134500000Y-132800500D03*
X132800500Y-132750000D03*
%TO.N,VBATP*%
X148969600Y-116980100D03*
%TO.N,Net-(U2-CBUS3)*%
X135120100Y-116321300D03*
%TO.N,Net-(U2-CBUS0)*%
X131201400Y-113973200D03*
%TO.N,Net-(U2-CBUS1)*%
X132776600Y-117431100D03*
%TO.N,Net-(U2-CBUS2)*%
X129905200Y-120062000D03*
%TO.N,D2*%
X153868500Y-108056800D03*
%TO.N,D1*%
X154621900Y-110510000D03*
%TO.N,D0*%
X139879800Y-109113800D03*
X153261100Y-111209400D03*
%TO.N,A5*%
X153231700Y-110207400D03*
%TO.N,A4*%
X151614300Y-114199300D03*
%TO.N,A3*%
X151023700Y-110487900D03*
%TO.N,A2*%
X148482800Y-112838500D03*
%TO.N,A1*%
X150259500Y-109196000D03*
%TO.N,A0*%
X149823000Y-107556100D03*
%TO.N,Net-(U1-PE3)*%
X146965500Y-110229200D03*
%TO.N,Net-(U1-PE2)*%
X145418700Y-107315000D03*
%TO.N,Net-(U1-PE1)*%
X154948200Y-107047800D03*
%TO.N,D10*%
X151454000Y-102847300D03*
%TO.N,D8*%
X156321400Y-99775000D03*
X153762200Y-119260100D03*
%TO.N,D7*%
X153875900Y-101826700D03*
X155080500Y-115566400D03*
%TO.N,D6*%
X155057100Y-100570700D03*
X154904900Y-119363600D03*
%TO.N,D5*%
X155523900Y-101709900D03*
X155947300Y-114712000D03*
%TO.N,Net-(U1-PE0)*%
X154460100Y-109042800D03*
%TO.N,AREF*%
X143618800Y-109741400D03*
%TO.N,ICSP_RESET*%
X145967300Y-114727300D03*
X132802800Y-116366000D03*
%TO.N,D11*%
X152097000Y-105765200D03*
%TO.N,VBUS*%
X152561700Y-119348200D03*
%TO.N,M1N*%
X152065400Y-122349800D03*
%TO.N,M1P*%
X147280700Y-123049900D03*
%TO.N,GND*%
X155412500Y-131685700D03*
X162306900Y-110607300D03*
X124530800Y-126778500D03*
X155807500Y-122952600D03*
X140907300Y-128116700D03*
X143305500Y-121070400D03*
X147017700Y-98447500D03*
X120250000Y-108750000D03*
X132609900Y-119818600D03*
X151920100Y-123357900D03*
X134970300Y-119018400D03*
X136993800Y-129033400D03*
X129197000Y-128523100D03*
X135750000Y-104237500D03*
X153592100Y-116144200D03*
X163414000Y-102521100D03*
X155454200Y-107980700D03*
X146849900Y-108775300D03*
X143655100Y-106851500D03*
%TD*%
D22*
%TO.N,D2*%
X145796000Y-100514200D02*
X145796000Y-92202000D01*
X153338600Y-108056800D02*
X145796000Y-100514200D01*
X153868500Y-108056800D02*
X153338600Y-108056800D01*
%TO.N,D1*%
X143256000Y-99144100D02*
X154621900Y-110510000D01*
X143256000Y-92202000D02*
X143256000Y-99144100D01*
%TO.N,D0*%
X141234300Y-110468300D02*
X139879800Y-109113800D01*
X143919900Y-110468300D02*
X141234300Y-110468300D01*
X144885900Y-109502300D02*
X143919900Y-110468300D01*
X149252700Y-109502300D02*
X144885900Y-109502300D01*
X149724300Y-109973900D02*
X149252700Y-109502300D01*
X150509800Y-109973900D02*
X149724300Y-109973900D01*
X150722700Y-109761000D02*
X150509800Y-109973900D01*
X151455200Y-109761000D02*
X150722700Y-109761000D01*
X152903600Y-111209400D02*
X151455200Y-109761000D01*
X153261100Y-111209400D02*
X152903600Y-111209400D01*
%TO.N,A4*%
X167292900Y-90027800D02*
X167292900Y-89662000D01*
X168197100Y-90932000D02*
X167292900Y-90027800D01*
X171722500Y-90932000D02*
X168197100Y-90932000D01*
X177305600Y-96515100D02*
X171722500Y-90932000D01*
X177305600Y-103159600D02*
X177305600Y-96515100D01*
X174200100Y-106265100D02*
X177305600Y-103159600D01*
X173685200Y-106265100D02*
X174200100Y-106265100D01*
X173685200Y-107442000D02*
X173685200Y-106265100D01*
X166116000Y-89662000D02*
X167292900Y-89662000D01*
X167343200Y-112607100D02*
X172508300Y-107442000D01*
X153206500Y-112607100D02*
X167343200Y-112607100D01*
X151614300Y-114199300D02*
X153206500Y-112607100D01*
X173685200Y-107442000D02*
X172508300Y-107442000D01*
%TO.N,D6*%
X155057100Y-97560000D02*
X155057100Y-100570700D01*
X150876000Y-93378900D02*
X155057100Y-97560000D01*
X150876000Y-92202000D02*
X150876000Y-93378900D01*
%TO.N,D5*%
X155168400Y-101709900D02*
X155523900Y-101709900D01*
X148336000Y-94877500D02*
X155168400Y-101709900D01*
X148336000Y-92202000D02*
X148336000Y-94877500D01*
%TO.N,ICSP_RESET*%
X176123600Y-97028000D02*
X176123600Y-98204900D01*
X134441500Y-114727300D02*
X132802800Y-116366000D01*
X145967300Y-114727300D02*
X134441500Y-114727300D01*
X175755700Y-98204900D02*
X176123600Y-98204900D01*
X174946700Y-99013900D02*
X175755700Y-98204900D01*
X174946700Y-99905800D02*
X174946700Y-99013900D01*
X173921400Y-100931100D02*
X174946700Y-99905800D01*
X166032000Y-100931100D02*
X173921400Y-100931100D01*
X154873600Y-112089500D02*
X166032000Y-100931100D01*
X148182300Y-112089500D02*
X154873600Y-112089500D01*
X145967300Y-114304500D02*
X148182300Y-112089500D01*
X145967300Y-114727300D02*
X145967300Y-114304500D01*
%TO.N,D11*%
X173583600Y-99568000D02*
X172406700Y-99568000D01*
X167524500Y-94685800D02*
X163576000Y-94685800D01*
X172406700Y-99568000D02*
X167524500Y-94685800D01*
X163576000Y-94685800D02*
X163576000Y-92202000D01*
X152496600Y-105765200D02*
X163576000Y-94685800D01*
X152097000Y-105765200D02*
X152496600Y-105765200D01*
%TO.N,VBUS*%
X166126400Y-122529600D02*
X165538000Y-122529600D01*
X165538000Y-122529600D02*
X164949500Y-122529600D01*
X165538000Y-126199900D02*
X166126400Y-126788300D01*
X165538000Y-122529600D02*
X165538000Y-126199900D01*
X166126400Y-127965200D02*
X166126400Y-126788300D01*
X150876000Y-89662000D02*
X153416000Y-89662000D01*
X153486800Y-120273300D02*
X152561700Y-119348200D01*
X163061100Y-120273300D02*
X153486800Y-120273300D01*
X164949500Y-122161700D02*
X163061100Y-120273300D01*
X164949500Y-122529600D02*
X164949500Y-122161700D01*
%TO.N,M1N*%
X150025200Y-120309600D02*
X152065400Y-122349800D01*
X133532500Y-120309600D02*
X150025200Y-120309600D01*
X133015200Y-120826900D02*
X133532500Y-120309600D01*
X126018800Y-120826900D02*
X133015200Y-120826900D01*
X125826900Y-120635000D02*
X126018800Y-120826900D01*
X124500000Y-120635000D02*
X125826900Y-120635000D01*
%TD*%
%TA.AperFunction,Conductor*%
%TO.N,GND*%
G36*
X175240729Y-100174610D02*
G01*
X175293248Y-100212127D01*
X175364983Y-100299536D01*
X175377190Y-100314410D01*
X175537150Y-100445685D01*
X175719646Y-100543232D01*
X175917666Y-100603300D01*
X175917665Y-100603300D01*
X175936129Y-100605118D01*
X176123600Y-100623583D01*
X176329534Y-100603300D01*
X176527554Y-100543232D01*
X176710050Y-100445685D01*
X176777435Y-100390384D01*
X176841745Y-100363071D01*
X176910613Y-100374862D01*
X176962173Y-100422014D01*
X176980100Y-100486237D01*
X176980100Y-100933500D01*
X176960415Y-101000539D01*
X176907611Y-101046294D01*
X176856100Y-101057500D01*
X175253847Y-101057500D01*
X175195370Y-101069131D01*
X175195369Y-101069132D01*
X175129047Y-101113447D01*
X175084732Y-101179769D01*
X175084731Y-101179770D01*
X175073100Y-101238247D01*
X175073100Y-102977752D01*
X175084731Y-103036229D01*
X175084732Y-103036230D01*
X175129047Y-103102552D01*
X175195369Y-103146867D01*
X175195370Y-103146868D01*
X175253847Y-103158499D01*
X175253850Y-103158500D01*
X175253852Y-103158500D01*
X176547011Y-103158500D01*
X176614050Y-103178185D01*
X176659805Y-103230989D01*
X176669749Y-103300147D01*
X176640724Y-103363703D01*
X176634692Y-103370181D01*
X174101593Y-105903281D01*
X174040270Y-105936766D01*
X174013912Y-105939600D01*
X173627805Y-105939600D01*
X173610809Y-105945784D01*
X173589952Y-105951372D01*
X173572158Y-105954510D01*
X173572155Y-105954512D01*
X173556504Y-105963547D01*
X173536926Y-105972676D01*
X173519944Y-105978857D01*
X173519938Y-105978861D01*
X173506094Y-105990477D01*
X173488392Y-106002872D01*
X173472748Y-106011903D01*
X173472741Y-106011909D01*
X173461124Y-106025753D01*
X173445851Y-106041026D01*
X173432010Y-106052641D01*
X173432002Y-106052650D01*
X173422969Y-106068295D01*
X173410577Y-106085992D01*
X173398963Y-106099833D01*
X173398958Y-106099843D01*
X173392776Y-106116825D01*
X173383648Y-106136401D01*
X173374614Y-106152049D01*
X173374612Y-106152056D01*
X173371475Y-106169847D01*
X173365881Y-106190724D01*
X173359700Y-106207705D01*
X173359700Y-106267500D01*
X173340015Y-106334539D01*
X173287211Y-106380294D01*
X173235700Y-106391500D01*
X172815447Y-106391500D01*
X172756970Y-106403131D01*
X172756969Y-106403132D01*
X172690647Y-106447447D01*
X172646332Y-106513769D01*
X172646331Y-106513770D01*
X172634700Y-106572247D01*
X172634700Y-106990993D01*
X172615015Y-107058032D01*
X172562211Y-107103787D01*
X172499893Y-107114521D01*
X172479494Y-107112736D01*
X172479493Y-107112736D01*
X172440405Y-107123210D01*
X172435125Y-107124381D01*
X172395257Y-107131411D01*
X172390283Y-107133221D01*
X172373418Y-107140207D01*
X172368613Y-107142447D01*
X172335462Y-107165659D01*
X172330903Y-107168563D01*
X172295845Y-107188805D01*
X172269823Y-107219815D01*
X172266168Y-107223803D01*
X168474272Y-111015702D01*
X167244693Y-112245281D01*
X167183370Y-112278766D01*
X167157012Y-112281600D01*
X155441188Y-112281600D01*
X155374149Y-112261915D01*
X155328394Y-112209111D01*
X155318450Y-112139953D01*
X155347475Y-112076397D01*
X155353507Y-112069919D01*
X158961426Y-108462000D01*
X165668901Y-108462000D01*
X165687252Y-108648331D01*
X165687253Y-108648333D01*
X165741604Y-108827502D01*
X165829862Y-108992623D01*
X165829864Y-108992626D01*
X165948642Y-109137357D01*
X166093373Y-109256135D01*
X166093376Y-109256137D01*
X166258497Y-109344395D01*
X166258499Y-109344396D01*
X166427120Y-109395547D01*
X166437666Y-109398746D01*
X166437668Y-109398747D01*
X166454374Y-109400392D01*
X166624000Y-109417099D01*
X166810331Y-109398747D01*
X166989501Y-109344396D01*
X167154625Y-109256136D01*
X167299357Y-109137357D01*
X167418136Y-108992625D01*
X167506396Y-108827501D01*
X167560747Y-108648331D01*
X167579099Y-108462000D01*
X167560747Y-108275669D01*
X167506396Y-108096499D01*
X167418136Y-107931375D01*
X167418135Y-107931373D01*
X167299357Y-107786642D01*
X167154626Y-107667864D01*
X167154623Y-107667862D01*
X166989502Y-107579604D01*
X166810333Y-107525253D01*
X166810331Y-107525252D01*
X166624000Y-107506901D01*
X166437668Y-107525252D01*
X166437666Y-107525253D01*
X166258497Y-107579604D01*
X166093376Y-107667862D01*
X166093373Y-107667864D01*
X165948642Y-107786642D01*
X165829864Y-107931373D01*
X165829862Y-107931376D01*
X165741604Y-108096497D01*
X165687253Y-108275666D01*
X165687252Y-108275668D01*
X165668901Y-108462000D01*
X158961426Y-108462000D01*
X163841426Y-103582000D01*
X165668901Y-103582000D01*
X165687252Y-103768331D01*
X165687253Y-103768333D01*
X165741604Y-103947502D01*
X165829862Y-104112623D01*
X165829864Y-104112626D01*
X165948642Y-104257357D01*
X166093373Y-104376135D01*
X166093376Y-104376137D01*
X166258497Y-104464395D01*
X166258499Y-104464396D01*
X166437666Y-104518746D01*
X166437668Y-104518747D01*
X166454374Y-104520392D01*
X166624000Y-104537099D01*
X166810331Y-104518747D01*
X166989501Y-104464396D01*
X167154625Y-104376136D01*
X167299357Y-104257357D01*
X167418136Y-104112625D01*
X167506396Y-103947501D01*
X167560747Y-103768331D01*
X167579099Y-103582000D01*
X167561221Y-103400478D01*
X167560747Y-103395668D01*
X167560746Y-103395666D01*
X167541567Y-103332441D01*
X167506396Y-103216499D01*
X167491379Y-103188404D01*
X167418137Y-103051376D01*
X167418135Y-103051373D01*
X167299357Y-102906642D01*
X167154626Y-102787864D01*
X167154623Y-102787862D01*
X166989502Y-102699604D01*
X166810333Y-102645253D01*
X166810331Y-102645252D01*
X166624000Y-102626901D01*
X166437668Y-102645252D01*
X166437666Y-102645253D01*
X166258497Y-102699604D01*
X166093376Y-102787862D01*
X166093373Y-102787864D01*
X165948642Y-102906642D01*
X165829864Y-103051373D01*
X165829862Y-103051376D01*
X165741604Y-103216497D01*
X165687253Y-103395666D01*
X165687252Y-103395668D01*
X165668901Y-103582000D01*
X163841426Y-103582000D01*
X166130507Y-101292919D01*
X166191830Y-101259434D01*
X166218188Y-101256600D01*
X172661177Y-101256600D01*
X172728216Y-101276285D01*
X172773971Y-101329089D01*
X172783915Y-101398247D01*
X172757031Y-101459264D01*
X172705917Y-101521547D01*
X172705915Y-101521550D01*
X172691254Y-101548979D01*
X172608369Y-101704043D01*
X172548299Y-101902067D01*
X172528017Y-102108000D01*
X172548299Y-102313932D01*
X172559615Y-102351236D01*
X172608368Y-102511954D01*
X172705915Y-102694450D01*
X172705917Y-102694452D01*
X172837189Y-102854410D01*
X172900835Y-102906642D01*
X172997150Y-102985685D01*
X173179646Y-103083232D01*
X173377666Y-103143300D01*
X173377665Y-103143300D01*
X173396129Y-103145118D01*
X173583600Y-103163583D01*
X173789534Y-103143300D01*
X173987554Y-103083232D01*
X174170050Y-102985685D01*
X174330010Y-102854410D01*
X174461285Y-102694450D01*
X174558832Y-102511954D01*
X174618900Y-102313934D01*
X174639183Y-102108000D01*
X174618900Y-101902066D01*
X174558832Y-101704046D01*
X174461285Y-101521550D01*
X174367327Y-101407061D01*
X174330010Y-101361589D01*
X174227727Y-101277649D01*
X174188392Y-101219903D01*
X174186521Y-101150059D01*
X174218708Y-101094116D01*
X175109716Y-100203109D01*
X175171037Y-100169626D01*
X175240729Y-100174610D01*
G37*
%TD.AperFunction*%
%TA.AperFunction,Conductor*%
G36*
X167405351Y-95030985D02*
G01*
X167425993Y-95047619D01*
X172164568Y-99786195D01*
X172168223Y-99790184D01*
X172194241Y-99821190D01*
X172194242Y-99821191D01*
X172194245Y-99821194D01*
X172223087Y-99837845D01*
X172229304Y-99841435D01*
X172233854Y-99844333D01*
X172267016Y-99867553D01*
X172267018Y-99867553D01*
X172267019Y-99867554D01*
X172271868Y-99869815D01*
X172288647Y-99876765D01*
X172293652Y-99878587D01*
X172293653Y-99878587D01*
X172293655Y-99878588D01*
X172333529Y-99885618D01*
X172338792Y-99886786D01*
X172350607Y-99889951D01*
X172377893Y-99897263D01*
X172418210Y-99893735D01*
X172423612Y-99893500D01*
X172493017Y-99893500D01*
X172560056Y-99913185D01*
X172605811Y-99965989D01*
X172607579Y-99970049D01*
X172608368Y-99971954D01*
X172705915Y-100154450D01*
X172745990Y-100203282D01*
X172837190Y-100314410D01*
X172924114Y-100385747D01*
X172963448Y-100443492D01*
X172965319Y-100513337D01*
X172929132Y-100573105D01*
X172866376Y-100603821D01*
X172845449Y-100605600D01*
X166048922Y-100605600D01*
X166043518Y-100605364D01*
X166038107Y-100604890D01*
X166003192Y-100601835D01*
X166003191Y-100601835D01*
X165964091Y-100612312D01*
X165958811Y-100613483D01*
X165918959Y-100620510D01*
X165913961Y-100622329D01*
X165897117Y-100629306D01*
X165892313Y-100631546D01*
X165859166Y-100654756D01*
X165854606Y-100657662D01*
X165819548Y-100677904D01*
X165819540Y-100677910D01*
X165793523Y-100708915D01*
X165789868Y-100712904D01*
X160266149Y-106236625D01*
X154775093Y-111727681D01*
X154713770Y-111761166D01*
X154687412Y-111764000D01*
X153843902Y-111764000D01*
X153776863Y-111744315D01*
X153731108Y-111691511D01*
X153721164Y-111622353D01*
X153745526Y-111564514D01*
X153785635Y-111512242D01*
X153785634Y-111512242D01*
X153785636Y-111512241D01*
X153846144Y-111366162D01*
X153866782Y-111209400D01*
X153862842Y-111179476D01*
X153846144Y-111052639D01*
X153846144Y-111052638D01*
X153785636Y-110906559D01*
X153689382Y-110781118D01*
X153689379Y-110781115D01*
X153689377Y-110781113D01*
X153686496Y-110778232D01*
X153684841Y-110775202D01*
X153684434Y-110774671D01*
X153684516Y-110774607D01*
X153653011Y-110716909D01*
X153657995Y-110647217D01*
X153675800Y-110615067D01*
X153756236Y-110510241D01*
X153777657Y-110458525D01*
X153821497Y-110404122D01*
X153887791Y-110382057D01*
X153955491Y-110399336D01*
X154003102Y-110450473D01*
X154016218Y-110505978D01*
X154016218Y-110510001D01*
X154036855Y-110666760D01*
X154036856Y-110666762D01*
X154091035Y-110797563D01*
X154097364Y-110812841D01*
X154193618Y-110938282D01*
X154319059Y-111034536D01*
X154465138Y-111095044D01*
X154543519Y-111105363D01*
X154621899Y-111115682D01*
X154621900Y-111115682D01*
X154621901Y-111115682D01*
X154674154Y-111108802D01*
X154778662Y-111095044D01*
X154924741Y-111034536D01*
X155050182Y-110938282D01*
X155146436Y-110812841D01*
X155206944Y-110666762D01*
X155227582Y-110510000D01*
X155227052Y-110505978D01*
X155206944Y-110353239D01*
X155206944Y-110353238D01*
X155146436Y-110207159D01*
X155050182Y-110081718D01*
X154924741Y-109985464D01*
X154916378Y-109982000D01*
X154778662Y-109924956D01*
X154778660Y-109924955D01*
X154621901Y-109904318D01*
X154621897Y-109904318D01*
X154554079Y-109913246D01*
X154485044Y-109902480D01*
X154450214Y-109877988D01*
X154426357Y-109854131D01*
X154392872Y-109792808D01*
X154397856Y-109723116D01*
X154439728Y-109667183D01*
X154497850Y-109643512D01*
X154616862Y-109627844D01*
X154762941Y-109567336D01*
X154888382Y-109471082D01*
X154984636Y-109345641D01*
X155045144Y-109199562D01*
X155065782Y-109042800D01*
X155061038Y-109006769D01*
X155045144Y-108886039D01*
X155045144Y-108886038D01*
X154984636Y-108739959D01*
X154888382Y-108614518D01*
X154762941Y-108518264D01*
X154738446Y-108508118D01*
X154700739Y-108492499D01*
X154616862Y-108457756D01*
X154600827Y-108455645D01*
X154526288Y-108445831D01*
X154462391Y-108417564D01*
X154423921Y-108359239D01*
X154423090Y-108289374D01*
X154427909Y-108275448D01*
X154453544Y-108213562D01*
X154474182Y-108056800D01*
X154465072Y-107987606D01*
X154453544Y-107900039D01*
X154453544Y-107900038D01*
X154393036Y-107753959D01*
X154296782Y-107628518D01*
X154171341Y-107532264D01*
X154110109Y-107506901D01*
X154025262Y-107471756D01*
X154025260Y-107471755D01*
X153868501Y-107451118D01*
X153868499Y-107451118D01*
X153711739Y-107471755D01*
X153711737Y-107471756D01*
X153565657Y-107532264D01*
X153487124Y-107592525D01*
X153421955Y-107617719D01*
X153353510Y-107603680D01*
X153323957Y-107581830D01*
X152789928Y-107047801D01*
X154342518Y-107047801D01*
X154363155Y-107204560D01*
X154363156Y-107204562D01*
X154423664Y-107350641D01*
X154519918Y-107476082D01*
X154645359Y-107572336D01*
X154791438Y-107632844D01*
X154869819Y-107643163D01*
X154948199Y-107653482D01*
X154948200Y-107653482D01*
X154948201Y-107653482D01*
X155000454Y-107646602D01*
X155104962Y-107632844D01*
X155251041Y-107572336D01*
X155376482Y-107476082D01*
X155472736Y-107350641D01*
X155533244Y-107204562D01*
X155553882Y-107047800D01*
X155551744Y-107031563D01*
X155533244Y-106891039D01*
X155533244Y-106891038D01*
X155472736Y-106744959D01*
X155376482Y-106619518D01*
X155251041Y-106523264D01*
X155228120Y-106513770D01*
X155104962Y-106462756D01*
X155104960Y-106462755D01*
X154948201Y-106442118D01*
X154948199Y-106442118D01*
X154791439Y-106462755D01*
X154791437Y-106462756D01*
X154645360Y-106523263D01*
X154519918Y-106619518D01*
X154423663Y-106744960D01*
X154363156Y-106891037D01*
X154363155Y-106891039D01*
X154342518Y-107047798D01*
X154342518Y-107047801D01*
X152789928Y-107047801D01*
X152270865Y-106528738D01*
X152237380Y-106467415D01*
X152242364Y-106397723D01*
X152284236Y-106341790D01*
X152311092Y-106326496D01*
X152399841Y-106289736D01*
X152525282Y-106193482D01*
X152598776Y-106097701D01*
X152629085Y-106073394D01*
X152627394Y-106070979D01*
X152636284Y-106064754D01*
X152669441Y-106041535D01*
X152673990Y-106038638D01*
X152709055Y-106018394D01*
X152714497Y-106011909D01*
X152735076Y-105987382D01*
X152738722Y-105983402D01*
X163674507Y-95047619D01*
X163735830Y-95014134D01*
X163762188Y-95011300D01*
X167338312Y-95011300D01*
X167405351Y-95030985D01*
G37*
%TD.AperFunction*%
%TA.AperFunction,Conductor*%
G36*
X147150855Y-90327673D02*
G01*
X147167575Y-90346968D01*
X147297894Y-90533082D01*
X147464917Y-90700105D01*
X147658421Y-90835600D01*
X147872507Y-90935429D01*
X147872516Y-90935433D01*
X147994649Y-90968158D01*
X148054310Y-91004523D01*
X148084839Y-91067369D01*
X148076545Y-91136745D01*
X148032059Y-91190623D01*
X147998552Y-91206593D01*
X147932046Y-91226767D01*
X147801358Y-91296622D01*
X147749550Y-91324315D01*
X147749548Y-91324316D01*
X147749547Y-91324317D01*
X147589589Y-91455589D01*
X147458317Y-91615547D01*
X147360769Y-91798043D01*
X147300699Y-91996067D01*
X147280417Y-92202000D01*
X147300699Y-92407932D01*
X147300700Y-92407934D01*
X147360768Y-92605954D01*
X147458315Y-92788450D01*
X147458317Y-92788452D01*
X147589589Y-92948410D01*
X147686209Y-93027702D01*
X147749550Y-93079685D01*
X147932046Y-93177232D01*
X147932051Y-93177233D01*
X147933951Y-93178021D01*
X147934796Y-93178701D01*
X147937419Y-93180104D01*
X147937153Y-93180601D01*
X147988355Y-93221862D01*
X148010421Y-93288156D01*
X148010500Y-93292583D01*
X148010500Y-94860578D01*
X148010264Y-94865985D01*
X148006735Y-94906308D01*
X148017212Y-94945410D01*
X148018383Y-94950690D01*
X148025411Y-94990543D01*
X148027235Y-94995555D01*
X148034197Y-95012361D01*
X148036445Y-95017181D01*
X148036446Y-95017184D01*
X148050452Y-95037187D01*
X148059655Y-95050331D01*
X148062561Y-95054892D01*
X148082806Y-95089955D01*
X148113815Y-95115975D01*
X148117805Y-95119631D01*
X154012939Y-101014765D01*
X154046424Y-101076088D01*
X154041440Y-101145780D01*
X153999568Y-101201713D01*
X153934104Y-101226130D01*
X153909073Y-101225385D01*
X153875901Y-101221018D01*
X153875899Y-101221018D01*
X153719139Y-101241655D01*
X153719137Y-101241656D01*
X153573060Y-101302163D01*
X153447618Y-101398418D01*
X153351363Y-101523860D01*
X153290856Y-101669937D01*
X153290855Y-101669939D01*
X153270218Y-101826698D01*
X153270218Y-101826701D01*
X153290855Y-101983460D01*
X153290856Y-101983462D01*
X153351364Y-102129541D01*
X153447618Y-102254982D01*
X153573059Y-102351236D01*
X153719138Y-102411744D01*
X153774390Y-102419018D01*
X153875899Y-102432382D01*
X153875900Y-102432382D01*
X153875901Y-102432382D01*
X153928154Y-102425502D01*
X154032662Y-102411744D01*
X154178741Y-102351236D01*
X154304182Y-102254982D01*
X154400436Y-102129541D01*
X154460944Y-101983462D01*
X154480343Y-101836109D01*
X154481582Y-101826701D01*
X154481582Y-101826698D01*
X154477214Y-101793525D01*
X154487979Y-101724493D01*
X154534358Y-101672236D01*
X154601626Y-101653350D01*
X154668427Y-101673830D01*
X154687834Y-101689660D01*
X154926263Y-101928089D01*
X154929918Y-101932078D01*
X154955941Y-101963090D01*
X154955943Y-101963091D01*
X154955945Y-101963094D01*
X154955947Y-101963095D01*
X154964257Y-101970068D01*
X154962127Y-101972605D01*
X154994264Y-102006300D01*
X154995300Y-102005703D01*
X154999362Y-102012738D01*
X155088987Y-102129541D01*
X155095618Y-102138182D01*
X155221059Y-102234436D01*
X155294249Y-102264752D01*
X155348653Y-102308592D01*
X155370718Y-102374886D01*
X155353439Y-102442586D01*
X155334478Y-102466994D01*
X152567814Y-105233658D01*
X152506491Y-105267143D01*
X152436799Y-105262159D01*
X152404651Y-105244354D01*
X152399841Y-105240664D01*
X152399837Y-105240662D01*
X152253762Y-105180156D01*
X152253760Y-105180155D01*
X152097001Y-105159518D01*
X152096999Y-105159518D01*
X151940239Y-105180155D01*
X151940237Y-105180156D01*
X151794160Y-105240663D01*
X151668718Y-105336918D01*
X151572464Y-105462359D01*
X151535703Y-105551107D01*
X151491861Y-105605510D01*
X151425567Y-105627574D01*
X151357868Y-105610294D01*
X151333461Y-105591334D01*
X148589428Y-102847301D01*
X150848318Y-102847301D01*
X150868955Y-103004060D01*
X150868956Y-103004062D01*
X150901748Y-103083230D01*
X150929464Y-103150141D01*
X151025718Y-103275582D01*
X151151159Y-103371836D01*
X151297238Y-103432344D01*
X151375619Y-103442663D01*
X151453999Y-103452982D01*
X151454000Y-103452982D01*
X151454001Y-103452982D01*
X151506254Y-103446102D01*
X151610762Y-103432344D01*
X151756841Y-103371836D01*
X151882282Y-103275582D01*
X151978536Y-103150141D01*
X152039044Y-103004062D01*
X152059682Y-102847300D01*
X152039044Y-102690538D01*
X151978536Y-102544459D01*
X151882282Y-102419018D01*
X151756841Y-102322764D01*
X151610762Y-102262256D01*
X151610760Y-102262255D01*
X151454001Y-102241618D01*
X151453999Y-102241618D01*
X151297239Y-102262255D01*
X151297237Y-102262256D01*
X151151160Y-102322763D01*
X151025718Y-102419018D01*
X150929463Y-102544460D01*
X150868956Y-102690537D01*
X150868955Y-102690539D01*
X150848318Y-102847298D01*
X150848318Y-102847301D01*
X148589428Y-102847301D01*
X146157819Y-100415692D01*
X146124334Y-100354369D01*
X146121500Y-100328011D01*
X146121500Y-93292583D01*
X146141185Y-93225544D01*
X146193989Y-93179789D01*
X146198049Y-93178021D01*
X146199945Y-93177234D01*
X146199954Y-93177232D01*
X146382450Y-93079685D01*
X146542410Y-92948410D01*
X146673685Y-92788450D01*
X146771232Y-92605954D01*
X146831300Y-92407934D01*
X146851583Y-92202000D01*
X146831300Y-91996066D01*
X146771232Y-91798046D01*
X146673685Y-91615550D01*
X146595421Y-91520184D01*
X146542410Y-91455589D01*
X146392121Y-91332252D01*
X146382450Y-91324315D01*
X146199954Y-91226768D01*
X146133447Y-91206593D01*
X146075009Y-91168296D01*
X146046553Y-91104484D01*
X146057113Y-91035417D01*
X146103337Y-90983023D01*
X146137350Y-90968158D01*
X146259483Y-90935433D01*
X146259492Y-90935429D01*
X146473578Y-90835600D01*
X146667082Y-90700105D01*
X146834105Y-90533082D01*
X146964425Y-90346968D01*
X147019002Y-90303344D01*
X147088501Y-90296151D01*
X147150855Y-90327673D01*
G37*
%TD.AperFunction*%
%TA.AperFunction,Conductor*%
G36*
X147876507Y-89452156D02*
G01*
X147836000Y-89590111D01*
X147836000Y-89733889D01*
X147876507Y-89871844D01*
X147902314Y-89912000D01*
X146229686Y-89912000D01*
X146255493Y-89871844D01*
X146296000Y-89733889D01*
X146296000Y-89590111D01*
X146255493Y-89452156D01*
X146229686Y-89412000D01*
X147902314Y-89412000D01*
X147876507Y-89452156D01*
G37*
%TD.AperFunction*%
%TA.AperFunction,Conductor*%
G36*
X175501513Y-84000575D02*
G01*
X175567131Y-84003797D01*
X175652481Y-84007990D01*
X175846607Y-84018164D01*
X175852409Y-84018745D01*
X176021733Y-84043862D01*
X176197594Y-84071716D01*
X176202929Y-84072804D01*
X176372209Y-84115206D01*
X176541341Y-84160525D01*
X176546122Y-84162018D01*
X176711894Y-84221332D01*
X176874263Y-84283660D01*
X176878543Y-84285492D01*
X176964073Y-84325944D01*
X177038476Y-84361134D01*
X177192992Y-84439864D01*
X177196720Y-84441928D01*
X177348967Y-84533180D01*
X177494262Y-84627537D01*
X177497428Y-84629736D01*
X177640323Y-84735714D01*
X177774975Y-84844752D01*
X177777594Y-84846997D01*
X177908517Y-84965658D01*
X177910721Y-84967757D01*
X178032241Y-85089277D01*
X178034340Y-85091481D01*
X178153001Y-85222404D01*
X178155246Y-85225023D01*
X178264285Y-85359676D01*
X178370262Y-85502570D01*
X178372461Y-85505736D01*
X178466822Y-85651038D01*
X178558070Y-85803278D01*
X178560133Y-85807006D01*
X178638868Y-85961529D01*
X178714506Y-86121455D01*
X178716342Y-86125746D01*
X178778672Y-86288120D01*
X178781996Y-86297409D01*
X178837970Y-86453847D01*
X178839479Y-86458678D01*
X178884793Y-86627790D01*
X178927191Y-86797056D01*
X178928286Y-86802424D01*
X178956145Y-86978317D01*
X178981250Y-87147560D01*
X178981836Y-87153416D01*
X178992011Y-87347561D01*
X178999425Y-87498488D01*
X178999500Y-87501530D01*
X178999500Y-132498469D01*
X178999425Y-132501511D01*
X178992011Y-132652438D01*
X178981836Y-132846582D01*
X178981250Y-132852438D01*
X178956145Y-133021682D01*
X178928286Y-133197574D01*
X178927191Y-133202942D01*
X178884793Y-133372209D01*
X178839479Y-133541320D01*
X178837967Y-133546163D01*
X178778672Y-133711879D01*
X178716342Y-133874252D01*
X178714507Y-133878543D01*
X178638868Y-134038470D01*
X178560133Y-134192992D01*
X178558070Y-134196720D01*
X178466822Y-134348961D01*
X178372461Y-134494262D01*
X178370262Y-134497428D01*
X178264285Y-134640323D01*
X178155245Y-134774975D01*
X178153001Y-134777594D01*
X178034340Y-134908517D01*
X178032241Y-134910721D01*
X177910721Y-135032241D01*
X177908517Y-135034340D01*
X177777594Y-135153001D01*
X177774975Y-135155245D01*
X177640323Y-135264285D01*
X177497428Y-135370262D01*
X177494262Y-135372461D01*
X177348961Y-135466822D01*
X177196720Y-135558070D01*
X177192992Y-135560133D01*
X177038470Y-135638868D01*
X176878543Y-135714507D01*
X176874252Y-135716342D01*
X176711879Y-135778672D01*
X176546163Y-135837967D01*
X176541320Y-135839479D01*
X176372209Y-135884793D01*
X176202942Y-135927191D01*
X176197574Y-135928286D01*
X176021682Y-135956145D01*
X175852438Y-135981250D01*
X175846582Y-135981836D01*
X175652438Y-135992011D01*
X175501513Y-135999425D01*
X175498470Y-135999500D01*
X122501530Y-135999500D01*
X122498488Y-135999425D01*
X122347561Y-135992011D01*
X122153416Y-135981836D01*
X122147560Y-135981250D01*
X121978317Y-135956145D01*
X121802424Y-135928286D01*
X121797056Y-135927191D01*
X121627790Y-135884793D01*
X121458678Y-135839479D01*
X121453847Y-135837970D01*
X121347307Y-135799850D01*
X121288120Y-135778672D01*
X121125746Y-135716342D01*
X121121455Y-135714506D01*
X120961529Y-135638868D01*
X120807006Y-135560133D01*
X120803278Y-135558070D01*
X120651038Y-135466822D01*
X120505736Y-135372461D01*
X120502570Y-135370262D01*
X120359676Y-135264285D01*
X120225023Y-135155246D01*
X120222404Y-135153001D01*
X120091481Y-135034340D01*
X120089277Y-135032241D01*
X119967757Y-134910721D01*
X119965658Y-134908517D01*
X119846997Y-134777594D01*
X119844752Y-134774975D01*
X119735714Y-134640323D01*
X119629736Y-134497428D01*
X119627537Y-134494262D01*
X119533177Y-134348961D01*
X119441928Y-134196720D01*
X119439864Y-134192992D01*
X119367649Y-134051262D01*
X119361131Y-134038470D01*
X119321174Y-133953987D01*
X119285492Y-133878543D01*
X119283656Y-133874252D01*
X119275210Y-133852250D01*
X119221327Y-133711879D01*
X119162018Y-133546122D01*
X119160525Y-133541341D01*
X119115206Y-133372209D01*
X119072804Y-133202929D01*
X119071716Y-133197594D01*
X119043854Y-133021682D01*
X119018745Y-132852409D01*
X119018164Y-132846607D01*
X119007989Y-132652438D01*
X119003797Y-132567131D01*
X119000575Y-132501513D01*
X119000538Y-132500000D01*
X120944706Y-132500000D01*
X120963853Y-132743297D01*
X120963853Y-132743300D01*
X120963854Y-132743302D01*
X121020827Y-132980609D01*
X121020830Y-132980619D01*
X121114222Y-133206089D01*
X121241737Y-133414173D01*
X121241738Y-133414176D01*
X121258198Y-133433448D01*
X121400241Y-133599759D01*
X121531505Y-133711869D01*
X121585823Y-133758261D01*
X121585826Y-133758262D01*
X121793911Y-133885777D01*
X121793910Y-133885777D01*
X121807542Y-133891423D01*
X121832044Y-133901572D01*
X121834258Y-133902555D01*
X121836127Y-133903263D01*
X122019388Y-133979172D01*
X122019389Y-133979172D01*
X122019391Y-133979173D01*
X122033134Y-133982472D01*
X122059260Y-133988744D01*
X122062017Y-133989474D01*
X122068057Y-133991223D01*
X122068061Y-133991225D01*
X122078290Y-133993313D01*
X122256698Y-134036146D01*
X122303995Y-134039868D01*
X122311542Y-134040932D01*
X122312864Y-134041202D01*
X122329414Y-134041868D01*
X122500000Y-134055294D01*
X122551386Y-134051249D01*
X122558730Y-134051109D01*
X122562514Y-134051262D01*
X122583293Y-134048738D01*
X122743302Y-134036146D01*
X122797465Y-134023142D01*
X122804439Y-134021887D01*
X122810544Y-134021146D01*
X122832268Y-134014853D01*
X122834972Y-134014137D01*
X122980612Y-133979172D01*
X123013010Y-133965752D01*
X159995900Y-133965752D01*
X160007531Y-134024229D01*
X160007532Y-134024230D01*
X160051847Y-134090552D01*
X160118169Y-134134867D01*
X160118170Y-134134868D01*
X160176647Y-134146499D01*
X160176650Y-134146500D01*
X160176652Y-134146500D01*
X161916150Y-134146500D01*
X161916151Y-134146499D01*
X161930968Y-134143552D01*
X161974629Y-134134868D01*
X161974629Y-134134867D01*
X161974631Y-134134867D01*
X162040952Y-134090552D01*
X162085267Y-134024231D01*
X162085267Y-134024229D01*
X162085268Y-134024229D01*
X162095326Y-133973662D01*
X162096900Y-133965748D01*
X162096900Y-133655456D01*
X162116585Y-133588417D01*
X162169389Y-133542662D01*
X162238547Y-133532718D01*
X162302103Y-133561743D01*
X162333282Y-133603051D01*
X162412800Y-133773578D01*
X162548294Y-133967082D01*
X162715317Y-134134105D01*
X162908821Y-134269600D01*
X163122907Y-134369429D01*
X163122916Y-134369433D01*
X163336400Y-134426634D01*
X163336400Y-133531501D01*
X163444085Y-133580680D01*
X163550637Y-133596000D01*
X163622163Y-133596000D01*
X163728715Y-133580680D01*
X163836400Y-133531501D01*
X163836400Y-134426633D01*
X164049883Y-134369433D01*
X164049892Y-134369429D01*
X164263978Y-134269600D01*
X164457482Y-134134105D01*
X164624505Y-133967082D01*
X164760000Y-133773578D01*
X164859829Y-133559492D01*
X164859833Y-133559483D01*
X164892558Y-133437350D01*
X164928922Y-133377690D01*
X164991769Y-133347160D01*
X165061145Y-133355454D01*
X165115023Y-133399939D01*
X165130993Y-133433447D01*
X165151168Y-133499954D01*
X165248715Y-133682450D01*
X165272867Y-133711879D01*
X165379989Y-133842410D01*
X165476609Y-133921702D01*
X165539950Y-133973685D01*
X165722446Y-134071232D01*
X165920466Y-134131300D01*
X165920465Y-134131300D01*
X165938929Y-134133118D01*
X166126400Y-134151583D01*
X166332334Y-134131300D01*
X166530354Y-134071232D01*
X166712850Y-133973685D01*
X166872810Y-133842410D01*
X167004085Y-133682450D01*
X167101632Y-133499954D01*
X167161700Y-133301934D01*
X167181983Y-133096000D01*
X167161700Y-132890066D01*
X167101632Y-132692046D01*
X167004085Y-132509550D01*
X166996248Y-132500000D01*
X173944706Y-132500000D01*
X173963853Y-132743297D01*
X173963853Y-132743300D01*
X173963854Y-132743302D01*
X174020827Y-132980609D01*
X174020830Y-132980619D01*
X174114222Y-133206089D01*
X174241737Y-133414173D01*
X174241738Y-133414176D01*
X174258198Y-133433448D01*
X174400241Y-133599759D01*
X174531505Y-133711869D01*
X174585823Y-133758261D01*
X174585826Y-133758262D01*
X174793911Y-133885777D01*
X174793910Y-133885777D01*
X174807542Y-133891423D01*
X174832044Y-133901572D01*
X174834258Y-133902555D01*
X174836127Y-133903263D01*
X175019388Y-133979172D01*
X175019389Y-133979172D01*
X175019391Y-133979173D01*
X175033134Y-133982472D01*
X175059260Y-133988744D01*
X175062017Y-133989474D01*
X175068057Y-133991223D01*
X175068061Y-133991225D01*
X175078290Y-133993313D01*
X175256698Y-134036146D01*
X175303995Y-134039868D01*
X175311542Y-134040932D01*
X175312864Y-134041202D01*
X175329414Y-134041868D01*
X175500000Y-134055294D01*
X175551386Y-134051249D01*
X175558730Y-134051109D01*
X175562514Y-134051262D01*
X175583293Y-134048738D01*
X175743302Y-134036146D01*
X175797465Y-134023142D01*
X175804439Y-134021887D01*
X175810544Y-134021146D01*
X175832268Y-134014853D01*
X175834972Y-134014137D01*
X175980612Y-133979172D01*
X176035940Y-133956254D01*
X176042404Y-133953987D01*
X176050532Y-133951633D01*
X176072788Y-133941072D01*
X176075497Y-133939869D01*
X176206089Y-133885777D01*
X176260830Y-133852231D01*
X176266604Y-133849104D01*
X176276261Y-133844523D01*
X176297464Y-133829886D01*
X176300241Y-133828080D01*
X176414179Y-133758259D01*
X176466309Y-133713735D01*
X176471306Y-133709892D01*
X176481885Y-133702591D01*
X176500901Y-133684324D01*
X176503493Y-133681976D01*
X176599759Y-133599759D01*
X176647157Y-133544262D01*
X176651349Y-133539817D01*
X176662079Y-133529512D01*
X176677953Y-133508386D01*
X176680325Y-133505427D01*
X176758259Y-133414179D01*
X176798786Y-133348044D01*
X176802044Y-133343252D01*
X176812176Y-133329770D01*
X176824315Y-133306639D01*
X176826306Y-133303136D01*
X176885777Y-133206089D01*
X176917238Y-133130133D01*
X176919601Y-133125088D01*
X176928288Y-133108537D01*
X176936346Y-133084399D01*
X176937846Y-133080381D01*
X176979172Y-132980612D01*
X176999488Y-132895990D01*
X177000947Y-132890894D01*
X177007408Y-132871543D01*
X177011343Y-132847326D01*
X177012229Y-132842918D01*
X177036146Y-132743302D01*
X177043361Y-132651623D01*
X177043973Y-132646547D01*
X177047487Y-132624926D01*
X177048146Y-132592153D01*
X177048324Y-132588560D01*
X177055294Y-132500000D01*
X177048323Y-132411433D01*
X177048146Y-132407842D01*
X177047487Y-132375074D01*
X177043972Y-132353446D01*
X177043360Y-132348367D01*
X177037662Y-132275964D01*
X177036146Y-132256698D01*
X177012239Y-132157123D01*
X177011335Y-132152620D01*
X177007408Y-132128457D01*
X177000955Y-132109129D01*
X176999482Y-132103987D01*
X176979172Y-132019388D01*
X176937858Y-131919648D01*
X176936335Y-131915568D01*
X176931371Y-131900699D01*
X176928288Y-131891463D01*
X176919609Y-131874927D01*
X176917238Y-131869867D01*
X176885777Y-131793911D01*
X176826308Y-131696867D01*
X176824308Y-131693346D01*
X176812176Y-131670230D01*
X176802066Y-131656776D01*
X176798766Y-131651923D01*
X176774823Y-131612852D01*
X176758259Y-131585821D01*
X176680341Y-131494591D01*
X176677944Y-131491601D01*
X176662079Y-131470488D01*
X176651354Y-131460186D01*
X176647156Y-131455735D01*
X176599759Y-131400241D01*
X176503513Y-131318039D01*
X176500885Y-131315659D01*
X176481885Y-131297409D01*
X176477219Y-131294188D01*
X176471333Y-131290125D01*
X176466287Y-131286245D01*
X176414179Y-131241741D01*
X176414170Y-131241734D01*
X176300273Y-131171938D01*
X176297450Y-131170101D01*
X176276264Y-131155478D01*
X176276260Y-131155476D01*
X176266608Y-131150895D01*
X176260796Y-131147746D01*
X176228206Y-131127776D01*
X176206089Y-131114223D01*
X176206083Y-131114220D01*
X176206077Y-131114217D01*
X176075569Y-131060160D01*
X176072716Y-131058893D01*
X176050533Y-131048367D01*
X176050519Y-131048362D01*
X176042406Y-131046011D01*
X176035933Y-131043741D01*
X175980622Y-131020831D01*
X175980606Y-131020826D01*
X175835002Y-130985868D01*
X175832231Y-130985134D01*
X175810547Y-130978855D01*
X175810548Y-130978855D01*
X175810544Y-130978854D01*
X175810536Y-130978853D01*
X175810525Y-130978851D01*
X175804427Y-130978109D01*
X175797437Y-130976850D01*
X175743302Y-130963854D01*
X175583297Y-130951261D01*
X175562525Y-130948739D01*
X175562520Y-130948738D01*
X175562514Y-130948738D01*
X175562508Y-130948738D01*
X175562504Y-130948738D01*
X175558731Y-130948890D01*
X175551376Y-130948748D01*
X175500000Y-130944706D01*
X175329417Y-130958130D01*
X175312869Y-130958797D01*
X175312833Y-130958801D01*
X175311503Y-130959073D01*
X175303988Y-130960131D01*
X175256706Y-130963853D01*
X175256701Y-130963853D01*
X175256698Y-130963854D01*
X175256695Y-130963854D01*
X175256693Y-130963855D01*
X175078287Y-131006687D01*
X175068059Y-131008775D01*
X175062015Y-131010525D01*
X175059247Y-131011258D01*
X175019390Y-131020827D01*
X175019385Y-131020828D01*
X174836127Y-131096736D01*
X174834250Y-131097448D01*
X174832041Y-131098428D01*
X174793910Y-131114223D01*
X174793904Y-131114226D01*
X174585826Y-131241737D01*
X174585823Y-131241738D01*
X174400241Y-131400241D01*
X174241738Y-131585823D01*
X174241737Y-131585826D01*
X174114222Y-131793910D01*
X174020830Y-132019380D01*
X173963853Y-132256702D01*
X173944706Y-132500000D01*
X166996248Y-132500000D01*
X166920616Y-132407842D01*
X166872810Y-132349589D01*
X166722521Y-132226252D01*
X166712850Y-132218315D01*
X166530354Y-132120768D01*
X166332334Y-132060700D01*
X166332332Y-132060699D01*
X166332334Y-132060699D01*
X166126400Y-132040417D01*
X165920467Y-132060699D01*
X165722443Y-132120769D01*
X165639777Y-132164956D01*
X165539950Y-132218315D01*
X165539948Y-132218316D01*
X165539947Y-132218317D01*
X165379989Y-132349589D01*
X165248717Y-132509547D01*
X165151167Y-132692046D01*
X165130993Y-132758552D01*
X165092696Y-132816990D01*
X165028883Y-132845447D01*
X164959816Y-132834886D01*
X164907423Y-132788661D01*
X164892558Y-132754649D01*
X164859833Y-132632516D01*
X164859829Y-132632507D01*
X164760000Y-132418422D01*
X164759999Y-132418420D01*
X164624513Y-132224926D01*
X164624508Y-132224920D01*
X164457482Y-132057894D01*
X164263978Y-131922399D01*
X164049892Y-131822570D01*
X164049886Y-131822567D01*
X163836400Y-131765364D01*
X163836400Y-132660498D01*
X163728715Y-132611320D01*
X163622163Y-132596000D01*
X163550637Y-132596000D01*
X163444085Y-132611320D01*
X163336400Y-132660498D01*
X163336400Y-131765364D01*
X163336399Y-131765364D01*
X163122913Y-131822567D01*
X163122907Y-131822570D01*
X162908822Y-131922399D01*
X162908820Y-131922400D01*
X162715326Y-132057886D01*
X162715320Y-132057891D01*
X162548291Y-132224920D01*
X162548286Y-132224926D01*
X162412800Y-132418420D01*
X162412799Y-132418422D01*
X162333282Y-132588948D01*
X162287110Y-132641387D01*
X162219916Y-132660539D01*
X162153035Y-132640323D01*
X162107700Y-132587158D01*
X162096900Y-132536543D01*
X162096900Y-132226249D01*
X162096899Y-132226247D01*
X162085268Y-132167770D01*
X162085267Y-132167769D01*
X162040952Y-132101447D01*
X161974630Y-132057132D01*
X161974629Y-132057131D01*
X161916152Y-132045500D01*
X161916148Y-132045500D01*
X160176652Y-132045500D01*
X160176647Y-132045500D01*
X160118170Y-132057131D01*
X160118169Y-132057132D01*
X160051847Y-132101447D01*
X160007532Y-132167769D01*
X160007531Y-132167770D01*
X159995900Y-132226247D01*
X159995900Y-133965752D01*
X123013010Y-133965752D01*
X123035940Y-133956254D01*
X123042404Y-133953987D01*
X123050532Y-133951633D01*
X123072788Y-133941072D01*
X123075497Y-133939869D01*
X123206089Y-133885777D01*
X123260830Y-133852231D01*
X123266604Y-133849104D01*
X123276261Y-133844523D01*
X123297464Y-133829886D01*
X123300241Y-133828080D01*
X123414179Y-133758259D01*
X123466309Y-133713735D01*
X123471306Y-133709892D01*
X123481885Y-133702591D01*
X123500901Y-133684324D01*
X123503493Y-133681976D01*
X123599759Y-133599759D01*
X123647157Y-133544262D01*
X123651349Y-133539817D01*
X123662079Y-133529512D01*
X123677953Y-133508386D01*
X123680325Y-133505427D01*
X123758259Y-133414179D01*
X123798786Y-133348044D01*
X123802044Y-133343252D01*
X123812176Y-133329770D01*
X123824315Y-133306639D01*
X123826306Y-133303136D01*
X123885777Y-133206089D01*
X123917238Y-133130133D01*
X123919601Y-133125088D01*
X123928288Y-133108537D01*
X123936346Y-133084399D01*
X123937846Y-133080381D01*
X123979172Y-132980612D01*
X123999488Y-132895990D01*
X124000947Y-132890894D01*
X124007408Y-132871543D01*
X124011343Y-132847326D01*
X124012229Y-132842918D01*
X124034538Y-132750001D01*
X132194818Y-132750001D01*
X132215455Y-132906760D01*
X132215456Y-132906762D01*
X132264063Y-133024111D01*
X132275964Y-133052841D01*
X132372218Y-133178282D01*
X132497659Y-133274536D01*
X132643738Y-133335044D01*
X132706084Y-133343252D01*
X132800499Y-133355682D01*
X132800500Y-133355682D01*
X132800501Y-133355682D01*
X132865231Y-133347160D01*
X132957262Y-133335044D01*
X133103341Y-133274536D01*
X133228782Y-133178282D01*
X133325036Y-133052841D01*
X133385544Y-132906762D01*
X133399533Y-132800501D01*
X133894318Y-132800501D01*
X133914955Y-132957260D01*
X133914956Y-132957262D01*
X133975464Y-133103341D01*
X134071718Y-133228782D01*
X134197159Y-133325036D01*
X134343238Y-133385544D01*
X134421619Y-133395863D01*
X134499999Y-133406182D01*
X134500000Y-133406182D01*
X134500001Y-133406182D01*
X134552254Y-133399302D01*
X134656762Y-133385544D01*
X134802841Y-133325036D01*
X134928282Y-133228782D01*
X135024536Y-133103341D01*
X135085044Y-132957262D01*
X135105682Y-132800500D01*
X135104123Y-132788661D01*
X135085044Y-132643739D01*
X135085044Y-132643738D01*
X135024536Y-132497659D01*
X134928282Y-132372218D01*
X134802841Y-132275964D01*
X134756338Y-132256702D01*
X134656762Y-132215456D01*
X134656760Y-132215455D01*
X134500001Y-132194818D01*
X134499999Y-132194818D01*
X134343239Y-132215455D01*
X134343237Y-132215456D01*
X134197160Y-132275963D01*
X134071718Y-132372218D01*
X133975463Y-132497660D01*
X133914956Y-132643737D01*
X133914955Y-132643739D01*
X133894318Y-132800498D01*
X133894318Y-132800501D01*
X133399533Y-132800501D01*
X133406182Y-132750000D01*
X133385544Y-132593238D01*
X133325036Y-132447159D01*
X133228782Y-132321718D01*
X133103341Y-132225464D01*
X133102042Y-132224926D01*
X132957262Y-132164956D01*
X132957260Y-132164955D01*
X132800501Y-132144318D01*
X132800499Y-132144318D01*
X132643739Y-132164955D01*
X132643737Y-132164956D01*
X132497660Y-132225463D01*
X132372218Y-132321718D01*
X132275963Y-132447160D01*
X132215456Y-132593237D01*
X132215455Y-132593239D01*
X132194818Y-132749998D01*
X132194818Y-132750001D01*
X124034538Y-132750001D01*
X124036146Y-132743302D01*
X124043361Y-132651623D01*
X124043973Y-132646547D01*
X124047487Y-132624926D01*
X124048146Y-132592153D01*
X124048324Y-132588560D01*
X124055294Y-132500000D01*
X124048323Y-132411433D01*
X124048146Y-132407842D01*
X124047487Y-132375074D01*
X124043972Y-132353446D01*
X124043360Y-132348367D01*
X124037662Y-132275964D01*
X124036146Y-132256698D01*
X124012239Y-132157123D01*
X124011335Y-132152620D01*
X124007408Y-132128457D01*
X124000955Y-132109129D01*
X123999482Y-132103987D01*
X123979172Y-132019388D01*
X123937858Y-131919648D01*
X123936335Y-131915568D01*
X123931371Y-131900699D01*
X123928288Y-131891463D01*
X123919609Y-131874927D01*
X123917238Y-131869867D01*
X123885777Y-131793911D01*
X123826308Y-131696867D01*
X123824308Y-131693346D01*
X123812176Y-131670230D01*
X123802066Y-131656776D01*
X123798766Y-131651923D01*
X123774823Y-131612852D01*
X123758259Y-131585821D01*
X123680341Y-131494591D01*
X123677944Y-131491601D01*
X123662079Y-131470488D01*
X123651354Y-131460186D01*
X123647156Y-131455735D01*
X123599759Y-131400241D01*
X123505808Y-131319999D01*
X130274290Y-131319999D01*
X130294248Y-131471591D01*
X130294249Y-131471595D01*
X130352758Y-131612851D01*
X130352759Y-131612852D01*
X130352760Y-131612854D01*
X130445841Y-131734159D01*
X130567146Y-131827240D01*
X130708408Y-131885752D01*
X130821939Y-131900699D01*
X130821946Y-131900699D01*
X130898056Y-131900699D01*
X130898063Y-131900699D01*
X131011594Y-131885752D01*
X131152856Y-131827240D01*
X131274161Y-131734159D01*
X131367242Y-131612855D01*
X131425754Y-131471592D01*
X131445712Y-131319999D01*
X136054288Y-131319999D01*
X136074246Y-131471591D01*
X136074247Y-131471595D01*
X136132756Y-131612851D01*
X136132757Y-131612852D01*
X136132758Y-131612854D01*
X136225839Y-131734159D01*
X136347144Y-131827240D01*
X136488406Y-131885752D01*
X136601937Y-131900699D01*
X136601944Y-131900699D01*
X136678054Y-131900699D01*
X136678061Y-131900699D01*
X136791592Y-131885752D01*
X136932854Y-131827240D01*
X137054159Y-131734159D01*
X137147240Y-131612855D01*
X137205752Y-131471592D01*
X137225710Y-131319999D01*
X137205752Y-131168406D01*
X137147240Y-131027144D01*
X137054159Y-130905839D01*
X136932854Y-130812758D01*
X136932853Y-130812757D01*
X136932851Y-130812756D01*
X136791595Y-130754247D01*
X136791593Y-130754246D01*
X136791592Y-130754246D01*
X136766362Y-130750924D01*
X136678068Y-130739299D01*
X136678061Y-130739299D01*
X136601937Y-130739299D01*
X136601929Y-130739299D01*
X136501020Y-130752585D01*
X136488406Y-130754246D01*
X136488405Y-130754246D01*
X136488402Y-130754247D01*
X136347146Y-130812756D01*
X136286491Y-130859298D01*
X136225839Y-130905839D01*
X136225838Y-130905840D01*
X136225837Y-130905841D01*
X136132756Y-131027145D01*
X136074247Y-131168402D01*
X136074246Y-131168406D01*
X136054288Y-131319998D01*
X136054288Y-131319999D01*
X131445712Y-131319999D01*
X131425754Y-131168406D01*
X131367242Y-131027144D01*
X131274161Y-130905839D01*
X131152856Y-130812758D01*
X131152855Y-130812757D01*
X131152853Y-130812756D01*
X131011597Y-130754247D01*
X131011595Y-130754246D01*
X131011594Y-130754246D01*
X130986364Y-130750924D01*
X130898070Y-130739299D01*
X130898063Y-130739299D01*
X130821939Y-130739299D01*
X130821931Y-130739299D01*
X130721022Y-130752585D01*
X130708408Y-130754246D01*
X130708407Y-130754246D01*
X130708404Y-130754247D01*
X130567148Y-130812756D01*
X130506493Y-130859298D01*
X130445841Y-130905839D01*
X130445840Y-130905840D01*
X130445839Y-130905841D01*
X130352758Y-131027145D01*
X130294249Y-131168402D01*
X130294248Y-131168406D01*
X130274290Y-131319998D01*
X130274290Y-131319999D01*
X123505808Y-131319999D01*
X123503513Y-131318039D01*
X123500885Y-131315659D01*
X123481885Y-131297409D01*
X123477219Y-131294188D01*
X123471333Y-131290125D01*
X123466287Y-131286245D01*
X123414179Y-131241741D01*
X123414170Y-131241734D01*
X123300273Y-131171938D01*
X123297450Y-131170101D01*
X123276264Y-131155478D01*
X123276260Y-131155476D01*
X123266608Y-131150895D01*
X123260796Y-131147746D01*
X123228206Y-131127776D01*
X123206089Y-131114223D01*
X123206083Y-131114220D01*
X123206077Y-131114217D01*
X123075569Y-131060160D01*
X123072716Y-131058893D01*
X123050533Y-131048367D01*
X123050519Y-131048362D01*
X123042406Y-131046011D01*
X123035933Y-131043741D01*
X122980622Y-131020831D01*
X122980606Y-131020826D01*
X122835002Y-130985868D01*
X122832231Y-130985134D01*
X122810547Y-130978855D01*
X122810548Y-130978855D01*
X122810544Y-130978854D01*
X122810536Y-130978853D01*
X122810525Y-130978851D01*
X122804427Y-130978109D01*
X122797437Y-130976850D01*
X122743302Y-130963854D01*
X122583297Y-130951261D01*
X122562525Y-130948739D01*
X122562520Y-130948738D01*
X122562514Y-130948738D01*
X122562508Y-130948738D01*
X122562504Y-130948738D01*
X122558731Y-130948890D01*
X122551376Y-130948748D01*
X122500000Y-130944706D01*
X122329417Y-130958130D01*
X122312869Y-130958797D01*
X122312833Y-130958801D01*
X122311503Y-130959073D01*
X122303988Y-130960131D01*
X122256706Y-130963853D01*
X122256701Y-130963853D01*
X122256698Y-130963854D01*
X122256695Y-130963854D01*
X122256693Y-130963855D01*
X122078287Y-131006687D01*
X122068059Y-131008775D01*
X122062015Y-131010525D01*
X122059247Y-131011258D01*
X122019390Y-131020827D01*
X122019385Y-131020828D01*
X121836127Y-131096736D01*
X121834250Y-131097448D01*
X121832041Y-131098428D01*
X121793910Y-131114223D01*
X121793904Y-131114226D01*
X121585826Y-131241737D01*
X121585823Y-131241738D01*
X121400241Y-131400241D01*
X121241738Y-131585823D01*
X121241737Y-131585826D01*
X121114222Y-131793910D01*
X121020830Y-132019380D01*
X120963853Y-132256702D01*
X120944706Y-132500000D01*
X119000538Y-132500000D01*
X119000500Y-132498471D01*
X119000500Y-123049901D01*
X146675018Y-123049901D01*
X146695655Y-123206660D01*
X146695656Y-123206662D01*
X146756164Y-123352741D01*
X146852418Y-123478182D01*
X146977859Y-123574436D01*
X147123938Y-123634944D01*
X147202319Y-123645263D01*
X147280699Y-123655582D01*
X147280700Y-123655582D01*
X147280701Y-123655582D01*
X147332954Y-123648702D01*
X147437462Y-123634944D01*
X147583541Y-123574436D01*
X147708982Y-123478182D01*
X147805236Y-123352741D01*
X147865744Y-123206662D01*
X147886382Y-123049900D01*
X147883709Y-123029600D01*
X147870814Y-122931649D01*
X147865744Y-122893138D01*
X147805236Y-122747059D01*
X147708982Y-122621618D01*
X147583541Y-122525364D01*
X147437462Y-122464856D01*
X147437460Y-122464855D01*
X147280701Y-122444218D01*
X147280699Y-122444218D01*
X147123939Y-122464855D01*
X147123937Y-122464856D01*
X146977860Y-122525363D01*
X146852418Y-122621618D01*
X146756163Y-122747060D01*
X146695656Y-122893137D01*
X146695655Y-122893139D01*
X146675018Y-123049898D01*
X146675018Y-123049901D01*
X119000500Y-123049901D01*
X119000500Y-120635000D01*
X123294417Y-120635000D01*
X123314699Y-120840932D01*
X123314700Y-120840934D01*
X123374768Y-121038954D01*
X123472315Y-121221450D01*
X123472316Y-121221451D01*
X123472317Y-121221452D01*
X123603589Y-121381410D01*
X123700209Y-121460702D01*
X123763550Y-121512685D01*
X123946046Y-121610232D01*
X124144066Y-121670300D01*
X124144065Y-121670300D01*
X124182647Y-121674100D01*
X124298392Y-121685500D01*
X124298395Y-121685500D01*
X124701605Y-121685500D01*
X124701608Y-121685500D01*
X124855934Y-121670300D01*
X125053954Y-121610232D01*
X125236450Y-121512685D01*
X125396410Y-121381410D01*
X125527685Y-121221450D01*
X125595819Y-121093980D01*
X125644780Y-121044138D01*
X125712918Y-121028677D01*
X125778598Y-121052509D01*
X125800165Y-121072729D01*
X125806345Y-121080094D01*
X125806346Y-121080095D01*
X125806348Y-121080096D01*
X125841399Y-121100333D01*
X125845962Y-121103239D01*
X125879116Y-121126454D01*
X125879119Y-121126454D01*
X125883976Y-121128720D01*
X125900733Y-121135660D01*
X125905753Y-121137487D01*
X125905755Y-121137488D01*
X125941606Y-121143809D01*
X125945608Y-121144515D01*
X125950880Y-121145683D01*
X125989993Y-121156164D01*
X126030322Y-121152635D01*
X126035724Y-121152400D01*
X132998278Y-121152400D01*
X133003681Y-121152635D01*
X133044007Y-121156164D01*
X133083140Y-121145677D01*
X133088362Y-121144519D01*
X133128245Y-121137488D01*
X133128250Y-121137484D01*
X133133299Y-121135647D01*
X133150024Y-121128719D01*
X133154881Y-121126454D01*
X133154884Y-121126454D01*
X133188041Y-121103235D01*
X133192590Y-121100338D01*
X133227655Y-121080094D01*
X133237586Y-121068259D01*
X133253676Y-121049082D01*
X133257322Y-121045103D01*
X133631007Y-120671419D01*
X133692330Y-120637934D01*
X133718688Y-120635100D01*
X149839012Y-120635100D01*
X149906051Y-120654785D01*
X149926693Y-120671419D01*
X151433388Y-122178114D01*
X151466873Y-122239437D01*
X151468646Y-122281979D01*
X151459718Y-122349797D01*
X151459718Y-122349801D01*
X151480355Y-122506560D01*
X151480356Y-122506562D01*
X151536723Y-122642645D01*
X151540864Y-122652641D01*
X151637118Y-122778082D01*
X151762559Y-122874336D01*
X151908638Y-122934844D01*
X151987019Y-122945163D01*
X152065399Y-122955482D01*
X152065400Y-122955482D01*
X152065401Y-122955482D01*
X152117654Y-122948602D01*
X152222162Y-122934844D01*
X152368241Y-122874336D01*
X152493682Y-122778082D01*
X152589936Y-122652641D01*
X152650444Y-122506562D01*
X152671082Y-122349800D01*
X152667641Y-122323666D01*
X152657323Y-122245292D01*
X152650444Y-122193038D01*
X152589936Y-122046959D01*
X152493682Y-121921518D01*
X152368241Y-121825264D01*
X152222162Y-121764756D01*
X152222160Y-121764755D01*
X152065401Y-121744118D01*
X152065397Y-121744118D01*
X151997579Y-121753046D01*
X151928544Y-121742280D01*
X151893714Y-121717788D01*
X151136426Y-120960500D01*
X150267319Y-120091393D01*
X150263674Y-120087414D01*
X150237656Y-120056407D01*
X150237655Y-120056406D01*
X150224043Y-120048547D01*
X150202592Y-120036161D01*
X150198031Y-120033255D01*
X150179251Y-120020106D01*
X150164884Y-120010046D01*
X150164881Y-120010045D01*
X150160061Y-120007797D01*
X150143255Y-120000835D01*
X150138243Y-119999011D01*
X150098390Y-119991983D01*
X150093110Y-119990812D01*
X150054008Y-119980335D01*
X150019092Y-119983390D01*
X150013681Y-119983864D01*
X150008278Y-119984100D01*
X133549422Y-119984100D01*
X133544018Y-119983864D01*
X133538607Y-119983390D01*
X133503692Y-119980335D01*
X133503691Y-119980335D01*
X133464591Y-119990812D01*
X133459311Y-119991983D01*
X133419459Y-119999010D01*
X133414461Y-120000829D01*
X133397617Y-120007806D01*
X133392813Y-120010046D01*
X133359666Y-120033256D01*
X133355106Y-120036162D01*
X133325620Y-120053187D01*
X133320045Y-120056406D01*
X133320043Y-120056408D01*
X133320041Y-120056410D01*
X133294024Y-120087415D01*
X133290368Y-120091404D01*
X133091959Y-120289815D01*
X132916693Y-120465081D01*
X132855370Y-120498566D01*
X132829012Y-120501400D01*
X130558750Y-120501400D01*
X130491711Y-120481715D01*
X130445956Y-120428911D01*
X130436012Y-120359753D01*
X130444187Y-120329951D01*
X130490244Y-120218762D01*
X130510882Y-120062000D01*
X130510145Y-120056404D01*
X130490244Y-119905239D01*
X130490244Y-119905238D01*
X130429736Y-119759159D01*
X130333482Y-119633718D01*
X130208041Y-119537464D01*
X130166748Y-119520360D01*
X130061962Y-119476956D01*
X130061960Y-119476955D01*
X129905201Y-119456318D01*
X129905199Y-119456318D01*
X129748439Y-119476955D01*
X129748437Y-119476956D01*
X129602360Y-119537463D01*
X129476918Y-119633718D01*
X129380663Y-119759160D01*
X129320156Y-119905237D01*
X129320155Y-119905239D01*
X129299518Y-120061998D01*
X129299518Y-120062001D01*
X129320155Y-120218760D01*
X129320156Y-120218762D01*
X129366211Y-120329948D01*
X129373680Y-120399416D01*
X129342405Y-120461896D01*
X129282316Y-120497548D01*
X129251650Y-120501400D01*
X126204988Y-120501400D01*
X126137949Y-120481715D01*
X126117307Y-120465081D01*
X126109215Y-120456989D01*
X126069019Y-120416793D01*
X126065374Y-120412814D01*
X126039356Y-120381807D01*
X126039355Y-120381806D01*
X126027958Y-120375226D01*
X126004292Y-120361561D01*
X125999731Y-120358655D01*
X125986587Y-120349452D01*
X125966584Y-120335446D01*
X125966581Y-120335445D01*
X125961761Y-120333197D01*
X125944955Y-120326235D01*
X125939943Y-120324411D01*
X125900090Y-120317383D01*
X125894810Y-120316212D01*
X125855708Y-120305735D01*
X125820792Y-120308790D01*
X125815381Y-120309264D01*
X125809978Y-120309500D01*
X125740583Y-120309500D01*
X125673544Y-120289815D01*
X125627789Y-120237011D01*
X125626021Y-120232951D01*
X125625233Y-120231051D01*
X125625232Y-120231046D01*
X125527685Y-120048550D01*
X125451500Y-119955718D01*
X125396410Y-119888589D01*
X125236452Y-119757317D01*
X125236453Y-119757317D01*
X125236450Y-119757315D01*
X125053954Y-119659768D01*
X124855934Y-119599700D01*
X124855932Y-119599699D01*
X124855934Y-119599699D01*
X124736805Y-119587966D01*
X124701608Y-119584500D01*
X124298392Y-119584500D01*
X124260298Y-119588251D01*
X124144067Y-119599699D01*
X123946043Y-119659769D01*
X123892513Y-119688382D01*
X123763550Y-119757315D01*
X123763548Y-119757316D01*
X123763547Y-119757317D01*
X123603589Y-119888589D01*
X123472317Y-120048547D01*
X123472315Y-120048550D01*
X123449409Y-120091404D01*
X123374769Y-120231043D01*
X123314699Y-120429067D01*
X123294417Y-120635000D01*
X119000500Y-120635000D01*
X119000500Y-119348201D01*
X151956018Y-119348201D01*
X151976655Y-119504960D01*
X151976656Y-119504962D01*
X152029988Y-119633718D01*
X152037164Y-119651041D01*
X152133418Y-119776482D01*
X152258859Y-119872736D01*
X152404938Y-119933244D01*
X152433248Y-119936971D01*
X152561699Y-119953882D01*
X152561700Y-119953882D01*
X152561701Y-119953882D01*
X152609687Y-119947564D01*
X152629518Y-119944953D01*
X152698553Y-119955718D01*
X152733385Y-119980211D01*
X153244663Y-120491489D01*
X153248318Y-120495478D01*
X153274341Y-120526490D01*
X153274343Y-120526491D01*
X153274345Y-120526494D01*
X153274347Y-120526495D01*
X153274348Y-120526496D01*
X153309399Y-120546733D01*
X153313962Y-120549639D01*
X153347116Y-120572854D01*
X153347119Y-120572854D01*
X153351976Y-120575120D01*
X153368733Y-120582060D01*
X153373750Y-120583886D01*
X153373752Y-120583886D01*
X153373755Y-120583888D01*
X153413618Y-120590916D01*
X153418876Y-120592082D01*
X153457993Y-120602564D01*
X153498318Y-120599035D01*
X153503722Y-120598800D01*
X162874912Y-120598800D01*
X162941951Y-120618485D01*
X162962593Y-120635119D01*
X163334410Y-121006936D01*
X163367895Y-121068259D01*
X163362911Y-121137951D01*
X163321039Y-121193884D01*
X163278822Y-121214392D01*
X163122916Y-121256166D01*
X163122907Y-121256170D01*
X162908822Y-121355999D01*
X162908820Y-121356000D01*
X162715326Y-121491486D01*
X162715320Y-121491491D01*
X162548291Y-121658520D01*
X162548286Y-121658526D01*
X162412800Y-121852020D01*
X162412799Y-121852022D01*
X162333282Y-122022548D01*
X162287110Y-122074987D01*
X162219916Y-122094139D01*
X162153035Y-122073923D01*
X162107700Y-122020758D01*
X162096900Y-121970143D01*
X162096900Y-121659849D01*
X162096899Y-121659847D01*
X162085268Y-121601370D01*
X162085267Y-121601369D01*
X162040952Y-121535047D01*
X161974630Y-121490732D01*
X161974629Y-121490731D01*
X161916152Y-121479100D01*
X161916148Y-121479100D01*
X160176652Y-121479100D01*
X160176647Y-121479100D01*
X160118170Y-121490731D01*
X160118169Y-121490732D01*
X160051847Y-121535047D01*
X160007532Y-121601369D01*
X160007531Y-121601370D01*
X159995900Y-121659847D01*
X159995900Y-123399352D01*
X160007531Y-123457829D01*
X160007532Y-123457830D01*
X160051847Y-123524152D01*
X160118169Y-123568467D01*
X160118170Y-123568468D01*
X160176647Y-123580099D01*
X160176650Y-123580100D01*
X160176652Y-123580100D01*
X161916150Y-123580100D01*
X161916151Y-123580099D01*
X161930968Y-123577152D01*
X161974629Y-123568468D01*
X161974629Y-123568467D01*
X161974631Y-123568467D01*
X162040952Y-123524152D01*
X162085267Y-123457831D01*
X162085267Y-123457829D01*
X162085268Y-123457829D01*
X162095322Y-123407282D01*
X162096900Y-123399348D01*
X162096900Y-123089056D01*
X162116585Y-123022017D01*
X162169389Y-122976262D01*
X162238547Y-122966318D01*
X162302103Y-122995343D01*
X162333282Y-123036651D01*
X162412800Y-123207178D01*
X162548294Y-123400682D01*
X162715317Y-123567705D01*
X162908821Y-123703200D01*
X163122907Y-123803029D01*
X163122916Y-123803033D01*
X163336400Y-123860234D01*
X163336400Y-122965101D01*
X163444085Y-123014280D01*
X163550637Y-123029600D01*
X163622163Y-123029600D01*
X163728715Y-123014280D01*
X163836400Y-122965101D01*
X163836400Y-123860233D01*
X164049883Y-123803033D01*
X164049892Y-123803029D01*
X164263978Y-123703200D01*
X164457482Y-123567705D01*
X164624505Y-123400682D01*
X164760000Y-123207178D01*
X164859828Y-122993095D01*
X164872179Y-122947005D01*
X164908545Y-122887345D01*
X164971392Y-122856817D01*
X164991954Y-122855100D01*
X165035817Y-122855100D01*
X165102856Y-122874785D01*
X165148611Y-122927589D01*
X165150379Y-122931649D01*
X165151168Y-122933554D01*
X165197858Y-123020904D01*
X165212500Y-123079358D01*
X165212500Y-126182978D01*
X165212264Y-126188385D01*
X165208735Y-126228708D01*
X165219212Y-126267810D01*
X165220383Y-126273090D01*
X165227411Y-126312943D01*
X165229235Y-126317955D01*
X165236197Y-126334761D01*
X165238445Y-126339581D01*
X165238446Y-126339584D01*
X165252452Y-126359587D01*
X165261655Y-126372731D01*
X165264561Y-126377292D01*
X165284806Y-126412355D01*
X165315815Y-126438375D01*
X165319805Y-126442031D01*
X165698907Y-126821133D01*
X165732392Y-126882456D01*
X165727408Y-126952148D01*
X165685536Y-127008081D01*
X165669680Y-127018172D01*
X165539950Y-127087515D01*
X165539948Y-127087516D01*
X165539947Y-127087517D01*
X165379989Y-127218789D01*
X165248717Y-127378747D01*
X165151167Y-127561246D01*
X165130993Y-127627752D01*
X165092696Y-127686190D01*
X165028883Y-127714647D01*
X164959816Y-127704086D01*
X164907423Y-127657861D01*
X164892558Y-127623849D01*
X164859833Y-127501716D01*
X164859829Y-127501707D01*
X164760000Y-127287622D01*
X164759999Y-127287620D01*
X164624513Y-127094126D01*
X164624508Y-127094120D01*
X164457482Y-126927094D01*
X164263978Y-126791599D01*
X164049892Y-126691770D01*
X164049886Y-126691767D01*
X163836400Y-126634564D01*
X163836400Y-127529698D01*
X163728715Y-127480520D01*
X163622163Y-127465200D01*
X163550637Y-127465200D01*
X163444085Y-127480520D01*
X163336400Y-127529698D01*
X163336400Y-126634564D01*
X163336399Y-126634564D01*
X163122913Y-126691767D01*
X163122907Y-126691770D01*
X162908822Y-126791599D01*
X162908820Y-126791600D01*
X162715326Y-126927086D01*
X162715320Y-126927091D01*
X162548291Y-127094120D01*
X162548286Y-127094126D01*
X162412800Y-127287620D01*
X162412799Y-127287622D01*
X162333282Y-127458148D01*
X162287110Y-127510587D01*
X162219916Y-127529739D01*
X162153035Y-127509523D01*
X162107700Y-127456358D01*
X162096900Y-127405743D01*
X162096900Y-127095449D01*
X162096899Y-127095447D01*
X162085268Y-127036970D01*
X162085267Y-127036969D01*
X162040952Y-126970647D01*
X161974630Y-126926332D01*
X161974629Y-126926331D01*
X161916152Y-126914700D01*
X161916148Y-126914700D01*
X160176652Y-126914700D01*
X160176647Y-126914700D01*
X160118170Y-126926331D01*
X160118169Y-126926332D01*
X160051847Y-126970647D01*
X160007532Y-127036969D01*
X160007531Y-127036970D01*
X159995900Y-127095447D01*
X159995900Y-128834952D01*
X160007531Y-128893429D01*
X160007532Y-128893430D01*
X160051847Y-128959752D01*
X160118169Y-129004067D01*
X160118170Y-129004068D01*
X160176647Y-129015699D01*
X160176650Y-129015700D01*
X160176652Y-129015700D01*
X161916150Y-129015700D01*
X161916151Y-129015699D01*
X161930968Y-129012752D01*
X161974629Y-129004068D01*
X161974629Y-129004067D01*
X161974631Y-129004067D01*
X162040952Y-128959752D01*
X162085267Y-128893431D01*
X162085267Y-128893429D01*
X162085268Y-128893429D01*
X162095322Y-128842882D01*
X162096900Y-128834948D01*
X162096900Y-128524656D01*
X162116585Y-128457617D01*
X162169389Y-128411862D01*
X162238547Y-128401918D01*
X162302103Y-128430943D01*
X162333282Y-128472251D01*
X162412800Y-128642778D01*
X162548294Y-128836282D01*
X162715317Y-129003305D01*
X162908821Y-129138800D01*
X163122907Y-129238629D01*
X163122916Y-129238633D01*
X163336400Y-129295834D01*
X163336400Y-128400701D01*
X163444085Y-128449880D01*
X163550637Y-128465200D01*
X163622163Y-128465200D01*
X163728715Y-128449880D01*
X163836400Y-128400701D01*
X163836400Y-129295833D01*
X164049883Y-129238633D01*
X164049892Y-129238629D01*
X164263978Y-129138800D01*
X164457482Y-129003305D01*
X164624505Y-128836282D01*
X164760000Y-128642778D01*
X164859829Y-128428692D01*
X164859833Y-128428683D01*
X164892558Y-128306550D01*
X164928922Y-128246890D01*
X164991769Y-128216360D01*
X165061145Y-128224654D01*
X165115023Y-128269139D01*
X165130993Y-128302647D01*
X165151168Y-128369154D01*
X165248715Y-128551650D01*
X165248717Y-128551652D01*
X165379989Y-128711610D01*
X165476609Y-128790902D01*
X165539950Y-128842885D01*
X165722446Y-128940432D01*
X165920466Y-129000500D01*
X165920465Y-129000500D01*
X165938929Y-129002318D01*
X166126400Y-129020783D01*
X166332334Y-129000500D01*
X166530354Y-128940432D01*
X166712850Y-128842885D01*
X166872810Y-128711610D01*
X167004085Y-128551650D01*
X167101632Y-128369154D01*
X167161700Y-128171134D01*
X167181983Y-127965200D01*
X167161700Y-127759266D01*
X167101632Y-127561246D01*
X167004085Y-127378750D01*
X166929297Y-127287620D01*
X166872810Y-127218789D01*
X166722521Y-127095452D01*
X166712850Y-127087515D01*
X166530354Y-126989968D01*
X166528449Y-126989179D01*
X166527603Y-126988498D01*
X166524981Y-126987096D01*
X166525246Y-126986598D01*
X166474045Y-126945338D01*
X166451979Y-126879044D01*
X166451900Y-126874617D01*
X166451900Y-126805212D01*
X166452136Y-126799806D01*
X166455663Y-126759491D01*
X166445185Y-126720390D01*
X166444018Y-126715130D01*
X166436988Y-126675255D01*
X166436987Y-126675253D01*
X166435160Y-126670233D01*
X166428220Y-126653476D01*
X166425954Y-126648619D01*
X166425954Y-126648616D01*
X166402737Y-126615459D01*
X166399835Y-126610905D01*
X166379594Y-126575845D01*
X166348582Y-126549822D01*
X166344610Y-126546183D01*
X165899819Y-126101392D01*
X165866334Y-126040069D01*
X165863500Y-126013711D01*
X165863500Y-124357669D01*
X172616500Y-124357669D01*
X172619353Y-124388099D01*
X172619353Y-124388101D01*
X172664206Y-124516280D01*
X172664207Y-124516282D01*
X172744850Y-124625550D01*
X172854118Y-124706193D01*
X172896845Y-124721144D01*
X172982299Y-124751046D01*
X173012730Y-124753900D01*
X173012734Y-124753900D01*
X174621270Y-124753900D01*
X174651699Y-124751046D01*
X174651701Y-124751046D01*
X174715790Y-124728619D01*
X174779882Y-124706193D01*
X174889150Y-124625550D01*
X174969793Y-124516282D01*
X174992219Y-124452190D01*
X175014646Y-124388101D01*
X175014646Y-124388099D01*
X175017500Y-124357669D01*
X175017500Y-123049130D01*
X175014646Y-123018700D01*
X175014646Y-123018698D01*
X174970710Y-122893139D01*
X174969793Y-122890518D01*
X174889150Y-122781250D01*
X174779882Y-122700607D01*
X174779880Y-122700606D01*
X174651700Y-122655753D01*
X174621270Y-122652900D01*
X174621266Y-122652900D01*
X173012734Y-122652900D01*
X173012730Y-122652900D01*
X172982300Y-122655753D01*
X172982298Y-122655753D01*
X172854119Y-122700606D01*
X172854117Y-122700607D01*
X172744850Y-122781250D01*
X172664207Y-122890517D01*
X172664206Y-122890519D01*
X172619353Y-123018698D01*
X172619353Y-123018700D01*
X172616500Y-123049130D01*
X172616500Y-124357669D01*
X165863500Y-124357669D01*
X165863500Y-123696102D01*
X165883185Y-123629063D01*
X165935989Y-123583308D01*
X165999652Y-123572699D01*
X166126400Y-123585183D01*
X166332334Y-123564900D01*
X166530354Y-123504832D01*
X166712850Y-123407285D01*
X166872810Y-123276010D01*
X167004085Y-123116050D01*
X167101632Y-122933554D01*
X167161700Y-122735534D01*
X167181983Y-122529600D01*
X167161700Y-122323666D01*
X167101632Y-122125646D01*
X167004085Y-121943150D01*
X166907339Y-121825264D01*
X166872810Y-121783189D01*
X166722521Y-121659852D01*
X166712850Y-121651915D01*
X166530354Y-121554368D01*
X166332334Y-121494300D01*
X166332332Y-121494299D01*
X166332334Y-121494299D01*
X166126400Y-121474017D01*
X165920467Y-121494299D01*
X165722443Y-121554369D01*
X165634514Y-121601369D01*
X165539950Y-121651915D01*
X165539948Y-121651916D01*
X165539947Y-121651917D01*
X165379989Y-121783190D01*
X165309616Y-121868940D01*
X165251870Y-121908274D01*
X165182026Y-121910145D01*
X165126082Y-121877956D01*
X164451526Y-121203400D01*
X172611417Y-121203400D01*
X172631699Y-121409332D01*
X172657474Y-121494300D01*
X172691768Y-121607354D01*
X172789315Y-121789850D01*
X172789317Y-121789852D01*
X172920589Y-121949810D01*
X173007041Y-122020758D01*
X173080550Y-122081085D01*
X173263046Y-122178632D01*
X173461066Y-122238700D01*
X173461065Y-122238700D01*
X173499647Y-122242500D01*
X173615392Y-122253900D01*
X173615395Y-122253900D01*
X174018605Y-122253900D01*
X174018608Y-122253900D01*
X174172934Y-122238700D01*
X174370954Y-122178632D01*
X174553450Y-122081085D01*
X174713410Y-121949810D01*
X174844685Y-121789850D01*
X174942232Y-121607354D01*
X175002300Y-121409334D01*
X175022583Y-121203400D01*
X175002300Y-120997466D01*
X174942232Y-120799446D01*
X174844685Y-120616950D01*
X174770447Y-120526490D01*
X174713410Y-120456989D01*
X174562567Y-120333197D01*
X174553450Y-120325715D01*
X174376338Y-120231046D01*
X174370956Y-120228169D01*
X174370955Y-120228168D01*
X174370954Y-120228168D01*
X174172934Y-120168100D01*
X174172932Y-120168099D01*
X174172934Y-120168099D01*
X174053805Y-120156366D01*
X174018608Y-120152900D01*
X173615392Y-120152900D01*
X173577298Y-120156651D01*
X173461067Y-120168099D01*
X173263043Y-120228169D01*
X173152898Y-120287043D01*
X173080550Y-120325715D01*
X173080548Y-120325716D01*
X173080547Y-120325717D01*
X172920589Y-120456989D01*
X172801121Y-120602564D01*
X172789315Y-120616950D01*
X172750643Y-120689298D01*
X172691769Y-120799443D01*
X172631699Y-120997467D01*
X172611417Y-121203400D01*
X164451526Y-121203400D01*
X164245592Y-120997466D01*
X163303219Y-120055093D01*
X163299574Y-120051114D01*
X163273556Y-120020107D01*
X163273555Y-120020106D01*
X163256131Y-120010046D01*
X163238492Y-119999861D01*
X163233931Y-119996955D01*
X163215234Y-119983864D01*
X163200784Y-119973746D01*
X163200781Y-119973745D01*
X163195961Y-119971497D01*
X163179155Y-119964535D01*
X163174143Y-119962711D01*
X163134290Y-119955683D01*
X163129010Y-119954512D01*
X163089908Y-119944035D01*
X163054992Y-119947090D01*
X163049581Y-119947564D01*
X163044178Y-119947800D01*
X155464989Y-119947800D01*
X155397950Y-119928115D01*
X155352195Y-119875311D01*
X155342251Y-119806153D01*
X155366613Y-119748314D01*
X155429435Y-119666442D01*
X155429434Y-119666442D01*
X155429436Y-119666441D01*
X155489944Y-119520362D01*
X155510582Y-119363600D01*
X155508554Y-119348198D01*
X155489944Y-119206839D01*
X155489944Y-119206838D01*
X155429436Y-119060759D01*
X155333182Y-118935318D01*
X155207741Y-118839064D01*
X155087525Y-118789269D01*
X155061662Y-118778556D01*
X155061660Y-118778555D01*
X154904901Y-118757918D01*
X154904899Y-118757918D01*
X154748139Y-118778555D01*
X154748137Y-118778556D01*
X154602060Y-118839063D01*
X154602059Y-118839064D01*
X154476618Y-118935318D01*
X154476616Y-118935319D01*
X154476615Y-118935321D01*
X154471631Y-118941816D01*
X154415201Y-118983016D01*
X154345455Y-118987168D01*
X154284536Y-118952952D01*
X154274883Y-118941812D01*
X154258083Y-118919918D01*
X154190482Y-118831818D01*
X154065041Y-118735564D01*
X153918962Y-118675056D01*
X153918960Y-118675055D01*
X153762201Y-118654418D01*
X153762199Y-118654418D01*
X153605439Y-118675055D01*
X153605437Y-118675056D01*
X153459360Y-118735563D01*
X153333918Y-118831818D01*
X153237658Y-118957266D01*
X153236406Y-118959436D01*
X153234871Y-118960899D01*
X153232716Y-118963708D01*
X153232277Y-118963371D01*
X153185836Y-119007648D01*
X153117228Y-119020867D01*
X153052365Y-118994895D01*
X153030651Y-118972919D01*
X152989982Y-118919918D01*
X152864541Y-118823664D01*
X152854973Y-118819701D01*
X152718462Y-118763156D01*
X152718460Y-118763155D01*
X152561701Y-118742518D01*
X152561699Y-118742518D01*
X152404939Y-118763155D01*
X152404937Y-118763156D01*
X152258860Y-118823663D01*
X152133418Y-118919918D01*
X152037163Y-119045360D01*
X151976656Y-119191437D01*
X151976655Y-119191439D01*
X151956018Y-119348198D01*
X151956018Y-119348201D01*
X119000500Y-119348201D01*
X119000500Y-118789269D01*
X123299500Y-118789269D01*
X123302353Y-118819699D01*
X123302353Y-118819701D01*
X123345083Y-118941812D01*
X123347207Y-118947882D01*
X123427850Y-119057150D01*
X123537118Y-119137793D01*
X123579845Y-119152744D01*
X123665299Y-119182646D01*
X123695730Y-119185500D01*
X123695734Y-119185500D01*
X125304270Y-119185500D01*
X125334699Y-119182646D01*
X125334701Y-119182646D01*
X125398790Y-119160219D01*
X125462882Y-119137793D01*
X125572150Y-119057150D01*
X125652793Y-118947882D01*
X125690870Y-118839064D01*
X125697646Y-118819701D01*
X125697646Y-118819699D01*
X125700500Y-118789269D01*
X125700500Y-117480730D01*
X125697646Y-117450300D01*
X125697646Y-117450298D01*
X125690928Y-117431101D01*
X132170918Y-117431101D01*
X132191555Y-117587860D01*
X132191556Y-117587862D01*
X132252064Y-117733941D01*
X132348318Y-117859382D01*
X132473759Y-117955636D01*
X132619838Y-118016144D01*
X132698219Y-118026463D01*
X132776599Y-118036782D01*
X132776600Y-118036782D01*
X132776601Y-118036782D01*
X132828854Y-118029902D01*
X132933362Y-118016144D01*
X133079441Y-117955636D01*
X133204882Y-117859382D01*
X133301136Y-117733941D01*
X133361644Y-117587862D01*
X133382282Y-117431100D01*
X133361644Y-117274338D01*
X133301136Y-117128259D01*
X133204882Y-117002818D01*
X133204879Y-117002815D01*
X133204877Y-117002813D01*
X133199135Y-116997071D01*
X133201408Y-116994797D01*
X133190677Y-116980101D01*
X148363918Y-116980101D01*
X148384555Y-117136860D01*
X148384556Y-117136862D01*
X148441500Y-117274338D01*
X148445064Y-117282941D01*
X148541318Y-117408382D01*
X148666759Y-117504636D01*
X148812838Y-117565144D01*
X148891219Y-117575463D01*
X148969599Y-117585782D01*
X148969600Y-117585782D01*
X148969601Y-117585782D01*
X149021854Y-117578902D01*
X149126362Y-117565144D01*
X149272441Y-117504636D01*
X149397882Y-117408382D01*
X149494136Y-117282941D01*
X149554644Y-117136862D01*
X149573347Y-116994797D01*
X149575282Y-116980101D01*
X149575282Y-116980098D01*
X149554644Y-116823339D01*
X149554644Y-116823338D01*
X149494136Y-116677259D01*
X149397882Y-116551818D01*
X149272441Y-116455564D01*
X149126362Y-116395056D01*
X149126360Y-116395055D01*
X148969601Y-116374418D01*
X148969599Y-116374418D01*
X148812839Y-116395055D01*
X148812837Y-116395056D01*
X148666760Y-116455563D01*
X148541318Y-116551818D01*
X148445063Y-116677260D01*
X148384556Y-116823337D01*
X148384555Y-116823339D01*
X148363918Y-116980098D01*
X148363918Y-116980101D01*
X133190677Y-116980101D01*
X133169101Y-116950553D01*
X133164944Y-116880807D01*
X133199155Y-116819886D01*
X133210303Y-116810226D01*
X133231082Y-116794282D01*
X133327336Y-116668841D01*
X133387844Y-116522762D01*
X133408482Y-116366000D01*
X133402597Y-116321301D01*
X134514418Y-116321301D01*
X134535055Y-116478060D01*
X134535056Y-116478062D01*
X134553570Y-116522760D01*
X134595564Y-116624141D01*
X134691818Y-116749582D01*
X134817259Y-116845836D01*
X134963338Y-116906344D01*
X135039342Y-116916350D01*
X135120099Y-116926982D01*
X135120100Y-116926982D01*
X135120101Y-116926982D01*
X135200858Y-116916350D01*
X135276862Y-116906344D01*
X135422941Y-116845836D01*
X135548382Y-116749582D01*
X135644636Y-116624141D01*
X135705144Y-116478062D01*
X135725782Y-116321300D01*
X135705144Y-116164538D01*
X135644636Y-116018459D01*
X135548382Y-115893018D01*
X135422941Y-115796764D01*
X135352226Y-115767473D01*
X135276862Y-115736256D01*
X135276860Y-115736255D01*
X135120101Y-115715618D01*
X135120099Y-115715618D01*
X134963339Y-115736255D01*
X134963337Y-115736256D01*
X134817260Y-115796763D01*
X134691818Y-115893018D01*
X134595563Y-116018460D01*
X134535056Y-116164537D01*
X134535055Y-116164539D01*
X134514418Y-116321298D01*
X134514418Y-116321301D01*
X133402597Y-116321301D01*
X133399553Y-116298180D01*
X133410318Y-116229145D01*
X133434808Y-116194316D01*
X134062724Y-115566401D01*
X154474818Y-115566401D01*
X154495455Y-115723160D01*
X154495456Y-115723162D01*
X154525942Y-115796763D01*
X154555964Y-115869241D01*
X154652218Y-115994682D01*
X154777659Y-116090936D01*
X154923738Y-116151444D01*
X155002119Y-116161763D01*
X155080499Y-116172082D01*
X155080500Y-116172082D01*
X155080501Y-116172082D01*
X155137810Y-116164537D01*
X155237262Y-116151444D01*
X155383341Y-116090936D01*
X155508782Y-115994682D01*
X155605036Y-115869241D01*
X155665544Y-115723162D01*
X155686182Y-115566400D01*
X155669347Y-115438527D01*
X155680112Y-115369493D01*
X155726492Y-115317237D01*
X155793761Y-115298352D01*
X155808454Y-115299402D01*
X155947300Y-115317682D01*
X155947301Y-115317682D01*
X155999554Y-115310802D01*
X156104062Y-115297044D01*
X156250141Y-115236536D01*
X156375582Y-115140282D01*
X156471836Y-115014841D01*
X156532344Y-114868762D01*
X156552982Y-114712000D01*
X156545878Y-114658043D01*
X156532740Y-114558244D01*
X156532344Y-114555238D01*
X156471836Y-114409159D01*
X156375582Y-114283718D01*
X156250141Y-114187464D01*
X156242543Y-114184317D01*
X156104062Y-114126956D01*
X156104060Y-114126955D01*
X155947301Y-114106318D01*
X155947299Y-114106318D01*
X155790539Y-114126955D01*
X155790537Y-114126956D01*
X155644460Y-114187463D01*
X155519018Y-114283718D01*
X155422763Y-114409160D01*
X155362256Y-114555237D01*
X155362255Y-114555239D01*
X155341618Y-114711998D01*
X155341618Y-114712001D01*
X155358452Y-114839871D01*
X155347686Y-114908906D01*
X155301306Y-114961162D01*
X155234037Y-114980047D01*
X155219328Y-114978995D01*
X155080501Y-114960718D01*
X155080499Y-114960718D01*
X154923739Y-114981355D01*
X154923737Y-114981356D01*
X154777660Y-115041863D01*
X154652218Y-115138118D01*
X154555963Y-115263560D01*
X154495456Y-115409637D01*
X154495455Y-115409639D01*
X154474818Y-115566398D01*
X154474818Y-115566401D01*
X134062724Y-115566401D01*
X134540007Y-115089119D01*
X134601330Y-115055634D01*
X134627688Y-115052800D01*
X145399001Y-115052800D01*
X145466040Y-115072485D01*
X145497376Y-115101313D01*
X145539018Y-115155582D01*
X145664459Y-115251836D01*
X145810538Y-115312344D01*
X145888919Y-115322663D01*
X145967299Y-115332982D01*
X145967300Y-115332982D01*
X145967301Y-115332982D01*
X146019554Y-115326102D01*
X146124062Y-115312344D01*
X146270141Y-115251836D01*
X146395582Y-115155582D01*
X146491836Y-115030141D01*
X146552344Y-114884062D01*
X146572982Y-114727300D01*
X146570967Y-114711998D01*
X146559223Y-114622792D01*
X146552344Y-114570538D01*
X146512402Y-114474110D01*
X146491838Y-114424463D01*
X146491835Y-114424457D01*
X146478074Y-114406524D01*
X146452879Y-114341355D01*
X146466917Y-114272910D01*
X146488765Y-114243359D01*
X147719409Y-113012715D01*
X147780730Y-112979232D01*
X147850422Y-112984216D01*
X147906355Y-113026088D01*
X147921649Y-113052945D01*
X147958264Y-113141341D01*
X148054518Y-113266782D01*
X148179959Y-113363036D01*
X148326038Y-113423544D01*
X148404419Y-113433863D01*
X148482799Y-113444182D01*
X148482800Y-113444182D01*
X148482801Y-113444182D01*
X148535054Y-113437302D01*
X148639562Y-113423544D01*
X148785641Y-113363036D01*
X148911082Y-113266782D01*
X149007336Y-113141341D01*
X149067844Y-112995262D01*
X149088482Y-112838500D01*
X149087268Y-112829282D01*
X149067844Y-112681739D01*
X149067842Y-112681734D01*
X149028376Y-112586452D01*
X149020907Y-112516983D01*
X149052183Y-112454504D01*
X149112272Y-112418852D01*
X149142937Y-112415000D01*
X152638912Y-112415000D01*
X152705951Y-112434685D01*
X152751706Y-112487489D01*
X152761650Y-112556647D01*
X152732625Y-112620203D01*
X152726593Y-112626681D01*
X151785984Y-113567288D01*
X151724661Y-113600773D01*
X151682118Y-113602546D01*
X151614301Y-113593618D01*
X151614299Y-113593618D01*
X151457539Y-113614255D01*
X151457537Y-113614256D01*
X151311460Y-113674763D01*
X151186018Y-113771018D01*
X151089763Y-113896460D01*
X151029256Y-114042537D01*
X151029255Y-114042539D01*
X151008618Y-114199298D01*
X151008618Y-114199301D01*
X151029255Y-114356060D01*
X151029256Y-114356062D01*
X151078749Y-114475550D01*
X151089764Y-114502141D01*
X151186018Y-114627582D01*
X151311459Y-114723836D01*
X151457538Y-114784344D01*
X151535919Y-114794663D01*
X151614299Y-114804982D01*
X151614300Y-114804982D01*
X151614301Y-114804982D01*
X151666554Y-114798102D01*
X151771062Y-114784344D01*
X151917141Y-114723836D01*
X152042582Y-114627582D01*
X152138836Y-114502141D01*
X152199344Y-114356062D01*
X152219982Y-114199300D01*
X152215441Y-114164813D01*
X152211053Y-114131480D01*
X152221818Y-114062445D01*
X152246308Y-114027616D01*
X153305007Y-112968919D01*
X153366330Y-112935434D01*
X153392688Y-112932600D01*
X167326278Y-112932600D01*
X167331681Y-112932835D01*
X167372007Y-112936364D01*
X167411140Y-112925877D01*
X167416362Y-112924719D01*
X167456245Y-112917688D01*
X167456250Y-112917684D01*
X167461299Y-112915847D01*
X167478024Y-112908919D01*
X167482881Y-112906654D01*
X167482884Y-112906654D01*
X167516041Y-112883435D01*
X167520590Y-112880538D01*
X167555655Y-112860294D01*
X167581681Y-112829276D01*
X167585322Y-112825302D01*
X167638624Y-112772000D01*
X172354564Y-112772000D01*
X172411767Y-112985486D01*
X172411770Y-112985492D01*
X172511599Y-113199578D01*
X172647094Y-113393082D01*
X172814117Y-113560105D01*
X173007621Y-113695600D01*
X173221707Y-113795429D01*
X173221716Y-113795433D01*
X173343849Y-113828158D01*
X173403510Y-113864523D01*
X173434039Y-113927369D01*
X173425745Y-113996745D01*
X173381259Y-114050623D01*
X173347752Y-114066593D01*
X173281246Y-114086767D01*
X173200436Y-114129962D01*
X173098750Y-114184315D01*
X173098748Y-114184316D01*
X173098747Y-114184317D01*
X172938789Y-114315589D01*
X172807517Y-114475547D01*
X172807515Y-114475550D01*
X172789580Y-114509104D01*
X172709969Y-114658043D01*
X172649899Y-114856067D01*
X172629617Y-115062000D01*
X172649899Y-115267932D01*
X172649900Y-115267934D01*
X172709968Y-115465954D01*
X172807515Y-115648450D01*
X172807517Y-115648452D01*
X172938789Y-115808410D01*
X173012911Y-115869239D01*
X173098750Y-115939685D01*
X173281246Y-116037232D01*
X173479266Y-116097300D01*
X173479265Y-116097300D01*
X173497729Y-116099118D01*
X173685200Y-116117583D01*
X173891134Y-116097300D01*
X174089154Y-116037232D01*
X174271650Y-115939685D01*
X174431610Y-115808410D01*
X174562885Y-115648450D01*
X174660432Y-115465954D01*
X174720500Y-115267934D01*
X174740783Y-115062000D01*
X174720500Y-114856066D01*
X174660432Y-114658046D01*
X174562885Y-114475550D01*
X174499271Y-114398036D01*
X174431610Y-114315589D01*
X174291783Y-114200838D01*
X174271650Y-114184315D01*
X174101754Y-114093502D01*
X174089156Y-114086769D01*
X174089155Y-114086768D01*
X174089154Y-114086768D01*
X174022647Y-114066593D01*
X173964209Y-114028296D01*
X173935753Y-113964484D01*
X173946313Y-113895417D01*
X173992537Y-113843023D01*
X174026550Y-113828158D01*
X174148683Y-113795433D01*
X174148692Y-113795429D01*
X174362778Y-113695600D01*
X174556282Y-113560105D01*
X174723305Y-113393082D01*
X174858800Y-113199578D01*
X174958629Y-112985492D01*
X174958632Y-112985486D01*
X175015836Y-112772000D01*
X174118886Y-112772000D01*
X174144693Y-112731844D01*
X174185200Y-112593889D01*
X174185200Y-112450111D01*
X174144693Y-112312156D01*
X174118886Y-112272000D01*
X175015836Y-112272000D01*
X175015835Y-112271999D01*
X174958632Y-112058513D01*
X174958629Y-112058507D01*
X174858800Y-111844422D01*
X174858799Y-111844420D01*
X174723313Y-111650926D01*
X174723308Y-111650920D01*
X174556282Y-111483894D01*
X174362778Y-111348399D01*
X174148692Y-111248570D01*
X174148686Y-111248567D01*
X174026549Y-111215841D01*
X173966889Y-111179476D01*
X173936360Y-111116629D01*
X173944655Y-111047253D01*
X173989140Y-110993375D01*
X174022644Y-110977407D01*
X174089154Y-110957232D01*
X174271650Y-110859685D01*
X174431610Y-110728410D01*
X174562885Y-110568450D01*
X174660432Y-110385954D01*
X174720500Y-110187934D01*
X174740783Y-109982000D01*
X174720500Y-109776066D01*
X174660432Y-109578046D01*
X174562885Y-109395550D01*
X174472558Y-109285485D01*
X174431610Y-109235589D01*
X174309915Y-109135718D01*
X174271650Y-109104315D01*
X174089154Y-109006768D01*
X173891134Y-108946700D01*
X173891132Y-108946699D01*
X173891134Y-108946699D01*
X173685200Y-108926417D01*
X173479267Y-108946699D01*
X173281243Y-109006769D01*
X173171098Y-109065643D01*
X173098750Y-109104315D01*
X173098748Y-109104316D01*
X173098747Y-109104317D01*
X172938789Y-109235589D01*
X172807517Y-109395547D01*
X172807515Y-109395550D01*
X172773495Y-109459197D01*
X172709969Y-109578043D01*
X172649899Y-109776067D01*
X172629617Y-109982000D01*
X172649899Y-110187932D01*
X172662417Y-110229198D01*
X172709968Y-110385954D01*
X172807515Y-110568450D01*
X172820072Y-110583751D01*
X172938789Y-110728410D01*
X173014741Y-110790741D01*
X173098750Y-110859685D01*
X173281246Y-110957232D01*
X173347751Y-110977405D01*
X173406189Y-111015702D01*
X173434646Y-111079514D01*
X173424087Y-111148581D01*
X173377863Y-111200975D01*
X173343850Y-111215841D01*
X173221714Y-111248567D01*
X173221707Y-111248570D01*
X173007622Y-111348399D01*
X173007620Y-111348400D01*
X172814126Y-111483886D01*
X172814120Y-111483891D01*
X172647091Y-111650920D01*
X172647086Y-111650926D01*
X172511600Y-111844420D01*
X172511599Y-111844422D01*
X172411770Y-112058507D01*
X172411767Y-112058513D01*
X172354564Y-112271999D01*
X172354564Y-112272000D01*
X173251514Y-112272000D01*
X173225707Y-112312156D01*
X173185200Y-112450111D01*
X173185200Y-112593889D01*
X173225707Y-112731844D01*
X173251514Y-112772000D01*
X172354564Y-112772000D01*
X167638624Y-112772000D01*
X172423021Y-107987604D01*
X172484342Y-107954121D01*
X172554034Y-107959105D01*
X172609967Y-108000977D01*
X172634384Y-108066441D01*
X172634700Y-108075287D01*
X172634700Y-108311752D01*
X172646331Y-108370229D01*
X172646332Y-108370230D01*
X172690647Y-108436552D01*
X172756969Y-108480867D01*
X172756970Y-108480868D01*
X172815447Y-108492499D01*
X172815450Y-108492500D01*
X172815452Y-108492500D01*
X174554950Y-108492500D01*
X174554951Y-108492499D01*
X174569768Y-108489552D01*
X174613429Y-108480868D01*
X174613429Y-108480867D01*
X174613431Y-108480867D01*
X174679752Y-108436552D01*
X174724067Y-108370231D01*
X174724067Y-108370229D01*
X174724068Y-108370229D01*
X174735699Y-108311752D01*
X174735700Y-108311750D01*
X174735700Y-106572249D01*
X174735699Y-106572247D01*
X174724068Y-106513770D01*
X174724067Y-106513769D01*
X174679751Y-106447446D01*
X174671117Y-106438812D01*
X174673027Y-106436901D01*
X174639679Y-106396992D01*
X174630976Y-106327667D01*
X174661134Y-106264641D01*
X174665678Y-106259847D01*
X177523810Y-103401715D01*
X177527772Y-103398084D01*
X177558794Y-103372055D01*
X177579044Y-103336979D01*
X177581928Y-103332452D01*
X177605154Y-103299284D01*
X177605154Y-103299281D01*
X177607419Y-103294424D01*
X177614347Y-103277699D01*
X177616187Y-103272646D01*
X177616188Y-103272645D01*
X177623221Y-103232750D01*
X177624377Y-103227537D01*
X177634863Y-103188407D01*
X177631335Y-103148089D01*
X177631100Y-103142686D01*
X177631100Y-96532020D01*
X177631336Y-96526613D01*
X177634864Y-96486293D01*
X177624382Y-96447176D01*
X177623216Y-96441918D01*
X177616188Y-96402055D01*
X177616186Y-96402052D01*
X177616186Y-96402050D01*
X177614360Y-96397033D01*
X177607420Y-96380276D01*
X177605154Y-96375419D01*
X177605154Y-96375416D01*
X177581939Y-96342262D01*
X177579033Y-96337699D01*
X177558796Y-96302648D01*
X177558795Y-96302647D01*
X177558794Y-96302645D01*
X177527777Y-96276618D01*
X177523793Y-96272967D01*
X174747781Y-93496955D01*
X171964619Y-90713793D01*
X171960974Y-90709814D01*
X171934956Y-90678807D01*
X171934955Y-90678806D01*
X171923558Y-90672226D01*
X171899892Y-90658561D01*
X171895331Y-90655655D01*
X171869016Y-90637230D01*
X171862184Y-90632446D01*
X171862181Y-90632445D01*
X171857361Y-90630197D01*
X171840555Y-90623235D01*
X171835543Y-90621411D01*
X171795690Y-90614383D01*
X171790410Y-90613212D01*
X171751308Y-90602735D01*
X171716392Y-90605790D01*
X171710981Y-90606264D01*
X171705578Y-90606500D01*
X169502018Y-90606500D01*
X169434979Y-90586815D01*
X169389224Y-90534011D01*
X169379280Y-90464853D01*
X169406164Y-90403836D01*
X169452834Y-90346968D01*
X169533685Y-90248450D01*
X169631232Y-90065954D01*
X169691300Y-89867934D01*
X169711583Y-89662000D01*
X169691300Y-89456066D01*
X169631232Y-89258046D01*
X169533685Y-89075550D01*
X169463045Y-88989474D01*
X169402410Y-88915589D01*
X169282219Y-88816952D01*
X169242450Y-88784315D01*
X169059954Y-88686768D01*
X168861934Y-88626700D01*
X168861932Y-88626699D01*
X168861934Y-88626699D01*
X168656000Y-88606417D01*
X168450067Y-88626699D01*
X168252043Y-88686769D01*
X168184639Y-88722798D01*
X168069550Y-88784315D01*
X168069548Y-88784316D01*
X168069547Y-88784317D01*
X167909589Y-88915589D01*
X167787385Y-89064498D01*
X167778315Y-89075550D01*
X167746628Y-89134832D01*
X167680768Y-89258045D01*
X167661650Y-89321067D01*
X167623352Y-89379505D01*
X167559539Y-89407961D01*
X167490473Y-89397400D01*
X167463283Y-89380058D01*
X167458163Y-89375762D01*
X167458161Y-89375760D01*
X167458159Y-89375759D01*
X167458156Y-89375757D01*
X167441176Y-89369577D01*
X167421593Y-89360446D01*
X167405945Y-89351412D01*
X167405943Y-89351411D01*
X167405942Y-89351411D01*
X167388152Y-89348274D01*
X167367278Y-89342681D01*
X167350296Y-89336500D01*
X167350294Y-89336500D01*
X167321375Y-89336500D01*
X167206583Y-89336500D01*
X167139544Y-89316815D01*
X167093789Y-89264011D01*
X167092021Y-89259951D01*
X167091233Y-89258051D01*
X167091232Y-89258046D01*
X166993685Y-89075550D01*
X166923045Y-88989474D01*
X166862410Y-88915589D01*
X166742219Y-88816952D01*
X166702450Y-88784315D01*
X166519954Y-88686768D01*
X166321934Y-88626700D01*
X166321932Y-88626699D01*
X166321934Y-88626699D01*
X166116000Y-88606417D01*
X165910067Y-88626699D01*
X165712043Y-88686769D01*
X165644639Y-88722798D01*
X165529550Y-88784315D01*
X165529548Y-88784316D01*
X165529547Y-88784317D01*
X165369589Y-88915589D01*
X165247385Y-89064498D01*
X165238315Y-89075550D01*
X165206628Y-89134832D01*
X165140769Y-89258043D01*
X165080699Y-89456067D01*
X165060417Y-89662000D01*
X165080699Y-89867932D01*
X165090668Y-89900794D01*
X165140768Y-90065954D01*
X165238315Y-90248450D01*
X165265989Y-90282171D01*
X165369589Y-90408410D01*
X165438366Y-90464853D01*
X165529550Y-90539685D01*
X165712046Y-90637232D01*
X165910066Y-90697300D01*
X165910065Y-90697300D01*
X165928529Y-90699118D01*
X166116000Y-90717583D01*
X166321934Y-90697300D01*
X166519954Y-90637232D01*
X166702450Y-90539685D01*
X166862410Y-90408410D01*
X166933731Y-90321503D01*
X166991472Y-90282171D01*
X167061317Y-90280300D01*
X167117263Y-90312489D01*
X167954963Y-91150189D01*
X167958618Y-91154178D01*
X167984641Y-91185190D01*
X167984643Y-91185191D01*
X167984645Y-91185194D01*
X167984647Y-91185195D01*
X167992957Y-91192168D01*
X167990957Y-91194551D01*
X168027053Y-91232406D01*
X168040278Y-91301013D01*
X168014311Y-91365878D01*
X167995504Y-91385082D01*
X167909590Y-91455589D01*
X167778317Y-91615547D01*
X167680769Y-91798043D01*
X167620699Y-91996067D01*
X167600417Y-92202000D01*
X167620699Y-92407932D01*
X167620700Y-92407934D01*
X167680768Y-92605954D01*
X167778315Y-92788450D01*
X167778317Y-92788452D01*
X167909589Y-92948410D01*
X168006209Y-93027702D01*
X168069550Y-93079685D01*
X168252046Y-93177232D01*
X168450066Y-93237300D01*
X168450065Y-93237300D01*
X168468529Y-93239118D01*
X168656000Y-93257583D01*
X168861934Y-93237300D01*
X169059954Y-93177232D01*
X169242450Y-93079685D01*
X169402410Y-92948410D01*
X169533685Y-92788450D01*
X169631232Y-92605954D01*
X169691300Y-92407934D01*
X169711583Y-92202000D01*
X169691300Y-91996066D01*
X169631232Y-91798046D01*
X169533685Y-91615550D01*
X169406164Y-91460164D01*
X169378852Y-91395854D01*
X169390643Y-91326987D01*
X169437796Y-91275427D01*
X169502018Y-91257500D01*
X171536312Y-91257500D01*
X171603351Y-91277185D01*
X171623993Y-91293819D01*
X176101156Y-95770982D01*
X176134641Y-95832305D01*
X176129657Y-95901997D01*
X176087785Y-95957930D01*
X176025630Y-95982066D01*
X175917667Y-95992699D01*
X175719643Y-96052769D01*
X175609498Y-96111643D01*
X175537150Y-96150315D01*
X175537148Y-96150316D01*
X175537147Y-96150317D01*
X175377189Y-96281589D01*
X175245917Y-96441547D01*
X175148367Y-96624046D01*
X175128193Y-96690552D01*
X175089896Y-96748990D01*
X175026083Y-96777447D01*
X174957016Y-96766886D01*
X174904623Y-96720661D01*
X174889758Y-96686649D01*
X174857033Y-96564516D01*
X174857029Y-96564507D01*
X174757200Y-96350422D01*
X174757199Y-96350420D01*
X174621713Y-96156926D01*
X174621708Y-96156920D01*
X174454682Y-95989894D01*
X174261178Y-95854399D01*
X174047092Y-95754570D01*
X174047086Y-95754567D01*
X173833600Y-95697364D01*
X173833600Y-96592498D01*
X173725915Y-96543320D01*
X173619363Y-96528000D01*
X173547837Y-96528000D01*
X173441285Y-96543320D01*
X173333600Y-96592498D01*
X173333600Y-95697364D01*
X173333599Y-95697364D01*
X173120113Y-95754567D01*
X173120107Y-95754570D01*
X172906022Y-95854399D01*
X172906020Y-95854400D01*
X172712526Y-95989886D01*
X172712520Y-95989891D01*
X172545491Y-96156920D01*
X172545486Y-96156926D01*
X172410000Y-96350420D01*
X172409999Y-96350422D01*
X172310170Y-96564507D01*
X172310167Y-96564513D01*
X172252964Y-96777999D01*
X172252964Y-96778000D01*
X173149914Y-96778000D01*
X173124107Y-96818156D01*
X173083600Y-96956111D01*
X173083600Y-97099889D01*
X173124107Y-97237844D01*
X173149914Y-97278000D01*
X172252964Y-97278000D01*
X172310167Y-97491486D01*
X172310170Y-97491492D01*
X172409999Y-97705578D01*
X172545494Y-97899082D01*
X172712517Y-98066105D01*
X172906021Y-98201600D01*
X173120107Y-98301429D01*
X173120116Y-98301433D01*
X173242249Y-98334158D01*
X173301910Y-98370523D01*
X173332439Y-98433369D01*
X173324145Y-98502745D01*
X173279659Y-98556623D01*
X173246152Y-98572593D01*
X173179646Y-98592767D01*
X173048958Y-98662622D01*
X172997150Y-98690315D01*
X172997148Y-98690316D01*
X172997147Y-98690317D01*
X172837189Y-98821589D01*
X172705917Y-98981547D01*
X172705915Y-98981550D01*
X172691096Y-99009274D01*
X172636572Y-99111279D01*
X172587609Y-99161123D01*
X172519471Y-99176583D01*
X172453791Y-99152751D01*
X172439533Y-99140506D01*
X171271400Y-97972373D01*
X167766619Y-94467593D01*
X167762974Y-94463614D01*
X167736956Y-94432607D01*
X167736955Y-94432606D01*
X167725558Y-94426026D01*
X167701892Y-94412361D01*
X167697331Y-94409455D01*
X167684187Y-94400252D01*
X167664184Y-94386246D01*
X167664181Y-94386245D01*
X167659361Y-94383997D01*
X167642555Y-94377035D01*
X167637543Y-94375211D01*
X167597690Y-94368183D01*
X167592410Y-94367012D01*
X167553308Y-94356535D01*
X167518392Y-94359590D01*
X167512981Y-94360064D01*
X167507578Y-94360300D01*
X164025500Y-94360300D01*
X163958461Y-94340615D01*
X163912706Y-94287811D01*
X163901500Y-94236300D01*
X163901500Y-93292583D01*
X163921185Y-93225544D01*
X163973989Y-93179789D01*
X163978049Y-93178021D01*
X163979945Y-93177234D01*
X163979954Y-93177232D01*
X164162450Y-93079685D01*
X164322410Y-92948410D01*
X164453685Y-92788450D01*
X164551232Y-92605954D01*
X164611300Y-92407934D01*
X164631583Y-92202000D01*
X165060417Y-92202000D01*
X165080699Y-92407932D01*
X165080700Y-92407934D01*
X165140768Y-92605954D01*
X165238315Y-92788450D01*
X165238317Y-92788452D01*
X165369589Y-92948410D01*
X165466209Y-93027702D01*
X165529550Y-93079685D01*
X165712046Y-93177232D01*
X165910066Y-93237300D01*
X165910065Y-93237300D01*
X165928529Y-93239118D01*
X166116000Y-93257583D01*
X166321934Y-93237300D01*
X166519954Y-93177232D01*
X166702450Y-93079685D01*
X166862410Y-92948410D01*
X166993685Y-92788450D01*
X167091232Y-92605954D01*
X167151300Y-92407934D01*
X167171583Y-92202000D01*
X167151300Y-91996066D01*
X167091232Y-91798046D01*
X166993685Y-91615550D01*
X166915421Y-91520184D01*
X166862410Y-91455589D01*
X166712121Y-91332252D01*
X166702450Y-91324315D01*
X166519954Y-91226768D01*
X166321934Y-91166700D01*
X166321932Y-91166699D01*
X166321934Y-91166699D01*
X166116000Y-91146417D01*
X165910067Y-91166699D01*
X165775736Y-91207448D01*
X165712050Y-91226767D01*
X165712043Y-91226769D01*
X165651271Y-91259253D01*
X165529550Y-91324315D01*
X165529548Y-91324316D01*
X165529547Y-91324317D01*
X165369589Y-91455589D01*
X165238317Y-91615547D01*
X165140769Y-91798043D01*
X165080699Y-91996067D01*
X165060417Y-92202000D01*
X164631583Y-92202000D01*
X164611300Y-91996066D01*
X164551232Y-91798046D01*
X164453685Y-91615550D01*
X164375421Y-91520184D01*
X164322410Y-91455589D01*
X164172121Y-91332252D01*
X164162450Y-91324315D01*
X163979954Y-91226768D01*
X163781934Y-91166700D01*
X163781932Y-91166699D01*
X163781934Y-91166699D01*
X163576000Y-91146417D01*
X163370067Y-91166699D01*
X163235736Y-91207448D01*
X163172050Y-91226767D01*
X163172043Y-91226769D01*
X163111271Y-91259253D01*
X162989550Y-91324315D01*
X162989548Y-91324316D01*
X162989547Y-91324317D01*
X162829589Y-91455589D01*
X162698317Y-91615547D01*
X162600769Y-91798043D01*
X162540699Y-91996067D01*
X162520417Y-92202000D01*
X162540699Y-92407932D01*
X162540700Y-92407934D01*
X162600768Y-92605954D01*
X162698315Y-92788450D01*
X162698317Y-92788452D01*
X162829589Y-92948410D01*
X162926209Y-93027702D01*
X162989550Y-93079685D01*
X163172046Y-93177232D01*
X163172051Y-93177233D01*
X163173951Y-93178021D01*
X163174796Y-93178701D01*
X163177419Y-93180104D01*
X163177153Y-93180601D01*
X163228355Y-93221862D01*
X163250421Y-93288156D01*
X163250500Y-93292583D01*
X163250500Y-94499611D01*
X163230815Y-94566650D01*
X163214181Y-94587292D01*
X156280994Y-101520478D01*
X156219671Y-101553963D01*
X156149979Y-101548979D01*
X156094046Y-101507107D01*
X156078752Y-101480249D01*
X156048437Y-101407061D01*
X156048436Y-101407060D01*
X156048436Y-101407059D01*
X155952182Y-101281618D01*
X155826741Y-101185364D01*
X155813233Y-101179769D01*
X155741507Y-101150059D01*
X155680662Y-101124856D01*
X155650388Y-101120870D01*
X155628510Y-101117990D01*
X155564614Y-101089723D01*
X155526143Y-101031399D01*
X155525312Y-100961534D01*
X155546321Y-100919564D01*
X155581635Y-100873542D01*
X155581634Y-100873542D01*
X155581636Y-100873541D01*
X155642144Y-100727462D01*
X155662063Y-100576162D01*
X155662782Y-100570701D01*
X155662782Y-100570698D01*
X155649023Y-100466192D01*
X155642144Y-100413938D01*
X155581636Y-100267859D01*
X155485382Y-100142418D01*
X155485380Y-100142416D01*
X155485379Y-100142415D01*
X155431112Y-100100774D01*
X155389910Y-100044346D01*
X155382600Y-100002399D01*
X155382600Y-99775001D01*
X155715718Y-99775001D01*
X155736355Y-99931760D01*
X155736356Y-99931762D01*
X155796864Y-100077841D01*
X155893118Y-100203282D01*
X156018559Y-100299536D01*
X156164638Y-100360044D01*
X156243019Y-100370363D01*
X156321399Y-100380682D01*
X156321400Y-100380682D01*
X156321401Y-100380682D01*
X156373654Y-100373802D01*
X156478162Y-100360044D01*
X156624241Y-100299536D01*
X156749682Y-100203282D01*
X156845936Y-100077841D01*
X156906444Y-99931762D01*
X156927082Y-99775000D01*
X156923867Y-99750582D01*
X156906444Y-99618239D01*
X156906444Y-99618238D01*
X156845936Y-99472159D01*
X156749682Y-99346718D01*
X156624241Y-99250464D01*
X156605014Y-99242500D01*
X156478162Y-99189956D01*
X156478160Y-99189955D01*
X156321401Y-99169318D01*
X156321399Y-99169318D01*
X156164639Y-99189955D01*
X156164637Y-99189956D01*
X156018560Y-99250463D01*
X155893118Y-99346718D01*
X155796863Y-99472160D01*
X155736356Y-99618237D01*
X155736355Y-99618239D01*
X155715718Y-99774998D01*
X155715718Y-99775001D01*
X155382600Y-99775001D01*
X155382600Y-97576909D01*
X155382836Y-97571502D01*
X155386363Y-97531191D01*
X155375885Y-97492090D01*
X155374718Y-97486830D01*
X155367688Y-97446955D01*
X155367687Y-97446953D01*
X155365860Y-97441933D01*
X155358920Y-97425176D01*
X155356654Y-97420319D01*
X155356654Y-97420316D01*
X155333437Y-97387159D01*
X155330535Y-97382605D01*
X155310294Y-97347545D01*
X155279282Y-97321522D01*
X155275310Y-97317883D01*
X151303493Y-93346066D01*
X151270008Y-93284743D01*
X151274992Y-93215051D01*
X151316864Y-93159118D01*
X151332721Y-93149027D01*
X151462450Y-93079685D01*
X151622410Y-92948410D01*
X151753685Y-92788450D01*
X151851232Y-92605954D01*
X151911300Y-92407934D01*
X151931583Y-92202000D01*
X152360417Y-92202000D01*
X152380699Y-92407932D01*
X152380700Y-92407934D01*
X152440768Y-92605954D01*
X152538315Y-92788450D01*
X152538317Y-92788452D01*
X152669589Y-92948410D01*
X152766209Y-93027702D01*
X152829550Y-93079685D01*
X153012046Y-93177232D01*
X153210066Y-93237300D01*
X153210065Y-93237300D01*
X153228529Y-93239118D01*
X153416000Y-93257583D01*
X153621934Y-93237300D01*
X153819954Y-93177232D01*
X154002450Y-93079685D01*
X154162410Y-92948410D01*
X154293685Y-92788450D01*
X154391232Y-92605954D01*
X154451300Y-92407934D01*
X154471583Y-92202000D01*
X154900417Y-92202000D01*
X154920699Y-92407932D01*
X154920700Y-92407934D01*
X154980768Y-92605954D01*
X155078315Y-92788450D01*
X155078317Y-92788452D01*
X155209589Y-92948410D01*
X155306209Y-93027702D01*
X155369550Y-93079685D01*
X155552046Y-93177232D01*
X155750066Y-93237300D01*
X155750065Y-93237300D01*
X155768529Y-93239118D01*
X155956000Y-93257583D01*
X156161934Y-93237300D01*
X156359954Y-93177232D01*
X156542450Y-93079685D01*
X156702410Y-92948410D01*
X156833685Y-92788450D01*
X156931232Y-92605954D01*
X156991300Y-92407934D01*
X157011583Y-92202000D01*
X157440417Y-92202000D01*
X157460699Y-92407932D01*
X157460700Y-92407934D01*
X157520768Y-92605954D01*
X157618315Y-92788450D01*
X157618317Y-92788452D01*
X157749589Y-92948410D01*
X157846209Y-93027702D01*
X157909550Y-93079685D01*
X158092046Y-93177232D01*
X158290066Y-93237300D01*
X158290065Y-93237300D01*
X158308529Y-93239118D01*
X158496000Y-93257583D01*
X158701934Y-93237300D01*
X158899954Y-93177232D01*
X159082450Y-93079685D01*
X159242410Y-92948410D01*
X159373685Y-92788450D01*
X159471232Y-92605954D01*
X159531300Y-92407934D01*
X159551583Y-92202000D01*
X159980417Y-92202000D01*
X160000699Y-92407932D01*
X160000700Y-92407934D01*
X160060768Y-92605954D01*
X160158315Y-92788450D01*
X160158317Y-92788452D01*
X160289589Y-92948410D01*
X160386209Y-93027702D01*
X160449550Y-93079685D01*
X160632046Y-93177232D01*
X160830066Y-93237300D01*
X160830065Y-93237300D01*
X160848529Y-93239118D01*
X161036000Y-93257583D01*
X161241934Y-93237300D01*
X161439954Y-93177232D01*
X161622450Y-93079685D01*
X161782410Y-92948410D01*
X161913685Y-92788450D01*
X162011232Y-92605954D01*
X162071300Y-92407934D01*
X162091583Y-92202000D01*
X162071300Y-91996066D01*
X162011232Y-91798046D01*
X161913685Y-91615550D01*
X161835421Y-91520184D01*
X161782410Y-91455589D01*
X161632121Y-91332252D01*
X161622450Y-91324315D01*
X161439954Y-91226768D01*
X161241934Y-91166700D01*
X161241932Y-91166699D01*
X161241934Y-91166699D01*
X161036000Y-91146417D01*
X160830067Y-91166699D01*
X160695736Y-91207448D01*
X160632050Y-91226767D01*
X160632043Y-91226769D01*
X160571271Y-91259253D01*
X160449550Y-91324315D01*
X160449548Y-91324316D01*
X160449547Y-91324317D01*
X160289589Y-91455589D01*
X160158317Y-91615547D01*
X160060769Y-91798043D01*
X160000699Y-91996067D01*
X159980417Y-92202000D01*
X159551583Y-92202000D01*
X159531300Y-91996066D01*
X159471232Y-91798046D01*
X159373685Y-91615550D01*
X159295421Y-91520184D01*
X159242410Y-91455589D01*
X159092121Y-91332252D01*
X159082450Y-91324315D01*
X158899954Y-91226768D01*
X158701934Y-91166700D01*
X158701932Y-91166699D01*
X158701934Y-91166699D01*
X158496000Y-91146417D01*
X158290067Y-91166699D01*
X158155736Y-91207448D01*
X158092050Y-91226767D01*
X158092043Y-91226769D01*
X158031271Y-91259253D01*
X157909550Y-91324315D01*
X157909548Y-91324316D01*
X157909547Y-91324317D01*
X157749589Y-91455589D01*
X157618317Y-91615547D01*
X157520769Y-91798043D01*
X157460699Y-91996067D01*
X157440417Y-92202000D01*
X157011583Y-92202000D01*
X156991300Y-91996066D01*
X156931232Y-91798046D01*
X156833685Y-91615550D01*
X156755421Y-91520184D01*
X156702410Y-91455589D01*
X156552121Y-91332252D01*
X156542450Y-91324315D01*
X156359954Y-91226768D01*
X156161934Y-91166700D01*
X156161932Y-91166699D01*
X156161934Y-91166699D01*
X155956000Y-91146417D01*
X155750067Y-91166699D01*
X155615736Y-91207448D01*
X155552050Y-91226767D01*
X155552043Y-91226769D01*
X155491271Y-91259253D01*
X155369550Y-91324315D01*
X155369548Y-91324316D01*
X155369547Y-91324317D01*
X155209589Y-91455589D01*
X155078317Y-91615547D01*
X154980769Y-91798043D01*
X154920699Y-91996067D01*
X154900417Y-92202000D01*
X154471583Y-92202000D01*
X154451300Y-91996066D01*
X154391232Y-91798046D01*
X154293685Y-91615550D01*
X154215421Y-91520184D01*
X154162410Y-91455589D01*
X154012121Y-91332252D01*
X154002450Y-91324315D01*
X153819954Y-91226768D01*
X153621934Y-91166700D01*
X153621932Y-91166699D01*
X153621934Y-91166699D01*
X153416000Y-91146417D01*
X153210067Y-91166699D01*
X153075736Y-91207448D01*
X153012050Y-91226767D01*
X153012043Y-91226769D01*
X152951271Y-91259253D01*
X152829550Y-91324315D01*
X152829548Y-91324316D01*
X152829547Y-91324317D01*
X152669589Y-91455589D01*
X152538317Y-91615547D01*
X152440769Y-91798043D01*
X152380699Y-91996067D01*
X152360417Y-92202000D01*
X151931583Y-92202000D01*
X151911300Y-91996066D01*
X151851232Y-91798046D01*
X151753685Y-91615550D01*
X151675421Y-91520184D01*
X151622410Y-91455589D01*
X151472121Y-91332252D01*
X151462450Y-91324315D01*
X151279954Y-91226768D01*
X151081934Y-91166700D01*
X151081932Y-91166699D01*
X151081934Y-91166699D01*
X150876000Y-91146417D01*
X150670067Y-91166699D01*
X150535736Y-91207448D01*
X150472050Y-91226767D01*
X150472043Y-91226769D01*
X150411271Y-91259253D01*
X150289550Y-91324315D01*
X150289548Y-91324316D01*
X150289547Y-91324317D01*
X150129589Y-91455589D01*
X149998317Y-91615547D01*
X149900769Y-91798043D01*
X149840699Y-91996067D01*
X149820417Y-92202000D01*
X149840699Y-92407932D01*
X149840700Y-92407934D01*
X149900768Y-92605954D01*
X149998315Y-92788450D01*
X149998317Y-92788452D01*
X150129589Y-92948410D01*
X150226209Y-93027702D01*
X150289550Y-93079685D01*
X150472046Y-93177232D01*
X150472051Y-93177233D01*
X150473951Y-93178021D01*
X150474796Y-93178701D01*
X150477419Y-93180104D01*
X150477153Y-93180601D01*
X150528355Y-93221862D01*
X150550421Y-93288156D01*
X150550500Y-93292583D01*
X150550500Y-93361978D01*
X150550264Y-93367385D01*
X150546735Y-93407708D01*
X150557212Y-93446810D01*
X150558383Y-93452090D01*
X150565411Y-93491943D01*
X150567235Y-93496955D01*
X150574197Y-93513761D01*
X150576445Y-93518581D01*
X150576446Y-93518584D01*
X150590452Y-93538587D01*
X150599655Y-93551731D01*
X150602561Y-93556292D01*
X150622806Y-93591355D01*
X150653815Y-93617375D01*
X150657805Y-93621031D01*
X154695281Y-97658507D01*
X154728766Y-97719830D01*
X154731600Y-97746188D01*
X154731600Y-100002399D01*
X154711915Y-100069438D01*
X154683088Y-100100774D01*
X154628820Y-100142415D01*
X154532563Y-100267860D01*
X154502276Y-100340980D01*
X154458435Y-100395383D01*
X154392140Y-100417448D01*
X154324441Y-100400169D01*
X154300034Y-100381208D01*
X148697819Y-94778993D01*
X148664334Y-94717670D01*
X148661500Y-94691312D01*
X148661500Y-93292583D01*
X148681185Y-93225544D01*
X148733989Y-93179789D01*
X148738049Y-93178021D01*
X148739945Y-93177234D01*
X148739954Y-93177232D01*
X148922450Y-93079685D01*
X149082410Y-92948410D01*
X149213685Y-92788450D01*
X149311232Y-92605954D01*
X149371300Y-92407934D01*
X149391583Y-92202000D01*
X149371300Y-91996066D01*
X149311232Y-91798046D01*
X149213685Y-91615550D01*
X149135421Y-91520184D01*
X149082410Y-91455589D01*
X148932121Y-91332252D01*
X148922450Y-91324315D01*
X148739954Y-91226768D01*
X148673447Y-91206593D01*
X148615009Y-91168296D01*
X148586553Y-91104484D01*
X148597113Y-91035417D01*
X148643337Y-90983023D01*
X148677350Y-90968158D01*
X148799483Y-90935433D01*
X148799492Y-90935429D01*
X149013578Y-90835600D01*
X149207082Y-90700105D01*
X149374105Y-90533082D01*
X149509600Y-90339578D01*
X149609429Y-90125492D01*
X149609433Y-90125483D01*
X149642158Y-90003350D01*
X149678522Y-89943690D01*
X149741369Y-89913160D01*
X149810745Y-89921454D01*
X149864623Y-89965939D01*
X149880593Y-89999447D01*
X149900768Y-90065954D01*
X149998315Y-90248450D01*
X150025989Y-90282171D01*
X150129589Y-90408410D01*
X150198366Y-90464853D01*
X150289550Y-90539685D01*
X150472046Y-90637232D01*
X150670066Y-90697300D01*
X150670065Y-90697300D01*
X150688529Y-90699118D01*
X150876000Y-90717583D01*
X151081934Y-90697300D01*
X151279954Y-90637232D01*
X151462450Y-90539685D01*
X151622410Y-90408410D01*
X151753685Y-90248450D01*
X151851232Y-90065954D01*
X151851234Y-90065945D01*
X151852021Y-90064049D01*
X151852701Y-90063203D01*
X151854104Y-90060581D01*
X151854601Y-90060846D01*
X151895862Y-90009645D01*
X151962156Y-89987579D01*
X151966583Y-89987500D01*
X152325417Y-89987500D01*
X152392456Y-90007185D01*
X152438211Y-90059989D01*
X152439979Y-90064049D01*
X152440768Y-90065954D01*
X152538315Y-90248450D01*
X152565989Y-90282171D01*
X152669589Y-90408410D01*
X152738366Y-90464853D01*
X152829550Y-90539685D01*
X153012046Y-90637232D01*
X153210066Y-90697300D01*
X153210065Y-90697300D01*
X153228529Y-90699118D01*
X153416000Y-90717583D01*
X153621934Y-90697300D01*
X153819954Y-90637232D01*
X154002450Y-90539685D01*
X154162410Y-90408410D01*
X154293685Y-90248450D01*
X154391232Y-90065954D01*
X154451300Y-89867934D01*
X154471583Y-89662000D01*
X154900417Y-89662000D01*
X154920699Y-89867932D01*
X154930668Y-89900794D01*
X154980768Y-90065954D01*
X155078315Y-90248450D01*
X155105989Y-90282171D01*
X155209589Y-90408410D01*
X155278366Y-90464853D01*
X155369550Y-90539685D01*
X155552046Y-90637232D01*
X155750066Y-90697300D01*
X155750065Y-90697300D01*
X155768529Y-90699118D01*
X155956000Y-90717583D01*
X156161934Y-90697300D01*
X156359954Y-90637232D01*
X156542450Y-90539685D01*
X156702410Y-90408410D01*
X156833685Y-90248450D01*
X156931232Y-90065954D01*
X156991300Y-89867934D01*
X157011583Y-89662000D01*
X157440417Y-89662000D01*
X157460699Y-89867932D01*
X157470668Y-89900794D01*
X157520768Y-90065954D01*
X157618315Y-90248450D01*
X157645989Y-90282171D01*
X157749589Y-90408410D01*
X157818366Y-90464853D01*
X157909550Y-90539685D01*
X158092046Y-90637232D01*
X158290066Y-90697300D01*
X158290065Y-90697300D01*
X158308529Y-90699118D01*
X158496000Y-90717583D01*
X158701934Y-90697300D01*
X158899954Y-90637232D01*
X159082450Y-90539685D01*
X159242410Y-90408410D01*
X159373685Y-90248450D01*
X159471232Y-90065954D01*
X159531300Y-89867934D01*
X159551583Y-89662000D01*
X159980417Y-89662000D01*
X160000699Y-89867932D01*
X160010668Y-89900794D01*
X160060768Y-90065954D01*
X160158315Y-90248450D01*
X160185989Y-90282171D01*
X160289589Y-90408410D01*
X160358366Y-90464853D01*
X160449550Y-90539685D01*
X160632046Y-90637232D01*
X160830066Y-90697300D01*
X160830065Y-90697300D01*
X160848529Y-90699118D01*
X161036000Y-90717583D01*
X161241934Y-90697300D01*
X161439954Y-90637232D01*
X161622450Y-90539685D01*
X161782410Y-90408410D01*
X161913685Y-90248450D01*
X162011232Y-90065954D01*
X162071300Y-89867934D01*
X162091583Y-89662000D01*
X162520417Y-89662000D01*
X162540699Y-89867932D01*
X162550668Y-89900794D01*
X162600768Y-90065954D01*
X162698315Y-90248450D01*
X162725989Y-90282171D01*
X162829589Y-90408410D01*
X162898366Y-90464853D01*
X162989550Y-90539685D01*
X163172046Y-90637232D01*
X163370066Y-90697300D01*
X163370065Y-90697300D01*
X163388529Y-90699118D01*
X163576000Y-90717583D01*
X163781934Y-90697300D01*
X163979954Y-90637232D01*
X164162450Y-90539685D01*
X164322410Y-90408410D01*
X164453685Y-90248450D01*
X164551232Y-90065954D01*
X164611300Y-89867934D01*
X164631583Y-89662000D01*
X164611300Y-89456066D01*
X164551232Y-89258046D01*
X164453685Y-89075550D01*
X164383045Y-88989474D01*
X164322410Y-88915589D01*
X164202219Y-88816952D01*
X164162450Y-88784315D01*
X163979954Y-88686768D01*
X163781934Y-88626700D01*
X163781932Y-88626699D01*
X163781934Y-88626699D01*
X163576000Y-88606417D01*
X163370067Y-88626699D01*
X163172043Y-88686769D01*
X163104639Y-88722798D01*
X162989550Y-88784315D01*
X162989548Y-88784316D01*
X162989547Y-88784317D01*
X162829589Y-88915589D01*
X162707385Y-89064498D01*
X162698315Y-89075550D01*
X162666628Y-89134832D01*
X162600769Y-89258043D01*
X162540699Y-89456067D01*
X162520417Y-89662000D01*
X162091583Y-89662000D01*
X162071300Y-89456066D01*
X162011232Y-89258046D01*
X161913685Y-89075550D01*
X161843045Y-88989474D01*
X161782410Y-88915589D01*
X161662219Y-88816952D01*
X161622450Y-88784315D01*
X161439954Y-88686768D01*
X161241934Y-88626700D01*
X161241932Y-88626699D01*
X161241934Y-88626699D01*
X161036000Y-88606417D01*
X160830067Y-88626699D01*
X160632043Y-88686769D01*
X160564639Y-88722798D01*
X160449550Y-88784315D01*
X160449548Y-88784316D01*
X160449547Y-88784317D01*
X160289589Y-88915589D01*
X160167385Y-89064498D01*
X160158315Y-89075550D01*
X160126628Y-89134832D01*
X160060769Y-89258043D01*
X160000699Y-89456067D01*
X159980417Y-89662000D01*
X159551583Y-89662000D01*
X159531300Y-89456066D01*
X159471232Y-89258046D01*
X159373685Y-89075550D01*
X159303045Y-88989474D01*
X159242410Y-88915589D01*
X159122219Y-88816952D01*
X159082450Y-88784315D01*
X158899954Y-88686768D01*
X158701934Y-88626700D01*
X158701932Y-88626699D01*
X158701934Y-88626699D01*
X158496000Y-88606417D01*
X158290067Y-88626699D01*
X158092043Y-88686769D01*
X158024639Y-88722798D01*
X157909550Y-88784315D01*
X157909548Y-88784316D01*
X157909547Y-88784317D01*
X157749589Y-88915589D01*
X157627385Y-89064498D01*
X157618315Y-89075550D01*
X157586628Y-89134832D01*
X157520769Y-89258043D01*
X157460699Y-89456067D01*
X157440417Y-89662000D01*
X157011583Y-89662000D01*
X156991300Y-89456066D01*
X156931232Y-89258046D01*
X156833685Y-89075550D01*
X156763045Y-88989474D01*
X156702410Y-88915589D01*
X156582219Y-88816952D01*
X156542450Y-88784315D01*
X156359954Y-88686768D01*
X156161934Y-88626700D01*
X156161932Y-88626699D01*
X156161934Y-88626699D01*
X155956000Y-88606417D01*
X155750067Y-88626699D01*
X155552043Y-88686769D01*
X155484639Y-88722798D01*
X155369550Y-88784315D01*
X155369548Y-88784316D01*
X155369547Y-88784317D01*
X155209589Y-88915589D01*
X155087385Y-89064498D01*
X155078315Y-89075550D01*
X155046628Y-89134832D01*
X154980769Y-89258043D01*
X154920699Y-89456067D01*
X154900417Y-89662000D01*
X154471583Y-89662000D01*
X154451300Y-89456066D01*
X154391232Y-89258046D01*
X154293685Y-89075550D01*
X154223045Y-88989474D01*
X154162410Y-88915589D01*
X154042219Y-88816952D01*
X154002450Y-88784315D01*
X153819954Y-88686768D01*
X153621934Y-88626700D01*
X153621932Y-88626699D01*
X153621934Y-88626699D01*
X153416000Y-88606417D01*
X153210067Y-88626699D01*
X153012043Y-88686769D01*
X152944639Y-88722798D01*
X152829550Y-88784315D01*
X152829548Y-88784316D01*
X152829547Y-88784317D01*
X152669589Y-88915589D01*
X152547385Y-89064498D01*
X152538315Y-89075550D01*
X152506628Y-89134832D01*
X152440768Y-89258045D01*
X152439979Y-89259951D01*
X152439298Y-89260796D01*
X152437896Y-89263419D01*
X152437398Y-89263153D01*
X152396138Y-89314355D01*
X152329844Y-89336421D01*
X152325417Y-89336500D01*
X151966583Y-89336500D01*
X151899544Y-89316815D01*
X151853789Y-89264011D01*
X151852021Y-89259951D01*
X151851233Y-89258051D01*
X151851232Y-89258046D01*
X151753685Y-89075550D01*
X151683045Y-88989474D01*
X151622410Y-88915589D01*
X151502219Y-88816952D01*
X151462450Y-88784315D01*
X151279954Y-88686768D01*
X151081934Y-88626700D01*
X151081932Y-88626699D01*
X151081934Y-88626699D01*
X150876000Y-88606417D01*
X150670067Y-88626699D01*
X150472043Y-88686769D01*
X150404639Y-88722798D01*
X150289550Y-88784315D01*
X150289548Y-88784316D01*
X150289547Y-88784317D01*
X150129589Y-88915589D01*
X150007385Y-89064498D01*
X149998315Y-89075550D01*
X149970622Y-89127358D01*
X149900767Y-89258046D01*
X149880593Y-89324552D01*
X149842296Y-89382990D01*
X149778483Y-89411447D01*
X149709416Y-89400886D01*
X149657023Y-89354661D01*
X149642158Y-89320649D01*
X149609433Y-89198516D01*
X149609429Y-89198507D01*
X149509600Y-88984422D01*
X149509599Y-88984420D01*
X149374113Y-88790926D01*
X149374108Y-88790920D01*
X149207082Y-88623894D01*
X149013578Y-88488399D01*
X148799492Y-88388570D01*
X148799486Y-88388567D01*
X148586000Y-88331364D01*
X148586000Y-89226498D01*
X148478315Y-89177320D01*
X148371763Y-89162000D01*
X148300237Y-89162000D01*
X148193685Y-89177320D01*
X148086000Y-89226498D01*
X148086000Y-88331364D01*
X148085999Y-88331364D01*
X147872513Y-88388567D01*
X147872507Y-88388570D01*
X147658422Y-88488399D01*
X147658420Y-88488400D01*
X147464926Y-88623886D01*
X147464920Y-88623891D01*
X147297891Y-88790920D01*
X147297890Y-88790922D01*
X147167575Y-88977031D01*
X147112998Y-89020655D01*
X147043499Y-89027848D01*
X146981145Y-88996326D01*
X146964425Y-88977031D01*
X146834109Y-88790922D01*
X146834108Y-88790920D01*
X146667082Y-88623894D01*
X146473578Y-88488399D01*
X146259492Y-88388570D01*
X146259486Y-88388567D01*
X146046000Y-88331364D01*
X146046000Y-89226498D01*
X145938315Y-89177320D01*
X145831763Y-89162000D01*
X145760237Y-89162000D01*
X145653685Y-89177320D01*
X145546000Y-89226498D01*
X145546000Y-88331364D01*
X145545999Y-88331364D01*
X145332513Y-88388567D01*
X145332507Y-88388570D01*
X145118422Y-88488399D01*
X145118420Y-88488400D01*
X144924926Y-88623886D01*
X144924920Y-88623891D01*
X144757891Y-88790920D01*
X144757886Y-88790926D01*
X144622400Y-88984420D01*
X144622399Y-88984422D01*
X144522570Y-89198507D01*
X144522567Y-89198514D01*
X144489841Y-89320650D01*
X144453476Y-89380310D01*
X144390629Y-89410839D01*
X144321253Y-89402544D01*
X144267375Y-89358059D01*
X144251406Y-89324552D01*
X144231232Y-89258046D01*
X144133685Y-89075550D01*
X144063045Y-88989474D01*
X144002410Y-88915589D01*
X143882219Y-88816952D01*
X143842450Y-88784315D01*
X143659954Y-88686768D01*
X143461934Y-88626700D01*
X143461932Y-88626699D01*
X143461934Y-88626699D01*
X143256000Y-88606417D01*
X143050067Y-88626699D01*
X142852043Y-88686769D01*
X142784639Y-88722798D01*
X142669550Y-88784315D01*
X142669548Y-88784316D01*
X142669547Y-88784317D01*
X142509589Y-88915589D01*
X142387385Y-89064498D01*
X142378315Y-89075550D01*
X142346628Y-89134832D01*
X142280769Y-89258043D01*
X142220699Y-89456067D01*
X142200417Y-89662000D01*
X142220699Y-89867932D01*
X142230668Y-89900794D01*
X142280768Y-90065954D01*
X142378315Y-90248450D01*
X142405989Y-90282171D01*
X142509589Y-90408410D01*
X142578366Y-90464853D01*
X142669550Y-90539685D01*
X142852046Y-90637232D01*
X143050066Y-90697300D01*
X143050065Y-90697300D01*
X143068529Y-90699118D01*
X143256000Y-90717583D01*
X143461934Y-90697300D01*
X143659954Y-90637232D01*
X143842450Y-90539685D01*
X144002410Y-90408410D01*
X144133685Y-90248450D01*
X144231232Y-90065954D01*
X144251406Y-89999446D01*
X144289702Y-89941010D01*
X144353514Y-89912553D01*
X144422581Y-89923112D01*
X144474975Y-89969336D01*
X144489841Y-90003349D01*
X144522567Y-90125486D01*
X144522570Y-90125492D01*
X144622399Y-90339578D01*
X144757894Y-90533082D01*
X144924917Y-90700105D01*
X145118421Y-90835600D01*
X145332507Y-90935429D01*
X145332516Y-90935433D01*
X145454649Y-90968158D01*
X145514310Y-91004523D01*
X145544839Y-91067369D01*
X145536545Y-91136745D01*
X145492059Y-91190623D01*
X145458552Y-91206593D01*
X145392046Y-91226767D01*
X145261358Y-91296622D01*
X145209550Y-91324315D01*
X145209548Y-91324316D01*
X145209547Y-91324317D01*
X145049589Y-91455589D01*
X144918317Y-91615547D01*
X144820769Y-91798043D01*
X144760699Y-91996067D01*
X144740417Y-92202000D01*
X144760699Y-92407932D01*
X144760700Y-92407934D01*
X144820768Y-92605954D01*
X144918315Y-92788450D01*
X144918317Y-92788452D01*
X145049589Y-92948410D01*
X145146209Y-93027702D01*
X145209550Y-93079685D01*
X145392046Y-93177232D01*
X145392051Y-93177233D01*
X145393951Y-93178021D01*
X145394796Y-93178701D01*
X145397419Y-93180104D01*
X145397153Y-93180601D01*
X145448355Y-93221862D01*
X145470421Y-93288156D01*
X145470500Y-93292583D01*
X145470500Y-100497278D01*
X145470264Y-100502685D01*
X145466735Y-100543005D01*
X145466796Y-100543232D01*
X145474156Y-100570701D01*
X145475620Y-100576162D01*
X145473957Y-100646012D01*
X145434795Y-100703875D01*
X145370566Y-100731379D01*
X145301664Y-100719793D01*
X145268164Y-100695937D01*
X143617819Y-99045592D01*
X143584334Y-98984269D01*
X143581500Y-98957911D01*
X143581500Y-93292583D01*
X143601185Y-93225544D01*
X143653989Y-93179789D01*
X143658049Y-93178021D01*
X143659945Y-93177234D01*
X143659954Y-93177232D01*
X143842450Y-93079685D01*
X144002410Y-92948410D01*
X144133685Y-92788450D01*
X144231232Y-92605954D01*
X144291300Y-92407934D01*
X144311583Y-92202000D01*
X144291300Y-91996066D01*
X144231232Y-91798046D01*
X144133685Y-91615550D01*
X144055421Y-91520184D01*
X144002410Y-91455589D01*
X143852121Y-91332252D01*
X143842450Y-91324315D01*
X143659954Y-91226768D01*
X143461934Y-91166700D01*
X143461932Y-91166699D01*
X143461934Y-91166699D01*
X143256000Y-91146417D01*
X143050067Y-91166699D01*
X142915736Y-91207448D01*
X142852050Y-91226767D01*
X142852043Y-91226769D01*
X142791271Y-91259253D01*
X142669550Y-91324315D01*
X142669548Y-91324316D01*
X142669547Y-91324317D01*
X142509589Y-91455589D01*
X142378317Y-91615547D01*
X142280769Y-91798043D01*
X142220699Y-91996067D01*
X142200417Y-92202000D01*
X142220699Y-92407932D01*
X142220700Y-92407934D01*
X142280768Y-92605954D01*
X142378315Y-92788450D01*
X142378317Y-92788452D01*
X142509589Y-92948410D01*
X142606209Y-93027702D01*
X142669550Y-93079685D01*
X142852046Y-93177232D01*
X142852051Y-93177233D01*
X142853951Y-93178021D01*
X142854796Y-93178701D01*
X142857419Y-93180104D01*
X142857153Y-93180601D01*
X142908355Y-93221862D01*
X142930421Y-93288156D01*
X142930500Y-93292583D01*
X142930500Y-99127178D01*
X142930264Y-99132585D01*
X142926735Y-99172908D01*
X142937212Y-99212010D01*
X142938383Y-99217290D01*
X142945411Y-99257143D01*
X142947235Y-99262155D01*
X142954197Y-99278961D01*
X142956445Y-99283781D01*
X142956446Y-99283784D01*
X142970452Y-99303787D01*
X142979655Y-99316931D01*
X142982561Y-99321492D01*
X143002806Y-99356555D01*
X143033815Y-99382575D01*
X143037805Y-99386231D01*
X153084422Y-109432848D01*
X153117907Y-109494171D01*
X153112923Y-109563863D01*
X153071051Y-109619796D01*
X153044194Y-109635090D01*
X152928860Y-109682863D01*
X152803418Y-109779118D01*
X152707163Y-109904560D01*
X152646656Y-110050637D01*
X152646656Y-110050639D01*
X152628114Y-110191473D01*
X152599847Y-110255369D01*
X152541522Y-110293840D01*
X152471658Y-110294671D01*
X152417494Y-110262968D01*
X152058844Y-109904318D01*
X151697319Y-109542793D01*
X151693674Y-109538814D01*
X151667656Y-109507807D01*
X151667655Y-109507806D01*
X151652128Y-109498841D01*
X151632592Y-109487561D01*
X151628031Y-109484655D01*
X151608644Y-109471081D01*
X151594884Y-109461446D01*
X151594881Y-109461445D01*
X151590061Y-109459197D01*
X151573255Y-109452235D01*
X151568243Y-109450411D01*
X151528390Y-109443383D01*
X151523110Y-109442212D01*
X151484008Y-109431735D01*
X151449092Y-109434790D01*
X151443681Y-109435264D01*
X151438278Y-109435500D01*
X150975046Y-109435500D01*
X150908007Y-109415815D01*
X150862252Y-109363011D01*
X150852107Y-109295315D01*
X150865182Y-109196001D01*
X150865182Y-109195998D01*
X150844544Y-109039239D01*
X150844544Y-109039238D01*
X150784036Y-108893159D01*
X150687782Y-108767718D01*
X150562341Y-108671464D01*
X150416262Y-108610956D01*
X150416260Y-108610955D01*
X150259501Y-108590318D01*
X150259499Y-108590318D01*
X150102739Y-108610955D01*
X150102737Y-108610956D01*
X149956660Y-108671463D01*
X149831218Y-108767718D01*
X149734963Y-108893160D01*
X149674456Y-109039237D01*
X149674456Y-109039239D01*
X149658215Y-109162594D01*
X149629948Y-109226491D01*
X149571623Y-109264961D01*
X149501758Y-109265792D01*
X149473273Y-109253793D01*
X149430092Y-109228861D01*
X149425531Y-109225955D01*
X149412387Y-109216752D01*
X149392384Y-109202746D01*
X149392381Y-109202745D01*
X149387561Y-109200497D01*
X149370755Y-109193535D01*
X149365743Y-109191711D01*
X149325890Y-109184683D01*
X149320610Y-109183512D01*
X149281508Y-109173035D01*
X149246592Y-109176090D01*
X149241181Y-109176564D01*
X149235778Y-109176800D01*
X144902811Y-109176800D01*
X144897407Y-109176564D01*
X144892076Y-109176097D01*
X144857092Y-109173036D01*
X144817999Y-109183511D01*
X144812719Y-109184682D01*
X144772854Y-109191712D01*
X144767862Y-109193529D01*
X144751017Y-109200506D01*
X144746213Y-109202746D01*
X144713063Y-109225958D01*
X144708502Y-109228864D01*
X144673448Y-109249104D01*
X144673445Y-109249106D01*
X144673443Y-109249107D01*
X144673442Y-109249109D01*
X144647423Y-109280115D01*
X144643769Y-109284103D01*
X144375894Y-109551978D01*
X144314571Y-109585463D01*
X144244880Y-109580479D01*
X144188946Y-109538608D01*
X144173652Y-109511749D01*
X144172019Y-109507807D01*
X144143336Y-109438559D01*
X144047082Y-109313118D01*
X143921641Y-109216864D01*
X143887557Y-109202746D01*
X143775562Y-109156356D01*
X143775560Y-109156355D01*
X143618801Y-109135718D01*
X143618799Y-109135718D01*
X143462039Y-109156355D01*
X143462037Y-109156356D01*
X143315960Y-109216863D01*
X143190518Y-109313118D01*
X143094263Y-109438560D01*
X143033756Y-109584637D01*
X143033755Y-109584639D01*
X143013118Y-109741398D01*
X143013118Y-109741401D01*
X143033755Y-109898160D01*
X143033757Y-109898165D01*
X143064070Y-109971348D01*
X143071539Y-110040817D01*
X143040263Y-110103296D01*
X142980174Y-110138948D01*
X142949509Y-110142800D01*
X141420489Y-110142800D01*
X141353450Y-110123115D01*
X141332808Y-110106481D01*
X140511811Y-109285485D01*
X140478326Y-109224162D01*
X140476553Y-109181618D01*
X140477219Y-109176564D01*
X140485482Y-109113800D01*
X140484233Y-109104315D01*
X140464844Y-108957039D01*
X140464844Y-108957038D01*
X140404336Y-108810959D01*
X140308082Y-108685518D01*
X140182641Y-108589264D01*
X140171463Y-108584634D01*
X140036562Y-108528756D01*
X140036560Y-108528755D01*
X139879801Y-108508118D01*
X139879799Y-108508118D01*
X139723039Y-108528755D01*
X139723037Y-108528756D01*
X139576960Y-108589263D01*
X139451518Y-108685518D01*
X139355263Y-108810960D01*
X139294756Y-108957037D01*
X139294755Y-108957039D01*
X139274118Y-109113798D01*
X139274118Y-109113801D01*
X139294755Y-109270560D01*
X139294756Y-109270562D01*
X139347851Y-109398746D01*
X139355264Y-109416641D01*
X139451518Y-109542082D01*
X139576959Y-109638336D01*
X139723038Y-109698844D01*
X139751348Y-109702571D01*
X139879799Y-109719482D01*
X139879800Y-109719482D01*
X139879801Y-109719482D01*
X139915508Y-109714780D01*
X139947618Y-109710553D01*
X140016653Y-109721318D01*
X140051484Y-109745810D01*
X140532763Y-110227090D01*
X140992168Y-110686495D01*
X140995823Y-110690484D01*
X141021841Y-110721490D01*
X141021843Y-110721491D01*
X141021845Y-110721494D01*
X141056899Y-110741732D01*
X141061459Y-110744637D01*
X141094616Y-110767854D01*
X141094619Y-110767854D01*
X141099476Y-110770120D01*
X141116233Y-110777060D01*
X141121253Y-110778887D01*
X141121255Y-110778888D01*
X141161130Y-110785918D01*
X141166387Y-110787084D01*
X141205493Y-110797563D01*
X141245810Y-110794035D01*
X141251212Y-110793800D01*
X143902978Y-110793800D01*
X143908381Y-110794035D01*
X143948707Y-110797564D01*
X143987840Y-110787077D01*
X143993062Y-110785919D01*
X144032945Y-110778888D01*
X144032950Y-110778884D01*
X144037999Y-110777047D01*
X144054724Y-110770119D01*
X144059581Y-110767854D01*
X144059584Y-110767854D01*
X144092741Y-110744635D01*
X144097290Y-110741738D01*
X144132355Y-110721494D01*
X144132359Y-110721490D01*
X144143437Y-110708286D01*
X144158381Y-110690476D01*
X144162022Y-110686503D01*
X144984408Y-109864119D01*
X145045731Y-109830634D01*
X145072089Y-109827800D01*
X146296209Y-109827800D01*
X146363248Y-109847485D01*
X146409003Y-109900289D01*
X146418947Y-109969447D01*
X146410770Y-109999252D01*
X146380457Y-110072434D01*
X146380455Y-110072439D01*
X146359818Y-110229198D01*
X146359818Y-110229201D01*
X146380455Y-110385960D01*
X146380456Y-110385962D01*
X146422680Y-110487901D01*
X146440964Y-110532041D01*
X146537218Y-110657482D01*
X146662659Y-110753736D01*
X146808738Y-110814244D01*
X146887119Y-110824563D01*
X146965499Y-110834882D01*
X146965500Y-110834882D01*
X146965501Y-110834882D01*
X147017754Y-110828002D01*
X147122262Y-110814244D01*
X147268341Y-110753736D01*
X147393782Y-110657482D01*
X147490036Y-110532041D01*
X147550544Y-110385962D01*
X147571182Y-110229200D01*
X147568280Y-110207160D01*
X147555026Y-110106481D01*
X147550544Y-110072438D01*
X147537446Y-110040817D01*
X147520230Y-109999252D01*
X147512761Y-109929783D01*
X147544037Y-109867304D01*
X147604126Y-109831652D01*
X147634791Y-109827800D01*
X149066512Y-109827800D01*
X149133551Y-109847485D01*
X149154193Y-109864119D01*
X149482163Y-110192089D01*
X149485818Y-110196078D01*
X149511841Y-110227090D01*
X149511843Y-110227091D01*
X149511845Y-110227094D01*
X149511847Y-110227095D01*
X149511848Y-110227096D01*
X149546899Y-110247333D01*
X149551462Y-110250239D01*
X149584616Y-110273454D01*
X149584619Y-110273454D01*
X149589476Y-110275720D01*
X149606233Y-110282660D01*
X149611253Y-110284487D01*
X149611255Y-110284488D01*
X149651130Y-110291518D01*
X149656387Y-110292684D01*
X149695493Y-110303163D01*
X149735810Y-110299635D01*
X149741212Y-110299400D01*
X150301440Y-110299400D01*
X150368479Y-110319085D01*
X150414234Y-110371889D01*
X150424378Y-110439584D01*
X150421885Y-110458526D01*
X150418018Y-110487900D01*
X150418018Y-110487901D01*
X150438655Y-110644660D01*
X150438656Y-110644662D01*
X150497649Y-110787085D01*
X150499164Y-110790741D01*
X150595418Y-110916182D01*
X150720859Y-111012436D01*
X150866938Y-111072944D01*
X150945319Y-111083263D01*
X151023699Y-111093582D01*
X151023700Y-111093582D01*
X151023701Y-111093582D01*
X151075954Y-111086702D01*
X151180462Y-111072944D01*
X151326541Y-111012436D01*
X151451982Y-110916182D01*
X151548236Y-110790741D01*
X151608744Y-110644662D01*
X151608745Y-110644651D01*
X151610167Y-110639347D01*
X151646528Y-110579684D01*
X151709373Y-110549150D01*
X151778749Y-110557440D01*
X151817625Y-110583751D01*
X152661463Y-111427589D01*
X152665118Y-111431578D01*
X152691144Y-111462594D01*
X152699458Y-111469570D01*
X152698144Y-111471135D01*
X152732889Y-111505876D01*
X152736564Y-111512241D01*
X152776674Y-111564514D01*
X152801868Y-111629683D01*
X152787829Y-111698128D01*
X152739015Y-111748118D01*
X152678298Y-111764000D01*
X148199222Y-111764000D01*
X148193818Y-111763764D01*
X148188407Y-111763290D01*
X148153492Y-111760235D01*
X148153491Y-111760235D01*
X148114391Y-111770712D01*
X148109111Y-111771883D01*
X148069259Y-111778910D01*
X148064261Y-111780729D01*
X148047417Y-111787706D01*
X148042613Y-111789946D01*
X148009466Y-111813156D01*
X148004906Y-111816062D01*
X147969848Y-111836304D01*
X147969840Y-111836310D01*
X147943823Y-111867315D01*
X147940169Y-111871304D01*
X145749103Y-114062370D01*
X145745114Y-114066025D01*
X145714105Y-114092045D01*
X145693862Y-114127106D01*
X145690956Y-114131666D01*
X145667746Y-114164813D01*
X145665504Y-114169622D01*
X145655827Y-114192986D01*
X145651295Y-114200838D01*
X145647689Y-114198757D01*
X145619326Y-114237394D01*
X145539020Y-114299015D01*
X145497377Y-114353286D01*
X145440949Y-114394489D01*
X145399001Y-114401800D01*
X134458422Y-114401800D01*
X134453018Y-114401564D01*
X134447607Y-114401090D01*
X134412692Y-114398035D01*
X134412691Y-114398035D01*
X134373591Y-114408512D01*
X134368311Y-114409683D01*
X134328459Y-114416710D01*
X134323461Y-114418529D01*
X134306617Y-114425506D01*
X134301813Y-114427746D01*
X134268666Y-114450956D01*
X134264106Y-114453862D01*
X134229048Y-114474104D01*
X134229040Y-114474110D01*
X134203023Y-114505115D01*
X134199369Y-114509104D01*
X132974484Y-115733988D01*
X132913161Y-115767473D01*
X132870618Y-115769246D01*
X132802801Y-115760318D01*
X132802799Y-115760318D01*
X132646039Y-115780955D01*
X132646037Y-115780956D01*
X132499960Y-115841463D01*
X132374518Y-115937718D01*
X132278263Y-116063160D01*
X132217756Y-116209237D01*
X132217755Y-116209239D01*
X132197118Y-116365998D01*
X132197118Y-116366001D01*
X132217755Y-116522760D01*
X132217756Y-116522762D01*
X132278264Y-116668841D01*
X132374518Y-116794282D01*
X132374520Y-116794283D01*
X132374522Y-116794286D01*
X132380265Y-116800029D01*
X132377996Y-116802297D01*
X132410318Y-116846602D01*
X132414442Y-116916350D01*
X132380202Y-116977255D01*
X132369098Y-116986872D01*
X132348321Y-117002815D01*
X132348319Y-117002816D01*
X132348318Y-117002818D01*
X132285641Y-117084500D01*
X132252063Y-117128260D01*
X132191556Y-117274337D01*
X132191555Y-117274339D01*
X132170918Y-117431098D01*
X132170918Y-117431101D01*
X125690928Y-117431101D01*
X125652793Y-117322119D01*
X125652792Y-117322117D01*
X125623879Y-117282941D01*
X125572150Y-117212850D01*
X125462882Y-117132207D01*
X125462880Y-117132206D01*
X125334700Y-117087353D01*
X125304270Y-117084500D01*
X125304266Y-117084500D01*
X123695734Y-117084500D01*
X123695730Y-117084500D01*
X123665300Y-117087353D01*
X123665298Y-117087353D01*
X123537119Y-117132206D01*
X123537117Y-117132207D01*
X123427850Y-117212850D01*
X123347207Y-117322117D01*
X123347206Y-117322119D01*
X123302353Y-117450298D01*
X123302353Y-117450300D01*
X123299500Y-117480730D01*
X123299500Y-118789269D01*
X119000500Y-118789269D01*
X119000500Y-113973201D01*
X130595718Y-113973201D01*
X130616355Y-114129960D01*
X130616356Y-114129962D01*
X130676864Y-114276041D01*
X130773118Y-114401482D01*
X130898559Y-114497736D01*
X131044638Y-114558244D01*
X131123019Y-114568563D01*
X131201399Y-114578882D01*
X131201400Y-114578882D01*
X131201401Y-114578882D01*
X131253654Y-114572002D01*
X131358162Y-114558244D01*
X131504241Y-114497736D01*
X131629682Y-114401482D01*
X131725936Y-114276041D01*
X131786444Y-114129962D01*
X131807082Y-113973200D01*
X131786444Y-113816438D01*
X131725936Y-113670359D01*
X131629682Y-113544918D01*
X131504241Y-113448664D01*
X131358162Y-113388156D01*
X131358160Y-113388155D01*
X131201401Y-113367518D01*
X131201399Y-113367518D01*
X131044639Y-113388155D01*
X131044637Y-113388156D01*
X130898560Y-113448663D01*
X130773118Y-113544918D01*
X130676863Y-113670360D01*
X130616356Y-113816437D01*
X130616355Y-113816439D01*
X130595718Y-113973198D01*
X130595718Y-113973201D01*
X119000500Y-113973201D01*
X119000500Y-107315001D01*
X144813018Y-107315001D01*
X144833655Y-107471760D01*
X144833656Y-107471762D01*
X144894164Y-107617841D01*
X144990418Y-107743282D01*
X145115859Y-107839536D01*
X145261938Y-107900044D01*
X145340319Y-107910363D01*
X145418699Y-107920682D01*
X145418700Y-107920682D01*
X145418701Y-107920682D01*
X145470954Y-107913802D01*
X145575462Y-107900044D01*
X145721541Y-107839536D01*
X145846982Y-107743282D01*
X145943236Y-107617841D01*
X145968810Y-107556101D01*
X149217318Y-107556101D01*
X149237955Y-107712860D01*
X149237956Y-107712862D01*
X149298464Y-107858941D01*
X149394718Y-107984382D01*
X149520159Y-108080636D01*
X149666238Y-108141144D01*
X149744619Y-108151463D01*
X149822999Y-108161782D01*
X149823000Y-108161782D01*
X149823001Y-108161782D01*
X149875254Y-108154902D01*
X149979762Y-108141144D01*
X150125841Y-108080636D01*
X150251282Y-107984382D01*
X150347536Y-107858941D01*
X150408044Y-107712862D01*
X150428682Y-107556100D01*
X150418147Y-107476082D01*
X150408044Y-107399339D01*
X150408044Y-107399338D01*
X150347536Y-107253259D01*
X150251282Y-107127818D01*
X150125841Y-107031564D01*
X150078993Y-107012159D01*
X149979762Y-106971056D01*
X149979760Y-106971055D01*
X149823001Y-106950418D01*
X149822999Y-106950418D01*
X149666239Y-106971055D01*
X149666237Y-106971056D01*
X149520160Y-107031563D01*
X149394718Y-107127818D01*
X149298463Y-107253260D01*
X149237956Y-107399337D01*
X149237955Y-107399339D01*
X149217318Y-107556098D01*
X149217318Y-107556101D01*
X145968810Y-107556101D01*
X146003744Y-107471762D01*
X146024382Y-107315000D01*
X146003744Y-107158238D01*
X145943236Y-107012159D01*
X145846982Y-106886718D01*
X145721541Y-106790464D01*
X145575462Y-106729956D01*
X145575460Y-106729955D01*
X145418701Y-106709318D01*
X145418699Y-106709318D01*
X145261939Y-106729955D01*
X145261937Y-106729956D01*
X145115860Y-106790463D01*
X144990418Y-106886718D01*
X144894163Y-107012160D01*
X144833656Y-107158237D01*
X144833655Y-107158239D01*
X144813018Y-107314998D01*
X144813018Y-107315001D01*
X119000500Y-107315001D01*
X119000500Y-103750003D01*
X122344435Y-103750003D01*
X122364630Y-103929249D01*
X122364631Y-103929254D01*
X122424211Y-104099523D01*
X122520184Y-104252262D01*
X122647738Y-104379816D01*
X122738080Y-104436582D01*
X122782344Y-104464395D01*
X122800478Y-104475789D01*
X122923242Y-104518746D01*
X122970745Y-104535368D01*
X122970750Y-104535369D01*
X123061246Y-104545565D01*
X123105040Y-104550499D01*
X123105043Y-104550500D01*
X123105046Y-104550500D01*
X124394957Y-104550500D01*
X124394958Y-104550499D01*
X124462104Y-104542934D01*
X124529249Y-104535369D01*
X124529252Y-104535368D01*
X124529255Y-104535368D01*
X124699522Y-104475789D01*
X124852262Y-104379816D01*
X124979816Y-104252262D01*
X125075789Y-104099522D01*
X125135368Y-103929255D01*
X125135369Y-103929249D01*
X125155565Y-103750003D01*
X125155565Y-103749996D01*
X125135369Y-103570750D01*
X125135368Y-103570745D01*
X125086939Y-103432343D01*
X125075789Y-103400478D01*
X125074275Y-103398069D01*
X125012747Y-103300147D01*
X124979816Y-103247738D01*
X124852262Y-103120184D01*
X124824201Y-103102552D01*
X124699523Y-103024211D01*
X124529254Y-102964631D01*
X124529249Y-102964630D01*
X124394960Y-102949500D01*
X124394954Y-102949500D01*
X123105046Y-102949500D01*
X123105039Y-102949500D01*
X122970750Y-102964630D01*
X122970745Y-102964631D01*
X122800476Y-103024211D01*
X122647737Y-103120184D01*
X122520184Y-103247737D01*
X122424211Y-103400476D01*
X122364631Y-103570745D01*
X122364630Y-103570750D01*
X122344435Y-103749996D01*
X122344435Y-103750003D01*
X119000500Y-103750003D01*
X119000500Y-100950000D01*
X122790882Y-100950000D01*
X122809310Y-101137115D01*
X122809311Y-101137117D01*
X122863891Y-101317040D01*
X122952518Y-101482851D01*
X122952523Y-101482857D01*
X123071800Y-101628199D01*
X123217142Y-101747476D01*
X123217148Y-101747481D01*
X123365354Y-101826698D01*
X123382961Y-101836109D01*
X123562882Y-101890688D01*
X123562884Y-101890689D01*
X123579660Y-101892341D01*
X123750000Y-101909118D01*
X123937115Y-101890689D01*
X124117039Y-101836109D01*
X124196702Y-101793528D01*
X124282851Y-101747481D01*
X124282853Y-101747478D01*
X124282857Y-101747477D01*
X124428199Y-101628199D01*
X124547477Y-101482857D01*
X124547478Y-101482853D01*
X124547481Y-101482851D01*
X124636108Y-101317040D01*
X124636109Y-101317039D01*
X124690689Y-101137115D01*
X124709118Y-100950000D01*
X124690689Y-100762885D01*
X124636109Y-100582961D01*
X124629554Y-100570698D01*
X124547481Y-100417148D01*
X124547476Y-100417142D01*
X124544847Y-100413939D01*
X124503102Y-100363071D01*
X124428199Y-100271800D01*
X124282857Y-100152523D01*
X124282851Y-100152518D01*
X124117040Y-100063891D01*
X123937117Y-100009311D01*
X123937115Y-100009310D01*
X123750000Y-99990882D01*
X123562884Y-100009310D01*
X123562882Y-100009311D01*
X123382959Y-100063891D01*
X123217148Y-100152518D01*
X123217142Y-100152523D01*
X123071800Y-100271800D01*
X122952523Y-100417142D01*
X122952518Y-100417148D01*
X122863891Y-100582959D01*
X122809311Y-100762882D01*
X122809310Y-100762884D01*
X122790882Y-100950000D01*
X119000500Y-100950000D01*
X119000500Y-97950000D01*
X122790882Y-97950000D01*
X122809310Y-98137115D01*
X122809311Y-98137117D01*
X122863891Y-98317040D01*
X122952518Y-98482851D01*
X122952523Y-98482857D01*
X123071800Y-98628199D01*
X123179764Y-98716801D01*
X123214875Y-98745616D01*
X123217142Y-98747476D01*
X123217148Y-98747481D01*
X123382959Y-98836108D01*
X123382961Y-98836109D01*
X123562882Y-98890688D01*
X123562884Y-98890689D01*
X123579660Y-98892341D01*
X123750000Y-98909118D01*
X123937115Y-98890689D01*
X124117039Y-98836109D01*
X124178373Y-98803324D01*
X124282851Y-98747481D01*
X124282853Y-98747478D01*
X124282857Y-98747477D01*
X124428199Y-98628199D01*
X124547477Y-98482857D01*
X124547478Y-98482853D01*
X124547481Y-98482851D01*
X124603324Y-98378373D01*
X124636109Y-98317039D01*
X124690689Y-98137115D01*
X124709118Y-97950000D01*
X124690689Y-97762885D01*
X124636109Y-97582961D01*
X124629984Y-97571502D01*
X124547481Y-97417148D01*
X124547476Y-97417142D01*
X124428199Y-97271800D01*
X124282857Y-97152523D01*
X124282851Y-97152518D01*
X124117040Y-97063891D01*
X123937117Y-97009311D01*
X123937115Y-97009310D01*
X123750000Y-96990882D01*
X123562884Y-97009310D01*
X123562882Y-97009311D01*
X123382959Y-97063891D01*
X123217148Y-97152518D01*
X123217142Y-97152523D01*
X123071800Y-97271800D01*
X122952523Y-97417142D01*
X122952518Y-97417148D01*
X122863891Y-97582959D01*
X122809311Y-97762882D01*
X122809310Y-97762884D01*
X122790882Y-97950000D01*
X119000500Y-97950000D01*
X119000500Y-95723752D01*
X122795500Y-95723752D01*
X122807131Y-95782229D01*
X122807132Y-95782230D01*
X122851447Y-95848552D01*
X122917769Y-95892867D01*
X122917770Y-95892868D01*
X122976247Y-95904499D01*
X122976250Y-95904500D01*
X122976252Y-95904500D01*
X124523750Y-95904500D01*
X124523751Y-95904499D01*
X124538568Y-95901552D01*
X124582229Y-95892868D01*
X124582229Y-95892867D01*
X124582231Y-95892867D01*
X124648552Y-95848552D01*
X124692867Y-95782231D01*
X124692867Y-95782229D01*
X124692868Y-95782229D01*
X124704499Y-95723752D01*
X124704500Y-95723750D01*
X124704500Y-94176249D01*
X124704499Y-94176247D01*
X124692868Y-94117770D01*
X124692867Y-94117769D01*
X124648552Y-94051447D01*
X124582230Y-94007132D01*
X124582229Y-94007131D01*
X124523752Y-93995500D01*
X124523748Y-93995500D01*
X122976252Y-93995500D01*
X122976247Y-93995500D01*
X122917770Y-94007131D01*
X122917769Y-94007132D01*
X122851447Y-94051447D01*
X122807132Y-94117769D01*
X122807131Y-94117770D01*
X122795500Y-94176247D01*
X122795500Y-95723752D01*
X119000500Y-95723752D01*
X119000500Y-93071752D01*
X139665500Y-93071752D01*
X139677131Y-93130229D01*
X139677132Y-93130230D01*
X139721447Y-93196552D01*
X139787769Y-93240867D01*
X139787770Y-93240868D01*
X139846247Y-93252499D01*
X139846250Y-93252500D01*
X139846252Y-93252500D01*
X141585750Y-93252500D01*
X141585751Y-93252499D01*
X141600568Y-93249552D01*
X141644229Y-93240868D01*
X141644229Y-93240867D01*
X141644231Y-93240867D01*
X141710552Y-93196552D01*
X141754867Y-93130231D01*
X141754867Y-93130229D01*
X141754868Y-93130229D01*
X141766499Y-93071752D01*
X141766500Y-93071750D01*
X141766500Y-91332249D01*
X141766499Y-91332247D01*
X141754868Y-91273770D01*
X141754867Y-91273769D01*
X141710552Y-91207447D01*
X141644230Y-91163132D01*
X141644229Y-91163131D01*
X141585752Y-91151500D01*
X141585748Y-91151500D01*
X139846252Y-91151500D01*
X139846247Y-91151500D01*
X139787770Y-91163131D01*
X139787769Y-91163132D01*
X139721447Y-91207447D01*
X139677132Y-91273769D01*
X139677131Y-91273770D01*
X139665500Y-91332247D01*
X139665500Y-93071752D01*
X119000500Y-93071752D01*
X119000500Y-92150003D01*
X122344435Y-92150003D01*
X122364630Y-92329249D01*
X122364631Y-92329254D01*
X122424211Y-92499523D01*
X122491087Y-92605954D01*
X122520184Y-92652262D01*
X122647738Y-92779816D01*
X122800478Y-92875789D01*
X122970745Y-92935368D01*
X122970750Y-92935369D01*
X123061246Y-92945565D01*
X123105040Y-92950499D01*
X123105043Y-92950500D01*
X123105046Y-92950500D01*
X124394957Y-92950500D01*
X124394958Y-92950499D01*
X124462104Y-92942934D01*
X124529249Y-92935369D01*
X124529252Y-92935368D01*
X124529255Y-92935368D01*
X124699522Y-92875789D01*
X124852262Y-92779816D01*
X124979816Y-92652262D01*
X125075789Y-92499522D01*
X125135368Y-92329255D01*
X125155565Y-92150000D01*
X125138221Y-91996067D01*
X125135369Y-91970750D01*
X125135368Y-91970745D01*
X125075788Y-91800476D01*
X124979815Y-91647737D01*
X124852262Y-91520184D01*
X124699523Y-91424211D01*
X124529254Y-91364631D01*
X124529249Y-91364630D01*
X124394960Y-91349500D01*
X124394954Y-91349500D01*
X123105046Y-91349500D01*
X123105039Y-91349500D01*
X122970750Y-91364630D01*
X122970745Y-91364631D01*
X122800476Y-91424211D01*
X122647737Y-91520184D01*
X122520184Y-91647737D01*
X122424211Y-91800476D01*
X122364631Y-91970745D01*
X122364630Y-91970750D01*
X122344435Y-92149996D01*
X122344435Y-92150003D01*
X119000500Y-92150003D01*
X119000500Y-89196269D01*
X130541500Y-89196269D01*
X130544353Y-89226699D01*
X130544353Y-89226701D01*
X130589206Y-89354880D01*
X130589207Y-89354882D01*
X130669850Y-89464150D01*
X130779118Y-89544793D01*
X130821845Y-89559744D01*
X130907299Y-89589646D01*
X130937730Y-89592500D01*
X130937734Y-89592500D01*
X132246270Y-89592500D01*
X132276699Y-89589646D01*
X132276701Y-89589646D01*
X132340790Y-89567219D01*
X132404882Y-89544793D01*
X132514150Y-89464150D01*
X132594793Y-89354882D01*
X132626797Y-89263419D01*
X132639646Y-89226701D01*
X132639646Y-89226699D01*
X132642500Y-89196269D01*
X132642500Y-89187236D01*
X132662185Y-89120197D01*
X132714989Y-89074442D01*
X132784147Y-89064498D01*
X132847703Y-89093523D01*
X132878882Y-89134832D01*
X132918397Y-89219573D01*
X132918399Y-89219577D01*
X133053886Y-89413073D01*
X133053891Y-89413079D01*
X133220917Y-89580105D01*
X133414421Y-89715600D01*
X133628507Y-89815429D01*
X133628516Y-89815433D01*
X133842000Y-89872634D01*
X133842000Y-88827501D01*
X133949685Y-88876680D01*
X134056237Y-88892000D01*
X134127763Y-88892000D01*
X134234315Y-88876680D01*
X134342000Y-88827501D01*
X134342000Y-89872633D01*
X134555483Y-89815433D01*
X134555492Y-89815429D01*
X134769577Y-89715600D01*
X134769579Y-89715599D01*
X134846126Y-89662000D01*
X139660417Y-89662000D01*
X139680699Y-89867932D01*
X139690668Y-89900794D01*
X139740768Y-90065954D01*
X139838315Y-90248450D01*
X139865989Y-90282171D01*
X139969589Y-90408410D01*
X140038366Y-90464853D01*
X140129550Y-90539685D01*
X140312046Y-90637232D01*
X140510066Y-90697300D01*
X140510065Y-90697300D01*
X140528529Y-90699118D01*
X140716000Y-90717583D01*
X140921934Y-90697300D01*
X141119954Y-90637232D01*
X141302450Y-90539685D01*
X141462410Y-90408410D01*
X141593685Y-90248450D01*
X141691232Y-90065954D01*
X141751300Y-89867934D01*
X141771583Y-89662000D01*
X141751300Y-89456066D01*
X141691232Y-89258046D01*
X141593685Y-89075550D01*
X141523045Y-88989474D01*
X141462410Y-88915589D01*
X141342219Y-88816952D01*
X141302450Y-88784315D01*
X141119954Y-88686768D01*
X140921934Y-88626700D01*
X140921932Y-88626699D01*
X140921934Y-88626699D01*
X140716000Y-88606417D01*
X140510067Y-88626699D01*
X140312043Y-88686769D01*
X140244639Y-88722798D01*
X140129550Y-88784315D01*
X140129548Y-88784316D01*
X140129547Y-88784317D01*
X139969589Y-88915589D01*
X139847385Y-89064498D01*
X139838315Y-89075550D01*
X139806628Y-89134832D01*
X139740769Y-89258043D01*
X139680699Y-89456067D01*
X139660417Y-89662000D01*
X134846126Y-89662000D01*
X134963073Y-89580113D01*
X134963079Y-89580108D01*
X135130108Y-89413079D01*
X135130113Y-89413073D01*
X135265601Y-89219577D01*
X135365429Y-89005492D01*
X135365433Y-89005483D01*
X135426567Y-88777326D01*
X135426569Y-88777315D01*
X135438407Y-88642000D01*
X134525686Y-88642000D01*
X134551493Y-88601844D01*
X134592000Y-88463889D01*
X134592000Y-88320111D01*
X134551493Y-88182156D01*
X134525686Y-88142000D01*
X135438407Y-88142000D01*
X135438407Y-88141999D01*
X135426569Y-88006684D01*
X135426567Y-88006673D01*
X135365433Y-87778516D01*
X135365429Y-87778507D01*
X135265600Y-87564422D01*
X135265599Y-87564420D01*
X135220492Y-87500000D01*
X173944706Y-87500000D01*
X173963853Y-87743297D01*
X173963853Y-87743300D01*
X173963854Y-87743302D01*
X174020827Y-87980609D01*
X174020830Y-87980619D01*
X174114222Y-88206089D01*
X174241737Y-88414173D01*
X174241738Y-88414176D01*
X174241741Y-88414179D01*
X174400241Y-88599759D01*
X174533710Y-88713752D01*
X174585823Y-88758261D01*
X174585825Y-88758261D01*
X174628344Y-88784317D01*
X174793911Y-88885777D01*
X174793910Y-88885777D01*
X174807542Y-88891423D01*
X174832044Y-88901572D01*
X174834258Y-88902555D01*
X174836127Y-88903263D01*
X175019388Y-88979172D01*
X175019389Y-88979172D01*
X175019391Y-88979173D01*
X175033134Y-88982472D01*
X175059260Y-88988744D01*
X175062017Y-88989474D01*
X175068057Y-88991223D01*
X175068061Y-88991225D01*
X175078290Y-88993313D01*
X175256698Y-89036146D01*
X175303995Y-89039868D01*
X175311542Y-89040932D01*
X175312864Y-89041202D01*
X175329414Y-89041868D01*
X175500000Y-89055294D01*
X175551386Y-89051249D01*
X175558730Y-89051109D01*
X175562514Y-89051262D01*
X175583293Y-89048738D01*
X175743302Y-89036146D01*
X175797465Y-89023142D01*
X175804439Y-89021887D01*
X175810544Y-89021146D01*
X175832268Y-89014853D01*
X175834972Y-89014137D01*
X175980612Y-88979172D01*
X176035940Y-88956254D01*
X176042404Y-88953987D01*
X176050532Y-88951633D01*
X176072788Y-88941072D01*
X176075497Y-88939869D01*
X176206089Y-88885777D01*
X176260830Y-88852231D01*
X176266604Y-88849104D01*
X176276261Y-88844523D01*
X176297464Y-88829886D01*
X176300241Y-88828080D01*
X176414179Y-88758259D01*
X176466309Y-88713735D01*
X176471306Y-88709892D01*
X176481885Y-88702591D01*
X176500901Y-88684324D01*
X176503493Y-88681976D01*
X176599759Y-88599759D01*
X176647157Y-88544262D01*
X176651349Y-88539817D01*
X176662079Y-88529512D01*
X176677953Y-88508386D01*
X176680325Y-88505427D01*
X176758259Y-88414179D01*
X176798786Y-88348044D01*
X176802044Y-88343252D01*
X176812176Y-88329770D01*
X176824315Y-88306639D01*
X176826306Y-88303136D01*
X176885777Y-88206089D01*
X176917238Y-88130133D01*
X176919601Y-88125088D01*
X176928288Y-88108537D01*
X176936346Y-88084399D01*
X176937846Y-88080381D01*
X176979172Y-87980612D01*
X176999488Y-87895990D01*
X177000947Y-87890894D01*
X177007408Y-87871543D01*
X177011343Y-87847326D01*
X177012229Y-87842918D01*
X177036146Y-87743302D01*
X177043361Y-87651623D01*
X177043973Y-87646547D01*
X177047487Y-87624926D01*
X177048146Y-87592153D01*
X177048324Y-87588560D01*
X177048389Y-87587734D01*
X177055294Y-87500000D01*
X177048323Y-87411433D01*
X177048146Y-87407842D01*
X177047487Y-87375074D01*
X177043972Y-87353446D01*
X177043360Y-87348367D01*
X177036146Y-87256698D01*
X177012239Y-87157123D01*
X177011335Y-87152620D01*
X177007408Y-87128457D01*
X177000955Y-87109129D01*
X176999482Y-87103987D01*
X176979172Y-87019388D01*
X176937858Y-86919648D01*
X176936335Y-86915568D01*
X176928288Y-86891463D01*
X176919609Y-86874927D01*
X176917238Y-86869867D01*
X176885777Y-86793911D01*
X176826308Y-86696867D01*
X176824308Y-86693346D01*
X176812176Y-86670230D01*
X176802066Y-86656776D01*
X176798766Y-86651923D01*
X176783977Y-86627790D01*
X176758259Y-86585821D01*
X176680341Y-86494591D01*
X176677944Y-86491601D01*
X176662079Y-86470488D01*
X176651354Y-86460186D01*
X176647156Y-86455735D01*
X176599759Y-86400241D01*
X176503513Y-86318039D01*
X176500885Y-86315659D01*
X176481885Y-86297409D01*
X176477219Y-86294188D01*
X176471333Y-86290125D01*
X176466287Y-86286245D01*
X176414179Y-86241741D01*
X176414170Y-86241734D01*
X176300273Y-86171938D01*
X176297450Y-86170101D01*
X176276264Y-86155478D01*
X176276260Y-86155476D01*
X176266608Y-86150895D01*
X176260796Y-86147746D01*
X176224845Y-86125717D01*
X176206089Y-86114223D01*
X176206083Y-86114220D01*
X176206077Y-86114217D01*
X176075569Y-86060160D01*
X176072716Y-86058893D01*
X176050533Y-86048367D01*
X176050519Y-86048362D01*
X176042406Y-86046011D01*
X176035933Y-86043741D01*
X175980622Y-86020831D01*
X175980606Y-86020826D01*
X175835002Y-85985868D01*
X175832231Y-85985134D01*
X175810547Y-85978855D01*
X175810548Y-85978855D01*
X175810544Y-85978854D01*
X175810536Y-85978853D01*
X175810525Y-85978851D01*
X175804427Y-85978109D01*
X175797437Y-85976850D01*
X175743302Y-85963854D01*
X175583297Y-85951261D01*
X175562525Y-85948739D01*
X175562520Y-85948738D01*
X175562514Y-85948738D01*
X175562508Y-85948738D01*
X175562504Y-85948738D01*
X175558731Y-85948890D01*
X175551376Y-85948748D01*
X175500000Y-85944706D01*
X175329417Y-85958130D01*
X175312869Y-85958797D01*
X175312833Y-85958801D01*
X175311503Y-85959073D01*
X175303988Y-85960131D01*
X175256706Y-85963853D01*
X175256701Y-85963853D01*
X175256698Y-85963854D01*
X175256695Y-85963854D01*
X175256693Y-85963855D01*
X175078287Y-86006687D01*
X175068059Y-86008775D01*
X175062015Y-86010525D01*
X175059247Y-86011258D01*
X175019390Y-86020827D01*
X175019385Y-86020828D01*
X174836127Y-86096736D01*
X174834250Y-86097448D01*
X174832041Y-86098428D01*
X174793910Y-86114223D01*
X174793904Y-86114226D01*
X174585826Y-86241737D01*
X174585823Y-86241738D01*
X174400241Y-86400241D01*
X174241738Y-86585823D01*
X174241737Y-86585826D01*
X174114222Y-86793910D01*
X174020830Y-87019380D01*
X173963853Y-87256702D01*
X173944706Y-87500000D01*
X135220492Y-87500000D01*
X135130113Y-87370926D01*
X135130108Y-87370920D01*
X134963082Y-87203894D01*
X134769578Y-87068399D01*
X134555492Y-86968570D01*
X134555486Y-86968567D01*
X134342000Y-86911364D01*
X134342000Y-87956498D01*
X134234315Y-87907320D01*
X134127763Y-87892000D01*
X134056237Y-87892000D01*
X133949685Y-87907320D01*
X133842000Y-87956498D01*
X133842000Y-86911364D01*
X133841999Y-86911364D01*
X133628513Y-86968567D01*
X133628507Y-86968570D01*
X133414422Y-87068399D01*
X133414420Y-87068400D01*
X133220926Y-87203886D01*
X133220920Y-87203891D01*
X133053891Y-87370920D01*
X133053886Y-87370926D01*
X132918400Y-87564420D01*
X132918399Y-87564422D01*
X132878882Y-87649168D01*
X132832710Y-87701607D01*
X132765516Y-87720759D01*
X132698635Y-87700543D01*
X132653300Y-87647378D01*
X132642500Y-87596763D01*
X132642500Y-87587730D01*
X132639646Y-87557300D01*
X132639646Y-87557298D01*
X132594793Y-87429119D01*
X132594792Y-87429117D01*
X132514150Y-87319850D01*
X132404882Y-87239207D01*
X132404880Y-87239206D01*
X132276700Y-87194353D01*
X132246270Y-87191500D01*
X132246266Y-87191500D01*
X130937734Y-87191500D01*
X130937730Y-87191500D01*
X130907300Y-87194353D01*
X130907298Y-87194353D01*
X130779119Y-87239206D01*
X130779117Y-87239207D01*
X130669850Y-87319850D01*
X130589207Y-87429117D01*
X130589206Y-87429119D01*
X130544353Y-87557298D01*
X130544353Y-87557300D01*
X130541500Y-87587730D01*
X130541500Y-89196269D01*
X119000500Y-89196269D01*
X119000500Y-87501528D01*
X119000538Y-87500000D01*
X120944706Y-87500000D01*
X120963853Y-87743297D01*
X120963853Y-87743300D01*
X120963854Y-87743302D01*
X121020827Y-87980609D01*
X121020830Y-87980619D01*
X121114222Y-88206089D01*
X121241737Y-88414173D01*
X121241738Y-88414176D01*
X121241741Y-88414179D01*
X121400241Y-88599759D01*
X121533710Y-88713752D01*
X121585823Y-88758261D01*
X121585825Y-88758261D01*
X121628344Y-88784317D01*
X121793911Y-88885777D01*
X121793910Y-88885777D01*
X121807542Y-88891423D01*
X121832044Y-88901572D01*
X121834258Y-88902555D01*
X121836127Y-88903263D01*
X122019388Y-88979172D01*
X122019389Y-88979172D01*
X122019391Y-88979173D01*
X122033134Y-88982472D01*
X122059260Y-88988744D01*
X122062017Y-88989474D01*
X122068057Y-88991223D01*
X122068061Y-88991225D01*
X122078290Y-88993313D01*
X122256698Y-89036146D01*
X122303995Y-89039868D01*
X122311542Y-89040932D01*
X122312864Y-89041202D01*
X122329414Y-89041868D01*
X122500000Y-89055294D01*
X122551386Y-89051249D01*
X122558730Y-89051109D01*
X122562514Y-89051262D01*
X122583293Y-89048738D01*
X122743302Y-89036146D01*
X122797465Y-89023142D01*
X122804439Y-89021887D01*
X122810544Y-89021146D01*
X122832268Y-89014853D01*
X122834972Y-89014137D01*
X122980612Y-88979172D01*
X123035940Y-88956254D01*
X123042404Y-88953987D01*
X123050532Y-88951633D01*
X123072788Y-88941072D01*
X123075497Y-88939869D01*
X123206089Y-88885777D01*
X123260830Y-88852231D01*
X123266604Y-88849104D01*
X123276261Y-88844523D01*
X123297464Y-88829886D01*
X123300241Y-88828080D01*
X123414179Y-88758259D01*
X123466309Y-88713735D01*
X123471306Y-88709892D01*
X123481885Y-88702591D01*
X123500901Y-88684324D01*
X123503493Y-88681976D01*
X123599759Y-88599759D01*
X123647157Y-88544262D01*
X123651349Y-88539817D01*
X123662079Y-88529512D01*
X123677953Y-88508386D01*
X123680325Y-88505427D01*
X123758259Y-88414179D01*
X123798786Y-88348044D01*
X123802044Y-88343252D01*
X123812176Y-88329770D01*
X123824315Y-88306639D01*
X123826306Y-88303136D01*
X123885777Y-88206089D01*
X123917238Y-88130133D01*
X123919601Y-88125088D01*
X123928288Y-88108537D01*
X123936346Y-88084399D01*
X123937846Y-88080381D01*
X123979172Y-87980612D01*
X123999488Y-87895990D01*
X124000947Y-87890894D01*
X124007408Y-87871543D01*
X124011343Y-87847326D01*
X124012229Y-87842918D01*
X124036146Y-87743302D01*
X124043361Y-87651623D01*
X124043973Y-87646547D01*
X124047487Y-87624926D01*
X124048146Y-87592153D01*
X124048324Y-87588560D01*
X124048389Y-87587734D01*
X124055294Y-87500000D01*
X124048323Y-87411433D01*
X124048146Y-87407842D01*
X124047487Y-87375074D01*
X124043972Y-87353446D01*
X124043360Y-87348367D01*
X124036146Y-87256698D01*
X124012239Y-87157123D01*
X124011335Y-87152620D01*
X124007408Y-87128457D01*
X124000955Y-87109129D01*
X123999482Y-87103987D01*
X123979172Y-87019388D01*
X123937858Y-86919648D01*
X123936335Y-86915568D01*
X123928288Y-86891463D01*
X123919609Y-86874927D01*
X123917238Y-86869867D01*
X123885777Y-86793911D01*
X123826308Y-86696867D01*
X123824308Y-86693346D01*
X123812176Y-86670230D01*
X123802066Y-86656776D01*
X123798766Y-86651923D01*
X123783977Y-86627790D01*
X123758259Y-86585821D01*
X123680341Y-86494591D01*
X123677944Y-86491601D01*
X123662079Y-86470488D01*
X123651354Y-86460186D01*
X123647156Y-86455735D01*
X123599759Y-86400241D01*
X123503513Y-86318039D01*
X123500885Y-86315659D01*
X123481885Y-86297409D01*
X123477219Y-86294188D01*
X123471333Y-86290125D01*
X123466287Y-86286245D01*
X123414179Y-86241741D01*
X123414170Y-86241734D01*
X123300273Y-86171938D01*
X123297450Y-86170101D01*
X123276264Y-86155478D01*
X123276260Y-86155476D01*
X123266608Y-86150895D01*
X123260796Y-86147746D01*
X123224845Y-86125717D01*
X123206089Y-86114223D01*
X123206083Y-86114220D01*
X123206077Y-86114217D01*
X123075569Y-86060160D01*
X123072716Y-86058893D01*
X123050533Y-86048367D01*
X123050519Y-86048362D01*
X123042406Y-86046011D01*
X123035933Y-86043741D01*
X122980622Y-86020831D01*
X122980606Y-86020826D01*
X122835002Y-85985868D01*
X122832231Y-85985134D01*
X122810547Y-85978855D01*
X122810548Y-85978855D01*
X122810544Y-85978854D01*
X122810536Y-85978853D01*
X122810525Y-85978851D01*
X122804427Y-85978109D01*
X122797437Y-85976850D01*
X122743302Y-85963854D01*
X122583297Y-85951261D01*
X122562525Y-85948739D01*
X122562520Y-85948738D01*
X122562514Y-85948738D01*
X122562508Y-85948738D01*
X122562504Y-85948738D01*
X122558731Y-85948890D01*
X122551376Y-85948748D01*
X122500000Y-85944706D01*
X122329417Y-85958130D01*
X122312869Y-85958797D01*
X122312833Y-85958801D01*
X122311503Y-85959073D01*
X122303988Y-85960131D01*
X122256706Y-85963853D01*
X122256701Y-85963853D01*
X122256698Y-85963854D01*
X122256695Y-85963854D01*
X122256693Y-85963855D01*
X122078287Y-86006687D01*
X122068059Y-86008775D01*
X122062015Y-86010525D01*
X122059247Y-86011258D01*
X122019390Y-86020827D01*
X122019385Y-86020828D01*
X121836127Y-86096736D01*
X121834250Y-86097448D01*
X121832041Y-86098428D01*
X121793910Y-86114223D01*
X121793904Y-86114226D01*
X121585826Y-86241737D01*
X121585823Y-86241738D01*
X121400241Y-86400241D01*
X121241738Y-86585823D01*
X121241737Y-86585826D01*
X121114222Y-86793910D01*
X121020830Y-87019380D01*
X120963853Y-87256702D01*
X120944706Y-87500000D01*
X119000538Y-87500000D01*
X119000575Y-87498486D01*
X119003982Y-87429117D01*
X119007995Y-87347421D01*
X119018164Y-87153388D01*
X119018744Y-87147594D01*
X119043858Y-86978287D01*
X119071717Y-86802396D01*
X119072801Y-86797083D01*
X119115210Y-86627776D01*
X119160529Y-86458644D01*
X119162013Y-86453891D01*
X119221338Y-86288089D01*
X119283668Y-86125717D01*
X119285492Y-86121455D01*
X119288911Y-86114226D01*
X119361145Y-85961499D01*
X119439877Y-85806982D01*
X119441915Y-85803299D01*
X119533192Y-85651013D01*
X119627560Y-85505701D01*
X119629724Y-85502586D01*
X119735718Y-85359670D01*
X119844785Y-85224983D01*
X119846970Y-85222434D01*
X119965703Y-85091433D01*
X119967717Y-85089318D01*
X120089318Y-84967717D01*
X120091433Y-84965703D01*
X120222434Y-84846970D01*
X120224983Y-84844785D01*
X120359656Y-84735728D01*
X120502586Y-84629724D01*
X120505701Y-84627560D01*
X120651013Y-84533192D01*
X120803299Y-84441915D01*
X120806982Y-84439877D01*
X120961499Y-84361145D01*
X121121462Y-84285488D01*
X121125717Y-84283668D01*
X121288089Y-84221338D01*
X121453891Y-84162013D01*
X121458644Y-84160529D01*
X121627776Y-84115210D01*
X121797083Y-84072801D01*
X121802396Y-84071717D01*
X121978287Y-84043858D01*
X122147594Y-84018744D01*
X122153388Y-84018164D01*
X122347421Y-84007995D01*
X122445332Y-84003185D01*
X122498487Y-84000575D01*
X122501529Y-84000500D01*
X175498471Y-84000500D01*
X175501513Y-84000575D01*
G37*
%TD.AperFunction*%
%TD*%
M02*
