%TF.GenerationSoftware,KiCad,Pcbnew,7.0.8*%
%TF.CreationDate,2025-07-22T03:59:44-04:00*%
%TF.ProjectId,Innostemlab_pcb_v4,496e6e6f-7374-4656-9d6c-61625f706362,rev?*%
%TF.SameCoordinates,Original*%
%TF.FileFunction,Paste,Top*%
%TF.FilePolarity,Positive*%
%FSLAX46Y46*%
G04 Gerber Fmt 4.6, Leading zero omitted, Abs format (unit mm)*
G04 Created by KiCad (PCBNEW 7.0.8) date 2025-07-22 03:59:44*
%MOMM*%
%LPD*%
G01*
G04 APERTURE LIST*
G04 Aperture macros list*
%AMRoundRect*
0 Rectangle with rounded corners*
0 $1 Rounding radius*
0 $2 $3 $4 $5 $6 $7 $8 $9 X,Y pos of 4 corners*
0 Add a 4 corners polygon primitive as box body*
4,1,4,$2,$3,$4,$5,$6,$7,$8,$9,$2,$3,0*
0 Add four circle primitives for the rounded corners*
1,1,$1+$1,$2,$3*
1,1,$1+$1,$4,$5*
1,1,$1+$1,$6,$7*
1,1,$1+$1,$8,$9*
0 Add four rect primitives between the rounded corners*
20,1,$1+$1,$2,$3,$4,$5,0*
20,1,$1+$1,$4,$5,$6,$7,0*
20,1,$1+$1,$6,$7,$8,$9,0*
20,1,$1+$1,$8,$9,$2,$3,0*%
G04 Aperture macros list end*
%ADD10RoundRect,0.250000X-0.450000X0.325000X-0.450000X-0.325000X0.450000X-0.325000X0.450000X0.325000X0*%
%ADD11RoundRect,0.250000X-0.325000X-0.450000X0.325000X-0.450000X0.325000X0.450000X-0.325000X0.450000X0*%
%ADD12RoundRect,0.250000X-0.350000X-0.450000X0.350000X-0.450000X0.350000X0.450000X-0.350000X0.450000X0*%
%ADD13RoundRect,0.250000X0.337500X0.475000X-0.337500X0.475000X-0.337500X-0.475000X0.337500X-0.475000X0*%
%ADD14O,0.990600X1.803400*%
%ADD15O,0.990600X2.108200*%
%ADD16R,0.584200X1.143000*%
%ADD17R,0.304800X1.143000*%
%ADD18RoundRect,0.250000X0.475000X-0.337500X0.475000X0.337500X-0.475000X0.337500X-0.475000X-0.337500X0*%
%ADD19RoundRect,0.250000X-0.475000X0.337500X-0.475000X-0.337500X0.475000X-0.337500X0.475000X0.337500X0*%
%ADD20RoundRect,0.250000X0.350000X0.450000X-0.350000X0.450000X-0.350000X-0.450000X0.350000X-0.450000X0*%
%ADD21R,1.500000X2.000000*%
%ADD22R,3.800000X2.000000*%
%ADD23R,0.450000X1.750000*%
%ADD24R,1.600000X0.550000*%
%ADD25R,0.550000X1.600000*%
%ADD26RoundRect,0.250000X-0.337500X-0.475000X0.337500X-0.475000X0.337500X0.475000X-0.337500X0.475000X0*%
%ADD27R,1.200000X0.400000*%
%ADD28R,1.100000X1.000000*%
G04 APERTURE END LIST*
D10*
%TO.C,D1*%
X142212500Y-108950000D03*
X142212500Y-111000000D03*
%TD*%
D11*
%TO.C,D2*%
X123800000Y-108750000D03*
X121750000Y-108750000D03*
%TD*%
D12*
%TO.C,R5*%
X148250000Y-100750000D03*
X150250000Y-100750000D03*
%TD*%
%TO.C,Pullup1*%
X142212500Y-115000000D03*
X140212500Y-115000000D03*
%TD*%
D13*
%TO.C,C4*%
X142000000Y-125000000D03*
X139925000Y-125000000D03*
%TD*%
D14*
%TO.C,J2*%
X129429998Y-135000000D03*
X138070002Y-135000000D03*
D15*
X129429998Y-130820000D03*
X138070002Y-130820000D03*
D16*
X130550000Y-130245000D03*
X131349999Y-130245000D03*
D17*
X132500000Y-130245000D03*
X133500000Y-130245000D03*
X134000000Y-130245000D03*
X135000000Y-130245000D03*
D16*
X136950000Y-130245000D03*
X136150001Y-130245000D03*
D17*
X135499999Y-130245000D03*
X134500001Y-130245000D03*
X132999999Y-130245000D03*
X132000001Y-130245000D03*
%TD*%
D18*
%TO.C,C2*%
X162052000Y-105016000D03*
X162052000Y-102941000D03*
%TD*%
D19*
%TO.C,C7*%
X134200000Y-102162500D03*
X134200000Y-104237500D03*
%TD*%
D20*
%TO.C,R4*%
X125770000Y-108750000D03*
X127770000Y-108750000D03*
%TD*%
D11*
%TO.C,D4*%
X121750000Y-111000000D03*
X123800000Y-111000000D03*
%TD*%
D21*
%TO.C,U3*%
X137912500Y-104150000D03*
X140212500Y-104150000D03*
D22*
X140212500Y-97850000D03*
D21*
X142512500Y-104150000D03*
%TD*%
D12*
%TO.C,R2*%
X140212500Y-113000000D03*
X142212500Y-113000000D03*
%TD*%
%TO.C,R3*%
X139962500Y-127000000D03*
X141962500Y-127000000D03*
%TD*%
D13*
%TO.C,C3*%
X139887500Y-120750000D03*
X141962500Y-120750000D03*
%TD*%
D23*
%TO.C,U4*%
X149994000Y-124841000D03*
X150644000Y-124841000D03*
X151294000Y-124841000D03*
X151944000Y-124841000D03*
X152594000Y-124841000D03*
X153244000Y-124841000D03*
X153894000Y-124841000D03*
X154544000Y-124841000D03*
X155194000Y-124841000D03*
X155844000Y-124841000D03*
X156494000Y-124841000D03*
X157144000Y-124841000D03*
X157144000Y-117641000D03*
X156494000Y-117641000D03*
X155844000Y-117641000D03*
X155194000Y-117641000D03*
X154544000Y-117641000D03*
X153894000Y-117641000D03*
X153244000Y-117641000D03*
X152594000Y-117641000D03*
X151944000Y-117641000D03*
X151294000Y-117641000D03*
X150644000Y-117641000D03*
X149994000Y-117641000D03*
%TD*%
D13*
%TO.C,C5*%
X141962500Y-123000000D03*
X139887500Y-123000000D03*
%TD*%
D11*
%TO.C,D3*%
X148202500Y-98750000D03*
X150252500Y-98750000D03*
%TD*%
D12*
%TO.C,R1*%
X127000000Y-126750000D03*
X129000000Y-126750000D03*
%TD*%
D24*
%TO.C,U1*%
X156904000Y-111315000D03*
X156904000Y-110515000D03*
X156904000Y-109715000D03*
X156904000Y-108915000D03*
X156904000Y-108115000D03*
X156904000Y-107315000D03*
X156904000Y-106515000D03*
X156904000Y-105715000D03*
D25*
X155454000Y-104265000D03*
X154654000Y-104265000D03*
X153854000Y-104265000D03*
X153054000Y-104265000D03*
X152254000Y-104265000D03*
X151454000Y-104265000D03*
X150654000Y-104265000D03*
X149854000Y-104265000D03*
D24*
X148404000Y-105715000D03*
X148404000Y-106515000D03*
X148404000Y-107315000D03*
X148404000Y-108115000D03*
X148404000Y-108915000D03*
X148404000Y-109715000D03*
X148404000Y-110515000D03*
X148404000Y-111315000D03*
D25*
X149854000Y-112765000D03*
X150654000Y-112765000D03*
X151454000Y-112765000D03*
X152254000Y-112765000D03*
X153054000Y-112765000D03*
X153854000Y-112765000D03*
X154654000Y-112765000D03*
X155454000Y-112765000D03*
%TD*%
D26*
%TO.C,C6*%
X144250000Y-117000000D03*
X142175000Y-117000000D03*
%TD*%
D19*
%TO.C,C1*%
X162052000Y-107259000D03*
X162052000Y-109334000D03*
%TD*%
D27*
%TO.C,U2*%
X131198000Y-116555000D03*
X131198000Y-117190000D03*
X131198000Y-117825000D03*
X131198000Y-118460000D03*
X131198000Y-119095000D03*
X131198000Y-119730000D03*
X131198000Y-120365000D03*
X131198000Y-121000000D03*
X136398000Y-121000000D03*
X136398000Y-120365000D03*
X136398000Y-119730000D03*
X136398000Y-119095000D03*
X136398000Y-118460000D03*
X136398000Y-117825000D03*
X136398000Y-117190000D03*
X136398000Y-116555000D03*
%TD*%
D20*
%TO.C,R6*%
X125770000Y-111000000D03*
X127770000Y-111000000D03*
%TD*%
D26*
%TO.C,C8*%
X140212500Y-107000000D03*
X142287500Y-107000000D03*
%TD*%
D28*
%TO.C,SW1*%
X146250000Y-131500000D03*
X153750000Y-131500000D03*
%TD*%
M02*
