%TF.GenerationSoftware,KiCad,Pcbnew,7.0.8*%
%TF.CreationDate,2025-07-22T03:59:44-04:00*%
%TF.ProjectId,Innostemlab_pcb_v4,496e6e6f-7374-4656-9d6c-61625f706362,rev?*%
%TF.SameCoordinates,Original*%
%TF.FileFunction,Copper,L2,Inr*%
%TF.FilePolarity,Positive*%
%FSLAX46Y46*%
G04 Gerber Fmt 4.6, Leading zero omitted, Abs format (unit mm)*
G04 Created by KiCad (PCBNEW 7.0.8) date 2025-07-22 03:59:44*
%MOMM*%
%LPD*%
G01*
G04 APERTURE LIST*
G04 Aperture macros list*
%AMRoundRect*
0 Rectangle with rounded corners*
0 $1 Rounding radius*
0 $2 $3 $4 $5 $6 $7 $8 $9 X,Y pos of 4 corners*
0 Add a 4 corners polygon primitive as box body*
4,1,4,$2,$3,$4,$5,$6,$7,$8,$9,$2,$3,0*
0 Add four circle primitives for the rounded corners*
1,1,$1+$1,$2,$3*
1,1,$1+$1,$4,$5*
1,1,$1+$1,$6,$7*
1,1,$1+$1,$8,$9*
0 Add four rect primitives between the rounded corners*
20,1,$1+$1,$2,$3,$4,$5,0*
20,1,$1+$1,$4,$5,$6,$7,0*
20,1,$1+$1,$6,$7,$8,$9,0*
20,1,$1+$1,$8,$9,$2,$3,0*%
G04 Aperture macros list end*
%TA.AperFunction,ComponentPad*%
%ADD10C,1.500000*%
%TD*%
%TA.AperFunction,ComponentPad*%
%ADD11R,1.700000X1.700000*%
%TD*%
%TA.AperFunction,ComponentPad*%
%ADD12O,1.700000X1.700000*%
%TD*%
%TA.AperFunction,ComponentPad*%
%ADD13RoundRect,0.250000X0.750000X-0.600000X0.750000X0.600000X-0.750000X0.600000X-0.750000X-0.600000X0*%
%TD*%
%TA.AperFunction,ComponentPad*%
%ADD14O,2.000000X1.700000*%
%TD*%
%TA.AperFunction,ComponentPad*%
%ADD15O,2.400000X1.200000*%
%TD*%
%TA.AperFunction,ComponentPad*%
%ADD16C,1.508000*%
%TD*%
%TA.AperFunction,ComponentPad*%
%ADD17R,1.508000X1.508000*%
%TD*%
%TA.AperFunction,ComponentPad*%
%ADD18RoundRect,0.250000X-0.600000X-0.750000X0.600000X-0.750000X0.600000X0.750000X-0.600000X0.750000X0*%
%TD*%
%TA.AperFunction,ComponentPad*%
%ADD19O,1.700000X2.000000*%
%TD*%
%TA.AperFunction,ComponentPad*%
%ADD20RoundRect,0.250000X-0.750000X0.600000X-0.750000X-0.600000X0.750000X-0.600000X0.750000X0.600000X0*%
%TD*%
%TA.AperFunction,ViaPad*%
%ADD21C,0.800000*%
%TD*%
%TA.AperFunction,Conductor*%
%ADD22C,0.250000*%
%TD*%
G04 APERTURE END LIST*
D10*
%TO.N,Net-(U1-XTAL2{slash}PB7)*%
%TO.C,Y1*%
X166624000Y-103582000D03*
%TO.N,Net-(U1-XTAL1{slash}PB6)*%
X166624000Y-108462000D03*
%TD*%
D11*
%TO.N,D13*%
%TO.C,J8*%
X161046400Y-122529600D03*
D12*
%TO.N,GND*%
X163586400Y-122529600D03*
%TO.N,VBUS*%
X166126400Y-122529600D03*
%TD*%
D11*
%TO.N,D0*%
%TO.C,J9*%
X140716000Y-92202000D03*
D12*
%TO.N,AREF*%
X140716000Y-89662000D03*
%TO.N,D1*%
X143256000Y-92202000D03*
%TO.N,VBATP*%
X143256000Y-89662000D03*
%TO.N,D2*%
X145796000Y-92202000D03*
%TO.N,GND*%
X145796000Y-89662000D03*
%TO.N,D5*%
X148336000Y-92202000D03*
%TO.N,GND*%
X148336000Y-89662000D03*
%TO.N,D6*%
X150876000Y-92202000D03*
%TO.N,VBUS*%
X150876000Y-89662000D03*
%TO.N,D7*%
X153416000Y-92202000D03*
%TO.N,VBUS*%
X153416000Y-89662000D03*
%TO.N,D8*%
X155956000Y-92202000D03*
%TO.N,A0*%
X155956000Y-89662000D03*
%TO.N,D9*%
X158496000Y-92202000D03*
%TO.N,A1*%
X158496000Y-89662000D03*
%TO.N,D10*%
X161036000Y-92202000D03*
%TO.N,A2*%
X161036000Y-89662000D03*
%TO.N,D11*%
X163576000Y-92202000D03*
%TO.N,A3*%
X163576000Y-89662000D03*
%TO.N,D12*%
X166116000Y-92202000D03*
%TO.N,A4*%
X166116000Y-89662000D03*
%TO.N,D13*%
X168656000Y-92202000D03*
%TO.N,A5*%
X168656000Y-89662000D03*
%TD*%
D13*
%TO.N,M2P*%
%TO.C,J5*%
X173817000Y-123703400D03*
D14*
%TO.N,M2N*%
X173817000Y-121203400D03*
%TD*%
D11*
%TO.N,A4*%
%TO.C,J10*%
X173685200Y-107442000D03*
D12*
%TO.N,A5*%
X173685200Y-109982000D03*
%TO.N,GND*%
X173685200Y-112522000D03*
%TO.N,VBUS*%
X173685200Y-115062000D03*
%TD*%
D15*
%TO.N,N/C*%
%TO.C,SW3*%
X123750000Y-103750000D03*
X123750000Y-92150000D03*
D16*
%TO.N,Net-(SW3-C)*%
X123750000Y-100950000D03*
%TO.N,VBATP*%
X123750000Y-97950000D03*
D17*
%TO.N,unconnected-(SW3-A-Pad1)*%
X123750000Y-94950000D03*
%TD*%
D11*
%TO.N,D12*%
%TO.C,J7*%
X161046400Y-127965200D03*
D12*
%TO.N,GND*%
X163586400Y-127965200D03*
%TO.N,VBUS*%
X166126400Y-127965200D03*
%TD*%
D18*
%TO.N,VBATP*%
%TO.C,J3*%
X131592000Y-88392000D03*
D19*
%TO.N,GND*%
X134092000Y-88392000D03*
%TD*%
D11*
%TO.N,D11*%
%TO.C,J6*%
X161046400Y-133096000D03*
D12*
%TO.N,GND*%
X163586400Y-133096000D03*
%TO.N,VBUS*%
X166126400Y-133096000D03*
%TD*%
D20*
%TO.N,M1P*%
%TO.C,J4*%
X124500000Y-118135000D03*
D14*
%TO.N,M1N*%
X124500000Y-120635000D03*
%TD*%
D11*
%TO.N,D12*%
%TO.C,J1*%
X176123600Y-102108000D03*
D12*
%TO.N,VBUS*%
X173583600Y-102108000D03*
%TO.N,D13*%
X176123600Y-99568000D03*
%TO.N,D11*%
X173583600Y-99568000D03*
%TO.N,ICSP_RESET*%
X176123600Y-97028000D03*
%TO.N,GND*%
X173583600Y-97028000D03*
%TD*%
D21*
%TO.N,D-*%
X134500000Y-132800500D03*
X132800500Y-132750000D03*
%TO.N,VBATP*%
X148969600Y-116980100D03*
%TO.N,Net-(U2-CBUS3)*%
X135120100Y-116321300D03*
%TO.N,Net-(U2-CBUS0)*%
X131201400Y-113973200D03*
%TO.N,Net-(U2-CBUS1)*%
X132776600Y-117431100D03*
%TO.N,Net-(U2-CBUS2)*%
X129905200Y-120062000D03*
%TO.N,D2*%
X153868500Y-108056800D03*
%TO.N,D1*%
X154621900Y-110510000D03*
%TO.N,D0*%
X139879800Y-109113800D03*
X153261100Y-111209400D03*
%TO.N,A5*%
X153231700Y-110207400D03*
%TO.N,A4*%
X151614300Y-114199300D03*
%TO.N,A3*%
X151023700Y-110487900D03*
%TO.N,A2*%
X148482800Y-112838500D03*
%TO.N,A1*%
X150259500Y-109196000D03*
%TO.N,A0*%
X149823000Y-107556100D03*
%TO.N,Net-(U1-PE3)*%
X146965500Y-110229200D03*
%TO.N,Net-(U1-PE2)*%
X145418700Y-107315000D03*
%TO.N,Net-(U1-PE1)*%
X154948200Y-107047800D03*
%TO.N,D10*%
X151454000Y-102847300D03*
%TO.N,D8*%
X156321400Y-99775000D03*
X153762200Y-119260100D03*
%TO.N,D7*%
X153875900Y-101826700D03*
X155080500Y-115566400D03*
%TO.N,D6*%
X155057100Y-100570700D03*
X154904900Y-119363600D03*
%TO.N,D5*%
X155523900Y-101709900D03*
X155947300Y-114712000D03*
%TO.N,Net-(U1-PE0)*%
X154460100Y-109042800D03*
%TO.N,AREF*%
X143618800Y-109741400D03*
%TO.N,ICSP_RESET*%
X145967300Y-114727300D03*
X132802800Y-116366000D03*
%TO.N,D11*%
X152097000Y-105765200D03*
%TO.N,VBUS*%
X152561700Y-119348200D03*
%TO.N,M1N*%
X152065400Y-122349800D03*
%TO.N,M1P*%
X147280700Y-123049900D03*
%TO.N,GND*%
X155412500Y-131685700D03*
X162306900Y-110607300D03*
X124530800Y-126778500D03*
X155807500Y-122952600D03*
X140907300Y-128116700D03*
X143305500Y-121070400D03*
X147017700Y-98447500D03*
X120250000Y-108750000D03*
X132609900Y-119818600D03*
X151920100Y-123357900D03*
X134970300Y-119018400D03*
X136993800Y-129033400D03*
X129197000Y-128523100D03*
X135750000Y-104237500D03*
X153592100Y-116144200D03*
X163414000Y-102521100D03*
X155454200Y-107980700D03*
X146849900Y-108775300D03*
X143655100Y-106851500D03*
%TD*%
D22*
%TO.N,VBATP*%
X142066700Y-88472700D02*
X143256000Y-89662000D01*
X137148300Y-88472700D02*
X142066700Y-88472700D01*
X132000000Y-90500000D02*
X135121000Y-90500000D01*
X135121000Y-90500000D02*
X137148300Y-88472700D01*
X131592000Y-90092000D02*
X132000000Y-90500000D01*
X131592000Y-89762800D02*
X131592000Y-90092000D01*
X143256000Y-89662000D02*
X144432900Y-89662000D01*
X131592000Y-90108000D02*
X131592000Y-89762800D01*
X123750000Y-97950000D02*
X131592000Y-90108000D01*
X131592000Y-89762800D02*
X131592000Y-88392000D01*
X147751000Y-115761500D02*
X148969600Y-116980100D01*
X147751000Y-95881900D02*
X147751000Y-115761500D01*
X147066000Y-95196900D02*
X147751000Y-95881900D01*
X147066000Y-91807300D02*
X147066000Y-95196900D01*
X146190700Y-90932000D02*
X147066000Y-91807300D01*
X145337100Y-90932000D02*
X146190700Y-90932000D01*
X144432900Y-90027800D02*
X145337100Y-90932000D01*
X144432900Y-89662000D02*
X144432900Y-90027800D01*
%TO.N,D0*%
X140716000Y-108277600D02*
X139879800Y-109113800D01*
X140716000Y-92202000D02*
X140716000Y-108277600D01*
%TO.N,A2*%
X159859100Y-90027800D02*
X159859100Y-89662000D01*
X158954900Y-90932000D02*
X159859100Y-90027800D01*
X153005500Y-90932000D02*
X158954900Y-90932000D01*
X152146000Y-91791500D02*
X153005500Y-90932000D01*
X152146000Y-94619500D02*
X152146000Y-91791500D01*
X148482800Y-98282700D02*
X152146000Y-94619500D01*
X148482800Y-112838500D02*
X148482800Y-98282700D01*
X161036000Y-89662000D02*
X159859100Y-89662000D01*
%TO.N,D8*%
X155956000Y-92202000D02*
X155956000Y-93378900D01*
X156321400Y-93744300D02*
X156321400Y-99775000D01*
X155956000Y-93378900D02*
X156321400Y-93744300D01*
X154593800Y-120091700D02*
X153762200Y-119260100D01*
X155225800Y-120091700D02*
X154593800Y-120091700D01*
X157153100Y-118164400D02*
X155225800Y-120091700D01*
X157153100Y-100606700D02*
X157153100Y-118164400D01*
X156321400Y-99775000D02*
X157153100Y-100606700D01*
%TO.N,D7*%
X153416000Y-92202000D02*
X153416000Y-93378900D01*
X153875900Y-93838800D02*
X153875900Y-101826700D01*
X153416000Y-93378900D02*
X153875900Y-93838800D01*
X153875900Y-107036200D02*
X153875900Y-101826700D01*
X154595400Y-107755700D02*
X153875900Y-107036200D01*
X154595400Y-108149800D02*
X154595400Y-107755700D01*
X155348800Y-108903200D02*
X154595400Y-108149800D01*
X155348800Y-110811100D02*
X155348800Y-108903200D01*
X155080500Y-111079400D02*
X155348800Y-110811100D01*
X155080500Y-115566400D02*
X155080500Y-111079400D01*
%TO.N,D6*%
X156684900Y-117583600D02*
X154904900Y-119363600D01*
X156684900Y-101803300D02*
X156684900Y-117583600D01*
X155452300Y-100570700D02*
X156684900Y-101803300D01*
X155057100Y-100570700D02*
X155452300Y-100570700D01*
%TO.N,D5*%
X156222200Y-102408200D02*
X155523900Y-101709900D01*
X156222200Y-114437100D02*
X156222200Y-102408200D01*
X155947300Y-114712000D02*
X156222200Y-114437100D01*
%TO.N,AREF*%
X140716000Y-89662000D02*
X141892900Y-89662000D01*
X141892900Y-90027800D02*
X141892900Y-89662000D01*
X142704000Y-90838900D02*
X141892900Y-90027800D01*
X143593800Y-90838900D02*
X142704000Y-90838900D01*
X144510300Y-91755400D02*
X143593800Y-90838900D01*
X144510300Y-108849900D02*
X144510300Y-91755400D01*
X143618800Y-109741400D02*
X144510300Y-108849900D01*
%TO.N,D11*%
X161046400Y-133096000D02*
X161046400Y-131919100D01*
X159869500Y-130742200D02*
X161046400Y-131919100D01*
X159869500Y-128358800D02*
X159869500Y-130742200D01*
X151829500Y-120318800D02*
X159869500Y-128358800D01*
X151829500Y-118879300D02*
X151829500Y-120318800D01*
X152390000Y-118318800D02*
X151829500Y-118879300D01*
X152390000Y-106058200D02*
X152390000Y-118318800D01*
X152097000Y-105765200D02*
X152390000Y-106058200D01*
%TO.N,D13*%
X168656000Y-93813400D02*
X168656000Y-92202000D01*
X173233700Y-98391100D02*
X168656000Y-93813400D01*
X174137700Y-98391100D02*
X173233700Y-98391100D01*
X174946700Y-99200100D02*
X174137700Y-98391100D01*
X174946700Y-99568000D02*
X174946700Y-99200100D01*
X175648600Y-99568000D02*
X174946700Y-99568000D01*
X175648600Y-99568000D02*
X176123600Y-99568000D01*
X162223300Y-122897500D02*
X162223300Y-122529600D01*
X163032300Y-123706500D02*
X162223300Y-122897500D01*
X166718900Y-123706500D02*
X163032300Y-123706500D01*
X177300500Y-113124900D02*
X166718900Y-123706500D01*
X177300500Y-101112600D02*
X177300500Y-113124900D01*
X176932800Y-100744900D02*
X177300500Y-101112600D01*
X176123600Y-100744900D02*
X176932800Y-100744900D01*
X176123600Y-99568000D02*
X176123600Y-100744900D01*
X161046400Y-122529600D02*
X162223300Y-122529600D01*
%TO.N,VBUS*%
X166126400Y-133096000D02*
X166126400Y-127965200D01*
X166217600Y-121352700D02*
X172508300Y-115062000D01*
X166126400Y-121352700D02*
X166217600Y-121352700D01*
X173685200Y-115062000D02*
X172508300Y-115062000D01*
X166126400Y-122529600D02*
X166126400Y-121352700D01*
X172508300Y-104360200D02*
X172508300Y-115062000D01*
X173583600Y-103284900D02*
X172508300Y-104360200D01*
X173583600Y-102108000D02*
X173583600Y-103284900D01*
%TO.N,D12*%
X176123600Y-102108000D02*
X174946700Y-102108000D01*
X161046400Y-127965200D02*
X161046400Y-126788300D01*
X159869500Y-125611400D02*
X161046400Y-126788300D01*
X159869500Y-119178200D02*
X159869500Y-125611400D01*
X170207800Y-108839900D02*
X159869500Y-119178200D01*
X170207800Y-103819400D02*
X170207800Y-108839900D01*
X173175300Y-100851900D02*
X170207800Y-103819400D01*
X174058500Y-100851900D02*
X173175300Y-100851900D01*
X174946700Y-101740100D02*
X174058500Y-100851900D01*
X174946700Y-102108000D02*
X174946700Y-101740100D01*
X166116000Y-93792600D02*
X166116000Y-92202000D01*
X173175300Y-100851900D02*
X166116000Y-93792600D01*
%TO.N,M1P*%
X132133700Y-118135000D02*
X124500000Y-118135000D01*
X137048600Y-123049900D02*
X132133700Y-118135000D01*
X147280700Y-123049900D02*
X137048600Y-123049900D01*
%TD*%
%TA.AperFunction,Conductor*%
%TO.N,GND*%
G36*
X165061145Y-128224654D02*
G01*
X165115023Y-128269139D01*
X165130993Y-128302647D01*
X165151168Y-128369154D01*
X165248715Y-128551650D01*
X165248717Y-128551652D01*
X165379989Y-128711610D01*
X165476609Y-128790902D01*
X165539950Y-128842885D01*
X165722446Y-128940432D01*
X165722451Y-128940433D01*
X165724351Y-128941221D01*
X165725196Y-128941901D01*
X165727819Y-128943304D01*
X165727553Y-128943801D01*
X165778755Y-128985062D01*
X165800821Y-129051356D01*
X165800900Y-129055783D01*
X165800900Y-132005417D01*
X165781215Y-132072456D01*
X165728411Y-132118211D01*
X165724351Y-132119979D01*
X165722445Y-132120768D01*
X165639777Y-132164956D01*
X165539950Y-132218315D01*
X165539948Y-132218316D01*
X165539947Y-132218317D01*
X165379989Y-132349589D01*
X165248717Y-132509547D01*
X165151167Y-132692046D01*
X165130993Y-132758552D01*
X165092696Y-132816990D01*
X165028883Y-132845447D01*
X164959816Y-132834886D01*
X164907423Y-132788661D01*
X164892558Y-132754649D01*
X164859833Y-132632516D01*
X164859829Y-132632507D01*
X164760000Y-132418422D01*
X164759999Y-132418420D01*
X164624513Y-132224926D01*
X164624508Y-132224920D01*
X164457482Y-132057894D01*
X164263978Y-131922399D01*
X164049892Y-131822570D01*
X164049886Y-131822567D01*
X163836400Y-131765364D01*
X163836400Y-132660498D01*
X163728715Y-132611320D01*
X163622163Y-132596000D01*
X163550637Y-132596000D01*
X163444085Y-132611320D01*
X163336400Y-132660498D01*
X163336400Y-131765364D01*
X163336399Y-131765364D01*
X163122913Y-131822567D01*
X163122907Y-131822570D01*
X162908822Y-131922399D01*
X162908820Y-131922400D01*
X162715326Y-132057886D01*
X162715320Y-132057891D01*
X162548291Y-132224920D01*
X162548286Y-132224926D01*
X162412800Y-132418420D01*
X162412799Y-132418422D01*
X162333282Y-132588948D01*
X162287110Y-132641387D01*
X162219916Y-132660539D01*
X162153035Y-132640323D01*
X162107700Y-132587158D01*
X162096900Y-132536543D01*
X162096900Y-132226249D01*
X162096899Y-132226247D01*
X162085268Y-132167770D01*
X162085267Y-132167769D01*
X162040952Y-132101447D01*
X161974630Y-132057132D01*
X161974629Y-132057131D01*
X161916152Y-132045500D01*
X161916148Y-132045500D01*
X161497407Y-132045500D01*
X161430368Y-132025815D01*
X161384613Y-131973011D01*
X161373879Y-131910690D01*
X161375664Y-131890293D01*
X161365182Y-131851176D01*
X161364016Y-131845918D01*
X161356988Y-131806055D01*
X161356986Y-131806052D01*
X161356986Y-131806050D01*
X161355160Y-131801033D01*
X161348220Y-131784276D01*
X161345954Y-131779419D01*
X161345954Y-131779416D01*
X161322739Y-131746262D01*
X161319833Y-131741699D01*
X161299596Y-131706648D01*
X161299595Y-131706647D01*
X161299594Y-131706645D01*
X161268577Y-131680618D01*
X161264593Y-131676967D01*
X160231319Y-130643693D01*
X160197834Y-130582370D01*
X160195000Y-130556012D01*
X160195000Y-129139700D01*
X160214685Y-129072661D01*
X160267489Y-129026906D01*
X160319000Y-129015700D01*
X161916150Y-129015700D01*
X161916151Y-129015699D01*
X161930968Y-129012752D01*
X161974629Y-129004068D01*
X161974629Y-129004067D01*
X161974631Y-129004067D01*
X162040952Y-128959752D01*
X162085267Y-128893431D01*
X162085267Y-128893429D01*
X162085268Y-128893429D01*
X162095322Y-128842882D01*
X162096900Y-128834948D01*
X162096900Y-128524656D01*
X162116585Y-128457617D01*
X162169389Y-128411862D01*
X162238547Y-128401918D01*
X162302103Y-128430943D01*
X162333282Y-128472251D01*
X162412800Y-128642778D01*
X162548294Y-128836282D01*
X162715317Y-129003305D01*
X162908821Y-129138800D01*
X163122907Y-129238629D01*
X163122916Y-129238633D01*
X163336400Y-129295834D01*
X163336400Y-128400701D01*
X163444085Y-128449880D01*
X163550637Y-128465200D01*
X163622163Y-128465200D01*
X163728715Y-128449880D01*
X163836400Y-128400701D01*
X163836400Y-129295833D01*
X164049883Y-129238633D01*
X164049892Y-129238629D01*
X164263978Y-129138800D01*
X164457482Y-129003305D01*
X164624505Y-128836282D01*
X164760000Y-128642778D01*
X164859829Y-128428692D01*
X164859833Y-128428683D01*
X164892558Y-128306550D01*
X164928922Y-128246890D01*
X164991769Y-128216360D01*
X165061145Y-128224654D01*
G37*
%TD.AperFunction*%
%TA.AperFunction,Conductor*%
G36*
X172460331Y-102129707D02*
G01*
X172516264Y-102171579D01*
X172540400Y-102233734D01*
X172548299Y-102313932D01*
X172572660Y-102394239D01*
X172608368Y-102511954D01*
X172705915Y-102694450D01*
X172705917Y-102694452D01*
X172837189Y-102854410D01*
X172997148Y-102985684D01*
X172997150Y-102985685D01*
X173120046Y-103051375D01*
X173126879Y-103055027D01*
X173176724Y-103103989D01*
X173192184Y-103172127D01*
X173168352Y-103237807D01*
X173156107Y-103252066D01*
X172290103Y-104118070D01*
X172286114Y-104121725D01*
X172255105Y-104147745D01*
X172234862Y-104182806D01*
X172231956Y-104187366D01*
X172208746Y-104220513D01*
X172206506Y-104225317D01*
X172199529Y-104242161D01*
X172197710Y-104247159D01*
X172190683Y-104287011D01*
X172189512Y-104292291D01*
X172179035Y-104331391D01*
X172182564Y-104371713D01*
X172182800Y-104377120D01*
X172182800Y-114875811D01*
X172163115Y-114942850D01*
X172146481Y-114963492D01*
X166110091Y-120999881D01*
X166064814Y-121028724D01*
X166052014Y-121033382D01*
X166031152Y-121038972D01*
X166013358Y-121042110D01*
X166013355Y-121042112D01*
X165997704Y-121051147D01*
X165978126Y-121060276D01*
X165961144Y-121066457D01*
X165961138Y-121066461D01*
X165947294Y-121078077D01*
X165929592Y-121090472D01*
X165913948Y-121099503D01*
X165913941Y-121099509D01*
X165902324Y-121113353D01*
X165887051Y-121128626D01*
X165873210Y-121140241D01*
X165873202Y-121140250D01*
X165864169Y-121155895D01*
X165851777Y-121173592D01*
X165840163Y-121187433D01*
X165840158Y-121187443D01*
X165833976Y-121204425D01*
X165824848Y-121224001D01*
X165815814Y-121239649D01*
X165815812Y-121239654D01*
X165815812Y-121239655D01*
X165812901Y-121256167D01*
X165812675Y-121257447D01*
X165807081Y-121278324D01*
X165800900Y-121295305D01*
X165800900Y-121439017D01*
X165781215Y-121506056D01*
X165728411Y-121551811D01*
X165724351Y-121553579D01*
X165722445Y-121554368D01*
X165634514Y-121601369D01*
X165539950Y-121651915D01*
X165539948Y-121651916D01*
X165539947Y-121651917D01*
X165379989Y-121783189D01*
X165248717Y-121943147D01*
X165151167Y-122125646D01*
X165130993Y-122192152D01*
X165092696Y-122250590D01*
X165028883Y-122279047D01*
X164959816Y-122268486D01*
X164907423Y-122222261D01*
X164892558Y-122188249D01*
X164859833Y-122066116D01*
X164859829Y-122066107D01*
X164760000Y-121852022D01*
X164759999Y-121852020D01*
X164624513Y-121658526D01*
X164624508Y-121658520D01*
X164457482Y-121491494D01*
X164263978Y-121355999D01*
X164049892Y-121256170D01*
X164049886Y-121256167D01*
X163836400Y-121198964D01*
X163836400Y-122094098D01*
X163728715Y-122044920D01*
X163622163Y-122029600D01*
X163550637Y-122029600D01*
X163444085Y-122044920D01*
X163336400Y-122094098D01*
X163336400Y-121198964D01*
X163336399Y-121198964D01*
X163122913Y-121256167D01*
X163122907Y-121256170D01*
X162908822Y-121355999D01*
X162908820Y-121356000D01*
X162715326Y-121491486D01*
X162715320Y-121491491D01*
X162548291Y-121658520D01*
X162548286Y-121658526D01*
X162412800Y-121852020D01*
X162412799Y-121852022D01*
X162333282Y-122022548D01*
X162287110Y-122074987D01*
X162219916Y-122094139D01*
X162153035Y-122073923D01*
X162107700Y-122020758D01*
X162096900Y-121970143D01*
X162096900Y-121659849D01*
X162096899Y-121659847D01*
X162085268Y-121601370D01*
X162085267Y-121601369D01*
X162040952Y-121535047D01*
X161974630Y-121490732D01*
X161974629Y-121490731D01*
X161916152Y-121479100D01*
X161916148Y-121479100D01*
X160319000Y-121479100D01*
X160251961Y-121459415D01*
X160206206Y-121406611D01*
X160195000Y-121355100D01*
X160195000Y-119364387D01*
X160214685Y-119297348D01*
X160231314Y-119276711D01*
X170426004Y-109082020D01*
X170429966Y-109078389D01*
X170460994Y-109052355D01*
X170481238Y-109017290D01*
X170484135Y-109012741D01*
X170507354Y-108979584D01*
X170507354Y-108979581D01*
X170509619Y-108974724D01*
X170516547Y-108957999D01*
X170518384Y-108952950D01*
X170518388Y-108952945D01*
X170525419Y-108913062D01*
X170526577Y-108907840D01*
X170537064Y-108868707D01*
X170533535Y-108828381D01*
X170533300Y-108822978D01*
X170533300Y-104005587D01*
X170552985Y-103938548D01*
X170569614Y-103917911D01*
X172329318Y-102158206D01*
X172390639Y-102124723D01*
X172460331Y-102129707D01*
G37*
%TD.AperFunction*%
%TA.AperFunction,Conductor*%
G36*
X153955491Y-110399336D02*
G01*
X154003102Y-110450473D01*
X154016218Y-110505978D01*
X154016218Y-110510001D01*
X154036855Y-110666760D01*
X154036856Y-110666762D01*
X154097364Y-110812841D01*
X154193618Y-110938282D01*
X154319059Y-111034536D01*
X154465138Y-111095044D01*
X154543519Y-111105363D01*
X154621899Y-111115682D01*
X154630027Y-111115682D01*
X154630027Y-111119004D01*
X154683748Y-111127331D01*
X154736046Y-111173664D01*
X154755000Y-111239553D01*
X154755000Y-114998099D01*
X154735315Y-115065138D01*
X154706488Y-115096474D01*
X154652220Y-115138115D01*
X154555963Y-115263560D01*
X154495456Y-115409637D01*
X154495455Y-115409639D01*
X154474818Y-115566398D01*
X154474818Y-115566401D01*
X154495455Y-115723160D01*
X154495456Y-115723162D01*
X154540548Y-115832025D01*
X154555964Y-115869241D01*
X154652218Y-115994682D01*
X154777659Y-116090936D01*
X154923738Y-116151444D01*
X155002119Y-116161763D01*
X155080499Y-116172082D01*
X155080500Y-116172082D01*
X155080501Y-116172082D01*
X155137810Y-116164537D01*
X155237262Y-116151444D01*
X155383341Y-116090936D01*
X155508782Y-115994682D01*
X155605036Y-115869241D01*
X155665544Y-115723162D01*
X155686182Y-115566400D01*
X155669347Y-115438527D01*
X155680112Y-115369493D01*
X155726492Y-115317237D01*
X155793761Y-115298352D01*
X155808454Y-115299402D01*
X155947300Y-115317682D01*
X155947301Y-115317682D01*
X155999554Y-115310802D01*
X156104062Y-115297044D01*
X156187949Y-115262296D01*
X156257416Y-115254828D01*
X156319896Y-115286103D01*
X156355548Y-115346192D01*
X156359400Y-115376858D01*
X156359400Y-117397411D01*
X156339715Y-117464450D01*
X156323081Y-117485092D01*
X155076584Y-118731588D01*
X155015261Y-118765073D01*
X154972718Y-118766846D01*
X154904901Y-118757918D01*
X154904899Y-118757918D01*
X154748139Y-118778555D01*
X154748137Y-118778556D01*
X154602060Y-118839063D01*
X154602059Y-118839064D01*
X154476618Y-118935318D01*
X154476616Y-118935319D01*
X154476615Y-118935321D01*
X154471631Y-118941816D01*
X154415201Y-118983016D01*
X154345455Y-118987168D01*
X154284536Y-118952952D01*
X154274883Y-118941812D01*
X154235750Y-118890813D01*
X154190482Y-118831818D01*
X154065041Y-118735564D01*
X153994792Y-118706466D01*
X153918962Y-118675056D01*
X153918960Y-118675055D01*
X153762201Y-118654418D01*
X153762199Y-118654418D01*
X153605439Y-118675055D01*
X153605437Y-118675056D01*
X153459360Y-118735563D01*
X153333918Y-118831818D01*
X153237658Y-118957266D01*
X153236406Y-118959436D01*
X153234871Y-118960899D01*
X153232716Y-118963708D01*
X153232277Y-118963371D01*
X153185836Y-119007648D01*
X153117228Y-119020867D01*
X153052365Y-118994895D01*
X153030651Y-118972919D01*
X152989982Y-118919918D01*
X152864541Y-118823664D01*
X152854973Y-118819701D01*
X152781497Y-118789266D01*
X152718462Y-118763156D01*
X152693911Y-118759923D01*
X152630016Y-118731657D01*
X152591545Y-118673332D01*
X152590714Y-118603468D01*
X152627786Y-118544244D01*
X152630396Y-118541993D01*
X152643194Y-118531255D01*
X152663438Y-118496190D01*
X152666335Y-118491641D01*
X152689554Y-118458484D01*
X152689554Y-118458481D01*
X152691819Y-118453624D01*
X152698747Y-118436899D01*
X152700584Y-118431850D01*
X152700588Y-118431845D01*
X152707619Y-118391962D01*
X152708777Y-118386740D01*
X152719264Y-118347607D01*
X152715735Y-118307278D01*
X152715500Y-118301875D01*
X152715500Y-111799107D01*
X152735185Y-111732068D01*
X152787989Y-111686313D01*
X152857147Y-111676369D01*
X152914987Y-111700732D01*
X152958257Y-111733935D01*
X152958258Y-111733935D01*
X152958259Y-111733936D01*
X153104338Y-111794444D01*
X153182719Y-111804763D01*
X153261099Y-111815082D01*
X153261100Y-111815082D01*
X153261101Y-111815082D01*
X153313354Y-111808202D01*
X153417862Y-111794444D01*
X153563941Y-111733936D01*
X153689382Y-111637682D01*
X153785636Y-111512241D01*
X153846144Y-111366162D01*
X153866782Y-111209400D01*
X153865353Y-111198549D01*
X153846144Y-111052639D01*
X153846144Y-111052638D01*
X153785636Y-110906559D01*
X153689382Y-110781118D01*
X153689379Y-110781115D01*
X153689377Y-110781113D01*
X153686496Y-110778232D01*
X153684841Y-110775202D01*
X153684434Y-110774671D01*
X153684516Y-110774607D01*
X153653011Y-110716909D01*
X153657995Y-110647217D01*
X153675800Y-110615067D01*
X153756236Y-110510241D01*
X153777657Y-110458525D01*
X153821497Y-110404122D01*
X153887791Y-110382057D01*
X153955491Y-110399336D01*
G37*
%TD.AperFunction*%
%TA.AperFunction,Conductor*%
G36*
X174749124Y-102372599D02*
G01*
X174776311Y-102389937D01*
X174781439Y-102394240D01*
X174798426Y-102400422D01*
X174818007Y-102409554D01*
X174833655Y-102418588D01*
X174851447Y-102421724D01*
X174872321Y-102427317D01*
X174889306Y-102433500D01*
X174918225Y-102433500D01*
X174949100Y-102433500D01*
X175016139Y-102453185D01*
X175061894Y-102505989D01*
X175073100Y-102557500D01*
X175073100Y-102977752D01*
X175084731Y-103036229D01*
X175084732Y-103036230D01*
X175129047Y-103102552D01*
X175195369Y-103146867D01*
X175195370Y-103146868D01*
X175253847Y-103158499D01*
X175253850Y-103158500D01*
X175253852Y-103158500D01*
X176851000Y-103158500D01*
X176918039Y-103178185D01*
X176963794Y-103230989D01*
X176975000Y-103282500D01*
X176975000Y-112938710D01*
X176955315Y-113005749D01*
X176938681Y-113026391D01*
X174940720Y-115024351D01*
X174879397Y-115057836D01*
X174809705Y-115052852D01*
X174753772Y-115010980D01*
X174729636Y-114948824D01*
X174720500Y-114856067D01*
X174718167Y-114848376D01*
X174660432Y-114658046D01*
X174562885Y-114475550D01*
X174502099Y-114401481D01*
X174431610Y-114315589D01*
X174294129Y-114202763D01*
X174271650Y-114184315D01*
X174089154Y-114086768D01*
X174022647Y-114066593D01*
X173964209Y-114028296D01*
X173935753Y-113964484D01*
X173946313Y-113895417D01*
X173992537Y-113843023D01*
X174026550Y-113828158D01*
X174148683Y-113795433D01*
X174148692Y-113795429D01*
X174362778Y-113695600D01*
X174556282Y-113560105D01*
X174723305Y-113393082D01*
X174858800Y-113199578D01*
X174958629Y-112985492D01*
X174958632Y-112985486D01*
X175015836Y-112772000D01*
X174118886Y-112772000D01*
X174144693Y-112731844D01*
X174185200Y-112593889D01*
X174185200Y-112450111D01*
X174144693Y-112312156D01*
X174118886Y-112272000D01*
X175015836Y-112272000D01*
X175015835Y-112271999D01*
X174958632Y-112058513D01*
X174958629Y-112058507D01*
X174858800Y-111844422D01*
X174858799Y-111844420D01*
X174723313Y-111650926D01*
X174723308Y-111650920D01*
X174556282Y-111483894D01*
X174362778Y-111348399D01*
X174148692Y-111248570D01*
X174148686Y-111248567D01*
X174026549Y-111215841D01*
X173966889Y-111179476D01*
X173936360Y-111116629D01*
X173944655Y-111047253D01*
X173989140Y-110993375D01*
X174022644Y-110977407D01*
X174089154Y-110957232D01*
X174271650Y-110859685D01*
X174431610Y-110728410D01*
X174562885Y-110568450D01*
X174660432Y-110385954D01*
X174720500Y-110187934D01*
X174740783Y-109982000D01*
X174720500Y-109776066D01*
X174660432Y-109578046D01*
X174562885Y-109395550D01*
X174460309Y-109270560D01*
X174431610Y-109235589D01*
X174295391Y-109123799D01*
X174271650Y-109104315D01*
X174089154Y-109006768D01*
X173891134Y-108946700D01*
X173891132Y-108946699D01*
X173891134Y-108946699D01*
X173685200Y-108926417D01*
X173479267Y-108946699D01*
X173281243Y-109006769D01*
X173207886Y-109045980D01*
X173098750Y-109104315D01*
X173098748Y-109104316D01*
X173098747Y-109104317D01*
X173036464Y-109155431D01*
X172972154Y-109182743D01*
X172903287Y-109170952D01*
X172851727Y-109123799D01*
X172833800Y-109059577D01*
X172833800Y-108616500D01*
X172853485Y-108549461D01*
X172906289Y-108503706D01*
X172957800Y-108492500D01*
X174554950Y-108492500D01*
X174554951Y-108492499D01*
X174569768Y-108489552D01*
X174613429Y-108480868D01*
X174613429Y-108480867D01*
X174613431Y-108480867D01*
X174679752Y-108436552D01*
X174724067Y-108370231D01*
X174724067Y-108370229D01*
X174724068Y-108370229D01*
X174735699Y-108311752D01*
X174735700Y-108311750D01*
X174735700Y-106572249D01*
X174735699Y-106572247D01*
X174724068Y-106513770D01*
X174724067Y-106513769D01*
X174679752Y-106447447D01*
X174613430Y-106403132D01*
X174613429Y-106403131D01*
X174554952Y-106391500D01*
X174554948Y-106391500D01*
X172957800Y-106391500D01*
X172890761Y-106371815D01*
X172845006Y-106319011D01*
X172833800Y-106267500D01*
X172833800Y-104546387D01*
X172853485Y-104479348D01*
X172870115Y-104458710D01*
X173801815Y-103527009D01*
X173805766Y-103523389D01*
X173836794Y-103497355D01*
X173857038Y-103462290D01*
X173859935Y-103457741D01*
X173883154Y-103424584D01*
X173883154Y-103424581D01*
X173885419Y-103419724D01*
X173892347Y-103402999D01*
X173894184Y-103397950D01*
X173894188Y-103397945D01*
X173901219Y-103358062D01*
X173902377Y-103352840D01*
X173912864Y-103313707D01*
X173909335Y-103273378D01*
X173909100Y-103267975D01*
X173909100Y-103198583D01*
X173928785Y-103131544D01*
X173981589Y-103085789D01*
X173985649Y-103084021D01*
X173987545Y-103083234D01*
X173987554Y-103083232D01*
X174170050Y-102985685D01*
X174330010Y-102854410D01*
X174461285Y-102694450D01*
X174558832Y-102511954D01*
X174577949Y-102448932D01*
X174616245Y-102390496D01*
X174680057Y-102362039D01*
X174749124Y-102372599D01*
G37*
%TD.AperFunction*%
%TA.AperFunction,Conductor*%
G36*
X155177021Y-91277185D02*
G01*
X155222776Y-91329989D01*
X155232720Y-91399147D01*
X155205836Y-91460164D01*
X155082464Y-91610495D01*
X155078315Y-91615550D01*
X155050485Y-91667616D01*
X154980769Y-91798043D01*
X154920699Y-91996067D01*
X154900417Y-92202000D01*
X154920699Y-92407932D01*
X154920700Y-92407934D01*
X154980768Y-92605954D01*
X155078315Y-92788450D01*
X155078317Y-92788452D01*
X155209589Y-92948410D01*
X155252708Y-92983796D01*
X155369550Y-93079685D01*
X155552046Y-93177232D01*
X155552051Y-93177233D01*
X155553951Y-93178021D01*
X155554796Y-93178701D01*
X155557419Y-93180104D01*
X155557153Y-93180601D01*
X155608355Y-93221862D01*
X155630421Y-93288156D01*
X155630500Y-93292583D01*
X155630500Y-93361978D01*
X155630264Y-93367385D01*
X155626735Y-93407708D01*
X155637212Y-93446810D01*
X155638383Y-93452090D01*
X155645411Y-93491943D01*
X155647235Y-93496955D01*
X155654197Y-93513761D01*
X155656445Y-93518581D01*
X155656446Y-93518584D01*
X155670452Y-93538587D01*
X155679655Y-93551731D01*
X155682561Y-93556292D01*
X155702806Y-93591355D01*
X155733815Y-93617375D01*
X155737805Y-93621031D01*
X155959581Y-93842807D01*
X155993066Y-93904130D01*
X155995900Y-93930488D01*
X155995900Y-99206699D01*
X155976215Y-99273738D01*
X155947388Y-99305074D01*
X155893120Y-99346715D01*
X155796863Y-99472160D01*
X155736356Y-99618237D01*
X155736355Y-99618239D01*
X155715718Y-99774998D01*
X155715718Y-99775001D01*
X155736355Y-99931760D01*
X155736356Y-99931762D01*
X155796864Y-100077842D01*
X155888785Y-100197635D01*
X155890583Y-100202287D01*
X155898755Y-100207607D01*
X156018559Y-100299536D01*
X156164638Y-100360044D01*
X156213593Y-100366489D01*
X156321399Y-100380682D01*
X156321400Y-100380682D01*
X156321401Y-100380682D01*
X156357108Y-100375980D01*
X156389218Y-100371753D01*
X156458253Y-100382518D01*
X156493085Y-100407011D01*
X156791281Y-100705207D01*
X156824766Y-100766530D01*
X156827600Y-100792888D01*
X156827600Y-101186312D01*
X156807915Y-101253351D01*
X156755111Y-101299106D01*
X156685953Y-101309050D01*
X156622397Y-101280025D01*
X156615919Y-101273993D01*
X155735597Y-100393671D01*
X155726205Y-100376471D01*
X155717285Y-100373265D01*
X155702728Y-100360802D01*
X155701969Y-100360043D01*
X155694419Y-100352493D01*
X155690774Y-100348514D01*
X155664756Y-100317506D01*
X155629693Y-100297262D01*
X155625130Y-100294355D01*
X155590704Y-100270249D01*
X155563452Y-100244161D01*
X155551141Y-100228117D01*
X155485382Y-100142418D01*
X155359941Y-100046164D01*
X155213862Y-99985656D01*
X155213860Y-99985655D01*
X155057101Y-99965018D01*
X155057099Y-99965018D01*
X154900339Y-99985655D01*
X154900337Y-99985656D01*
X154754260Y-100046163D01*
X154628818Y-100142418D01*
X154532563Y-100267860D01*
X154472056Y-100413937D01*
X154472055Y-100413939D01*
X154451418Y-100570698D01*
X154451418Y-100570701D01*
X154472055Y-100727460D01*
X154472056Y-100727462D01*
X154488238Y-100766530D01*
X154532564Y-100873541D01*
X154628818Y-100998982D01*
X154754259Y-101095236D01*
X154900338Y-101155744D01*
X154952488Y-101162609D01*
X155016384Y-101190875D01*
X155054856Y-101249199D01*
X155055688Y-101319064D01*
X155034680Y-101361033D01*
X154999364Y-101407058D01*
X154938856Y-101553137D01*
X154938855Y-101553139D01*
X154918218Y-101709898D01*
X154918218Y-101709901D01*
X154938855Y-101866660D01*
X154938856Y-101866662D01*
X154999364Y-102012741D01*
X155095618Y-102138182D01*
X155221059Y-102234436D01*
X155367138Y-102294944D01*
X155395448Y-102298671D01*
X155523899Y-102315582D01*
X155523900Y-102315582D01*
X155523901Y-102315582D01*
X155559608Y-102310880D01*
X155591718Y-102306653D01*
X155660753Y-102317418D01*
X155695585Y-102341911D01*
X155860381Y-102506707D01*
X155893866Y-102568030D01*
X155896700Y-102594388D01*
X155896700Y-108738925D01*
X155877015Y-108805964D01*
X155824211Y-108851719D01*
X155755053Y-108861663D01*
X155691497Y-108832638D01*
X155667607Y-108797944D01*
X155664816Y-108799557D01*
X155660281Y-108791703D01*
X155650615Y-108768368D01*
X155648354Y-108763519D01*
X155648353Y-108763518D01*
X155648353Y-108763516D01*
X155625133Y-108730354D01*
X155622235Y-108725804D01*
X155616039Y-108715073D01*
X155601994Y-108690745D01*
X155601991Y-108690742D01*
X155601990Y-108690741D01*
X155579015Y-108671463D01*
X155570982Y-108664722D01*
X155567010Y-108661083D01*
X154957219Y-108051292D01*
X154923734Y-107989969D01*
X154920900Y-107963611D01*
X154920900Y-107772621D01*
X154921136Y-107767217D01*
X154922213Y-107754906D01*
X154947663Y-107689837D01*
X155004253Y-107648857D01*
X155029552Y-107642771D01*
X155104962Y-107632844D01*
X155251041Y-107572336D01*
X155376482Y-107476082D01*
X155472736Y-107350641D01*
X155533244Y-107204562D01*
X155553882Y-107047800D01*
X155553264Y-107043109D01*
X155533244Y-106891039D01*
X155533244Y-106891038D01*
X155472736Y-106744959D01*
X155376482Y-106619518D01*
X155251041Y-106523264D01*
X155228120Y-106513770D01*
X155104962Y-106462756D01*
X155104960Y-106462755D01*
X154948201Y-106442118D01*
X154948199Y-106442118D01*
X154791439Y-106462755D01*
X154791437Y-106462756D01*
X154645360Y-106523263D01*
X154519918Y-106619518D01*
X154423776Y-106744813D01*
X154367348Y-106786015D01*
X154297601Y-106790170D01*
X154236681Y-106755957D01*
X154203929Y-106694240D01*
X154201400Y-106669326D01*
X154201400Y-102394998D01*
X154221085Y-102327959D01*
X154249910Y-102296625D01*
X154304182Y-102254982D01*
X154400436Y-102129541D01*
X154460944Y-101983462D01*
X154480343Y-101836109D01*
X154481582Y-101826701D01*
X154481582Y-101826698D01*
X154460944Y-101669939D01*
X154460944Y-101669938D01*
X154400436Y-101523859D01*
X154304182Y-101398418D01*
X154304180Y-101398416D01*
X154304179Y-101398415D01*
X154249912Y-101356774D01*
X154208710Y-101300346D01*
X154201400Y-101258399D01*
X154201400Y-93855720D01*
X154201636Y-93850313D01*
X154205164Y-93809993D01*
X154202268Y-93799186D01*
X154194682Y-93770876D01*
X154193516Y-93765618D01*
X154186488Y-93725755D01*
X154186486Y-93725752D01*
X154186486Y-93725750D01*
X154184660Y-93720733D01*
X154177720Y-93703976D01*
X154175454Y-93699119D01*
X154175454Y-93699116D01*
X154152239Y-93665962D01*
X154149333Y-93661399D01*
X154129096Y-93626348D01*
X154129095Y-93626347D01*
X154129094Y-93626345D01*
X154098077Y-93600318D01*
X154094093Y-93596667D01*
X153843492Y-93346066D01*
X153810007Y-93284743D01*
X153814991Y-93215051D01*
X153856863Y-93159118D01*
X153872712Y-93149031D01*
X154002450Y-93079685D01*
X154162410Y-92948410D01*
X154293685Y-92788450D01*
X154391232Y-92605954D01*
X154451300Y-92407934D01*
X154471583Y-92202000D01*
X154451300Y-91996066D01*
X154391232Y-91798046D01*
X154293685Y-91615550D01*
X154166164Y-91460164D01*
X154138852Y-91395854D01*
X154150643Y-91326987D01*
X154197796Y-91275427D01*
X154262018Y-91257500D01*
X155109982Y-91257500D01*
X155177021Y-91277185D01*
G37*
%TD.AperFunction*%
%TA.AperFunction,Conductor*%
G36*
X147876507Y-89452156D02*
G01*
X147836000Y-89590111D01*
X147836000Y-89733889D01*
X147876507Y-89871844D01*
X147902314Y-89912000D01*
X146229686Y-89912000D01*
X146255493Y-89871844D01*
X146296000Y-89733889D01*
X146296000Y-89590111D01*
X146255493Y-89452156D01*
X146229686Y-89412000D01*
X147902314Y-89412000D01*
X147876507Y-89452156D01*
G37*
%TD.AperFunction*%
%TA.AperFunction,Conductor*%
G36*
X175501513Y-84000575D02*
G01*
X175567131Y-84003797D01*
X175652481Y-84007990D01*
X175846607Y-84018164D01*
X175852409Y-84018745D01*
X176021733Y-84043862D01*
X176197594Y-84071716D01*
X176202929Y-84072804D01*
X176372209Y-84115206D01*
X176541341Y-84160525D01*
X176546122Y-84162018D01*
X176711894Y-84221332D01*
X176874263Y-84283660D01*
X176878543Y-84285492D01*
X176964073Y-84325944D01*
X177038476Y-84361134D01*
X177192992Y-84439864D01*
X177196720Y-84441928D01*
X177348967Y-84533180D01*
X177494262Y-84627537D01*
X177497428Y-84629736D01*
X177640323Y-84735714D01*
X177774975Y-84844752D01*
X177777594Y-84846997D01*
X177908517Y-84965658D01*
X177910721Y-84967757D01*
X178032241Y-85089277D01*
X178034340Y-85091481D01*
X178153001Y-85222404D01*
X178155246Y-85225023D01*
X178264285Y-85359676D01*
X178370262Y-85502570D01*
X178372461Y-85505736D01*
X178466822Y-85651038D01*
X178558070Y-85803278D01*
X178560133Y-85807006D01*
X178638868Y-85961529D01*
X178714506Y-86121455D01*
X178716342Y-86125746D01*
X178778672Y-86288120D01*
X178781996Y-86297409D01*
X178837970Y-86453847D01*
X178839479Y-86458678D01*
X178884793Y-86627790D01*
X178927191Y-86797056D01*
X178928286Y-86802424D01*
X178956145Y-86978317D01*
X178981250Y-87147560D01*
X178981836Y-87153416D01*
X178992011Y-87347561D01*
X178999425Y-87498488D01*
X178999500Y-87501530D01*
X178999500Y-132498469D01*
X178999425Y-132501511D01*
X178992011Y-132652438D01*
X178981836Y-132846582D01*
X178981250Y-132852438D01*
X178956145Y-133021682D01*
X178928286Y-133197574D01*
X178927191Y-133202942D01*
X178884793Y-133372209D01*
X178839479Y-133541320D01*
X178837967Y-133546163D01*
X178778672Y-133711879D01*
X178716342Y-133874252D01*
X178714507Y-133878543D01*
X178638868Y-134038470D01*
X178560133Y-134192992D01*
X178558070Y-134196720D01*
X178466822Y-134348961D01*
X178372461Y-134494262D01*
X178370262Y-134497428D01*
X178264285Y-134640323D01*
X178155245Y-134774975D01*
X178153001Y-134777594D01*
X178034340Y-134908517D01*
X178032241Y-134910721D01*
X177910721Y-135032241D01*
X177908517Y-135034340D01*
X177777594Y-135153001D01*
X177774975Y-135155245D01*
X177640323Y-135264285D01*
X177497428Y-135370262D01*
X177494262Y-135372461D01*
X177348961Y-135466822D01*
X177196720Y-135558070D01*
X177192992Y-135560133D01*
X177038470Y-135638868D01*
X176878543Y-135714507D01*
X176874252Y-135716342D01*
X176711879Y-135778672D01*
X176546163Y-135837967D01*
X176541320Y-135839479D01*
X176372209Y-135884793D01*
X176202942Y-135927191D01*
X176197574Y-135928286D01*
X176021682Y-135956145D01*
X175852438Y-135981250D01*
X175846582Y-135981836D01*
X175652438Y-135992011D01*
X175501513Y-135999425D01*
X175498470Y-135999500D01*
X122501530Y-135999500D01*
X122498488Y-135999425D01*
X122347561Y-135992011D01*
X122153416Y-135981836D01*
X122147560Y-135981250D01*
X121978317Y-135956145D01*
X121802424Y-135928286D01*
X121797056Y-135927191D01*
X121627790Y-135884793D01*
X121458678Y-135839479D01*
X121453847Y-135837970D01*
X121347307Y-135799850D01*
X121288120Y-135778672D01*
X121125746Y-135716342D01*
X121121455Y-135714506D01*
X120961529Y-135638868D01*
X120807006Y-135560133D01*
X120803278Y-135558070D01*
X120651038Y-135466822D01*
X120505736Y-135372461D01*
X120502570Y-135370262D01*
X120359676Y-135264285D01*
X120225023Y-135155246D01*
X120222404Y-135153001D01*
X120091481Y-135034340D01*
X120089277Y-135032241D01*
X119967757Y-134910721D01*
X119965658Y-134908517D01*
X119846997Y-134777594D01*
X119844752Y-134774975D01*
X119735714Y-134640323D01*
X119629736Y-134497428D01*
X119627537Y-134494262D01*
X119533177Y-134348961D01*
X119441928Y-134196720D01*
X119439864Y-134192992D01*
X119367649Y-134051262D01*
X119361131Y-134038470D01*
X119321174Y-133953987D01*
X119285492Y-133878543D01*
X119283656Y-133874252D01*
X119275210Y-133852250D01*
X119221327Y-133711879D01*
X119162018Y-133546122D01*
X119160525Y-133541341D01*
X119115206Y-133372209D01*
X119072804Y-133202929D01*
X119071716Y-133197594D01*
X119043854Y-133021682D01*
X119018745Y-132852409D01*
X119018164Y-132846607D01*
X119007989Y-132652438D01*
X119003797Y-132567131D01*
X119000575Y-132501513D01*
X119000538Y-132500000D01*
X120944706Y-132500000D01*
X120963853Y-132743297D01*
X120963853Y-132743300D01*
X120963854Y-132743302D01*
X121020827Y-132980609D01*
X121020830Y-132980619D01*
X121114222Y-133206089D01*
X121241737Y-133414173D01*
X121241738Y-133414176D01*
X121258198Y-133433448D01*
X121400241Y-133599759D01*
X121531505Y-133711869D01*
X121585823Y-133758261D01*
X121585826Y-133758262D01*
X121793911Y-133885777D01*
X121793910Y-133885777D01*
X121807542Y-133891423D01*
X121832044Y-133901572D01*
X121834258Y-133902555D01*
X121836127Y-133903263D01*
X122019388Y-133979172D01*
X122019389Y-133979172D01*
X122019391Y-133979173D01*
X122033134Y-133982472D01*
X122059260Y-133988744D01*
X122062017Y-133989474D01*
X122068057Y-133991223D01*
X122068061Y-133991225D01*
X122078290Y-133993313D01*
X122256698Y-134036146D01*
X122303995Y-134039868D01*
X122311542Y-134040932D01*
X122312864Y-134041202D01*
X122329414Y-134041868D01*
X122500000Y-134055294D01*
X122551386Y-134051249D01*
X122558730Y-134051109D01*
X122562514Y-134051262D01*
X122583293Y-134048738D01*
X122743302Y-134036146D01*
X122797465Y-134023142D01*
X122804439Y-134021887D01*
X122810544Y-134021146D01*
X122832268Y-134014853D01*
X122834972Y-134014137D01*
X122980612Y-133979172D01*
X123035940Y-133956254D01*
X123042404Y-133953987D01*
X123050532Y-133951633D01*
X123072788Y-133941072D01*
X123075497Y-133939869D01*
X123206089Y-133885777D01*
X123260830Y-133852231D01*
X123266604Y-133849104D01*
X123276261Y-133844523D01*
X123297464Y-133829886D01*
X123300241Y-133828080D01*
X123414179Y-133758259D01*
X123466309Y-133713735D01*
X123471306Y-133709892D01*
X123481885Y-133702591D01*
X123500901Y-133684324D01*
X123503493Y-133681976D01*
X123599759Y-133599759D01*
X123647157Y-133544262D01*
X123651349Y-133539817D01*
X123662079Y-133529512D01*
X123677953Y-133508386D01*
X123680325Y-133505427D01*
X123758259Y-133414179D01*
X123798786Y-133348044D01*
X123802044Y-133343252D01*
X123812176Y-133329770D01*
X123824315Y-133306639D01*
X123826306Y-133303136D01*
X123885777Y-133206089D01*
X123917238Y-133130133D01*
X123919601Y-133125088D01*
X123928288Y-133108537D01*
X123936346Y-133084399D01*
X123937846Y-133080381D01*
X123979172Y-132980612D01*
X123999488Y-132895990D01*
X124000947Y-132890894D01*
X124007408Y-132871543D01*
X124011343Y-132847326D01*
X124012229Y-132842918D01*
X124034538Y-132750001D01*
X132194818Y-132750001D01*
X132215455Y-132906760D01*
X132215456Y-132906762D01*
X132264063Y-133024111D01*
X132275964Y-133052841D01*
X132372218Y-133178282D01*
X132497659Y-133274536D01*
X132643738Y-133335044D01*
X132706084Y-133343252D01*
X132800499Y-133355682D01*
X132800500Y-133355682D01*
X132800501Y-133355682D01*
X132865231Y-133347160D01*
X132957262Y-133335044D01*
X133103341Y-133274536D01*
X133228782Y-133178282D01*
X133325036Y-133052841D01*
X133385544Y-132906762D01*
X133399533Y-132800501D01*
X133894318Y-132800501D01*
X133914955Y-132957260D01*
X133914956Y-132957262D01*
X133975464Y-133103341D01*
X134071718Y-133228782D01*
X134197159Y-133325036D01*
X134343238Y-133385544D01*
X134421619Y-133395863D01*
X134499999Y-133406182D01*
X134500000Y-133406182D01*
X134500001Y-133406182D01*
X134552254Y-133399302D01*
X134656762Y-133385544D01*
X134802841Y-133325036D01*
X134928282Y-133228782D01*
X135024536Y-133103341D01*
X135085044Y-132957262D01*
X135105682Y-132800500D01*
X135104123Y-132788661D01*
X135085044Y-132643739D01*
X135085044Y-132643738D01*
X135024536Y-132497659D01*
X134928282Y-132372218D01*
X134802841Y-132275964D01*
X134756338Y-132256702D01*
X134656762Y-132215456D01*
X134656760Y-132215455D01*
X134500001Y-132194818D01*
X134499999Y-132194818D01*
X134343239Y-132215455D01*
X134343237Y-132215456D01*
X134197160Y-132275963D01*
X134071718Y-132372218D01*
X133975463Y-132497660D01*
X133914956Y-132643737D01*
X133914955Y-132643739D01*
X133894318Y-132800498D01*
X133894318Y-132800501D01*
X133399533Y-132800501D01*
X133406182Y-132750000D01*
X133385544Y-132593238D01*
X133325036Y-132447159D01*
X133228782Y-132321718D01*
X133103341Y-132225464D01*
X133102042Y-132224926D01*
X132957262Y-132164956D01*
X132957260Y-132164955D01*
X132800501Y-132144318D01*
X132800499Y-132144318D01*
X132643739Y-132164955D01*
X132643737Y-132164956D01*
X132497660Y-132225463D01*
X132372218Y-132321718D01*
X132275963Y-132447160D01*
X132215456Y-132593237D01*
X132215455Y-132593239D01*
X132194818Y-132749998D01*
X132194818Y-132750001D01*
X124034538Y-132750001D01*
X124036146Y-132743302D01*
X124043361Y-132651623D01*
X124043973Y-132646547D01*
X124047487Y-132624926D01*
X124048146Y-132592153D01*
X124048324Y-132588560D01*
X124055294Y-132500000D01*
X124048323Y-132411433D01*
X124048146Y-132407842D01*
X124047487Y-132375074D01*
X124043972Y-132353446D01*
X124043360Y-132348367D01*
X124037662Y-132275964D01*
X124036146Y-132256698D01*
X124012239Y-132157123D01*
X124011335Y-132152620D01*
X124007408Y-132128457D01*
X124000955Y-132109129D01*
X123999482Y-132103987D01*
X123979172Y-132019388D01*
X123937858Y-131919648D01*
X123936335Y-131915568D01*
X123928288Y-131891463D01*
X123919609Y-131874927D01*
X123917238Y-131869867D01*
X123885777Y-131793911D01*
X123826308Y-131696867D01*
X123824308Y-131693346D01*
X123812176Y-131670230D01*
X123802066Y-131656776D01*
X123798766Y-131651923D01*
X123774823Y-131612852D01*
X123758259Y-131585821D01*
X123680341Y-131494591D01*
X123677944Y-131491601D01*
X123662079Y-131470488D01*
X123651354Y-131460186D01*
X123647156Y-131455735D01*
X123599759Y-131400241D01*
X123505808Y-131319999D01*
X130274290Y-131319999D01*
X130294248Y-131471591D01*
X130294249Y-131471595D01*
X130352758Y-131612851D01*
X130352759Y-131612852D01*
X130352760Y-131612854D01*
X130445841Y-131734159D01*
X130567146Y-131827240D01*
X130708408Y-131885752D01*
X130821939Y-131900699D01*
X130821946Y-131900699D01*
X130898056Y-131900699D01*
X130898063Y-131900699D01*
X131011594Y-131885752D01*
X131152856Y-131827240D01*
X131274161Y-131734159D01*
X131367242Y-131612855D01*
X131425754Y-131471592D01*
X131445712Y-131319999D01*
X136054288Y-131319999D01*
X136074246Y-131471591D01*
X136074247Y-131471595D01*
X136132756Y-131612851D01*
X136132757Y-131612852D01*
X136132758Y-131612854D01*
X136225839Y-131734159D01*
X136347144Y-131827240D01*
X136488406Y-131885752D01*
X136601937Y-131900699D01*
X136601944Y-131900699D01*
X136678054Y-131900699D01*
X136678061Y-131900699D01*
X136791592Y-131885752D01*
X136932854Y-131827240D01*
X137054159Y-131734159D01*
X137147240Y-131612855D01*
X137205752Y-131471592D01*
X137225710Y-131319999D01*
X137205752Y-131168406D01*
X137147240Y-131027144D01*
X137054159Y-130905839D01*
X136932854Y-130812758D01*
X136932853Y-130812757D01*
X136932851Y-130812756D01*
X136791595Y-130754247D01*
X136791593Y-130754246D01*
X136791592Y-130754246D01*
X136766362Y-130750924D01*
X136678068Y-130739299D01*
X136678061Y-130739299D01*
X136601937Y-130739299D01*
X136601929Y-130739299D01*
X136501020Y-130752585D01*
X136488406Y-130754246D01*
X136488405Y-130754246D01*
X136488402Y-130754247D01*
X136347146Y-130812756D01*
X136291777Y-130855243D01*
X136225839Y-130905839D01*
X136225838Y-130905840D01*
X136225837Y-130905841D01*
X136132756Y-131027145D01*
X136074247Y-131168402D01*
X136074246Y-131168406D01*
X136054288Y-131319998D01*
X136054288Y-131319999D01*
X131445712Y-131319999D01*
X131425754Y-131168406D01*
X131367242Y-131027144D01*
X131274161Y-130905839D01*
X131152856Y-130812758D01*
X131152855Y-130812757D01*
X131152853Y-130812756D01*
X131011597Y-130754247D01*
X131011595Y-130754246D01*
X131011594Y-130754246D01*
X130986364Y-130750924D01*
X130898070Y-130739299D01*
X130898063Y-130739299D01*
X130821939Y-130739299D01*
X130821931Y-130739299D01*
X130721022Y-130752585D01*
X130708408Y-130754246D01*
X130708407Y-130754246D01*
X130708404Y-130754247D01*
X130567148Y-130812756D01*
X130511779Y-130855243D01*
X130445841Y-130905839D01*
X130445840Y-130905840D01*
X130445839Y-130905841D01*
X130352758Y-131027145D01*
X130294249Y-131168402D01*
X130294248Y-131168406D01*
X130274290Y-131319998D01*
X130274290Y-131319999D01*
X123505808Y-131319999D01*
X123503513Y-131318039D01*
X123500885Y-131315659D01*
X123481885Y-131297409D01*
X123477219Y-131294188D01*
X123471333Y-131290125D01*
X123466287Y-131286245D01*
X123414179Y-131241741D01*
X123414170Y-131241734D01*
X123300273Y-131171938D01*
X123297450Y-131170101D01*
X123276264Y-131155478D01*
X123276260Y-131155476D01*
X123266608Y-131150895D01*
X123260796Y-131147746D01*
X123228206Y-131127776D01*
X123206089Y-131114223D01*
X123206083Y-131114220D01*
X123206077Y-131114217D01*
X123075569Y-131060160D01*
X123072716Y-131058893D01*
X123050533Y-131048367D01*
X123050519Y-131048362D01*
X123042406Y-131046011D01*
X123035933Y-131043741D01*
X122980622Y-131020831D01*
X122980606Y-131020826D01*
X122835002Y-130985868D01*
X122832231Y-130985134D01*
X122810547Y-130978855D01*
X122810548Y-130978855D01*
X122810544Y-130978854D01*
X122810536Y-130978853D01*
X122810525Y-130978851D01*
X122804427Y-130978109D01*
X122797437Y-130976850D01*
X122743302Y-130963854D01*
X122583297Y-130951261D01*
X122562525Y-130948739D01*
X122562520Y-130948738D01*
X122562514Y-130948738D01*
X122562508Y-130948738D01*
X122562504Y-130948738D01*
X122558731Y-130948890D01*
X122551376Y-130948748D01*
X122500000Y-130944706D01*
X122329417Y-130958130D01*
X122312869Y-130958797D01*
X122312833Y-130958801D01*
X122311503Y-130959073D01*
X122303988Y-130960131D01*
X122256706Y-130963853D01*
X122256701Y-130963853D01*
X122256698Y-130963854D01*
X122256695Y-130963854D01*
X122256693Y-130963855D01*
X122078287Y-131006687D01*
X122068059Y-131008775D01*
X122062015Y-131010525D01*
X122059247Y-131011258D01*
X122019390Y-131020827D01*
X122019385Y-131020828D01*
X121836127Y-131096736D01*
X121834250Y-131097448D01*
X121832041Y-131098428D01*
X121793910Y-131114223D01*
X121793904Y-131114226D01*
X121585826Y-131241737D01*
X121585823Y-131241738D01*
X121400241Y-131400241D01*
X121241738Y-131585823D01*
X121241737Y-131585826D01*
X121114222Y-131793910D01*
X121020830Y-132019380D01*
X120963853Y-132256702D01*
X120944706Y-132500000D01*
X119000538Y-132500000D01*
X119000500Y-132498471D01*
X119000500Y-120635000D01*
X123294417Y-120635000D01*
X123314699Y-120840932D01*
X123314700Y-120840934D01*
X123374768Y-121038954D01*
X123472315Y-121221450D01*
X123487256Y-121239656D01*
X123603589Y-121381410D01*
X123698640Y-121459415D01*
X123763550Y-121512685D01*
X123946046Y-121610232D01*
X124144066Y-121670300D01*
X124144065Y-121670300D01*
X124182647Y-121674100D01*
X124298392Y-121685500D01*
X124298395Y-121685500D01*
X124701605Y-121685500D01*
X124701608Y-121685500D01*
X124855934Y-121670300D01*
X125053954Y-121610232D01*
X125236450Y-121512685D01*
X125396410Y-121381410D01*
X125527685Y-121221450D01*
X125625232Y-121038954D01*
X125685300Y-120840934D01*
X125705583Y-120635000D01*
X125685300Y-120429066D01*
X125625232Y-120231046D01*
X125534875Y-120062001D01*
X129299518Y-120062001D01*
X129320155Y-120218760D01*
X129320156Y-120218762D01*
X129355705Y-120304586D01*
X129380664Y-120364841D01*
X129476918Y-120490282D01*
X129602359Y-120586536D01*
X129748438Y-120647044D01*
X129826819Y-120657363D01*
X129905199Y-120667682D01*
X129905200Y-120667682D01*
X129905201Y-120667682D01*
X129957454Y-120660802D01*
X130061962Y-120647044D01*
X130208041Y-120586536D01*
X130333482Y-120490282D01*
X130429736Y-120364841D01*
X130490244Y-120218762D01*
X130510882Y-120062000D01*
X130509111Y-120048550D01*
X130490244Y-119905239D01*
X130490244Y-119905238D01*
X130429736Y-119759159D01*
X130333482Y-119633718D01*
X130208041Y-119537464D01*
X130129574Y-119504962D01*
X130061962Y-119476956D01*
X130061960Y-119476955D01*
X129905201Y-119456318D01*
X129905199Y-119456318D01*
X129748439Y-119476955D01*
X129748437Y-119476956D01*
X129602360Y-119537463D01*
X129476918Y-119633718D01*
X129380663Y-119759160D01*
X129320156Y-119905237D01*
X129320155Y-119905239D01*
X129299518Y-120061998D01*
X129299518Y-120062001D01*
X125534875Y-120062001D01*
X125527685Y-120048550D01*
X125475702Y-119985209D01*
X125396410Y-119888589D01*
X125236452Y-119757317D01*
X125236453Y-119757317D01*
X125236450Y-119757315D01*
X125053954Y-119659768D01*
X124855934Y-119599700D01*
X124855932Y-119599699D01*
X124855934Y-119599699D01*
X124736805Y-119587966D01*
X124701608Y-119584500D01*
X124298392Y-119584500D01*
X124260298Y-119588251D01*
X124144067Y-119599699D01*
X123946043Y-119659769D01*
X123892517Y-119688380D01*
X123763550Y-119757315D01*
X123763548Y-119757316D01*
X123763547Y-119757317D01*
X123603589Y-119888589D01*
X123472317Y-120048547D01*
X123472315Y-120048550D01*
X123433643Y-120120898D01*
X123374769Y-120231043D01*
X123314699Y-120429067D01*
X123294417Y-120635000D01*
X119000500Y-120635000D01*
X119000500Y-118789269D01*
X123299500Y-118789269D01*
X123302353Y-118819699D01*
X123302353Y-118819701D01*
X123345083Y-118941812D01*
X123347207Y-118947882D01*
X123427850Y-119057150D01*
X123537118Y-119137793D01*
X123570269Y-119149393D01*
X123665299Y-119182646D01*
X123695730Y-119185500D01*
X123695734Y-119185500D01*
X125304270Y-119185500D01*
X125334699Y-119182646D01*
X125334701Y-119182646D01*
X125398790Y-119160219D01*
X125462882Y-119137793D01*
X125572150Y-119057150D01*
X125652793Y-118947882D01*
X125686871Y-118850493D01*
X125697646Y-118819701D01*
X125697646Y-118819699D01*
X125700500Y-118789269D01*
X125700500Y-118584500D01*
X125720185Y-118517461D01*
X125772989Y-118471706D01*
X125824500Y-118460500D01*
X131947512Y-118460500D01*
X132014551Y-118480185D01*
X132035193Y-118496819D01*
X136806468Y-123268095D01*
X136810123Y-123272084D01*
X136836141Y-123303090D01*
X136836143Y-123303091D01*
X136836145Y-123303094D01*
X136871205Y-123323335D01*
X136875759Y-123326237D01*
X136908916Y-123349454D01*
X136908919Y-123349454D01*
X136913776Y-123351720D01*
X136930533Y-123358660D01*
X136935553Y-123360487D01*
X136935555Y-123360488D01*
X136975430Y-123367518D01*
X136980687Y-123368684D01*
X137019793Y-123379163D01*
X137060110Y-123375635D01*
X137065512Y-123375400D01*
X146712401Y-123375400D01*
X146779440Y-123395085D01*
X146810777Y-123423914D01*
X146829885Y-123448817D01*
X146852418Y-123478182D01*
X146977859Y-123574436D01*
X147123938Y-123634944D01*
X147202319Y-123645263D01*
X147280699Y-123655582D01*
X147280700Y-123655582D01*
X147280701Y-123655582D01*
X147332954Y-123648702D01*
X147437462Y-123634944D01*
X147583541Y-123574436D01*
X147708982Y-123478182D01*
X147805236Y-123352741D01*
X147865744Y-123206662D01*
X147886382Y-123049900D01*
X147883709Y-123029600D01*
X147865744Y-122893139D01*
X147865744Y-122893138D01*
X147805236Y-122747059D01*
X147708982Y-122621618D01*
X147583541Y-122525364D01*
X147520974Y-122499448D01*
X147437462Y-122464856D01*
X147437460Y-122464855D01*
X147280701Y-122444218D01*
X147280699Y-122444218D01*
X147123939Y-122464855D01*
X147123937Y-122464856D01*
X146977860Y-122525363D01*
X146852416Y-122621619D01*
X146810777Y-122675886D01*
X146754349Y-122717089D01*
X146712401Y-122724400D01*
X137234789Y-122724400D01*
X137167750Y-122704715D01*
X137147108Y-122688081D01*
X136808828Y-122349801D01*
X151459718Y-122349801D01*
X151480355Y-122506560D01*
X151480356Y-122506562D01*
X151522563Y-122608460D01*
X151540864Y-122652641D01*
X151637118Y-122778082D01*
X151762559Y-122874336D01*
X151908638Y-122934844D01*
X151987019Y-122945163D01*
X152065399Y-122955482D01*
X152065400Y-122955482D01*
X152065401Y-122955482D01*
X152117654Y-122948602D01*
X152222162Y-122934844D01*
X152368241Y-122874336D01*
X152493682Y-122778082D01*
X152589936Y-122652641D01*
X152650444Y-122506562D01*
X152671082Y-122349800D01*
X152667641Y-122323666D01*
X152654291Y-122222261D01*
X152650444Y-122193038D01*
X152589936Y-122046959D01*
X152493682Y-121921518D01*
X152368241Y-121825264D01*
X152222162Y-121764756D01*
X152222160Y-121764755D01*
X152065401Y-121744118D01*
X152065399Y-121744118D01*
X151908639Y-121764755D01*
X151908637Y-121764756D01*
X151762560Y-121825263D01*
X151637118Y-121921518D01*
X151540863Y-122046960D01*
X151480356Y-122193037D01*
X151480355Y-122193039D01*
X151459718Y-122349798D01*
X151459718Y-122349801D01*
X136808828Y-122349801D01*
X134949308Y-120490281D01*
X132706273Y-118247247D01*
X132672789Y-118185925D01*
X132677773Y-118116233D01*
X132719645Y-118060300D01*
X132777770Y-118036628D01*
X132831350Y-118029574D01*
X132933362Y-118016144D01*
X133079441Y-117955636D01*
X133204882Y-117859382D01*
X133301136Y-117733941D01*
X133361644Y-117587862D01*
X133382282Y-117431100D01*
X133361644Y-117274338D01*
X133301136Y-117128259D01*
X133204882Y-117002818D01*
X133204879Y-117002815D01*
X133204877Y-117002813D01*
X133199135Y-116997071D01*
X133201408Y-116994797D01*
X133169101Y-116950553D01*
X133164944Y-116880807D01*
X133199155Y-116819886D01*
X133210303Y-116810226D01*
X133231082Y-116794282D01*
X133327336Y-116668841D01*
X133387844Y-116522762D01*
X133408482Y-116366000D01*
X133402597Y-116321301D01*
X134514418Y-116321301D01*
X134535055Y-116478060D01*
X134535056Y-116478062D01*
X134553570Y-116522760D01*
X134595564Y-116624141D01*
X134691818Y-116749582D01*
X134817259Y-116845836D01*
X134963338Y-116906344D01*
X135008419Y-116912279D01*
X135120099Y-116926982D01*
X135120100Y-116926982D01*
X135120101Y-116926982D01*
X135200858Y-116916350D01*
X135276862Y-116906344D01*
X135422941Y-116845836D01*
X135548382Y-116749582D01*
X135644636Y-116624141D01*
X135705144Y-116478062D01*
X135725782Y-116321300D01*
X135725284Y-116317520D01*
X135711029Y-116209237D01*
X135705144Y-116164538D01*
X135644636Y-116018459D01*
X135548382Y-115893018D01*
X135422941Y-115796764D01*
X135407352Y-115790307D01*
X135276862Y-115736256D01*
X135276860Y-115736255D01*
X135120101Y-115715618D01*
X135120099Y-115715618D01*
X134963339Y-115736255D01*
X134963337Y-115736256D01*
X134817260Y-115796763D01*
X134691818Y-115893018D01*
X134595563Y-116018460D01*
X134535056Y-116164537D01*
X134535055Y-116164539D01*
X134514418Y-116321298D01*
X134514418Y-116321301D01*
X133402597Y-116321301D01*
X133387844Y-116209238D01*
X133327336Y-116063159D01*
X133231082Y-115937718D01*
X133105641Y-115841464D01*
X133089287Y-115834690D01*
X132959562Y-115780956D01*
X132959560Y-115780955D01*
X132802801Y-115760318D01*
X132802799Y-115760318D01*
X132646039Y-115780955D01*
X132646037Y-115780956D01*
X132499960Y-115841463D01*
X132374518Y-115937718D01*
X132278263Y-116063160D01*
X132217756Y-116209237D01*
X132217755Y-116209239D01*
X132197118Y-116365998D01*
X132197118Y-116366001D01*
X132217755Y-116522760D01*
X132217756Y-116522762D01*
X132278264Y-116668841D01*
X132374518Y-116794282D01*
X132374520Y-116794283D01*
X132374522Y-116794286D01*
X132380265Y-116800029D01*
X132377996Y-116802297D01*
X132410318Y-116846602D01*
X132414442Y-116916350D01*
X132380202Y-116977255D01*
X132369098Y-116986872D01*
X132348321Y-117002815D01*
X132348319Y-117002816D01*
X132348318Y-117002818D01*
X132285641Y-117084500D01*
X132252063Y-117128260D01*
X132191556Y-117274337D01*
X132191555Y-117274339D01*
X132170918Y-117431098D01*
X132170918Y-117431101D01*
X132191555Y-117587860D01*
X132191556Y-117587862D01*
X132212344Y-117638049D01*
X132219813Y-117707516D01*
X132188538Y-117769995D01*
X132128450Y-117805648D01*
X132097783Y-117809500D01*
X125824500Y-117809500D01*
X125757461Y-117789815D01*
X125711706Y-117737011D01*
X125700500Y-117685500D01*
X125700500Y-117480730D01*
X125697646Y-117450300D01*
X125697646Y-117450298D01*
X125652793Y-117322119D01*
X125652792Y-117322117D01*
X125623879Y-117282941D01*
X125572150Y-117212850D01*
X125462882Y-117132207D01*
X125462880Y-117132206D01*
X125334700Y-117087353D01*
X125304270Y-117084500D01*
X125304266Y-117084500D01*
X123695734Y-117084500D01*
X123695730Y-117084500D01*
X123665300Y-117087353D01*
X123665298Y-117087353D01*
X123537119Y-117132206D01*
X123537117Y-117132207D01*
X123427850Y-117212850D01*
X123347207Y-117322117D01*
X123347206Y-117322119D01*
X123302353Y-117450298D01*
X123302353Y-117450300D01*
X123299500Y-117480730D01*
X123299500Y-118789269D01*
X119000500Y-118789269D01*
X119000500Y-114727301D01*
X145361618Y-114727301D01*
X145382255Y-114884060D01*
X145382256Y-114884062D01*
X145436426Y-115014841D01*
X145442764Y-115030141D01*
X145539018Y-115155582D01*
X145664459Y-115251836D01*
X145810538Y-115312344D01*
X145888919Y-115322663D01*
X145967299Y-115332982D01*
X145967300Y-115332982D01*
X145967301Y-115332982D01*
X146019554Y-115326102D01*
X146124062Y-115312344D01*
X146270141Y-115251836D01*
X146395582Y-115155582D01*
X146491836Y-115030141D01*
X146552344Y-114884062D01*
X146572982Y-114727300D01*
X146572856Y-114726346D01*
X146556093Y-114599017D01*
X146552344Y-114570538D01*
X146491836Y-114424459D01*
X146395582Y-114299018D01*
X146270141Y-114202764D01*
X146261778Y-114199300D01*
X146124062Y-114142256D01*
X146124060Y-114142255D01*
X145967301Y-114121618D01*
X145967299Y-114121618D01*
X145810539Y-114142255D01*
X145810537Y-114142256D01*
X145664460Y-114202763D01*
X145539018Y-114299018D01*
X145442763Y-114424460D01*
X145382256Y-114570537D01*
X145382255Y-114570539D01*
X145361618Y-114727298D01*
X145361618Y-114727301D01*
X119000500Y-114727301D01*
X119000500Y-113973201D01*
X130595718Y-113973201D01*
X130616355Y-114129960D01*
X130616356Y-114129962D01*
X130662996Y-114242562D01*
X130676864Y-114276041D01*
X130773118Y-114401482D01*
X130898559Y-114497736D01*
X131044638Y-114558244D01*
X131123019Y-114568563D01*
X131201399Y-114578882D01*
X131201400Y-114578882D01*
X131201401Y-114578882D01*
X131253654Y-114572002D01*
X131358162Y-114558244D01*
X131504241Y-114497736D01*
X131629682Y-114401482D01*
X131725936Y-114276041D01*
X131786444Y-114129962D01*
X131807082Y-113973200D01*
X131786444Y-113816438D01*
X131725936Y-113670359D01*
X131629682Y-113544918D01*
X131504241Y-113448664D01*
X131358162Y-113388156D01*
X131358160Y-113388155D01*
X131201401Y-113367518D01*
X131201399Y-113367518D01*
X131044639Y-113388155D01*
X131044637Y-113388156D01*
X130898560Y-113448663D01*
X130773118Y-113544918D01*
X130676863Y-113670360D01*
X130616356Y-113816437D01*
X130616355Y-113816439D01*
X130595718Y-113973198D01*
X130595718Y-113973201D01*
X119000500Y-113973201D01*
X119000500Y-109113801D01*
X139274118Y-109113801D01*
X139294755Y-109270560D01*
X139294756Y-109270562D01*
X139347851Y-109398746D01*
X139355264Y-109416641D01*
X139451518Y-109542082D01*
X139576959Y-109638336D01*
X139723038Y-109698844D01*
X139767238Y-109704663D01*
X139879799Y-109719482D01*
X139879800Y-109719482D01*
X139879801Y-109719482D01*
X139975218Y-109706920D01*
X140036562Y-109698844D01*
X140182641Y-109638336D01*
X140308082Y-109542082D01*
X140404336Y-109416641D01*
X140464844Y-109270562D01*
X140481421Y-109144646D01*
X140485482Y-109113801D01*
X140485482Y-109113799D01*
X140476553Y-109045980D01*
X140487318Y-108976945D01*
X140511808Y-108942116D01*
X140934210Y-108519715D01*
X140938172Y-108516084D01*
X140969194Y-108490055D01*
X140989444Y-108454978D01*
X140992333Y-108450445D01*
X141015553Y-108417284D01*
X141015555Y-108417276D01*
X141017816Y-108412428D01*
X141024754Y-108395679D01*
X141026583Y-108390652D01*
X141026588Y-108390645D01*
X141033622Y-108350747D01*
X141034779Y-108345529D01*
X141045263Y-108306407D01*
X141041735Y-108266089D01*
X141041500Y-108260686D01*
X141041500Y-93376500D01*
X141061185Y-93309461D01*
X141113989Y-93263706D01*
X141165500Y-93252500D01*
X141585750Y-93252500D01*
X141585751Y-93252499D01*
X141600568Y-93249552D01*
X141644229Y-93240868D01*
X141644229Y-93240867D01*
X141644231Y-93240867D01*
X141710552Y-93196552D01*
X141754867Y-93130231D01*
X141754867Y-93130229D01*
X141754868Y-93130229D01*
X141766499Y-93071752D01*
X141766500Y-93071750D01*
X141766500Y-91332249D01*
X141766499Y-91332247D01*
X141754868Y-91273770D01*
X141754867Y-91273769D01*
X141710552Y-91207447D01*
X141644230Y-91163132D01*
X141644229Y-91163131D01*
X141585752Y-91151500D01*
X141585748Y-91151500D01*
X139846252Y-91151500D01*
X139846247Y-91151500D01*
X139787770Y-91163131D01*
X139787769Y-91163132D01*
X139721447Y-91207447D01*
X139677132Y-91273769D01*
X139677131Y-91273770D01*
X139665500Y-91332247D01*
X139665500Y-93071752D01*
X139677131Y-93130229D01*
X139677132Y-93130230D01*
X139721447Y-93196552D01*
X139787769Y-93240867D01*
X139787770Y-93240868D01*
X139846247Y-93252499D01*
X139846250Y-93252500D01*
X139846252Y-93252500D01*
X140266500Y-93252500D01*
X140333539Y-93272185D01*
X140379294Y-93324989D01*
X140390500Y-93376500D01*
X140390500Y-108091411D01*
X140370815Y-108158450D01*
X140354181Y-108179092D01*
X140051484Y-108481788D01*
X139990161Y-108515273D01*
X139947618Y-108517046D01*
X139879801Y-108508118D01*
X139879799Y-108508118D01*
X139723039Y-108528755D01*
X139723037Y-108528756D01*
X139576960Y-108589263D01*
X139451518Y-108685518D01*
X139355263Y-108810960D01*
X139294756Y-108957037D01*
X139294755Y-108957039D01*
X139274118Y-109113798D01*
X139274118Y-109113801D01*
X119000500Y-109113801D01*
X119000500Y-103750003D01*
X122344435Y-103750003D01*
X122364630Y-103929249D01*
X122364631Y-103929254D01*
X122424211Y-104099523D01*
X122479407Y-104187366D01*
X122520184Y-104252262D01*
X122647738Y-104379816D01*
X122738080Y-104436582D01*
X122782344Y-104464395D01*
X122800478Y-104475789D01*
X122923242Y-104518746D01*
X122970745Y-104535368D01*
X122970750Y-104535369D01*
X123061246Y-104545565D01*
X123105040Y-104550499D01*
X123105043Y-104550500D01*
X123105046Y-104550500D01*
X124394957Y-104550500D01*
X124394958Y-104550499D01*
X124462104Y-104542934D01*
X124529249Y-104535369D01*
X124529252Y-104535368D01*
X124529255Y-104535368D01*
X124699522Y-104475789D01*
X124852262Y-104379816D01*
X124979816Y-104252262D01*
X125075789Y-104099522D01*
X125135368Y-103929255D01*
X125146144Y-103833613D01*
X125155565Y-103750003D01*
X125155565Y-103749996D01*
X125135369Y-103570750D01*
X125135368Y-103570745D01*
X125097421Y-103462300D01*
X125075789Y-103400478D01*
X125074197Y-103397945D01*
X125021265Y-103313704D01*
X124979816Y-103247738D01*
X124852262Y-103120184D01*
X124794709Y-103084021D01*
X124699523Y-103024211D01*
X124529254Y-102964631D01*
X124529249Y-102964630D01*
X124394960Y-102949500D01*
X124394954Y-102949500D01*
X123105046Y-102949500D01*
X123105039Y-102949500D01*
X122970750Y-102964630D01*
X122970745Y-102964631D01*
X122800476Y-103024211D01*
X122647737Y-103120184D01*
X122520184Y-103247737D01*
X122424211Y-103400476D01*
X122364631Y-103570745D01*
X122364630Y-103570750D01*
X122344435Y-103749996D01*
X122344435Y-103750003D01*
X119000500Y-103750003D01*
X119000500Y-100950000D01*
X122790882Y-100950000D01*
X122809310Y-101137115D01*
X122809311Y-101137117D01*
X122863891Y-101317040D01*
X122952518Y-101482851D01*
X122952523Y-101482857D01*
X123071800Y-101628199D01*
X123217142Y-101747476D01*
X123217148Y-101747481D01*
X123365354Y-101826698D01*
X123382961Y-101836109D01*
X123562882Y-101890688D01*
X123562884Y-101890689D01*
X123579660Y-101892341D01*
X123750000Y-101909118D01*
X123937115Y-101890689D01*
X124117039Y-101836109D01*
X124178373Y-101803324D01*
X124282851Y-101747481D01*
X124282853Y-101747478D01*
X124282857Y-101747477D01*
X124428199Y-101628199D01*
X124547477Y-101482857D01*
X124547478Y-101482853D01*
X124547481Y-101482851D01*
X124603324Y-101378373D01*
X124636109Y-101317039D01*
X124690689Y-101137115D01*
X124709118Y-100950000D01*
X124690689Y-100762885D01*
X124636109Y-100582961D01*
X124616674Y-100546601D01*
X124547481Y-100417148D01*
X124547476Y-100417142D01*
X124544847Y-100413939D01*
X124501240Y-100360802D01*
X124428199Y-100271800D01*
X124282857Y-100152523D01*
X124282851Y-100152518D01*
X124117040Y-100063891D01*
X123937117Y-100009311D01*
X123937115Y-100009310D01*
X123750000Y-99990882D01*
X123562884Y-100009310D01*
X123562882Y-100009311D01*
X123382959Y-100063891D01*
X123217148Y-100152518D01*
X123217142Y-100152523D01*
X123071800Y-100271800D01*
X122952523Y-100417142D01*
X122952518Y-100417148D01*
X122863891Y-100582959D01*
X122809311Y-100762882D01*
X122809310Y-100762884D01*
X122790882Y-100950000D01*
X119000500Y-100950000D01*
X119000500Y-97950000D01*
X122790882Y-97950000D01*
X122809310Y-98137115D01*
X122809311Y-98137117D01*
X122863891Y-98317040D01*
X122952518Y-98482851D01*
X122952523Y-98482857D01*
X123071800Y-98628199D01*
X123217142Y-98747476D01*
X123217148Y-98747481D01*
X123382959Y-98836108D01*
X123382961Y-98836109D01*
X123562882Y-98890688D01*
X123562884Y-98890689D01*
X123579660Y-98892341D01*
X123750000Y-98909118D01*
X123937115Y-98890689D01*
X124117039Y-98836109D01*
X124178373Y-98803324D01*
X124282851Y-98747481D01*
X124282853Y-98747478D01*
X124282857Y-98747477D01*
X124428199Y-98628199D01*
X124547477Y-98482857D01*
X124547478Y-98482853D01*
X124547481Y-98482851D01*
X124636108Y-98317040D01*
X124636109Y-98317039D01*
X124690689Y-98137115D01*
X124709118Y-97950000D01*
X124690689Y-97762885D01*
X124644010Y-97609010D01*
X124643387Y-97539144D01*
X124674988Y-97485336D01*
X131512322Y-90648003D01*
X131573641Y-90614521D01*
X131643333Y-90619505D01*
X131687680Y-90648006D01*
X131757863Y-90718189D01*
X131761518Y-90722178D01*
X131787541Y-90753190D01*
X131787543Y-90753191D01*
X131787545Y-90753194D01*
X131787547Y-90753195D01*
X131787548Y-90753196D01*
X131822599Y-90773433D01*
X131827162Y-90776339D01*
X131860316Y-90799554D01*
X131860319Y-90799554D01*
X131865176Y-90801820D01*
X131881933Y-90808760D01*
X131886953Y-90810587D01*
X131886955Y-90810588D01*
X131926830Y-90817618D01*
X131932087Y-90818784D01*
X131971193Y-90829263D01*
X132011510Y-90825735D01*
X132016912Y-90825500D01*
X135104078Y-90825500D01*
X135109481Y-90825735D01*
X135149807Y-90829264D01*
X135188940Y-90818777D01*
X135194162Y-90817619D01*
X135234045Y-90810588D01*
X135234050Y-90810584D01*
X135239099Y-90808747D01*
X135255824Y-90801819D01*
X135260681Y-90799554D01*
X135260684Y-90799554D01*
X135293841Y-90776335D01*
X135298390Y-90773438D01*
X135333455Y-90753194D01*
X135333459Y-90753190D01*
X135359476Y-90722182D01*
X135363122Y-90718202D01*
X137246808Y-88834519D01*
X137308131Y-88801034D01*
X137334489Y-88798200D01*
X139803754Y-88798200D01*
X139870793Y-88817885D01*
X139916548Y-88870689D01*
X139926492Y-88939847D01*
X139899607Y-89000865D01*
X139838317Y-89075546D01*
X139740769Y-89258043D01*
X139680699Y-89456067D01*
X139660417Y-89662000D01*
X139680699Y-89867932D01*
X139703680Y-89943690D01*
X139740768Y-90065954D01*
X139838315Y-90248450D01*
X139865989Y-90282171D01*
X139969589Y-90408410D01*
X140038366Y-90464853D01*
X140129550Y-90539685D01*
X140312046Y-90637232D01*
X140510066Y-90697300D01*
X140510065Y-90697300D01*
X140528529Y-90699118D01*
X140716000Y-90717583D01*
X140921934Y-90697300D01*
X141119954Y-90637232D01*
X141302450Y-90539685D01*
X141462410Y-90408410D01*
X141533731Y-90321503D01*
X141591472Y-90282171D01*
X141661317Y-90280300D01*
X141717263Y-90312489D01*
X142461863Y-91057089D01*
X142465518Y-91061078D01*
X142491541Y-91092090D01*
X142491543Y-91092091D01*
X142491545Y-91092094D01*
X142491547Y-91092095D01*
X142491548Y-91092096D01*
X142526599Y-91112333D01*
X142531162Y-91115239D01*
X142564316Y-91138454D01*
X142564319Y-91138454D01*
X142569176Y-91140720D01*
X142585925Y-91147657D01*
X142588582Y-91148624D01*
X142588996Y-91148929D01*
X142592499Y-91150380D01*
X142600350Y-91154913D01*
X142599387Y-91156579D01*
X142644849Y-91190047D01*
X142669789Y-91255313D01*
X142655484Y-91323703D01*
X142624845Y-91361002D01*
X142509590Y-91455589D01*
X142378891Y-91614848D01*
X142378315Y-91615550D01*
X142350485Y-91667616D01*
X142280769Y-91798043D01*
X142220699Y-91996067D01*
X142200417Y-92202000D01*
X142220699Y-92407932D01*
X142220700Y-92407934D01*
X142280768Y-92605954D01*
X142378315Y-92788450D01*
X142378317Y-92788452D01*
X142509589Y-92948410D01*
X142552708Y-92983796D01*
X142669550Y-93079685D01*
X142852046Y-93177232D01*
X143050066Y-93237300D01*
X143050065Y-93237300D01*
X143068529Y-93239118D01*
X143256000Y-93257583D01*
X143461934Y-93237300D01*
X143659954Y-93177232D01*
X143842450Y-93079685D01*
X143982135Y-92965048D01*
X144046445Y-92937736D01*
X144115313Y-92949527D01*
X144166873Y-92996679D01*
X144184800Y-93060902D01*
X144184800Y-108663711D01*
X144165115Y-108730750D01*
X144148481Y-108751392D01*
X143790484Y-109109388D01*
X143729161Y-109142873D01*
X143686618Y-109144646D01*
X143618801Y-109135718D01*
X143618799Y-109135718D01*
X143462039Y-109156355D01*
X143462037Y-109156356D01*
X143315960Y-109216863D01*
X143190518Y-109313118D01*
X143094263Y-109438560D01*
X143033756Y-109584637D01*
X143033755Y-109584639D01*
X143013118Y-109741398D01*
X143013118Y-109741401D01*
X143033755Y-109898160D01*
X143033756Y-109898162D01*
X143094264Y-110044241D01*
X143190518Y-110169682D01*
X143315959Y-110265936D01*
X143462038Y-110326444D01*
X143540419Y-110336763D01*
X143618799Y-110347082D01*
X143618800Y-110347082D01*
X143618801Y-110347082D01*
X143671054Y-110340202D01*
X143775562Y-110326444D01*
X143921641Y-110265936D01*
X144047082Y-110169682D01*
X144143336Y-110044241D01*
X144203844Y-109898162D01*
X144224482Y-109741400D01*
X144219942Y-109706920D01*
X144215553Y-109673580D01*
X144226318Y-109604545D01*
X144250808Y-109569716D01*
X144728510Y-109092015D01*
X144732472Y-109088384D01*
X144763494Y-109062355D01*
X144783744Y-109027278D01*
X144786633Y-109022745D01*
X144809853Y-108989584D01*
X144809855Y-108989576D01*
X144812116Y-108984728D01*
X144819054Y-108967979D01*
X144820883Y-108962952D01*
X144820888Y-108962945D01*
X144827922Y-108923047D01*
X144829079Y-108917829D01*
X144839563Y-108878707D01*
X144836035Y-108838389D01*
X144835800Y-108832986D01*
X144835800Y-107876086D01*
X144855485Y-107809047D01*
X144908289Y-107763292D01*
X144977447Y-107753348D01*
X145035283Y-107777708D01*
X145115859Y-107839536D01*
X145261938Y-107900044D01*
X145340319Y-107910363D01*
X145418699Y-107920682D01*
X145418700Y-107920682D01*
X145418701Y-107920682D01*
X145470954Y-107913802D01*
X145575462Y-107900044D01*
X145721541Y-107839536D01*
X145846982Y-107743282D01*
X145943236Y-107617841D01*
X146003744Y-107471762D01*
X146024382Y-107315000D01*
X146022368Y-107299705D01*
X146003744Y-107158239D01*
X146003744Y-107158238D01*
X145943236Y-107012159D01*
X145846982Y-106886718D01*
X145721541Y-106790464D01*
X145720831Y-106790170D01*
X145575462Y-106729956D01*
X145575460Y-106729955D01*
X145418701Y-106709318D01*
X145418699Y-106709318D01*
X145261939Y-106729955D01*
X145261937Y-106729956D01*
X145115857Y-106790464D01*
X145035286Y-106852289D01*
X144970117Y-106877483D01*
X144901672Y-106863444D01*
X144851682Y-106814630D01*
X144835800Y-106753913D01*
X144835800Y-93033983D01*
X144855485Y-92966944D01*
X144908289Y-92921189D01*
X144977447Y-92911245D01*
X145041003Y-92940270D01*
X145047481Y-92946302D01*
X145049586Y-92948407D01*
X145054164Y-92952164D01*
X145209550Y-93079685D01*
X145392046Y-93177232D01*
X145590066Y-93237300D01*
X145590065Y-93237300D01*
X145608529Y-93239118D01*
X145796000Y-93257583D01*
X146001934Y-93237300D01*
X146199954Y-93177232D01*
X146382450Y-93079685D01*
X146537836Y-92952164D01*
X146602146Y-92924852D01*
X146671013Y-92936643D01*
X146722573Y-92983796D01*
X146740500Y-93048018D01*
X146740500Y-95179978D01*
X146740264Y-95185385D01*
X146736735Y-95225708D01*
X146747212Y-95264810D01*
X146748383Y-95270090D01*
X146755411Y-95309943D01*
X146757235Y-95314955D01*
X146764197Y-95331761D01*
X146766445Y-95336581D01*
X146766446Y-95336584D01*
X146780452Y-95356587D01*
X146789655Y-95369731D01*
X146792561Y-95374292D01*
X146812806Y-95409355D01*
X146843815Y-95435375D01*
X146847805Y-95439031D01*
X147389181Y-95980407D01*
X147422666Y-96041730D01*
X147425500Y-96068088D01*
X147425500Y-109584182D01*
X147405815Y-109651221D01*
X147353011Y-109696976D01*
X147283853Y-109706920D01*
X147254048Y-109698743D01*
X147122265Y-109644157D01*
X147122260Y-109644155D01*
X146965501Y-109623518D01*
X146965499Y-109623518D01*
X146808739Y-109644155D01*
X146808737Y-109644156D01*
X146662660Y-109704663D01*
X146537218Y-109800918D01*
X146440963Y-109926360D01*
X146380456Y-110072437D01*
X146380455Y-110072439D01*
X146359818Y-110229198D01*
X146359818Y-110229201D01*
X146380455Y-110385960D01*
X146380456Y-110385962D01*
X146422680Y-110487901D01*
X146440964Y-110532041D01*
X146537218Y-110657482D01*
X146662659Y-110753736D01*
X146808738Y-110814244D01*
X146887119Y-110824563D01*
X146965499Y-110834882D01*
X146965500Y-110834882D01*
X146965501Y-110834882D01*
X147017754Y-110828002D01*
X147122262Y-110814244D01*
X147254049Y-110759655D01*
X147323516Y-110752187D01*
X147385996Y-110783462D01*
X147421648Y-110843551D01*
X147425500Y-110874217D01*
X147425500Y-115744578D01*
X147425264Y-115749985D01*
X147421735Y-115790308D01*
X147432212Y-115829410D01*
X147433383Y-115834690D01*
X147440411Y-115874543D01*
X147442235Y-115879555D01*
X147449197Y-115896361D01*
X147451445Y-115901181D01*
X147451446Y-115901184D01*
X147465452Y-115921187D01*
X147474655Y-115934331D01*
X147477561Y-115938892D01*
X147497806Y-115973955D01*
X147528815Y-115999975D01*
X147532805Y-116003631D01*
X148337588Y-116808414D01*
X148371073Y-116869737D01*
X148372846Y-116912279D01*
X148363918Y-116980097D01*
X148363918Y-116980101D01*
X148384555Y-117136860D01*
X148384556Y-117136862D01*
X148441500Y-117274338D01*
X148445064Y-117282941D01*
X148541318Y-117408382D01*
X148666759Y-117504636D01*
X148812838Y-117565144D01*
X148891219Y-117575463D01*
X148969599Y-117585782D01*
X148969600Y-117585782D01*
X148969601Y-117585782D01*
X149021854Y-117578902D01*
X149126362Y-117565144D01*
X149272441Y-117504636D01*
X149397882Y-117408382D01*
X149494136Y-117282941D01*
X149554644Y-117136862D01*
X149573347Y-116994797D01*
X149575282Y-116980101D01*
X149575282Y-116980098D01*
X149561523Y-116875592D01*
X149554644Y-116823338D01*
X149494136Y-116677259D01*
X149397882Y-116551818D01*
X149272441Y-116455564D01*
X149126362Y-116395056D01*
X149126360Y-116395055D01*
X148969601Y-116374418D01*
X148969597Y-116374418D01*
X148901779Y-116383346D01*
X148832744Y-116372580D01*
X148797914Y-116348088D01*
X148112819Y-115662993D01*
X148079334Y-115601670D01*
X148076500Y-115575312D01*
X148076500Y-113505761D01*
X148096185Y-113438722D01*
X148148989Y-113392967D01*
X148218147Y-113383023D01*
X148247952Y-113391199D01*
X148326038Y-113423544D01*
X148404419Y-113433863D01*
X148482799Y-113444182D01*
X148482800Y-113444182D01*
X148482801Y-113444182D01*
X148535054Y-113437302D01*
X148639562Y-113423544D01*
X148785641Y-113363036D01*
X148911082Y-113266782D01*
X149007336Y-113141341D01*
X149067844Y-112995262D01*
X149088482Y-112838500D01*
X149067844Y-112681738D01*
X149007336Y-112535659D01*
X148911082Y-112410218D01*
X148911080Y-112410216D01*
X148911079Y-112410215D01*
X148856812Y-112368574D01*
X148815610Y-112312146D01*
X148808300Y-112270199D01*
X148808300Y-110487901D01*
X150418018Y-110487901D01*
X150438655Y-110644660D01*
X150438656Y-110644662D01*
X150493982Y-110778232D01*
X150499164Y-110790741D01*
X150595418Y-110916182D01*
X150720859Y-111012436D01*
X150866938Y-111072944D01*
X150945319Y-111083263D01*
X151023699Y-111093582D01*
X151023700Y-111093582D01*
X151023701Y-111093582D01*
X151075954Y-111086702D01*
X151180462Y-111072944D01*
X151326541Y-111012436D01*
X151451982Y-110916182D01*
X151548236Y-110790741D01*
X151608744Y-110644662D01*
X151626472Y-110510001D01*
X151629382Y-110487901D01*
X151629382Y-110487898D01*
X151613092Y-110364162D01*
X151608744Y-110331138D01*
X151548236Y-110185059D01*
X151451982Y-110059618D01*
X151326541Y-109963364D01*
X151307000Y-109955270D01*
X151180462Y-109902856D01*
X151180460Y-109902855D01*
X151023701Y-109882218D01*
X151023699Y-109882218D01*
X150866939Y-109902855D01*
X150866937Y-109902856D01*
X150720860Y-109963363D01*
X150595418Y-110059618D01*
X150499163Y-110185060D01*
X150438656Y-110331137D01*
X150438655Y-110331139D01*
X150418018Y-110487898D01*
X150418018Y-110487901D01*
X148808300Y-110487901D01*
X148808300Y-109196001D01*
X149653818Y-109196001D01*
X149674455Y-109352760D01*
X149674456Y-109352762D01*
X149734964Y-109498841D01*
X149831218Y-109624282D01*
X149956659Y-109720536D01*
X150102738Y-109781044D01*
X150181119Y-109791363D01*
X150259499Y-109801682D01*
X150259500Y-109801682D01*
X150259501Y-109801682D01*
X150311754Y-109794802D01*
X150416262Y-109781044D01*
X150562341Y-109720536D01*
X150687782Y-109624282D01*
X150784036Y-109498841D01*
X150844544Y-109352762D01*
X150865182Y-109196000D01*
X150861884Y-109170952D01*
X150846271Y-109052353D01*
X150844544Y-109039238D01*
X150784036Y-108893159D01*
X150687782Y-108767718D01*
X150562341Y-108671464D01*
X150546081Y-108664729D01*
X150416262Y-108610956D01*
X150416260Y-108610955D01*
X150259501Y-108590318D01*
X150259499Y-108590318D01*
X150102739Y-108610955D01*
X150102737Y-108610956D01*
X149956660Y-108671463D01*
X149831218Y-108767718D01*
X149734963Y-108893160D01*
X149674456Y-109039237D01*
X149674455Y-109039239D01*
X149653818Y-109195998D01*
X149653818Y-109196001D01*
X148808300Y-109196001D01*
X148808300Y-107556101D01*
X149217318Y-107556101D01*
X149237955Y-107712860D01*
X149237956Y-107712862D01*
X149298464Y-107858941D01*
X149394718Y-107984382D01*
X149520159Y-108080636D01*
X149666238Y-108141144D01*
X149678612Y-108142773D01*
X149822999Y-108161782D01*
X149823000Y-108161782D01*
X149823001Y-108161782D01*
X149875254Y-108154902D01*
X149979762Y-108141144D01*
X150125841Y-108080636D01*
X150251282Y-107984382D01*
X150347536Y-107858941D01*
X150408044Y-107712862D01*
X150428682Y-107556100D01*
X150418147Y-107476082D01*
X150408044Y-107399339D01*
X150408044Y-107399338D01*
X150347536Y-107253259D01*
X150251282Y-107127818D01*
X150125841Y-107031564D01*
X150078993Y-107012159D01*
X149979762Y-106971056D01*
X149979760Y-106971055D01*
X149823001Y-106950418D01*
X149822999Y-106950418D01*
X149666239Y-106971055D01*
X149666237Y-106971056D01*
X149520160Y-107031563D01*
X149394718Y-107127818D01*
X149298463Y-107253260D01*
X149237956Y-107399337D01*
X149237955Y-107399339D01*
X149217318Y-107556098D01*
X149217318Y-107556101D01*
X148808300Y-107556101D01*
X148808300Y-102847301D01*
X150848318Y-102847301D01*
X150868955Y-103004060D01*
X150868956Y-103004062D01*
X150929464Y-103150141D01*
X151025718Y-103275582D01*
X151151159Y-103371836D01*
X151297238Y-103432344D01*
X151375619Y-103442663D01*
X151453999Y-103452982D01*
X151454000Y-103452982D01*
X151454001Y-103452982D01*
X151506254Y-103446102D01*
X151610762Y-103432344D01*
X151756841Y-103371836D01*
X151882282Y-103275582D01*
X151978536Y-103150141D01*
X152039044Y-103004062D01*
X152059682Y-102847300D01*
X152039044Y-102690538D01*
X151978536Y-102544459D01*
X151882282Y-102419018D01*
X151756841Y-102322764D01*
X151739502Y-102315582D01*
X151610762Y-102262256D01*
X151610760Y-102262255D01*
X151454001Y-102241618D01*
X151453999Y-102241618D01*
X151297239Y-102262255D01*
X151297237Y-102262256D01*
X151151160Y-102322763D01*
X151025718Y-102419018D01*
X150929463Y-102544460D01*
X150868956Y-102690537D01*
X150868955Y-102690539D01*
X150848318Y-102847298D01*
X150848318Y-102847301D01*
X148808300Y-102847301D01*
X148808300Y-98468887D01*
X148827985Y-98401848D01*
X148844614Y-98381211D01*
X152364204Y-94861620D01*
X152368166Y-94857989D01*
X152399194Y-94831955D01*
X152419438Y-94796890D01*
X152422335Y-94792341D01*
X152445554Y-94759184D01*
X152445554Y-94759181D01*
X152447819Y-94754324D01*
X152454747Y-94737599D01*
X152456587Y-94732546D01*
X152456588Y-94732545D01*
X152463621Y-94692650D01*
X152464777Y-94687437D01*
X152475263Y-94648307D01*
X152471735Y-94607989D01*
X152471500Y-94602586D01*
X152471500Y-93048018D01*
X152491185Y-92980979D01*
X152543989Y-92935224D01*
X152613147Y-92925280D01*
X152674164Y-92952164D01*
X152829550Y-93079685D01*
X153012046Y-93177232D01*
X153012051Y-93177233D01*
X153013951Y-93178021D01*
X153014796Y-93178701D01*
X153017419Y-93180104D01*
X153017153Y-93180601D01*
X153068355Y-93221862D01*
X153090421Y-93288156D01*
X153090500Y-93292583D01*
X153090500Y-93361978D01*
X153090264Y-93367385D01*
X153086735Y-93407708D01*
X153097212Y-93446810D01*
X153098383Y-93452090D01*
X153105411Y-93491943D01*
X153107235Y-93496955D01*
X153114197Y-93513761D01*
X153116445Y-93518581D01*
X153116446Y-93518584D01*
X153130452Y-93538587D01*
X153139655Y-93551731D01*
X153142561Y-93556292D01*
X153162806Y-93591355D01*
X153193815Y-93617375D01*
X153197805Y-93621031D01*
X153514081Y-93937307D01*
X153547566Y-93998630D01*
X153550400Y-94024988D01*
X153550400Y-101258399D01*
X153530715Y-101325438D01*
X153501888Y-101356774D01*
X153447620Y-101398415D01*
X153351363Y-101523860D01*
X153290856Y-101669937D01*
X153290855Y-101669939D01*
X153270218Y-101826698D01*
X153270218Y-101826701D01*
X153290855Y-101983460D01*
X153290856Y-101983462D01*
X153351364Y-102129541D01*
X153447618Y-102254982D01*
X153501887Y-102296624D01*
X153543089Y-102353049D01*
X153550400Y-102394998D01*
X153550400Y-107019278D01*
X153550164Y-107024685D01*
X153546635Y-107065008D01*
X153557112Y-107104110D01*
X153558283Y-107109390D01*
X153565311Y-107149243D01*
X153567135Y-107154255D01*
X153574097Y-107171061D01*
X153576345Y-107175881D01*
X153576346Y-107175884D01*
X153590352Y-107195887D01*
X153599555Y-107209031D01*
X153602461Y-107213592D01*
X153622706Y-107248655D01*
X153653715Y-107274675D01*
X153657705Y-107278331D01*
X153679079Y-107299705D01*
X153712564Y-107361028D01*
X153707580Y-107430720D01*
X153665708Y-107486653D01*
X153638851Y-107501947D01*
X153565660Y-107532263D01*
X153440218Y-107628518D01*
X153343963Y-107753960D01*
X153283456Y-107900037D01*
X153283455Y-107900039D01*
X153262818Y-108056798D01*
X153262818Y-108056801D01*
X153283455Y-108213560D01*
X153283456Y-108213562D01*
X153343964Y-108359641D01*
X153440218Y-108485082D01*
X153565659Y-108581336D01*
X153711738Y-108641844D01*
X153761012Y-108648331D01*
X153802310Y-108653768D01*
X153866207Y-108682034D01*
X153904678Y-108740359D01*
X153905509Y-108810224D01*
X153900687Y-108824158D01*
X153875056Y-108886038D01*
X153875055Y-108886039D01*
X153854418Y-109042798D01*
X153854418Y-109042801D01*
X153875055Y-109199560D01*
X153875056Y-109199562D01*
X153922092Y-109313118D01*
X153935564Y-109345641D01*
X154031818Y-109471082D01*
X154157259Y-109567336D01*
X154303338Y-109627844D01*
X154381719Y-109638163D01*
X154460099Y-109648482D01*
X154460100Y-109648482D01*
X154460101Y-109648482D01*
X154512354Y-109641602D01*
X154616862Y-109627844D01*
X154762941Y-109567336D01*
X154823814Y-109520626D01*
X154888982Y-109495432D01*
X154957427Y-109509470D01*
X155007417Y-109558283D01*
X155023300Y-109619002D01*
X155023300Y-109840709D01*
X155003615Y-109907748D01*
X154950811Y-109953503D01*
X154881653Y-109963447D01*
X154851848Y-109955270D01*
X154778665Y-109924957D01*
X154778660Y-109924955D01*
X154621901Y-109904318D01*
X154621899Y-109904318D01*
X154465139Y-109924955D01*
X154465137Y-109924956D01*
X154319060Y-109985463D01*
X154193618Y-110081718D01*
X154097363Y-110207160D01*
X154075943Y-110258874D01*
X154032102Y-110313277D01*
X153965808Y-110335342D01*
X153898108Y-110318063D01*
X153850498Y-110266925D01*
X153837382Y-110211421D01*
X153837382Y-110207398D01*
X153816744Y-110050639D01*
X153816744Y-110050638D01*
X153756236Y-109904559D01*
X153659982Y-109779118D01*
X153534541Y-109682864D01*
X153512127Y-109673580D01*
X153388462Y-109622356D01*
X153388460Y-109622355D01*
X153231701Y-109601718D01*
X153231699Y-109601718D01*
X153074939Y-109622355D01*
X153074937Y-109622356D01*
X152928858Y-109682864D01*
X152914984Y-109693510D01*
X152849814Y-109718702D01*
X152781370Y-109704662D01*
X152731381Y-109655847D01*
X152715500Y-109595132D01*
X152715500Y-106075120D01*
X152715736Y-106069713D01*
X152715883Y-106068041D01*
X152719264Y-106029393D01*
X152708782Y-105990276D01*
X152707616Y-105985018D01*
X152700588Y-105945155D01*
X152700586Y-105945152D01*
X152700586Y-105945150D01*
X152696876Y-105934955D01*
X152699855Y-105933870D01*
X152687575Y-105883236D01*
X152688495Y-105872958D01*
X152702682Y-105765200D01*
X152702682Y-105765198D01*
X152682044Y-105608439D01*
X152682044Y-105608438D01*
X152621536Y-105462359D01*
X152525282Y-105336918D01*
X152399841Y-105240664D01*
X152253762Y-105180156D01*
X152253760Y-105180155D01*
X152097001Y-105159518D01*
X152096999Y-105159518D01*
X151940239Y-105180155D01*
X151940237Y-105180156D01*
X151794160Y-105240663D01*
X151668718Y-105336918D01*
X151572463Y-105462360D01*
X151511956Y-105608437D01*
X151511955Y-105608439D01*
X151491318Y-105765198D01*
X151491318Y-105765201D01*
X151511955Y-105921960D01*
X151511956Y-105921962D01*
X151572464Y-106068041D01*
X151668718Y-106193482D01*
X151794159Y-106289736D01*
X151940238Y-106350244D01*
X151956685Y-106352409D01*
X152020581Y-106380675D01*
X152059053Y-106438999D01*
X152064500Y-106475348D01*
X152064500Y-113550223D01*
X152044815Y-113617262D01*
X151992011Y-113663017D01*
X151922853Y-113672961D01*
X151893047Y-113664784D01*
X151771062Y-113614256D01*
X151771060Y-113614255D01*
X151614301Y-113593618D01*
X151614299Y-113593618D01*
X151457539Y-113614255D01*
X151457537Y-113614256D01*
X151311460Y-113674763D01*
X151186018Y-113771018D01*
X151089763Y-113896460D01*
X151029256Y-114042537D01*
X151029255Y-114042539D01*
X151008618Y-114199298D01*
X151008618Y-114199301D01*
X151029255Y-114356060D01*
X151029256Y-114356062D01*
X151078749Y-114475550D01*
X151089764Y-114502141D01*
X151186018Y-114627582D01*
X151311459Y-114723836D01*
X151457538Y-114784344D01*
X151535919Y-114794663D01*
X151614299Y-114804982D01*
X151614300Y-114804982D01*
X151614301Y-114804982D01*
X151666554Y-114798102D01*
X151771062Y-114784344D01*
X151893050Y-114733814D01*
X151962516Y-114726346D01*
X152024995Y-114757621D01*
X152060648Y-114817709D01*
X152064500Y-114848376D01*
X152064500Y-118132611D01*
X152044815Y-118199650D01*
X152028181Y-118220292D01*
X151611302Y-118637170D01*
X151607314Y-118640825D01*
X151576305Y-118666845D01*
X151556062Y-118701906D01*
X151553156Y-118706466D01*
X151529946Y-118739613D01*
X151527706Y-118744417D01*
X151520729Y-118761261D01*
X151518910Y-118766259D01*
X151511883Y-118806111D01*
X151510712Y-118811391D01*
X151500235Y-118850491D01*
X151503764Y-118890813D01*
X151504000Y-118896220D01*
X151504000Y-120301878D01*
X151503764Y-120307285D01*
X151500235Y-120347608D01*
X151510712Y-120386710D01*
X151511883Y-120391990D01*
X151518911Y-120431843D01*
X151520735Y-120436855D01*
X151527697Y-120453661D01*
X151529945Y-120458481D01*
X151529946Y-120458484D01*
X151543952Y-120478487D01*
X151553155Y-120491631D01*
X151556061Y-120496192D01*
X151576306Y-120531255D01*
X151607315Y-120557275D01*
X151611305Y-120560931D01*
X159507681Y-128457307D01*
X159541166Y-128518630D01*
X159544000Y-128544988D01*
X159544000Y-130725278D01*
X159543764Y-130730685D01*
X159540235Y-130771008D01*
X159550712Y-130810110D01*
X159551883Y-130815390D01*
X159558911Y-130855243D01*
X159560735Y-130860255D01*
X159567697Y-130877061D01*
X159569945Y-130881881D01*
X159569946Y-130881884D01*
X159583952Y-130901887D01*
X159593155Y-130915031D01*
X159596061Y-130919592D01*
X159616306Y-130954655D01*
X159647315Y-130980675D01*
X159651305Y-130984331D01*
X160500793Y-131833819D01*
X160534278Y-131895142D01*
X160529294Y-131964834D01*
X160487422Y-132020767D01*
X160421958Y-132045184D01*
X160413112Y-132045500D01*
X160176647Y-132045500D01*
X160118170Y-132057131D01*
X160118169Y-132057132D01*
X160051847Y-132101447D01*
X160007532Y-132167769D01*
X160007531Y-132167770D01*
X159995900Y-132226247D01*
X159995900Y-133965752D01*
X160007531Y-134024229D01*
X160007532Y-134024230D01*
X160051847Y-134090552D01*
X160118169Y-134134867D01*
X160118170Y-134134868D01*
X160176647Y-134146499D01*
X160176650Y-134146500D01*
X160176652Y-134146500D01*
X161916150Y-134146500D01*
X161916151Y-134146499D01*
X161930968Y-134143552D01*
X161974629Y-134134868D01*
X161974629Y-134134867D01*
X161974631Y-134134867D01*
X162040952Y-134090552D01*
X162085267Y-134024231D01*
X162085267Y-134024229D01*
X162085268Y-134024229D01*
X162095326Y-133973662D01*
X162096900Y-133965748D01*
X162096900Y-133655456D01*
X162116585Y-133588417D01*
X162169389Y-133542662D01*
X162238547Y-133532718D01*
X162302103Y-133561743D01*
X162333282Y-133603051D01*
X162412800Y-133773578D01*
X162548294Y-133967082D01*
X162715317Y-134134105D01*
X162908821Y-134269600D01*
X163122907Y-134369429D01*
X163122916Y-134369433D01*
X163336400Y-134426634D01*
X163336400Y-133531501D01*
X163444085Y-133580680D01*
X163550637Y-133596000D01*
X163622163Y-133596000D01*
X163728715Y-133580680D01*
X163836400Y-133531501D01*
X163836400Y-134426633D01*
X164049883Y-134369433D01*
X164049892Y-134369429D01*
X164263978Y-134269600D01*
X164457482Y-134134105D01*
X164624505Y-133967082D01*
X164760000Y-133773578D01*
X164859829Y-133559492D01*
X164859833Y-133559483D01*
X164892558Y-133437350D01*
X164928922Y-133377690D01*
X164991769Y-133347160D01*
X165061145Y-133355454D01*
X165115023Y-133399939D01*
X165130993Y-133433447D01*
X165151168Y-133499954D01*
X165248715Y-133682450D01*
X165272867Y-133711879D01*
X165379989Y-133842410D01*
X165476609Y-133921702D01*
X165539950Y-133973685D01*
X165722446Y-134071232D01*
X165920466Y-134131300D01*
X165920465Y-134131300D01*
X165938929Y-134133118D01*
X166126400Y-134151583D01*
X166332334Y-134131300D01*
X166530354Y-134071232D01*
X166712850Y-133973685D01*
X166872810Y-133842410D01*
X167004085Y-133682450D01*
X167101632Y-133499954D01*
X167161700Y-133301934D01*
X167181983Y-133096000D01*
X167161700Y-132890066D01*
X167101632Y-132692046D01*
X167004085Y-132509550D01*
X166996248Y-132500000D01*
X173944706Y-132500000D01*
X173963853Y-132743297D01*
X173963853Y-132743300D01*
X173963854Y-132743302D01*
X174020827Y-132980609D01*
X174020830Y-132980619D01*
X174114222Y-133206089D01*
X174241737Y-133414173D01*
X174241738Y-133414176D01*
X174258198Y-133433448D01*
X174400241Y-133599759D01*
X174531505Y-133711869D01*
X174585823Y-133758261D01*
X174585826Y-133758262D01*
X174793911Y-133885777D01*
X174793910Y-133885777D01*
X174807542Y-133891423D01*
X174832044Y-133901572D01*
X174834258Y-133902555D01*
X174836127Y-133903263D01*
X175019388Y-133979172D01*
X175019389Y-133979172D01*
X175019391Y-133979173D01*
X175033134Y-133982472D01*
X175059260Y-133988744D01*
X175062017Y-133989474D01*
X175068057Y-133991223D01*
X175068061Y-133991225D01*
X175078290Y-133993313D01*
X175256698Y-134036146D01*
X175303995Y-134039868D01*
X175311542Y-134040932D01*
X175312864Y-134041202D01*
X175329414Y-134041868D01*
X175500000Y-134055294D01*
X175551386Y-134051249D01*
X175558730Y-134051109D01*
X175562514Y-134051262D01*
X175583293Y-134048738D01*
X175743302Y-134036146D01*
X175797465Y-134023142D01*
X175804439Y-134021887D01*
X175810544Y-134021146D01*
X175832268Y-134014853D01*
X175834972Y-134014137D01*
X175980612Y-133979172D01*
X176035940Y-133956254D01*
X176042404Y-133953987D01*
X176050532Y-133951633D01*
X176072788Y-133941072D01*
X176075497Y-133939869D01*
X176206089Y-133885777D01*
X176260830Y-133852231D01*
X176266604Y-133849104D01*
X176276261Y-133844523D01*
X176297464Y-133829886D01*
X176300241Y-133828080D01*
X176414179Y-133758259D01*
X176466309Y-133713735D01*
X176471306Y-133709892D01*
X176481885Y-133702591D01*
X176500901Y-133684324D01*
X176503493Y-133681976D01*
X176599759Y-133599759D01*
X176647157Y-133544262D01*
X176651349Y-133539817D01*
X176662079Y-133529512D01*
X176677953Y-133508386D01*
X176680325Y-133505427D01*
X176758259Y-133414179D01*
X176798786Y-133348044D01*
X176802044Y-133343252D01*
X176812176Y-133329770D01*
X176824315Y-133306639D01*
X176826306Y-133303136D01*
X176885777Y-133206089D01*
X176917238Y-133130133D01*
X176919601Y-133125088D01*
X176928288Y-133108537D01*
X176936346Y-133084399D01*
X176937846Y-133080381D01*
X176979172Y-132980612D01*
X176999488Y-132895990D01*
X177000947Y-132890894D01*
X177007408Y-132871543D01*
X177011343Y-132847326D01*
X177012229Y-132842918D01*
X177036146Y-132743302D01*
X177043361Y-132651623D01*
X177043973Y-132646547D01*
X177047487Y-132624926D01*
X177048146Y-132592153D01*
X177048324Y-132588560D01*
X177055294Y-132500000D01*
X177048323Y-132411433D01*
X177048146Y-132407842D01*
X177047487Y-132375074D01*
X177043972Y-132353446D01*
X177043360Y-132348367D01*
X177037662Y-132275964D01*
X177036146Y-132256698D01*
X177012239Y-132157123D01*
X177011335Y-132152620D01*
X177007408Y-132128457D01*
X177000955Y-132109129D01*
X176999482Y-132103987D01*
X176979172Y-132019388D01*
X176937858Y-131919648D01*
X176936335Y-131915568D01*
X176928288Y-131891463D01*
X176919609Y-131874927D01*
X176917238Y-131869867D01*
X176885777Y-131793911D01*
X176826308Y-131696867D01*
X176824308Y-131693346D01*
X176812176Y-131670230D01*
X176802066Y-131656776D01*
X176798766Y-131651923D01*
X176774823Y-131612852D01*
X176758259Y-131585821D01*
X176680341Y-131494591D01*
X176677944Y-131491601D01*
X176662079Y-131470488D01*
X176651354Y-131460186D01*
X176647156Y-131455735D01*
X176599759Y-131400241D01*
X176503513Y-131318039D01*
X176500885Y-131315659D01*
X176481885Y-131297409D01*
X176477219Y-131294188D01*
X176471333Y-131290125D01*
X176466287Y-131286245D01*
X176414179Y-131241741D01*
X176414170Y-131241734D01*
X176300273Y-131171938D01*
X176297450Y-131170101D01*
X176276264Y-131155478D01*
X176276260Y-131155476D01*
X176266608Y-131150895D01*
X176260796Y-131147746D01*
X176228206Y-131127776D01*
X176206089Y-131114223D01*
X176206083Y-131114220D01*
X176206077Y-131114217D01*
X176075569Y-131060160D01*
X176072716Y-131058893D01*
X176050533Y-131048367D01*
X176050519Y-131048362D01*
X176042406Y-131046011D01*
X176035933Y-131043741D01*
X175980622Y-131020831D01*
X175980606Y-131020826D01*
X175835002Y-130985868D01*
X175832231Y-130985134D01*
X175810547Y-130978855D01*
X175810548Y-130978855D01*
X175810544Y-130978854D01*
X175810536Y-130978853D01*
X175810525Y-130978851D01*
X175804427Y-130978109D01*
X175797437Y-130976850D01*
X175743302Y-130963854D01*
X175583297Y-130951261D01*
X175562525Y-130948739D01*
X175562520Y-130948738D01*
X175562514Y-130948738D01*
X175562508Y-130948738D01*
X175562504Y-130948738D01*
X175558731Y-130948890D01*
X175551376Y-130948748D01*
X175500000Y-130944706D01*
X175329417Y-130958130D01*
X175312869Y-130958797D01*
X175312833Y-130958801D01*
X175311503Y-130959073D01*
X175303988Y-130960131D01*
X175256706Y-130963853D01*
X175256701Y-130963853D01*
X175256698Y-130963854D01*
X175256695Y-130963854D01*
X175256693Y-130963855D01*
X175078287Y-131006687D01*
X175068059Y-131008775D01*
X175062015Y-131010525D01*
X175059247Y-131011258D01*
X175019390Y-131020827D01*
X175019385Y-131020828D01*
X174836127Y-131096736D01*
X174834250Y-131097448D01*
X174832041Y-131098428D01*
X174793910Y-131114223D01*
X174793904Y-131114226D01*
X174585826Y-131241737D01*
X174585823Y-131241738D01*
X174400241Y-131400241D01*
X174241738Y-131585823D01*
X174241737Y-131585826D01*
X174114222Y-131793910D01*
X174020830Y-132019380D01*
X173963853Y-132256702D01*
X173944706Y-132500000D01*
X166996248Y-132500000D01*
X166920616Y-132407842D01*
X166872810Y-132349589D01*
X166722521Y-132226252D01*
X166712850Y-132218315D01*
X166530354Y-132120768D01*
X166528449Y-132119979D01*
X166527603Y-132119298D01*
X166524981Y-132117896D01*
X166525246Y-132117398D01*
X166474045Y-132076138D01*
X166451979Y-132009844D01*
X166451900Y-132005417D01*
X166451900Y-129055783D01*
X166471585Y-128988744D01*
X166524389Y-128942989D01*
X166528449Y-128941221D01*
X166530345Y-128940434D01*
X166530354Y-128940432D01*
X166712850Y-128842885D01*
X166872810Y-128711610D01*
X167004085Y-128551650D01*
X167101632Y-128369154D01*
X167161700Y-128171134D01*
X167181983Y-127965200D01*
X167161700Y-127759266D01*
X167101632Y-127561246D01*
X167004085Y-127378750D01*
X166929297Y-127287620D01*
X166872810Y-127218789D01*
X166722521Y-127095452D01*
X166712850Y-127087515D01*
X166530354Y-126989968D01*
X166332334Y-126929900D01*
X166332332Y-126929899D01*
X166332334Y-126929899D01*
X166126400Y-126909617D01*
X165920467Y-126929899D01*
X165722443Y-126989969D01*
X165634514Y-127036969D01*
X165539950Y-127087515D01*
X165539948Y-127087516D01*
X165539947Y-127087517D01*
X165379989Y-127218789D01*
X165248717Y-127378747D01*
X165151167Y-127561246D01*
X165130993Y-127627752D01*
X165092696Y-127686190D01*
X165028883Y-127714647D01*
X164959816Y-127704086D01*
X164907423Y-127657861D01*
X164892558Y-127623849D01*
X164859833Y-127501716D01*
X164859829Y-127501707D01*
X164760000Y-127287622D01*
X164759999Y-127287620D01*
X164624513Y-127094126D01*
X164624508Y-127094120D01*
X164457482Y-126927094D01*
X164263978Y-126791599D01*
X164049892Y-126691770D01*
X164049886Y-126691767D01*
X163836400Y-126634564D01*
X163836400Y-127529698D01*
X163728715Y-127480520D01*
X163622163Y-127465200D01*
X163550637Y-127465200D01*
X163444085Y-127480520D01*
X163336400Y-127529698D01*
X163336400Y-126634564D01*
X163336399Y-126634564D01*
X163122913Y-126691767D01*
X163122907Y-126691770D01*
X162908822Y-126791599D01*
X162908820Y-126791600D01*
X162715326Y-126927086D01*
X162715320Y-126927091D01*
X162548291Y-127094120D01*
X162548286Y-127094126D01*
X162412800Y-127287620D01*
X162412799Y-127287622D01*
X162333282Y-127458148D01*
X162287110Y-127510587D01*
X162219916Y-127529739D01*
X162153035Y-127509523D01*
X162107700Y-127456358D01*
X162096900Y-127405743D01*
X162096900Y-127095449D01*
X162096899Y-127095447D01*
X162085268Y-127036970D01*
X162085267Y-127036969D01*
X162040952Y-126970647D01*
X161974630Y-126926332D01*
X161974629Y-126926331D01*
X161916152Y-126914700D01*
X161916148Y-126914700D01*
X161497407Y-126914700D01*
X161430368Y-126895015D01*
X161384613Y-126842211D01*
X161373879Y-126779890D01*
X161375664Y-126759493D01*
X161365182Y-126720376D01*
X161364016Y-126715118D01*
X161356988Y-126675255D01*
X161356986Y-126675252D01*
X161356986Y-126675250D01*
X161355160Y-126670233D01*
X161348220Y-126653476D01*
X161345954Y-126648619D01*
X161345954Y-126648616D01*
X161322739Y-126615462D01*
X161319833Y-126610899D01*
X161299596Y-126575848D01*
X161299595Y-126575847D01*
X161299594Y-126575845D01*
X161268577Y-126549818D01*
X161264593Y-126546167D01*
X160231319Y-125512893D01*
X160197834Y-125451570D01*
X160195000Y-125425212D01*
X160195000Y-124357669D01*
X172616500Y-124357669D01*
X172619353Y-124388099D01*
X172619353Y-124388101D01*
X172664206Y-124516280D01*
X172664207Y-124516282D01*
X172744850Y-124625550D01*
X172854118Y-124706193D01*
X172896845Y-124721144D01*
X172982299Y-124751046D01*
X173012730Y-124753900D01*
X173012734Y-124753900D01*
X174621270Y-124753900D01*
X174651699Y-124751046D01*
X174651701Y-124751046D01*
X174715790Y-124728619D01*
X174779882Y-124706193D01*
X174889150Y-124625550D01*
X174969793Y-124516282D01*
X174992219Y-124452190D01*
X175014646Y-124388101D01*
X175014646Y-124388099D01*
X175017500Y-124357669D01*
X175017500Y-123049130D01*
X175014646Y-123018700D01*
X175014646Y-123018698D01*
X174970710Y-122893139D01*
X174969793Y-122890518D01*
X174889150Y-122781250D01*
X174779882Y-122700607D01*
X174779880Y-122700606D01*
X174651700Y-122655753D01*
X174621270Y-122652900D01*
X174621266Y-122652900D01*
X173012734Y-122652900D01*
X173012730Y-122652900D01*
X172982300Y-122655753D01*
X172982298Y-122655753D01*
X172854119Y-122700606D01*
X172854117Y-122700607D01*
X172744850Y-122781250D01*
X172664207Y-122890517D01*
X172664206Y-122890519D01*
X172619353Y-123018698D01*
X172619353Y-123018700D01*
X172616500Y-123049130D01*
X172616500Y-124357669D01*
X160195000Y-124357669D01*
X160195000Y-123704100D01*
X160214685Y-123637061D01*
X160267489Y-123591306D01*
X160319000Y-123580100D01*
X161916150Y-123580100D01*
X161916151Y-123580099D01*
X161930968Y-123577152D01*
X161974629Y-123568468D01*
X161974629Y-123568467D01*
X161974631Y-123568467D01*
X162040952Y-123524152D01*
X162085267Y-123457831D01*
X162085266Y-123457831D01*
X162092052Y-123447677D01*
X162093758Y-123448817D01*
X162127812Y-123406561D01*
X162194106Y-123384497D01*
X162261805Y-123401777D01*
X162286211Y-123420737D01*
X162790163Y-123924689D01*
X162793818Y-123928678D01*
X162819841Y-123959690D01*
X162819843Y-123959691D01*
X162819845Y-123959694D01*
X162819847Y-123959695D01*
X162819848Y-123959696D01*
X162854899Y-123979933D01*
X162859462Y-123982839D01*
X162892616Y-124006054D01*
X162892619Y-124006054D01*
X162897476Y-124008320D01*
X162914233Y-124015260D01*
X162919253Y-124017087D01*
X162919255Y-124017088D01*
X162955106Y-124023409D01*
X162959108Y-124024115D01*
X162964380Y-124025283D01*
X163003493Y-124035764D01*
X163043822Y-124032235D01*
X163049224Y-124032000D01*
X166701978Y-124032000D01*
X166707381Y-124032235D01*
X166747707Y-124035764D01*
X166786840Y-124025277D01*
X166792062Y-124024119D01*
X166831945Y-124017088D01*
X166831950Y-124017084D01*
X166836999Y-124015247D01*
X166853724Y-124008319D01*
X166858581Y-124006054D01*
X166858584Y-124006054D01*
X166891741Y-123982835D01*
X166896290Y-123979938D01*
X166931355Y-123959694D01*
X166931359Y-123959690D01*
X166957376Y-123928682D01*
X166961022Y-123924702D01*
X169682324Y-121203400D01*
X172611417Y-121203400D01*
X172631699Y-121409332D01*
X172656392Y-121490733D01*
X172691768Y-121607354D01*
X172789315Y-121789850D01*
X172789317Y-121789852D01*
X172920589Y-121949810D01*
X173007041Y-122020758D01*
X173080550Y-122081085D01*
X173263046Y-122178632D01*
X173461066Y-122238700D01*
X173461065Y-122238700D01*
X173499647Y-122242500D01*
X173615392Y-122253900D01*
X173615395Y-122253900D01*
X174018605Y-122253900D01*
X174018608Y-122253900D01*
X174172934Y-122238700D01*
X174370954Y-122178632D01*
X174553450Y-122081085D01*
X174713410Y-121949810D01*
X174844685Y-121789850D01*
X174942232Y-121607354D01*
X175002300Y-121409334D01*
X175022583Y-121203400D01*
X175002300Y-120997466D01*
X174942232Y-120799446D01*
X174844685Y-120616950D01*
X174792702Y-120553609D01*
X174713410Y-120456989D01*
X174580127Y-120347608D01*
X174553450Y-120325715D01*
X174370954Y-120228168D01*
X174172934Y-120168100D01*
X174172932Y-120168099D01*
X174172934Y-120168099D01*
X174053805Y-120156366D01*
X174018608Y-120152900D01*
X173615392Y-120152900D01*
X173577298Y-120156651D01*
X173461067Y-120168099D01*
X173263043Y-120228169D01*
X173152898Y-120287043D01*
X173080550Y-120325715D01*
X173080548Y-120325716D01*
X173080547Y-120325717D01*
X172920589Y-120456989D01*
X172789317Y-120616947D01*
X172789315Y-120616950D01*
X172762198Y-120667682D01*
X172691769Y-120799443D01*
X172631699Y-120997467D01*
X172611417Y-121203400D01*
X169682324Y-121203400D01*
X177518710Y-113367015D01*
X177522672Y-113363384D01*
X177553694Y-113337355D01*
X177573944Y-113302279D01*
X177576828Y-113297752D01*
X177600054Y-113264584D01*
X177600054Y-113264581D01*
X177602319Y-113259724D01*
X177609247Y-113242999D01*
X177611087Y-113237946D01*
X177611088Y-113237945D01*
X177618121Y-113198050D01*
X177619277Y-113192837D01*
X177629763Y-113153707D01*
X177626235Y-113113389D01*
X177626000Y-113107986D01*
X177626000Y-101129509D01*
X177626236Y-101124102D01*
X177629763Y-101083791D01*
X177619285Y-101044690D01*
X177618118Y-101039430D01*
X177611088Y-100999555D01*
X177611087Y-100999553D01*
X177609260Y-100994533D01*
X177602320Y-100977776D01*
X177600054Y-100972919D01*
X177600054Y-100972916D01*
X177576837Y-100939759D01*
X177573935Y-100935205D01*
X177553694Y-100900145D01*
X177522682Y-100874122D01*
X177518710Y-100870483D01*
X177174919Y-100526693D01*
X177171274Y-100522714D01*
X177145256Y-100491707D01*
X177145255Y-100491706D01*
X177133858Y-100485126D01*
X177110192Y-100471461D01*
X177105631Y-100468555D01*
X177092487Y-100459352D01*
X177072484Y-100445346D01*
X177072481Y-100445345D01*
X177067661Y-100443097D01*
X177050855Y-100436135D01*
X177045841Y-100434310D01*
X177015145Y-100428897D01*
X176952543Y-100397869D01*
X176916654Y-100337920D01*
X176918873Y-100268086D01*
X176940828Y-100228117D01*
X177001285Y-100154450D01*
X177098832Y-99971954D01*
X177158900Y-99773934D01*
X177179183Y-99568000D01*
X177158900Y-99362066D01*
X177098832Y-99164046D01*
X177001285Y-98981550D01*
X176926717Y-98890688D01*
X176870010Y-98821589D01*
X176752277Y-98724969D01*
X176710050Y-98690315D01*
X176527554Y-98592768D01*
X176329534Y-98532700D01*
X176329532Y-98532699D01*
X176329534Y-98532699D01*
X176123600Y-98512417D01*
X175917667Y-98532699D01*
X175719643Y-98592769D01*
X175623248Y-98644294D01*
X175537150Y-98690315D01*
X175537148Y-98690316D01*
X175537147Y-98690317D01*
X175377189Y-98821590D01*
X175306816Y-98907340D01*
X175249070Y-98946674D01*
X175179226Y-98948545D01*
X175123282Y-98916356D01*
X174451538Y-98244612D01*
X174418053Y-98183289D01*
X174423037Y-98113597D01*
X174451538Y-98069250D01*
X174621705Y-97899082D01*
X174757200Y-97705578D01*
X174857029Y-97491492D01*
X174857033Y-97491483D01*
X174889758Y-97369350D01*
X174926122Y-97309690D01*
X174988969Y-97279160D01*
X175058345Y-97287454D01*
X175112223Y-97331939D01*
X175128193Y-97365447D01*
X175148368Y-97431954D01*
X175245915Y-97614450D01*
X175245917Y-97614452D01*
X175377189Y-97774410D01*
X175473809Y-97853702D01*
X175537150Y-97905685D01*
X175719646Y-98003232D01*
X175917666Y-98063300D01*
X175917665Y-98063300D01*
X175936129Y-98065118D01*
X176123600Y-98083583D01*
X176329534Y-98063300D01*
X176527554Y-98003232D01*
X176710050Y-97905685D01*
X176870010Y-97774410D01*
X177001285Y-97614450D01*
X177098832Y-97431954D01*
X177158900Y-97233934D01*
X177179183Y-97028000D01*
X177158900Y-96822066D01*
X177098832Y-96624046D01*
X177001285Y-96441550D01*
X176926497Y-96350420D01*
X176870010Y-96281589D01*
X176752277Y-96184969D01*
X176710050Y-96150315D01*
X176527554Y-96052768D01*
X176329534Y-95992700D01*
X176329532Y-95992699D01*
X176329534Y-95992699D01*
X176123600Y-95972417D01*
X175917667Y-95992699D01*
X175719643Y-96052769D01*
X175609498Y-96111643D01*
X175537150Y-96150315D01*
X175537148Y-96150316D01*
X175537147Y-96150317D01*
X175377189Y-96281589D01*
X175245917Y-96441547D01*
X175148367Y-96624046D01*
X175128193Y-96690552D01*
X175089896Y-96748990D01*
X175026083Y-96777447D01*
X174957016Y-96766886D01*
X174904623Y-96720661D01*
X174889758Y-96686649D01*
X174857033Y-96564516D01*
X174857029Y-96564507D01*
X174757200Y-96350422D01*
X174757199Y-96350420D01*
X174621713Y-96156926D01*
X174621708Y-96156920D01*
X174454682Y-95989894D01*
X174261178Y-95854399D01*
X174047092Y-95754570D01*
X174047086Y-95754567D01*
X173833600Y-95697364D01*
X173833600Y-96592498D01*
X173725915Y-96543320D01*
X173619363Y-96528000D01*
X173547837Y-96528000D01*
X173441285Y-96543320D01*
X173333600Y-96592498D01*
X173333600Y-95697364D01*
X173333599Y-95697364D01*
X173120113Y-95754567D01*
X173120107Y-95754570D01*
X172906022Y-95854399D01*
X172906020Y-95854400D01*
X172712526Y-95989886D01*
X172712520Y-95989891D01*
X172545491Y-96156920D01*
X172545486Y-96156926D01*
X172410000Y-96350420D01*
X172409999Y-96350422D01*
X172310170Y-96564507D01*
X172310167Y-96564513D01*
X172272196Y-96706226D01*
X172235831Y-96765886D01*
X172172984Y-96796415D01*
X172103608Y-96788120D01*
X172064740Y-96761813D01*
X169017819Y-93714892D01*
X168984334Y-93653569D01*
X168981500Y-93627211D01*
X168981500Y-93292583D01*
X169001185Y-93225544D01*
X169053989Y-93179789D01*
X169058049Y-93178021D01*
X169059945Y-93177234D01*
X169059954Y-93177232D01*
X169242450Y-93079685D01*
X169402410Y-92948410D01*
X169533685Y-92788450D01*
X169631232Y-92605954D01*
X169691300Y-92407934D01*
X169711583Y-92202000D01*
X169691300Y-91996066D01*
X169631232Y-91798046D01*
X169533685Y-91615550D01*
X169455421Y-91520184D01*
X169402410Y-91455589D01*
X169252121Y-91332252D01*
X169242450Y-91324315D01*
X169059954Y-91226768D01*
X168861934Y-91166700D01*
X168861932Y-91166699D01*
X168861934Y-91166699D01*
X168656000Y-91146417D01*
X168450067Y-91166699D01*
X168315736Y-91207448D01*
X168252050Y-91226767D01*
X168252043Y-91226769D01*
X168191271Y-91259253D01*
X168069550Y-91324315D01*
X168069548Y-91324316D01*
X168069547Y-91324317D01*
X167909589Y-91455589D01*
X167778891Y-91614848D01*
X167778315Y-91615550D01*
X167750485Y-91667616D01*
X167680769Y-91798043D01*
X167620699Y-91996067D01*
X167600417Y-92202000D01*
X167620699Y-92407932D01*
X167620700Y-92407934D01*
X167680768Y-92605954D01*
X167778315Y-92788450D01*
X167778317Y-92788452D01*
X167909589Y-92948410D01*
X167952708Y-92983796D01*
X168069550Y-93079685D01*
X168252046Y-93177232D01*
X168252051Y-93177233D01*
X168253951Y-93178021D01*
X168254796Y-93178701D01*
X168257419Y-93180104D01*
X168257153Y-93180601D01*
X168308355Y-93221862D01*
X168330421Y-93288156D01*
X168330500Y-93292583D01*
X168330500Y-93796478D01*
X168330264Y-93801885D01*
X168326735Y-93842208D01*
X168337212Y-93881310D01*
X168338383Y-93886590D01*
X168345411Y-93926443D01*
X168347235Y-93931455D01*
X168354197Y-93948261D01*
X168356445Y-93953081D01*
X168356446Y-93953084D01*
X168366648Y-93967654D01*
X168379655Y-93986231D01*
X168382561Y-93990792D01*
X168402806Y-94025855D01*
X168433815Y-94051875D01*
X168437805Y-94055531D01*
X172941842Y-98559569D01*
X172975327Y-98620892D01*
X172970343Y-98690584D01*
X172932826Y-98743103D01*
X172837190Y-98821589D01*
X172705917Y-98981547D01*
X172608369Y-99164043D01*
X172548299Y-99362067D01*
X172537908Y-99467572D01*
X172511747Y-99532359D01*
X172454712Y-99572717D01*
X172384912Y-99575834D01*
X172326824Y-99543098D01*
X166477819Y-93694093D01*
X166444334Y-93632770D01*
X166441500Y-93606412D01*
X166441500Y-93292583D01*
X166461185Y-93225544D01*
X166513989Y-93179789D01*
X166518049Y-93178021D01*
X166519945Y-93177234D01*
X166519954Y-93177232D01*
X166702450Y-93079685D01*
X166862410Y-92948410D01*
X166993685Y-92788450D01*
X167091232Y-92605954D01*
X167151300Y-92407934D01*
X167171583Y-92202000D01*
X167151300Y-91996066D01*
X167091232Y-91798046D01*
X166993685Y-91615550D01*
X166915421Y-91520184D01*
X166862410Y-91455589D01*
X166712121Y-91332252D01*
X166702450Y-91324315D01*
X166519954Y-91226768D01*
X166321934Y-91166700D01*
X166321932Y-91166699D01*
X166321934Y-91166699D01*
X166116000Y-91146417D01*
X165910067Y-91166699D01*
X165775736Y-91207448D01*
X165712050Y-91226767D01*
X165712043Y-91226769D01*
X165651271Y-91259253D01*
X165529550Y-91324315D01*
X165529548Y-91324316D01*
X165529547Y-91324317D01*
X165369589Y-91455589D01*
X165238891Y-91614848D01*
X165238315Y-91615550D01*
X165210485Y-91667616D01*
X165140769Y-91798043D01*
X165080699Y-91996067D01*
X165060417Y-92202000D01*
X165080699Y-92407932D01*
X165080700Y-92407934D01*
X165140768Y-92605954D01*
X165238315Y-92788450D01*
X165238317Y-92788452D01*
X165369589Y-92948410D01*
X165412708Y-92983796D01*
X165529550Y-93079685D01*
X165712046Y-93177232D01*
X165712051Y-93177233D01*
X165713951Y-93178021D01*
X165714796Y-93178701D01*
X165717419Y-93180104D01*
X165717153Y-93180601D01*
X165768355Y-93221862D01*
X165790421Y-93288156D01*
X165790500Y-93292583D01*
X165790500Y-93775678D01*
X165790264Y-93781085D01*
X165786735Y-93821408D01*
X165797212Y-93860510D01*
X165798383Y-93865790D01*
X165805411Y-93905643D01*
X165807235Y-93910655D01*
X165814197Y-93927461D01*
X165816445Y-93932281D01*
X165816446Y-93932284D01*
X165827633Y-93948261D01*
X165839655Y-93965431D01*
X165842561Y-93969992D01*
X165862806Y-94005055D01*
X165893815Y-94031075D01*
X165897805Y-94034731D01*
X172627292Y-100764218D01*
X172660777Y-100825541D01*
X172655793Y-100895233D01*
X172627292Y-100939580D01*
X169989603Y-103577270D01*
X169985614Y-103580925D01*
X169954605Y-103606945D01*
X169934362Y-103642006D01*
X169931456Y-103646566D01*
X169908246Y-103679713D01*
X169906006Y-103684517D01*
X169899029Y-103701361D01*
X169897210Y-103706359D01*
X169890183Y-103746211D01*
X169889012Y-103751491D01*
X169878535Y-103790591D01*
X169882064Y-103830913D01*
X169882300Y-103836320D01*
X169882300Y-108653711D01*
X169862615Y-108720750D01*
X169845981Y-108741392D01*
X159651303Y-118936070D01*
X159647314Y-118939725D01*
X159616305Y-118965745D01*
X159596062Y-119000806D01*
X159593156Y-119005366D01*
X159569946Y-119038513D01*
X159567706Y-119043317D01*
X159560729Y-119060161D01*
X159558910Y-119065159D01*
X159551883Y-119105011D01*
X159550712Y-119110291D01*
X159540235Y-119149391D01*
X159543764Y-119189713D01*
X159544000Y-119195120D01*
X159544000Y-125594478D01*
X159543764Y-125599885D01*
X159540235Y-125640208D01*
X159550712Y-125679310D01*
X159551883Y-125684590D01*
X159558911Y-125724443D01*
X159560735Y-125729455D01*
X159567697Y-125746261D01*
X159569945Y-125751081D01*
X159569946Y-125751084D01*
X159583952Y-125771087D01*
X159593155Y-125784231D01*
X159596061Y-125788792D01*
X159616306Y-125823855D01*
X159647315Y-125849875D01*
X159651305Y-125853531D01*
X160500793Y-126703019D01*
X160534278Y-126764342D01*
X160529294Y-126834034D01*
X160487422Y-126889967D01*
X160421958Y-126914384D01*
X160413112Y-126914700D01*
X160176647Y-126914700D01*
X160118170Y-126926331D01*
X160118169Y-126926332D01*
X160051847Y-126970647D01*
X160007532Y-127036969D01*
X160007531Y-127036970D01*
X159995900Y-127095447D01*
X159995900Y-127725512D01*
X159976215Y-127792551D01*
X159923411Y-127838306D01*
X159854253Y-127848250D01*
X159790697Y-127819225D01*
X159784219Y-127813193D01*
X152191319Y-120220293D01*
X152157834Y-120158970D01*
X152155000Y-120132612D01*
X152155000Y-120015295D01*
X152174685Y-119948256D01*
X152227489Y-119902501D01*
X152296647Y-119892557D01*
X152326450Y-119900733D01*
X152404938Y-119933244D01*
X152483319Y-119943563D01*
X152561699Y-119953882D01*
X152561700Y-119953882D01*
X152561701Y-119953882D01*
X152613954Y-119947002D01*
X152718462Y-119933244D01*
X152864541Y-119872736D01*
X152989982Y-119776482D01*
X153086236Y-119651041D01*
X153086238Y-119651033D01*
X153087485Y-119648877D01*
X153089017Y-119647415D01*
X153091184Y-119644592D01*
X153091624Y-119644929D01*
X153138049Y-119600658D01*
X153206655Y-119587431D01*
X153271521Y-119613394D01*
X153293248Y-119635380D01*
X153333918Y-119688382D01*
X153459359Y-119784636D01*
X153605438Y-119845144D01*
X153633748Y-119848871D01*
X153762199Y-119865782D01*
X153762200Y-119865782D01*
X153762201Y-119865782D01*
X153797908Y-119861080D01*
X153830018Y-119856853D01*
X153899053Y-119867618D01*
X153933885Y-119892111D01*
X154351663Y-120309889D01*
X154355318Y-120313878D01*
X154381341Y-120344890D01*
X154381343Y-120344891D01*
X154381345Y-120344894D01*
X154381347Y-120344895D01*
X154381348Y-120344896D01*
X154416399Y-120365133D01*
X154420962Y-120368039D01*
X154454116Y-120391254D01*
X154454119Y-120391254D01*
X154458976Y-120393520D01*
X154475733Y-120400460D01*
X154480750Y-120402286D01*
X154480752Y-120402286D01*
X154480755Y-120402288D01*
X154520618Y-120409316D01*
X154525876Y-120410482D01*
X154564993Y-120420964D01*
X154605318Y-120417435D01*
X154610722Y-120417200D01*
X155208878Y-120417200D01*
X155214281Y-120417435D01*
X155254607Y-120420964D01*
X155293740Y-120410477D01*
X155298962Y-120409319D01*
X155338845Y-120402288D01*
X155338850Y-120402284D01*
X155343899Y-120400447D01*
X155360624Y-120393519D01*
X155365481Y-120391254D01*
X155365484Y-120391254D01*
X155398641Y-120368035D01*
X155403190Y-120365138D01*
X155438255Y-120344894D01*
X155438259Y-120344890D01*
X155454346Y-120325717D01*
X155464281Y-120313876D01*
X155467922Y-120309902D01*
X157371304Y-118406520D01*
X157375266Y-118402889D01*
X157406294Y-118376855D01*
X157426538Y-118341790D01*
X157429435Y-118337241D01*
X157452654Y-118304084D01*
X157452654Y-118304081D01*
X157454919Y-118299224D01*
X157461847Y-118282499D01*
X157463684Y-118277450D01*
X157463688Y-118277445D01*
X157470719Y-118237562D01*
X157471877Y-118232340D01*
X157482364Y-118193207D01*
X157478835Y-118152878D01*
X157478600Y-118147475D01*
X157478600Y-108462000D01*
X165668901Y-108462000D01*
X165687252Y-108648331D01*
X165687253Y-108648333D01*
X165741604Y-108827502D01*
X165829862Y-108992623D01*
X165829864Y-108992626D01*
X165948642Y-109137357D01*
X166093373Y-109256135D01*
X166093376Y-109256137D01*
X166258497Y-109344395D01*
X166258499Y-109344396D01*
X166427120Y-109395547D01*
X166437666Y-109398746D01*
X166437668Y-109398747D01*
X166454374Y-109400392D01*
X166624000Y-109417099D01*
X166810331Y-109398747D01*
X166989501Y-109344396D01*
X167154625Y-109256136D01*
X167299357Y-109137357D01*
X167418136Y-108992625D01*
X167506396Y-108827501D01*
X167560747Y-108648331D01*
X167579099Y-108462000D01*
X167560747Y-108275669D01*
X167506396Y-108096499D01*
X167506395Y-108096497D01*
X167418137Y-107931376D01*
X167418135Y-107931373D01*
X167299357Y-107786642D01*
X167154626Y-107667864D01*
X167154623Y-107667862D01*
X166989502Y-107579604D01*
X166810333Y-107525253D01*
X166810331Y-107525252D01*
X166624000Y-107506901D01*
X166437668Y-107525252D01*
X166437666Y-107525253D01*
X166258497Y-107579604D01*
X166093376Y-107667862D01*
X166093373Y-107667864D01*
X165948642Y-107786642D01*
X165829864Y-107931373D01*
X165829862Y-107931376D01*
X165741604Y-108096497D01*
X165687253Y-108275666D01*
X165687252Y-108275668D01*
X165668901Y-108462000D01*
X157478600Y-108462000D01*
X157478600Y-103582000D01*
X165668901Y-103582000D01*
X165687252Y-103768331D01*
X165687253Y-103768333D01*
X165741604Y-103947502D01*
X165829862Y-104112623D01*
X165829864Y-104112626D01*
X165948642Y-104257357D01*
X166093373Y-104376135D01*
X166093376Y-104376137D01*
X166247854Y-104458706D01*
X166258499Y-104464396D01*
X166437666Y-104518746D01*
X166437668Y-104518747D01*
X166454374Y-104520392D01*
X166624000Y-104537099D01*
X166810331Y-104518747D01*
X166989501Y-104464396D01*
X167154625Y-104376136D01*
X167299357Y-104257357D01*
X167418136Y-104112625D01*
X167506396Y-103947501D01*
X167560747Y-103768331D01*
X167579099Y-103582000D01*
X167561221Y-103400478D01*
X167560747Y-103395668D01*
X167560746Y-103395666D01*
X167535883Y-103313704D01*
X167506396Y-103216499D01*
X167470926Y-103150139D01*
X167418137Y-103051376D01*
X167418135Y-103051373D01*
X167299357Y-102906642D01*
X167154626Y-102787864D01*
X167154623Y-102787862D01*
X166989502Y-102699604D01*
X166810333Y-102645253D01*
X166810331Y-102645252D01*
X166624000Y-102626901D01*
X166437668Y-102645252D01*
X166437666Y-102645253D01*
X166258497Y-102699604D01*
X166093376Y-102787862D01*
X166093373Y-102787864D01*
X165948642Y-102906642D01*
X165829864Y-103051373D01*
X165829862Y-103051376D01*
X165741604Y-103216497D01*
X165687253Y-103395666D01*
X165687252Y-103395668D01*
X165668901Y-103582000D01*
X157478600Y-103582000D01*
X157478600Y-100623609D01*
X157478836Y-100618202D01*
X157481226Y-100590892D01*
X157482363Y-100577893D01*
X157482362Y-100577892D01*
X157482363Y-100577891D01*
X157471886Y-100538792D01*
X157470717Y-100533524D01*
X157463688Y-100493655D01*
X157463687Y-100493654D01*
X157463687Y-100493651D01*
X157461865Y-100488647D01*
X157454915Y-100471868D01*
X157452654Y-100467019D01*
X157452653Y-100467018D01*
X157452653Y-100467016D01*
X157429433Y-100433854D01*
X157426535Y-100429304D01*
X157417664Y-100413939D01*
X157406294Y-100394245D01*
X157406291Y-100394242D01*
X157406290Y-100394241D01*
X157379489Y-100371753D01*
X157375282Y-100368222D01*
X157371310Y-100364583D01*
X156953410Y-99946684D01*
X156919926Y-99885362D01*
X156918153Y-99842818D01*
X156919499Y-99832599D01*
X156927082Y-99775000D01*
X156926941Y-99773932D01*
X156906444Y-99618239D01*
X156906444Y-99618238D01*
X156845936Y-99472159D01*
X156749682Y-99346718D01*
X156749680Y-99346716D01*
X156749679Y-99346715D01*
X156695412Y-99305074D01*
X156654210Y-99248646D01*
X156646900Y-99206699D01*
X156646900Y-93761220D01*
X156647136Y-93755813D01*
X156650664Y-93715493D01*
X156647578Y-93703976D01*
X156640182Y-93676376D01*
X156639016Y-93671118D01*
X156631988Y-93631255D01*
X156631986Y-93631252D01*
X156631986Y-93631250D01*
X156630160Y-93626233D01*
X156623220Y-93609476D01*
X156620954Y-93604619D01*
X156620954Y-93604616D01*
X156597739Y-93571462D01*
X156594833Y-93566899D01*
X156574596Y-93531848D01*
X156574595Y-93531847D01*
X156574594Y-93531845D01*
X156543577Y-93505818D01*
X156539593Y-93502167D01*
X156383492Y-93346066D01*
X156350007Y-93284743D01*
X156354991Y-93215051D01*
X156396863Y-93159118D01*
X156412712Y-93149031D01*
X156542450Y-93079685D01*
X156702410Y-92948410D01*
X156833685Y-92788450D01*
X156931232Y-92605954D01*
X156991300Y-92407934D01*
X157011583Y-92202000D01*
X156991300Y-91996066D01*
X156931232Y-91798046D01*
X156833685Y-91615550D01*
X156706164Y-91460164D01*
X156678852Y-91395854D01*
X156690643Y-91326987D01*
X156737796Y-91275427D01*
X156802018Y-91257500D01*
X157649982Y-91257500D01*
X157717021Y-91277185D01*
X157762776Y-91329989D01*
X157772720Y-91399147D01*
X157745836Y-91460164D01*
X157622464Y-91610495D01*
X157618315Y-91615550D01*
X157590485Y-91667616D01*
X157520769Y-91798043D01*
X157460699Y-91996067D01*
X157440417Y-92202000D01*
X157460699Y-92407932D01*
X157460700Y-92407934D01*
X157520768Y-92605954D01*
X157618315Y-92788450D01*
X157618317Y-92788452D01*
X157749589Y-92948410D01*
X157792708Y-92983796D01*
X157909550Y-93079685D01*
X158092046Y-93177232D01*
X158290066Y-93237300D01*
X158290065Y-93237300D01*
X158308529Y-93239118D01*
X158496000Y-93257583D01*
X158701934Y-93237300D01*
X158899954Y-93177232D01*
X159082450Y-93079685D01*
X159242410Y-92948410D01*
X159373685Y-92788450D01*
X159471232Y-92605954D01*
X159531300Y-92407934D01*
X159551583Y-92202000D01*
X159980417Y-92202000D01*
X160000699Y-92407932D01*
X160000700Y-92407934D01*
X160060768Y-92605954D01*
X160158315Y-92788450D01*
X160158317Y-92788452D01*
X160289589Y-92948410D01*
X160332708Y-92983796D01*
X160449550Y-93079685D01*
X160632046Y-93177232D01*
X160830066Y-93237300D01*
X160830065Y-93237300D01*
X160848529Y-93239118D01*
X161036000Y-93257583D01*
X161241934Y-93237300D01*
X161439954Y-93177232D01*
X161622450Y-93079685D01*
X161782410Y-92948410D01*
X161913685Y-92788450D01*
X162011232Y-92605954D01*
X162071300Y-92407934D01*
X162091583Y-92202000D01*
X162520417Y-92202000D01*
X162540699Y-92407932D01*
X162540700Y-92407934D01*
X162600768Y-92605954D01*
X162698315Y-92788450D01*
X162698317Y-92788452D01*
X162829589Y-92948410D01*
X162872708Y-92983796D01*
X162989550Y-93079685D01*
X163172046Y-93177232D01*
X163370066Y-93237300D01*
X163370065Y-93237300D01*
X163388529Y-93239118D01*
X163576000Y-93257583D01*
X163781934Y-93237300D01*
X163979954Y-93177232D01*
X164162450Y-93079685D01*
X164322410Y-92948410D01*
X164453685Y-92788450D01*
X164551232Y-92605954D01*
X164611300Y-92407934D01*
X164631583Y-92202000D01*
X164611300Y-91996066D01*
X164551232Y-91798046D01*
X164453685Y-91615550D01*
X164375421Y-91520184D01*
X164322410Y-91455589D01*
X164172121Y-91332252D01*
X164162450Y-91324315D01*
X163979954Y-91226768D01*
X163781934Y-91166700D01*
X163781932Y-91166699D01*
X163781934Y-91166699D01*
X163576000Y-91146417D01*
X163370067Y-91166699D01*
X163235736Y-91207448D01*
X163172050Y-91226767D01*
X163172043Y-91226769D01*
X163111271Y-91259253D01*
X162989550Y-91324315D01*
X162989548Y-91324316D01*
X162989547Y-91324317D01*
X162829589Y-91455589D01*
X162698891Y-91614848D01*
X162698315Y-91615550D01*
X162670485Y-91667616D01*
X162600769Y-91798043D01*
X162540699Y-91996067D01*
X162520417Y-92202000D01*
X162091583Y-92202000D01*
X162071300Y-91996066D01*
X162011232Y-91798046D01*
X161913685Y-91615550D01*
X161835421Y-91520184D01*
X161782410Y-91455589D01*
X161632121Y-91332252D01*
X161622450Y-91324315D01*
X161439954Y-91226768D01*
X161241934Y-91166700D01*
X161241932Y-91166699D01*
X161241934Y-91166699D01*
X161036000Y-91146417D01*
X160830067Y-91166699D01*
X160695736Y-91207448D01*
X160632050Y-91226767D01*
X160632043Y-91226769D01*
X160571271Y-91259253D01*
X160449550Y-91324315D01*
X160449548Y-91324316D01*
X160449547Y-91324317D01*
X160289589Y-91455589D01*
X160158891Y-91614848D01*
X160158315Y-91615550D01*
X160130485Y-91667616D01*
X160060769Y-91798043D01*
X160000699Y-91996067D01*
X159980417Y-92202000D01*
X159551583Y-92202000D01*
X159531300Y-91996066D01*
X159471232Y-91798046D01*
X159373685Y-91615550D01*
X159295421Y-91520184D01*
X159242410Y-91455589D01*
X159180109Y-91404461D01*
X159156495Y-91385082D01*
X159117161Y-91327337D01*
X159115290Y-91257493D01*
X159151477Y-91197724D01*
X159159053Y-91192175D01*
X159159046Y-91192166D01*
X159167357Y-91185192D01*
X159185866Y-91163133D01*
X159193381Y-91154176D01*
X159197022Y-91150202D01*
X160034737Y-90312487D01*
X160096058Y-90279004D01*
X160165750Y-90283988D01*
X160218270Y-90321506D01*
X160289589Y-90408410D01*
X160358366Y-90464853D01*
X160449550Y-90539685D01*
X160632046Y-90637232D01*
X160830066Y-90697300D01*
X160830065Y-90697300D01*
X160848529Y-90699118D01*
X161036000Y-90717583D01*
X161241934Y-90697300D01*
X161439954Y-90637232D01*
X161622450Y-90539685D01*
X161782410Y-90408410D01*
X161913685Y-90248450D01*
X162011232Y-90065954D01*
X162071300Y-89867934D01*
X162091583Y-89662000D01*
X162520417Y-89662000D01*
X162540699Y-89867932D01*
X162563680Y-89943690D01*
X162600768Y-90065954D01*
X162698315Y-90248450D01*
X162725989Y-90282171D01*
X162829589Y-90408410D01*
X162898366Y-90464853D01*
X162989550Y-90539685D01*
X163172046Y-90637232D01*
X163370066Y-90697300D01*
X163370065Y-90697300D01*
X163388529Y-90699118D01*
X163576000Y-90717583D01*
X163781934Y-90697300D01*
X163979954Y-90637232D01*
X164162450Y-90539685D01*
X164322410Y-90408410D01*
X164453685Y-90248450D01*
X164551232Y-90065954D01*
X164611300Y-89867934D01*
X164631583Y-89662000D01*
X165060417Y-89662000D01*
X165080699Y-89867932D01*
X165103680Y-89943690D01*
X165140768Y-90065954D01*
X165238315Y-90248450D01*
X165265989Y-90282171D01*
X165369589Y-90408410D01*
X165438366Y-90464853D01*
X165529550Y-90539685D01*
X165712046Y-90637232D01*
X165910066Y-90697300D01*
X165910065Y-90697300D01*
X165928529Y-90699118D01*
X166116000Y-90717583D01*
X166321934Y-90697300D01*
X166519954Y-90637232D01*
X166702450Y-90539685D01*
X166862410Y-90408410D01*
X166993685Y-90248450D01*
X167091232Y-90065954D01*
X167151300Y-89867934D01*
X167171583Y-89662000D01*
X167600417Y-89662000D01*
X167620699Y-89867932D01*
X167643680Y-89943690D01*
X167680768Y-90065954D01*
X167778315Y-90248450D01*
X167805989Y-90282171D01*
X167909589Y-90408410D01*
X167978366Y-90464853D01*
X168069550Y-90539685D01*
X168252046Y-90637232D01*
X168450066Y-90697300D01*
X168450065Y-90697300D01*
X168468529Y-90699118D01*
X168656000Y-90717583D01*
X168861934Y-90697300D01*
X169059954Y-90637232D01*
X169242450Y-90539685D01*
X169402410Y-90408410D01*
X169533685Y-90248450D01*
X169631232Y-90065954D01*
X169691300Y-89867934D01*
X169711583Y-89662000D01*
X169691300Y-89456066D01*
X169631232Y-89258046D01*
X169533685Y-89075550D01*
X169463045Y-88989474D01*
X169402410Y-88915589D01*
X169259369Y-88798200D01*
X169242450Y-88784315D01*
X169059954Y-88686768D01*
X168861934Y-88626700D01*
X168861932Y-88626699D01*
X168861934Y-88626699D01*
X168656000Y-88606417D01*
X168450067Y-88626699D01*
X168252043Y-88686769D01*
X168184639Y-88722798D01*
X168069550Y-88784315D01*
X168069548Y-88784316D01*
X168069547Y-88784317D01*
X167909589Y-88915589D01*
X167787385Y-89064498D01*
X167778315Y-89075550D01*
X167754019Y-89121005D01*
X167680769Y-89258043D01*
X167620699Y-89456067D01*
X167600417Y-89662000D01*
X167171583Y-89662000D01*
X167151300Y-89456066D01*
X167091232Y-89258046D01*
X166993685Y-89075550D01*
X166923045Y-88989474D01*
X166862410Y-88915589D01*
X166719369Y-88798200D01*
X166702450Y-88784315D01*
X166519954Y-88686768D01*
X166321934Y-88626700D01*
X166321932Y-88626699D01*
X166321934Y-88626699D01*
X166116000Y-88606417D01*
X165910067Y-88626699D01*
X165712043Y-88686769D01*
X165644639Y-88722798D01*
X165529550Y-88784315D01*
X165529548Y-88784316D01*
X165529547Y-88784317D01*
X165369589Y-88915589D01*
X165247385Y-89064498D01*
X165238315Y-89075550D01*
X165214019Y-89121005D01*
X165140769Y-89258043D01*
X165080699Y-89456067D01*
X165060417Y-89662000D01*
X164631583Y-89662000D01*
X164611300Y-89456066D01*
X164551232Y-89258046D01*
X164453685Y-89075550D01*
X164383045Y-88989474D01*
X164322410Y-88915589D01*
X164179369Y-88798200D01*
X164162450Y-88784315D01*
X163979954Y-88686768D01*
X163781934Y-88626700D01*
X163781932Y-88626699D01*
X163781934Y-88626699D01*
X163576000Y-88606417D01*
X163370067Y-88626699D01*
X163172043Y-88686769D01*
X163104639Y-88722798D01*
X162989550Y-88784315D01*
X162989548Y-88784316D01*
X162989547Y-88784317D01*
X162829589Y-88915589D01*
X162707385Y-89064498D01*
X162698315Y-89075550D01*
X162674019Y-89121005D01*
X162600769Y-89258043D01*
X162540699Y-89456067D01*
X162520417Y-89662000D01*
X162091583Y-89662000D01*
X162071300Y-89456066D01*
X162011232Y-89258046D01*
X161913685Y-89075550D01*
X161843045Y-88989474D01*
X161782410Y-88915589D01*
X161639369Y-88798200D01*
X161622450Y-88784315D01*
X161439954Y-88686768D01*
X161241934Y-88626700D01*
X161241932Y-88626699D01*
X161241934Y-88626699D01*
X161036000Y-88606417D01*
X160830067Y-88626699D01*
X160632043Y-88686769D01*
X160564639Y-88722798D01*
X160449550Y-88784315D01*
X160449548Y-88784316D01*
X160449547Y-88784317D01*
X160289589Y-88915589D01*
X160167385Y-89064498D01*
X160158315Y-89075550D01*
X160134019Y-89121005D01*
X160060768Y-89258045D01*
X160059979Y-89259951D01*
X160059298Y-89260796D01*
X160057896Y-89263419D01*
X160057398Y-89263153D01*
X160016138Y-89314355D01*
X159949844Y-89336421D01*
X159945417Y-89336500D01*
X159801705Y-89336500D01*
X159784709Y-89342684D01*
X159763852Y-89348272D01*
X159746058Y-89351410D01*
X159746055Y-89351412D01*
X159730404Y-89360447D01*
X159710826Y-89369576D01*
X159693844Y-89375757D01*
X159693841Y-89375759D01*
X159692439Y-89376935D01*
X159688709Y-89380064D01*
X159624701Y-89408074D01*
X159555710Y-89397032D01*
X159503640Y-89350442D01*
X159490350Y-89321070D01*
X159471232Y-89258046D01*
X159373685Y-89075550D01*
X159303045Y-88989474D01*
X159242410Y-88915589D01*
X159099369Y-88798200D01*
X159082450Y-88784315D01*
X158899954Y-88686768D01*
X158701934Y-88626700D01*
X158701932Y-88626699D01*
X158701934Y-88626699D01*
X158496000Y-88606417D01*
X158290067Y-88626699D01*
X158092043Y-88686769D01*
X158024639Y-88722798D01*
X157909550Y-88784315D01*
X157909548Y-88784316D01*
X157909547Y-88784317D01*
X157749589Y-88915589D01*
X157627385Y-89064498D01*
X157618315Y-89075550D01*
X157594019Y-89121005D01*
X157520769Y-89258043D01*
X157460699Y-89456067D01*
X157440417Y-89662000D01*
X157460699Y-89867932D01*
X157483680Y-89943690D01*
X157520768Y-90065954D01*
X157618315Y-90248450D01*
X157645989Y-90282171D01*
X157745836Y-90403836D01*
X157773148Y-90468146D01*
X157761357Y-90537013D01*
X157714204Y-90588573D01*
X157649982Y-90606500D01*
X156802018Y-90606500D01*
X156734979Y-90586815D01*
X156689224Y-90534011D01*
X156679280Y-90464853D01*
X156706164Y-90403836D01*
X156752834Y-90346968D01*
X156833685Y-90248450D01*
X156931232Y-90065954D01*
X156991300Y-89867934D01*
X157011583Y-89662000D01*
X156991300Y-89456066D01*
X156931232Y-89258046D01*
X156833685Y-89075550D01*
X156763045Y-88989474D01*
X156702410Y-88915589D01*
X156559369Y-88798200D01*
X156542450Y-88784315D01*
X156359954Y-88686768D01*
X156161934Y-88626700D01*
X156161932Y-88626699D01*
X156161934Y-88626699D01*
X155956000Y-88606417D01*
X155750067Y-88626699D01*
X155552043Y-88686769D01*
X155484639Y-88722798D01*
X155369550Y-88784315D01*
X155369548Y-88784316D01*
X155369547Y-88784317D01*
X155209589Y-88915589D01*
X155087385Y-89064498D01*
X155078315Y-89075550D01*
X155054019Y-89121005D01*
X154980769Y-89258043D01*
X154920699Y-89456067D01*
X154900417Y-89662000D01*
X154920699Y-89867932D01*
X154943680Y-89943690D01*
X154980768Y-90065954D01*
X155078315Y-90248450D01*
X155105989Y-90282171D01*
X155205836Y-90403836D01*
X155233148Y-90468146D01*
X155221357Y-90537013D01*
X155174204Y-90588573D01*
X155109982Y-90606500D01*
X154262018Y-90606500D01*
X154194979Y-90586815D01*
X154149224Y-90534011D01*
X154139280Y-90464853D01*
X154166164Y-90403836D01*
X154212834Y-90346968D01*
X154293685Y-90248450D01*
X154391232Y-90065954D01*
X154451300Y-89867934D01*
X154471583Y-89662000D01*
X154451300Y-89456066D01*
X154391232Y-89258046D01*
X154293685Y-89075550D01*
X154223045Y-88989474D01*
X154162410Y-88915589D01*
X154019369Y-88798200D01*
X154002450Y-88784315D01*
X153819954Y-88686768D01*
X153621934Y-88626700D01*
X153621932Y-88626699D01*
X153621934Y-88626699D01*
X153416000Y-88606417D01*
X153210067Y-88626699D01*
X153012043Y-88686769D01*
X152944639Y-88722798D01*
X152829550Y-88784315D01*
X152829548Y-88784316D01*
X152829547Y-88784317D01*
X152669589Y-88915589D01*
X152547385Y-89064498D01*
X152538315Y-89075550D01*
X152514019Y-89121005D01*
X152440769Y-89258043D01*
X152380699Y-89456067D01*
X152360417Y-89662000D01*
X152380699Y-89867932D01*
X152403680Y-89943690D01*
X152440768Y-90065954D01*
X152538315Y-90248450D01*
X152565989Y-90282171D01*
X152669589Y-90408410D01*
X152738366Y-90464853D01*
X152780157Y-90499150D01*
X152819492Y-90556895D01*
X152821363Y-90626739D01*
X152796481Y-90674710D01*
X152767024Y-90709814D01*
X152763369Y-90713803D01*
X151927802Y-91549370D01*
X151923813Y-91553026D01*
X151888710Y-91582482D01*
X151824702Y-91610495D01*
X151755710Y-91599457D01*
X151713149Y-91566157D01*
X151712337Y-91565168D01*
X151675421Y-91520184D01*
X151622410Y-91455589D01*
X151472121Y-91332252D01*
X151462450Y-91324315D01*
X151279954Y-91226768D01*
X151081934Y-91166700D01*
X151081932Y-91166699D01*
X151081934Y-91166699D01*
X150876000Y-91146417D01*
X150670067Y-91166699D01*
X150535736Y-91207448D01*
X150472050Y-91226767D01*
X150472043Y-91226769D01*
X150411271Y-91259253D01*
X150289550Y-91324315D01*
X150289548Y-91324316D01*
X150289547Y-91324317D01*
X150129589Y-91455589D01*
X149998891Y-91614848D01*
X149998315Y-91615550D01*
X149970485Y-91667616D01*
X149900769Y-91798043D01*
X149840699Y-91996067D01*
X149820417Y-92202000D01*
X149840699Y-92407932D01*
X149840700Y-92407934D01*
X149900768Y-92605954D01*
X149998315Y-92788450D01*
X149998317Y-92788452D01*
X150129589Y-92948410D01*
X150172708Y-92983796D01*
X150289550Y-93079685D01*
X150472046Y-93177232D01*
X150670066Y-93237300D01*
X150670065Y-93237300D01*
X150688529Y-93239118D01*
X150876000Y-93257583D01*
X151081934Y-93237300D01*
X151279954Y-93177232D01*
X151462450Y-93079685D01*
X151617836Y-92952164D01*
X151682146Y-92924852D01*
X151751013Y-92936643D01*
X151802573Y-92983796D01*
X151820500Y-93048018D01*
X151820500Y-94433311D01*
X151800815Y-94500350D01*
X151784181Y-94520992D01*
X148288181Y-98016992D01*
X148226858Y-98050477D01*
X148157166Y-98045493D01*
X148101233Y-98003621D01*
X148076816Y-97938157D01*
X148076500Y-97929311D01*
X148076500Y-95898812D01*
X148076736Y-95893406D01*
X148080149Y-95854400D01*
X148080263Y-95853093D01*
X148080262Y-95853092D01*
X148080263Y-95853091D01*
X148069785Y-95813990D01*
X148068618Y-95808730D01*
X148061588Y-95768855D01*
X148061587Y-95768853D01*
X148059760Y-95763833D01*
X148052820Y-95747076D01*
X148050554Y-95742219D01*
X148050554Y-95742216D01*
X148027337Y-95709059D01*
X148024435Y-95704505D01*
X148004194Y-95669445D01*
X147973182Y-95643422D01*
X147969210Y-95639783D01*
X147427819Y-95098392D01*
X147394334Y-95037069D01*
X147391500Y-95010711D01*
X147391500Y-93048018D01*
X147411185Y-92980979D01*
X147463989Y-92935224D01*
X147533147Y-92925280D01*
X147594164Y-92952164D01*
X147749550Y-93079685D01*
X147932046Y-93177232D01*
X148130066Y-93237300D01*
X148130065Y-93237300D01*
X148148529Y-93239118D01*
X148336000Y-93257583D01*
X148541934Y-93237300D01*
X148739954Y-93177232D01*
X148922450Y-93079685D01*
X149082410Y-92948410D01*
X149213685Y-92788450D01*
X149311232Y-92605954D01*
X149371300Y-92407934D01*
X149391583Y-92202000D01*
X149371300Y-91996066D01*
X149311232Y-91798046D01*
X149213685Y-91615550D01*
X149135421Y-91520184D01*
X149082410Y-91455589D01*
X148932121Y-91332252D01*
X148922450Y-91324315D01*
X148739954Y-91226768D01*
X148673447Y-91206593D01*
X148615009Y-91168296D01*
X148586553Y-91104484D01*
X148597113Y-91035417D01*
X148643337Y-90983023D01*
X148677350Y-90968158D01*
X148799483Y-90935433D01*
X148799492Y-90935429D01*
X149013578Y-90835600D01*
X149207082Y-90700105D01*
X149374105Y-90533082D01*
X149509600Y-90339578D01*
X149609429Y-90125492D01*
X149609433Y-90125483D01*
X149642158Y-90003350D01*
X149678522Y-89943690D01*
X149741369Y-89913160D01*
X149810745Y-89921454D01*
X149864623Y-89965939D01*
X149880593Y-89999447D01*
X149900768Y-90065954D01*
X149998315Y-90248450D01*
X150025989Y-90282171D01*
X150129589Y-90408410D01*
X150198366Y-90464853D01*
X150289550Y-90539685D01*
X150472046Y-90637232D01*
X150670066Y-90697300D01*
X150670065Y-90697300D01*
X150688529Y-90699118D01*
X150876000Y-90717583D01*
X151081934Y-90697300D01*
X151279954Y-90637232D01*
X151462450Y-90539685D01*
X151622410Y-90408410D01*
X151753685Y-90248450D01*
X151851232Y-90065954D01*
X151911300Y-89867934D01*
X151931583Y-89662000D01*
X151911300Y-89456066D01*
X151851232Y-89258046D01*
X151753685Y-89075550D01*
X151683045Y-88989474D01*
X151622410Y-88915589D01*
X151479369Y-88798200D01*
X151462450Y-88784315D01*
X151279954Y-88686768D01*
X151081934Y-88626700D01*
X151081932Y-88626699D01*
X151081934Y-88626699D01*
X150876000Y-88606417D01*
X150670067Y-88626699D01*
X150472043Y-88686769D01*
X150404639Y-88722798D01*
X150289550Y-88784315D01*
X150289548Y-88784316D01*
X150289547Y-88784317D01*
X150129589Y-88915589D01*
X150007385Y-89064498D01*
X149998315Y-89075550D01*
X149974019Y-89121005D01*
X149900767Y-89258046D01*
X149880593Y-89324552D01*
X149842296Y-89382990D01*
X149778483Y-89411447D01*
X149709416Y-89400886D01*
X149657023Y-89354661D01*
X149642158Y-89320649D01*
X149609433Y-89198516D01*
X149609429Y-89198507D01*
X149509600Y-88984422D01*
X149509599Y-88984420D01*
X149374113Y-88790926D01*
X149374108Y-88790920D01*
X149207082Y-88623894D01*
X149013578Y-88488399D01*
X148799492Y-88388570D01*
X148799486Y-88388567D01*
X148586000Y-88331364D01*
X148586000Y-89226498D01*
X148478315Y-89177320D01*
X148371763Y-89162000D01*
X148300237Y-89162000D01*
X148193685Y-89177320D01*
X148086000Y-89226498D01*
X148086000Y-88331364D01*
X148085999Y-88331364D01*
X147872513Y-88388567D01*
X147872507Y-88388570D01*
X147658422Y-88488399D01*
X147658420Y-88488400D01*
X147464926Y-88623886D01*
X147464920Y-88623891D01*
X147297891Y-88790920D01*
X147297890Y-88790922D01*
X147167575Y-88977031D01*
X147112998Y-89020655D01*
X147043499Y-89027848D01*
X146981145Y-88996326D01*
X146964425Y-88977031D01*
X146834109Y-88790922D01*
X146834108Y-88790920D01*
X146667082Y-88623894D01*
X146473578Y-88488399D01*
X146259492Y-88388570D01*
X146259486Y-88388567D01*
X146046000Y-88331364D01*
X146046000Y-89226498D01*
X145938315Y-89177320D01*
X145831763Y-89162000D01*
X145760237Y-89162000D01*
X145653685Y-89177320D01*
X145546000Y-89226498D01*
X145546000Y-88331364D01*
X145545999Y-88331364D01*
X145332513Y-88388567D01*
X145332507Y-88388570D01*
X145118422Y-88488399D01*
X145118420Y-88488400D01*
X144924926Y-88623886D01*
X144924920Y-88623891D01*
X144757891Y-88790920D01*
X144757886Y-88790926D01*
X144622400Y-88984420D01*
X144622399Y-88984422D01*
X144522571Y-89198504D01*
X144510221Y-89244595D01*
X144473855Y-89304255D01*
X144411008Y-89334783D01*
X144390446Y-89336500D01*
X144346583Y-89336500D01*
X144279544Y-89316815D01*
X144233789Y-89264011D01*
X144232021Y-89259951D01*
X144231233Y-89258051D01*
X144231232Y-89258046D01*
X144133685Y-89075550D01*
X144063045Y-88989474D01*
X144002410Y-88915589D01*
X143859369Y-88798200D01*
X143842450Y-88784315D01*
X143659954Y-88686768D01*
X143461934Y-88626700D01*
X143461932Y-88626699D01*
X143461934Y-88626699D01*
X143256000Y-88606417D01*
X143050067Y-88626699D01*
X142938054Y-88660678D01*
X142852046Y-88686768D01*
X142852043Y-88686769D01*
X142852041Y-88686770D01*
X142850132Y-88687561D01*
X142849051Y-88687677D01*
X142846217Y-88688537D01*
X142846053Y-88687999D01*
X142780662Y-88695026D01*
X142718185Y-88663747D01*
X142715005Y-88660678D01*
X142649989Y-88595662D01*
X142308819Y-88254493D01*
X142305174Y-88250514D01*
X142279156Y-88219507D01*
X142279155Y-88219506D01*
X142255917Y-88206089D01*
X142244092Y-88199261D01*
X142239531Y-88196355D01*
X142226387Y-88187152D01*
X142206384Y-88173146D01*
X142206381Y-88173145D01*
X142201561Y-88170897D01*
X142184755Y-88163935D01*
X142179743Y-88162111D01*
X142139890Y-88155083D01*
X142134610Y-88153912D01*
X142095508Y-88143435D01*
X142060592Y-88146490D01*
X142055181Y-88146964D01*
X142049778Y-88147200D01*
X137165213Y-88147200D01*
X137159811Y-88146964D01*
X137152426Y-88146318D01*
X137119492Y-88143436D01*
X137119491Y-88143436D01*
X137080399Y-88153911D01*
X137075119Y-88155082D01*
X137035254Y-88162112D01*
X137030262Y-88163929D01*
X137013417Y-88170906D01*
X137008613Y-88173146D01*
X136975463Y-88196358D01*
X136970902Y-88199264D01*
X136935848Y-88219504D01*
X136935845Y-88219506D01*
X136935843Y-88219507D01*
X136935842Y-88219509D01*
X136909823Y-88250515D01*
X136906169Y-88254503D01*
X135022493Y-90138181D01*
X134961170Y-90171666D01*
X134934812Y-90174500D01*
X132186188Y-90174500D01*
X132119149Y-90154815D01*
X132098507Y-90138181D01*
X131953819Y-89993493D01*
X131920334Y-89932170D01*
X131917500Y-89905812D01*
X131917500Y-89716500D01*
X131937185Y-89649461D01*
X131989989Y-89603706D01*
X132041500Y-89592500D01*
X132246270Y-89592500D01*
X132276699Y-89589646D01*
X132276701Y-89589646D01*
X132340790Y-89567219D01*
X132404882Y-89544793D01*
X132514150Y-89464150D01*
X132594793Y-89354882D01*
X132626797Y-89263419D01*
X132639646Y-89226701D01*
X132639646Y-89226699D01*
X132642500Y-89196269D01*
X132642500Y-89187236D01*
X132662185Y-89120197D01*
X132714989Y-89074442D01*
X132784147Y-89064498D01*
X132847703Y-89093523D01*
X132878882Y-89134832D01*
X132918397Y-89219573D01*
X132918399Y-89219577D01*
X133053886Y-89413073D01*
X133053891Y-89413079D01*
X133220917Y-89580105D01*
X133414421Y-89715600D01*
X133628507Y-89815429D01*
X133628516Y-89815433D01*
X133842000Y-89872634D01*
X133842000Y-88827501D01*
X133949685Y-88876680D01*
X134056237Y-88892000D01*
X134127763Y-88892000D01*
X134234315Y-88876680D01*
X134342000Y-88827501D01*
X134342000Y-89872633D01*
X134555483Y-89815433D01*
X134555492Y-89815429D01*
X134769577Y-89715600D01*
X134769579Y-89715599D01*
X134963073Y-89580113D01*
X134963079Y-89580108D01*
X135130108Y-89413079D01*
X135130113Y-89413073D01*
X135265601Y-89219577D01*
X135365429Y-89005492D01*
X135365433Y-89005483D01*
X135426567Y-88777326D01*
X135426569Y-88777315D01*
X135438407Y-88642000D01*
X134525686Y-88642000D01*
X134551493Y-88601844D01*
X134592000Y-88463889D01*
X134592000Y-88320111D01*
X134551493Y-88182156D01*
X134525686Y-88142000D01*
X135438407Y-88142000D01*
X135438407Y-88141999D01*
X135426569Y-88006684D01*
X135426567Y-88006673D01*
X135365433Y-87778516D01*
X135365429Y-87778507D01*
X135265600Y-87564422D01*
X135265599Y-87564420D01*
X135220492Y-87500000D01*
X173944706Y-87500000D01*
X173963853Y-87743297D01*
X173963853Y-87743300D01*
X173963854Y-87743302D01*
X174020827Y-87980609D01*
X174020830Y-87980619D01*
X174114222Y-88206089D01*
X174241737Y-88414173D01*
X174241738Y-88414176D01*
X174241741Y-88414179D01*
X174400241Y-88599759D01*
X174533710Y-88713752D01*
X174585823Y-88758261D01*
X174585825Y-88758261D01*
X174628344Y-88784317D01*
X174793911Y-88885777D01*
X174793910Y-88885777D01*
X174807542Y-88891423D01*
X174832044Y-88901572D01*
X174834258Y-88902555D01*
X174836127Y-88903263D01*
X175019388Y-88979172D01*
X175019389Y-88979172D01*
X175019391Y-88979173D01*
X175033134Y-88982472D01*
X175059260Y-88988744D01*
X175062017Y-88989474D01*
X175068057Y-88991223D01*
X175068061Y-88991225D01*
X175078290Y-88993313D01*
X175256698Y-89036146D01*
X175303995Y-89039868D01*
X175311542Y-89040932D01*
X175312864Y-89041202D01*
X175329414Y-89041868D01*
X175500000Y-89055294D01*
X175551386Y-89051249D01*
X175558730Y-89051109D01*
X175562514Y-89051262D01*
X175583293Y-89048738D01*
X175743302Y-89036146D01*
X175797465Y-89023142D01*
X175804439Y-89021887D01*
X175810544Y-89021146D01*
X175832268Y-89014853D01*
X175834972Y-89014137D01*
X175980612Y-88979172D01*
X176035940Y-88956254D01*
X176042404Y-88953987D01*
X176050532Y-88951633D01*
X176072788Y-88941072D01*
X176075497Y-88939869D01*
X176206089Y-88885777D01*
X176260830Y-88852231D01*
X176266604Y-88849104D01*
X176276261Y-88844523D01*
X176297464Y-88829886D01*
X176300241Y-88828080D01*
X176414179Y-88758259D01*
X176466309Y-88713735D01*
X176471306Y-88709892D01*
X176481885Y-88702591D01*
X176500901Y-88684324D01*
X176503493Y-88681976D01*
X176599759Y-88599759D01*
X176647157Y-88544262D01*
X176651349Y-88539817D01*
X176662079Y-88529512D01*
X176677953Y-88508386D01*
X176680325Y-88505427D01*
X176758259Y-88414179D01*
X176798786Y-88348044D01*
X176802044Y-88343252D01*
X176812176Y-88329770D01*
X176824315Y-88306639D01*
X176826306Y-88303136D01*
X176885777Y-88206089D01*
X176917238Y-88130133D01*
X176919601Y-88125088D01*
X176928288Y-88108537D01*
X176936346Y-88084399D01*
X176937846Y-88080381D01*
X176979172Y-87980612D01*
X176999488Y-87895990D01*
X177000947Y-87890894D01*
X177007408Y-87871543D01*
X177011343Y-87847326D01*
X177012229Y-87842918D01*
X177036146Y-87743302D01*
X177043361Y-87651623D01*
X177043973Y-87646547D01*
X177047487Y-87624926D01*
X177048146Y-87592153D01*
X177048324Y-87588560D01*
X177048389Y-87587734D01*
X177055294Y-87500000D01*
X177048323Y-87411433D01*
X177048146Y-87407842D01*
X177047487Y-87375074D01*
X177043972Y-87353446D01*
X177043360Y-87348367D01*
X177036146Y-87256698D01*
X177012239Y-87157123D01*
X177011335Y-87152620D01*
X177007408Y-87128457D01*
X177000955Y-87109129D01*
X176999482Y-87103987D01*
X176979172Y-87019388D01*
X176937858Y-86919648D01*
X176936335Y-86915568D01*
X176928288Y-86891463D01*
X176919609Y-86874927D01*
X176917238Y-86869867D01*
X176885777Y-86793911D01*
X176826308Y-86696867D01*
X176824308Y-86693346D01*
X176812176Y-86670230D01*
X176802066Y-86656776D01*
X176798766Y-86651923D01*
X176783977Y-86627790D01*
X176758259Y-86585821D01*
X176680341Y-86494591D01*
X176677944Y-86491601D01*
X176662079Y-86470488D01*
X176651354Y-86460186D01*
X176647156Y-86455735D01*
X176599759Y-86400241D01*
X176503513Y-86318039D01*
X176500885Y-86315659D01*
X176481885Y-86297409D01*
X176477219Y-86294188D01*
X176471333Y-86290125D01*
X176466287Y-86286245D01*
X176414179Y-86241741D01*
X176414170Y-86241734D01*
X176300273Y-86171938D01*
X176297450Y-86170101D01*
X176276264Y-86155478D01*
X176276260Y-86155476D01*
X176266608Y-86150895D01*
X176260796Y-86147746D01*
X176224845Y-86125717D01*
X176206089Y-86114223D01*
X176206083Y-86114220D01*
X176206077Y-86114217D01*
X176075569Y-86060160D01*
X176072716Y-86058893D01*
X176050533Y-86048367D01*
X176050519Y-86048362D01*
X176042406Y-86046011D01*
X176035933Y-86043741D01*
X175980622Y-86020831D01*
X175980606Y-86020826D01*
X175835002Y-85985868D01*
X175832231Y-85985134D01*
X175810547Y-85978855D01*
X175810548Y-85978855D01*
X175810544Y-85978854D01*
X175810536Y-85978853D01*
X175810525Y-85978851D01*
X175804427Y-85978109D01*
X175797437Y-85976850D01*
X175743302Y-85963854D01*
X175583297Y-85951261D01*
X175562525Y-85948739D01*
X175562520Y-85948738D01*
X175562514Y-85948738D01*
X175562508Y-85948738D01*
X175562504Y-85948738D01*
X175558731Y-85948890D01*
X175551376Y-85948748D01*
X175500000Y-85944706D01*
X175329417Y-85958130D01*
X175312869Y-85958797D01*
X175312833Y-85958801D01*
X175311503Y-85959073D01*
X175303988Y-85960131D01*
X175256706Y-85963853D01*
X175256701Y-85963853D01*
X175256698Y-85963854D01*
X175256695Y-85963854D01*
X175256693Y-85963855D01*
X175078287Y-86006687D01*
X175068059Y-86008775D01*
X175062015Y-86010525D01*
X175059247Y-86011258D01*
X175019390Y-86020827D01*
X175019385Y-86020828D01*
X174836127Y-86096736D01*
X174834250Y-86097448D01*
X174832041Y-86098428D01*
X174793910Y-86114223D01*
X174793904Y-86114226D01*
X174585826Y-86241737D01*
X174585823Y-86241738D01*
X174400241Y-86400241D01*
X174241738Y-86585823D01*
X174241737Y-86585826D01*
X174114222Y-86793910D01*
X174020830Y-87019380D01*
X173963853Y-87256702D01*
X173944706Y-87500000D01*
X135220492Y-87500000D01*
X135130113Y-87370926D01*
X135130108Y-87370920D01*
X134963082Y-87203894D01*
X134769578Y-87068399D01*
X134555492Y-86968570D01*
X134555486Y-86968567D01*
X134342000Y-86911364D01*
X134342000Y-87956498D01*
X134234315Y-87907320D01*
X134127763Y-87892000D01*
X134056237Y-87892000D01*
X133949685Y-87907320D01*
X133842000Y-87956498D01*
X133842000Y-86911364D01*
X133841999Y-86911364D01*
X133628513Y-86968567D01*
X133628507Y-86968570D01*
X133414422Y-87068399D01*
X133414420Y-87068400D01*
X133220926Y-87203886D01*
X133220920Y-87203891D01*
X133053891Y-87370920D01*
X133053886Y-87370926D01*
X132918400Y-87564420D01*
X132918399Y-87564422D01*
X132878882Y-87649168D01*
X132832710Y-87701607D01*
X132765516Y-87720759D01*
X132698635Y-87700543D01*
X132653300Y-87647378D01*
X132642500Y-87596763D01*
X132642500Y-87587730D01*
X132639646Y-87557300D01*
X132639646Y-87557298D01*
X132594793Y-87429119D01*
X132594792Y-87429117D01*
X132514150Y-87319850D01*
X132404882Y-87239207D01*
X132404880Y-87239206D01*
X132276700Y-87194353D01*
X132246270Y-87191500D01*
X132246266Y-87191500D01*
X130937734Y-87191500D01*
X130937730Y-87191500D01*
X130907300Y-87194353D01*
X130907298Y-87194353D01*
X130779119Y-87239206D01*
X130779117Y-87239207D01*
X130669850Y-87319850D01*
X130589207Y-87429117D01*
X130589206Y-87429119D01*
X130544353Y-87557298D01*
X130544353Y-87557300D01*
X130541500Y-87587730D01*
X130541500Y-89196269D01*
X130544353Y-89226699D01*
X130544353Y-89226701D01*
X130589206Y-89354880D01*
X130589207Y-89354882D01*
X130669850Y-89464150D01*
X130779118Y-89544793D01*
X130821845Y-89559744D01*
X130907299Y-89589646D01*
X130937730Y-89592500D01*
X130937734Y-89592500D01*
X131142500Y-89592500D01*
X131209539Y-89612185D01*
X131255294Y-89664989D01*
X131266500Y-89716500D01*
X131266500Y-89921811D01*
X131246815Y-89988850D01*
X131230181Y-90009492D01*
X124214664Y-97025008D01*
X124153341Y-97058493D01*
X124090988Y-97055988D01*
X123988852Y-97025005D01*
X123937115Y-97009311D01*
X123937113Y-97009310D01*
X123937115Y-97009310D01*
X123750000Y-96990882D01*
X123562884Y-97009310D01*
X123562882Y-97009311D01*
X123382959Y-97063891D01*
X123217148Y-97152518D01*
X123217142Y-97152523D01*
X123071800Y-97271800D01*
X122952523Y-97417142D01*
X122952518Y-97417148D01*
X122863891Y-97582959D01*
X122809311Y-97762882D01*
X122809310Y-97762884D01*
X122790882Y-97950000D01*
X119000500Y-97950000D01*
X119000500Y-95723752D01*
X122795500Y-95723752D01*
X122807131Y-95782229D01*
X122807132Y-95782230D01*
X122851447Y-95848552D01*
X122917769Y-95892867D01*
X122917770Y-95892868D01*
X122976247Y-95904499D01*
X122976250Y-95904500D01*
X122976252Y-95904500D01*
X124523750Y-95904500D01*
X124523751Y-95904499D01*
X124538568Y-95901552D01*
X124582229Y-95892868D01*
X124582229Y-95892867D01*
X124582231Y-95892867D01*
X124648552Y-95848552D01*
X124692867Y-95782231D01*
X124692867Y-95782229D01*
X124692868Y-95782229D01*
X124704499Y-95723752D01*
X124704500Y-95723750D01*
X124704500Y-94176249D01*
X124704499Y-94176247D01*
X124692868Y-94117770D01*
X124692867Y-94117769D01*
X124648552Y-94051447D01*
X124582230Y-94007132D01*
X124582229Y-94007131D01*
X124523752Y-93995500D01*
X124523748Y-93995500D01*
X122976252Y-93995500D01*
X122976247Y-93995500D01*
X122917770Y-94007131D01*
X122917769Y-94007132D01*
X122851447Y-94051447D01*
X122807132Y-94117769D01*
X122807131Y-94117770D01*
X122795500Y-94176247D01*
X122795500Y-95723752D01*
X119000500Y-95723752D01*
X119000500Y-92150003D01*
X122344435Y-92150003D01*
X122364630Y-92329249D01*
X122364631Y-92329254D01*
X122424211Y-92499523D01*
X122491087Y-92605954D01*
X122520184Y-92652262D01*
X122647738Y-92779816D01*
X122800478Y-92875789D01*
X122930224Y-92921189D01*
X122970745Y-92935368D01*
X122970750Y-92935369D01*
X123061246Y-92945565D01*
X123105040Y-92950499D01*
X123105043Y-92950500D01*
X123105046Y-92950500D01*
X124394957Y-92950500D01*
X124394958Y-92950499D01*
X124462104Y-92942934D01*
X124529249Y-92935369D01*
X124529252Y-92935368D01*
X124529255Y-92935368D01*
X124699522Y-92875789D01*
X124852262Y-92779816D01*
X124979816Y-92652262D01*
X125075789Y-92499522D01*
X125135368Y-92329255D01*
X125155565Y-92150000D01*
X125138221Y-91996067D01*
X125135369Y-91970750D01*
X125135368Y-91970745D01*
X125075788Y-91800476D01*
X125025833Y-91720974D01*
X124979816Y-91647738D01*
X124852262Y-91520184D01*
X124756741Y-91460164D01*
X124699523Y-91424211D01*
X124529254Y-91364631D01*
X124529249Y-91364630D01*
X124394960Y-91349500D01*
X124394954Y-91349500D01*
X123105046Y-91349500D01*
X123105039Y-91349500D01*
X122970750Y-91364630D01*
X122970745Y-91364631D01*
X122800476Y-91424211D01*
X122647737Y-91520184D01*
X122520184Y-91647737D01*
X122424211Y-91800476D01*
X122364631Y-91970745D01*
X122364630Y-91970750D01*
X122344435Y-92149996D01*
X122344435Y-92150003D01*
X119000500Y-92150003D01*
X119000500Y-87501528D01*
X119000538Y-87500000D01*
X120944706Y-87500000D01*
X120963853Y-87743297D01*
X120963853Y-87743300D01*
X120963854Y-87743302D01*
X121020827Y-87980609D01*
X121020830Y-87980619D01*
X121114222Y-88206089D01*
X121241737Y-88414173D01*
X121241738Y-88414176D01*
X121241741Y-88414179D01*
X121400241Y-88599759D01*
X121533710Y-88713752D01*
X121585823Y-88758261D01*
X121585825Y-88758261D01*
X121628344Y-88784317D01*
X121793911Y-88885777D01*
X121793910Y-88885777D01*
X121807542Y-88891423D01*
X121832044Y-88901572D01*
X121834258Y-88902555D01*
X121836127Y-88903263D01*
X122019388Y-88979172D01*
X122019389Y-88979172D01*
X122019391Y-88979173D01*
X122033134Y-88982472D01*
X122059260Y-88988744D01*
X122062017Y-88989474D01*
X122068057Y-88991223D01*
X122068061Y-88991225D01*
X122078290Y-88993313D01*
X122256698Y-89036146D01*
X122303995Y-89039868D01*
X122311542Y-89040932D01*
X122312864Y-89041202D01*
X122329414Y-89041868D01*
X122500000Y-89055294D01*
X122551386Y-89051249D01*
X122558730Y-89051109D01*
X122562514Y-89051262D01*
X122583293Y-89048738D01*
X122743302Y-89036146D01*
X122797465Y-89023142D01*
X122804439Y-89021887D01*
X122810544Y-89021146D01*
X122832268Y-89014853D01*
X122834972Y-89014137D01*
X122980612Y-88979172D01*
X123035940Y-88956254D01*
X123042404Y-88953987D01*
X123050532Y-88951633D01*
X123072788Y-88941072D01*
X123075497Y-88939869D01*
X123206089Y-88885777D01*
X123260830Y-88852231D01*
X123266604Y-88849104D01*
X123276261Y-88844523D01*
X123297464Y-88829886D01*
X123300241Y-88828080D01*
X123414179Y-88758259D01*
X123466309Y-88713735D01*
X123471306Y-88709892D01*
X123481885Y-88702591D01*
X123500901Y-88684324D01*
X123503493Y-88681976D01*
X123599759Y-88599759D01*
X123647157Y-88544262D01*
X123651349Y-88539817D01*
X123662079Y-88529512D01*
X123677953Y-88508386D01*
X123680325Y-88505427D01*
X123758259Y-88414179D01*
X123798786Y-88348044D01*
X123802044Y-88343252D01*
X123812176Y-88329770D01*
X123824315Y-88306639D01*
X123826306Y-88303136D01*
X123885777Y-88206089D01*
X123917238Y-88130133D01*
X123919601Y-88125088D01*
X123928288Y-88108537D01*
X123936346Y-88084399D01*
X123937846Y-88080381D01*
X123979172Y-87980612D01*
X123999488Y-87895990D01*
X124000947Y-87890894D01*
X124007408Y-87871543D01*
X124011343Y-87847326D01*
X124012229Y-87842918D01*
X124036146Y-87743302D01*
X124043361Y-87651623D01*
X124043973Y-87646547D01*
X124047487Y-87624926D01*
X124048146Y-87592153D01*
X124048324Y-87588560D01*
X124048389Y-87587734D01*
X124055294Y-87500000D01*
X124048323Y-87411433D01*
X124048146Y-87407842D01*
X124047487Y-87375074D01*
X124043972Y-87353446D01*
X124043360Y-87348367D01*
X124036146Y-87256698D01*
X124012239Y-87157123D01*
X124011335Y-87152620D01*
X124007408Y-87128457D01*
X124000955Y-87109129D01*
X123999482Y-87103987D01*
X123979172Y-87019388D01*
X123937858Y-86919648D01*
X123936335Y-86915568D01*
X123928288Y-86891463D01*
X123919609Y-86874927D01*
X123917238Y-86869867D01*
X123885777Y-86793911D01*
X123826308Y-86696867D01*
X123824308Y-86693346D01*
X123812176Y-86670230D01*
X123802066Y-86656776D01*
X123798766Y-86651923D01*
X123783977Y-86627790D01*
X123758259Y-86585821D01*
X123680341Y-86494591D01*
X123677944Y-86491601D01*
X123662079Y-86470488D01*
X123651354Y-86460186D01*
X123647156Y-86455735D01*
X123599759Y-86400241D01*
X123503513Y-86318039D01*
X123500885Y-86315659D01*
X123481885Y-86297409D01*
X123477219Y-86294188D01*
X123471333Y-86290125D01*
X123466287Y-86286245D01*
X123414179Y-86241741D01*
X123414170Y-86241734D01*
X123300273Y-86171938D01*
X123297450Y-86170101D01*
X123276264Y-86155478D01*
X123276260Y-86155476D01*
X123266608Y-86150895D01*
X123260796Y-86147746D01*
X123224845Y-86125717D01*
X123206089Y-86114223D01*
X123206083Y-86114220D01*
X123206077Y-86114217D01*
X123075569Y-86060160D01*
X123072716Y-86058893D01*
X123050533Y-86048367D01*
X123050519Y-86048362D01*
X123042406Y-86046011D01*
X123035933Y-86043741D01*
X122980622Y-86020831D01*
X122980606Y-86020826D01*
X122835002Y-85985868D01*
X122832231Y-85985134D01*
X122810547Y-85978855D01*
X122810548Y-85978855D01*
X122810544Y-85978854D01*
X122810536Y-85978853D01*
X122810525Y-85978851D01*
X122804427Y-85978109D01*
X122797437Y-85976850D01*
X122743302Y-85963854D01*
X122583297Y-85951261D01*
X122562525Y-85948739D01*
X122562520Y-85948738D01*
X122562514Y-85948738D01*
X122562508Y-85948738D01*
X122562504Y-85948738D01*
X122558731Y-85948890D01*
X122551376Y-85948748D01*
X122500000Y-85944706D01*
X122329417Y-85958130D01*
X122312869Y-85958797D01*
X122312833Y-85958801D01*
X122311503Y-85959073D01*
X122303988Y-85960131D01*
X122256706Y-85963853D01*
X122256701Y-85963853D01*
X122256698Y-85963854D01*
X122256695Y-85963854D01*
X122256693Y-85963855D01*
X122078287Y-86006687D01*
X122068059Y-86008775D01*
X122062015Y-86010525D01*
X122059247Y-86011258D01*
X122019390Y-86020827D01*
X122019385Y-86020828D01*
X121836127Y-86096736D01*
X121834250Y-86097448D01*
X121832041Y-86098428D01*
X121793910Y-86114223D01*
X121793904Y-86114226D01*
X121585826Y-86241737D01*
X121585823Y-86241738D01*
X121400241Y-86400241D01*
X121241738Y-86585823D01*
X121241737Y-86585826D01*
X121114222Y-86793910D01*
X121020830Y-87019380D01*
X120963853Y-87256702D01*
X120944706Y-87500000D01*
X119000538Y-87500000D01*
X119000575Y-87498486D01*
X119003982Y-87429117D01*
X119007995Y-87347421D01*
X119018164Y-87153388D01*
X119018744Y-87147594D01*
X119043858Y-86978287D01*
X119071717Y-86802396D01*
X119072801Y-86797083D01*
X119115210Y-86627776D01*
X119160529Y-86458644D01*
X119162013Y-86453891D01*
X119221338Y-86288089D01*
X119283668Y-86125717D01*
X119285492Y-86121455D01*
X119288911Y-86114226D01*
X119361145Y-85961499D01*
X119439877Y-85806982D01*
X119441915Y-85803299D01*
X119533192Y-85651013D01*
X119627560Y-85505701D01*
X119629724Y-85502586D01*
X119735718Y-85359670D01*
X119844785Y-85224983D01*
X119846970Y-85222434D01*
X119965703Y-85091433D01*
X119967717Y-85089318D01*
X120089318Y-84967717D01*
X120091433Y-84965703D01*
X120222434Y-84846970D01*
X120224983Y-84844785D01*
X120359656Y-84735728D01*
X120502586Y-84629724D01*
X120505701Y-84627560D01*
X120651013Y-84533192D01*
X120803299Y-84441915D01*
X120806982Y-84439877D01*
X120961499Y-84361145D01*
X121121462Y-84285488D01*
X121125717Y-84283668D01*
X121288089Y-84221338D01*
X121453891Y-84162013D01*
X121458644Y-84160529D01*
X121627776Y-84115210D01*
X121797083Y-84072801D01*
X121802396Y-84071717D01*
X121978287Y-84043858D01*
X122147594Y-84018744D01*
X122153388Y-84018164D01*
X122347421Y-84007995D01*
X122445332Y-84003185D01*
X122498487Y-84000575D01*
X122501529Y-84000500D01*
X175498471Y-84000500D01*
X175501513Y-84000575D01*
G37*
%TD.AperFunction*%
%TD*%
M02*
